<svg width="21" height="20" viewBox="0 0 21 20" fill="none" xmlns="http://www.w3.org/2000/svg">
<g clip-path="url(#clip0_37_9672)">
<path d="M20.0599 4.5283C20.0599 4.46872 20.0599 4.40914 20.0599 4.36941C19.8414 2.74081 18.4313 1.48957 16.8226 1.54916C16.7034 1.54916 16.6041 1.54916 16.4849 1.54916C16.3459 1.54916 16.2267 1.54916 16.0877 1.54916C16.0083 1.54916 15.9884 1.54916 15.9884 1.52929C15.9884 1.52929 15.9686 1.50943 15.9686 1.41013C15.9686 1.33069 15.9686 1.25124 15.9686 1.1718C15.9686 1.11221 15.9686 1.05263 15.9686 0.993049C16.0083 0.536246 15.8097 0.19861 15.3529 0C15.333 0 15.333 0 15.3131 0H14.8563C14.8365 0 14.8365 0 14.8166 0C14.3797 0.19861 14.1612 0.536246 14.2009 0.993049C14.2009 1.05263 14.2009 1.13208 14.2009 1.19166C14.2009 1.2711 14.2009 1.35055 14.2009 1.42999C14.2009 1.48957 14.2009 1.50943 14.2009 1.50943C14.2009 1.50943 14.1811 1.52929 14.1016 1.52929C13.4661 1.52929 12.8305 1.52929 12.195 1.52929H11.5594C11.4998 1.52929 11.4601 1.52929 11.4005 1.52929C11.2615 1.52929 11.1423 1.52929 11.0033 1.52929C10.9239 1.52929 10.904 1.52929 10.904 1.50943C10.904 1.50943 10.8841 1.48957 10.904 1.41013C10.904 1.33069 10.904 1.25124 10.904 1.1718C10.904 1.11221 10.904 1.05263 10.904 0.993049C10.9239 0.536246 10.7253 0.19861 10.2685 0C10.2486 0 10.2486 0 10.2287 0H9.77193C9.75207 0 9.75207 0 9.73221 0C9.29527 0.19861 9.07679 0.536246 9.11652 0.993049C9.11652 1.05263 9.11652 1.13208 9.11652 1.21152C9.11652 1.29096 9.11652 1.37041 9.11652 1.44985C9.11652 1.50943 9.11652 1.52929 9.11652 1.52929C9.11652 1.52929 9.09666 1.54916 9.01721 1.54916C8.3618 1.54916 7.72625 1.54916 7.07084 1.54916H6.41542C6.3757 1.54916 6.33598 1.54916 6.29626 1.54916C6.19695 1.54916 6.07779 1.54916 5.97848 1.54916C5.89904 1.54916 5.87918 1.54916 5.87918 1.52929C5.87918 1.52929 5.85932 1.50943 5.87918 1.42999C5.87918 1.35055 5.87918 1.2711 5.87918 1.19166C5.87918 1.13208 5.87918 1.07249 5.87918 1.01291C5.9189 0.556107 5.70043 0.218471 5.26349 0.019861C5.24363 0.019861 5.24363 0.019861 5.22377 0.019861H4.82655C4.80669 0.019861 4.80669 0.019861 4.78682 0.019861C4.33002 0.218471 4.11155 0.556107 4.15127 1.03277C4.15127 1.11221 4.15127 1.21152 4.15127 1.29096C4.15127 1.35055 4.15127 1.41013 4.15127 1.48957C4.15127 1.52929 4.15127 1.52929 4.15127 1.52929C4.15127 1.52929 4.13141 1.52929 4.09169 1.52929C3.99239 1.52929 3.87322 1.52929 3.77391 1.52929C3.63489 1.52929 3.49586 1.52929 3.35683 1.52929C1.7481 1.46971 0.318105 2.60179 0.0201907 4.1708C0.0201907 4.19067 0.0201907 4.19067 0.000329724 4.21053C0.000329724 4.23039 0.000329724 4.23039 -0.0195312 4.25025V4.27011V17.2592V17.279C0.000329724 17.3386 0.0201907 17.4181 0.0400517 17.4777C0.0599127 17.5372 0.0797736 17.6167 0.0996346 17.6763C0.457132 18.9474 1.76796 19.9801 3.05892 19.9801C4.09169 19.9801 5.14432 19.9801 6.17709 19.9801C6.69348 19.9801 7.22972 19.9801 7.74611 19.9801H9.31513C9.6329 19.9801 9.87123 19.8411 10.05 19.5829C10.2486 19.3049 10.2685 18.9871 10.1096 18.6892C9.95068 18.3714 9.67262 18.2125 9.29527 18.2125H7.32903C6.0182 18.2125 4.70738 18.2125 3.41642 18.2125C2.95961 18.2125 2.60212 18.1132 2.32406 17.8947C1.94671 17.5968 1.76796 17.1797 1.76796 16.6435C1.76796 16.1271 1.76796 15.6107 1.76796 15.0943V4.90566C1.76796 4.11122 2.14531 3.55511 2.84045 3.37637C3.13836 3.29692 3.45614 3.29692 3.77391 3.31678C3.87322 3.31678 3.95266 3.31678 4.05197 3.31678C4.05197 3.31678 4.05197 3.33664 4.05197 3.37637V3.59484C4.05197 3.73386 4.05197 3.87289 4.05197 4.01192C4.07183 4.48858 4.44919 4.86594 4.94571 4.86594C5.44224 4.86594 5.81959 4.48858 5.81959 4.01192C5.81959 3.81331 5.81959 3.59484 5.81959 3.39623C5.81959 3.3565 5.81959 3.33664 5.81959 3.33664C5.81959 3.33664 5.83946 3.33664 5.87918 3.33664C6.91195 3.33664 7.96458 3.33664 8.99735 3.33664C9.05693 3.33664 9.07679 3.3565 9.07679 3.3565C9.07679 3.3565 9.07679 3.37637 9.07679 3.43595C9.07679 3.63456 9.07679 3.85303 9.07679 4.05164C9.09666 4.5283 9.47401 4.8858 9.95068 4.8858C10.4472 4.8858 10.8246 4.5283 10.8444 4.03178C10.8444 3.81331 10.8444 3.6147 10.8444 3.39623C10.8444 3.3565 10.8444 3.3565 10.8444 3.3565C10.8444 3.3565 10.8643 3.3565 10.904 3.3565C11.9566 3.3565 13.0291 3.3565 14.0818 3.3565C14.1215 3.3565 14.1413 3.3565 14.1413 3.3565C14.1413 3.3565 14.1413 3.37637 14.1413 3.41609C14.1413 3.63456 14.1413 3.83317 14.1413 4.05164C14.1612 4.50844 14.5386 4.8858 15.0351 4.8858C15.5117 4.8858 15.909 4.50844 15.909 4.05164C15.909 3.85303 15.909 3.63456 15.909 3.43595C15.909 3.37637 15.909 3.3565 15.909 3.3565C15.909 3.3565 15.9288 3.3565 15.9686 3.3565C16.1076 3.3565 16.2267 3.3565 16.3658 3.3565C16.5644 3.3565 16.763 3.3565 16.9417 3.37637C17.5376 3.45581 17.9348 3.77358 18.1334 4.34955C18.2128 4.54816 18.2128 4.76663 18.2128 4.9851V9.11619V9.15591C18.2128 9.25521 18.2128 9.35452 18.2526 9.45382C18.3916 9.8709 18.7888 10.1291 19.2456 10.0695C19.6627 10.0099 19.9805 9.63257 19.9805 9.21549C19.9805 8.18272 19.9805 7.14995 19.9805 6.11718L20.0599 4.5283Z" fill="#3A506B"/>
<path d="M15.2933 10.3674C15.2536 10.3674 15.2338 10.3674 15.194 10.3674C13.9428 10.3674 12.771 10.864 11.8773 11.7577C10.9637 12.6713 10.4473 13.8828 10.4473 15.1539C10.4473 17.7954 12.5923 19.9404 15.2338 19.9603C16.5049 19.9603 17.7164 19.4638 18.63 18.5502C19.5436 17.6365 20.0401 16.4449 20.0401 15.1738C20.0401 13.9027 19.5237 12.6912 18.6101 11.7776C17.6965 10.8441 16.5247 10.3674 15.2933 10.3674ZM18.2526 15.1738C18.2328 16.8421 16.9219 18.1529 15.2735 18.1529C15.2536 18.1529 15.2536 18.1529 15.2338 18.1529C14.3996 18.1331 13.6449 17.8153 13.0888 17.2592C12.5327 16.6832 12.2348 15.9086 12.2348 15.1341C12.2546 13.4657 13.5853 12.1549 15.2536 12.1549C16.9617 12.1946 18.2725 13.5253 18.2526 15.1738Z" fill="#3A506B"/>
<path d="M4.94615 9.03667C5.46253 9.03667 5.83989 8.65931 5.83989 8.14293C5.83989 7.6464 5.46253 7.26904 4.96601 7.26904C4.44962 7.26904 4.07227 7.6464 4.07227 8.16279C4.07227 8.65931 4.46949 9.03667 4.94615 9.03667Z" fill="#3A506B"/>
<path d="M8.34232 7.26904C8.10398 7.26904 7.86565 7.34849 7.6869 7.52724C7.52802 7.68612 7.42871 7.90459 7.42871 8.16279C7.42871 8.65931 7.80607 9.05653 8.30259 9.05653C8.30259 9.05653 8.30259 9.05653 8.32245 9.05653C8.56079 9.05653 8.79912 8.97709 8.95801 8.79834C9.11689 8.63945 9.2162 8.42098 9.2162 8.16279C9.2162 7.66626 8.83884 7.26904 8.34232 7.26904Z" fill="#3A506B"/>
<path d="M12.5726 8.16279C12.5726 7.92446 12.4932 7.68612 12.3145 7.52724C12.1556 7.36835 11.9172 7.26904 11.6789 7.26904C11.1824 7.26904 10.805 7.6464 10.7852 8.14293C10.7852 8.38126 10.8646 8.61959 11.0433 8.77848C11.2022 8.93737 11.4406 9.03667 11.6789 9.03667C12.1754 9.03667 12.5726 8.65931 12.5726 8.16279Z" fill="#3A506B"/>
<path d="M15.9288 8.16294C15.9288 7.66642 15.5514 7.28906 15.0549 7.28906C14.5385 7.28906 14.1611 7.66642 14.1611 8.18281C14.1611 8.67933 14.5385 9.05669 15.035 9.05669C15.5514 9.03683 15.9288 8.65947 15.9288 8.16294Z" fill="#3A506B"/>
<path d="M5.60156 10.9037C5.44267 10.7448 5.2242 10.6455 4.98587 10.6455C4.74754 10.6455 4.48935 10.725 4.33046 10.8838C4.17157 11.0427 4.07227 11.2612 4.07227 11.4995C4.07227 12.0159 4.42976 12.3933 4.92629 12.4131H4.94615C5.44267 12.4131 5.82003 12.0556 5.83989 11.579C5.85975 11.3009 5.78031 11.0626 5.60156 10.9037Z" fill="#3A506B"/>
<path d="M8.34199 10.6257C7.8256 10.6257 7.44824 11.0031 7.44824 11.5195C7.44824 12.016 7.8256 12.3934 8.32213 12.3934C8.83851 12.3934 9.21587 12.016 9.21587 11.4996C9.21587 11.023 8.81865 10.6257 8.34199 10.6257Z" fill="#3A506B"/>
<path d="M4.07227 14.8561C4.07227 15.3724 4.44962 15.7498 4.94615 15.7498C5.18448 15.7498 5.40295 15.6704 5.56184 15.4916C5.72073 15.3327 5.82003 15.1143 5.82003 14.8759C5.82003 14.3595 5.44267 13.9822 4.94615 13.9822C4.46949 14.002 4.07227 14.3595 4.07227 14.8561Z" fill="#3A506B"/>
<path d="M8.32245 14.002C8.08412 14.002 7.86565 14.0814 7.6869 14.2403C7.52802 14.3992 7.42871 14.6375 7.42871 14.8758C7.42871 15.3724 7.80607 15.7497 8.30259 15.7497C8.54093 15.7497 8.7594 15.6703 8.91828 15.5114C9.07717 15.3525 9.17648 15.1142 9.17648 14.8758C9.19634 14.3793 8.81898 14.002 8.32245 14.002Z" fill="#3A506B"/>
<path d="M14.3594 13.5254C14.3594 13.7042 14.3594 13.8829 14.3594 14.0617V14.3397V14.5383C14.3594 14.7568 14.3594 14.9554 14.3594 15.1739C14.3594 15.6505 14.7367 16.0279 15.2134 16.0279C15.412 16.0279 15.6106 16.0279 15.8092 16.0279C16.0078 16.0279 16.2064 16.0279 16.4051 16.0279C16.842 16.0279 17.2194 15.6704 17.2591 15.2533C17.2988 14.7767 17.0009 14.3397 16.5639 14.2603C16.4646 14.2404 16.3455 14.2404 16.2263 14.2404C16.1469 14.2404 16.127 14.2404 16.127 14.2404C16.127 14.2404 16.1071 14.2205 16.127 14.161C16.127 13.9425 16.127 13.7439 16.127 13.5254C16.1071 13.0487 15.7298 12.6714 15.2333 12.6714C14.7566 12.6714 14.3594 13.0487 14.3594 13.5254Z" fill="#3A506B"/>
</g>
<defs>
<clipPath id="clip0_37_9672">
<rect width="20.0596" height="20" fill="white"/>
</clipPath>
</defs>
</svg>
