<svg width="26" height="26" viewBox="0 0 26 26" fill="none" xmlns="http://www.w3.org/2000/svg">
<path d="M2.14557 25.3714C1.95552 25.3714 1.76547 25.3714 1.57542 25.3714C0.896672 24.9913 0.760923 24.6112 1.00527 23.8781C1.46682 22.4663 1.90122 21.0545 2.36277 19.6699C2.47137 19.3169 2.44422 19.0726 2.28132 18.7468C0.950972 16.1947 0.570873 13.5068 1.11387 10.7104C2.38992 4.05864 8.74301 -0.33965 15.3947 0.909248C20.2817 1.83235 23.4854 4.79169 25.0601 9.51578C25.3316 10.3303 25.4402 11.1719 25.5488 12.0407C25.5488 12.7195 25.5488 13.3982 25.5488 14.0498C25.4945 14.4299 25.4674 14.8372 25.3859 15.2173C24.3542 20.1314 21.422 23.3623 16.6436 24.9098C15.8563 25.1542 15.0418 25.2628 14.2273 25.3714C13.5485 25.3714 12.8698 25.3714 12.2182 25.3714C11.9467 25.3442 11.7024 25.2899 11.4309 25.2628C9.96476 25.0456 8.58011 24.584 7.30406 23.8781C7.16831 23.7967 7.03256 23.7967 6.86966 23.851C6.46241 23.9867 6.05516 24.1225 5.64791 24.2311C4.48047 24.6112 3.31302 24.9913 2.14557 25.3714ZM23.594 13.0453C23.5669 12.7466 23.5669 12.4208 23.5397 12.095C23.5397 11.9321 23.5126 11.7692 23.4854 11.6063C23.051 8.75558 21.6935 6.39354 19.3315 4.68309C16.5079 2.6197 13.3585 2.15815 10.0462 3.18984C7.79276 3.86859 6.00086 5.28039 4.67052 7.20804C3.15012 9.40718 2.60712 11.8507 2.96007 14.5114C3.15012 15.9232 3.61167 17.2264 4.34472 18.421C4.56192 18.7739 4.58907 19.1269 4.48047 19.5341C4.15467 20.5387 3.82887 21.5704 3.50307 22.5749C3.47592 22.6564 3.39447 22.7378 3.47592 22.8193C3.53022 22.8736 3.63882 22.8193 3.69312 22.7921C4.67052 22.4663 5.67506 22.1677 6.65246 21.8419C7.11401 21.679 7.52126 21.7333 7.95566 21.9776C9.96476 23.1722 12.1368 23.6066 14.4445 23.3623C16.4807 23.1451 18.2726 22.3577 19.8202 21.0545C22.2637 18.9368 23.5397 16.2761 23.594 13.0453Z" fill="#00AEEF"/>
<path d="M9.64076 13.045C9.64076 13.7238 9.09776 14.2668 8.41901 14.2396C7.74026 14.2396 7.19727 13.6966 7.19727 12.9907C7.19727 12.312 7.74026 11.7961 8.44616 11.7961C9.09776 11.8233 9.64076 12.3663 9.64076 13.045Z" fill="#00AEEF"/>
<path d="M13.2509 11.823C13.9296 11.823 14.4726 12.366 14.4454 13.0447C14.4454 13.7235 13.9025 14.2665 13.1966 14.2665C12.5178 14.2665 12.002 13.7235 12.002 13.0176C12.002 12.3388 12.545 11.823 13.2509 11.823Z" fill="#00AEEF"/>
<path d="M18.0284 14.2665C17.3496 14.2665 16.8066 13.7235 16.8066 13.0447C16.8066 12.366 17.3496 11.823 18.0555 11.823C18.7343 11.823 19.2501 12.366 19.2501 13.0719C19.2501 13.7235 18.7071 14.2665 18.0284 14.2665Z" fill="#00AEEF"/>
</svg>
