<svg width="34" height="34" viewBox="0 0 34 34" fill="none" xmlns="http://www.w3.org/2000/svg">
<path d="M23.364 10.636L24.3635 10.6683L24.3979 9.60216L23.3318 9.63655L23.364 10.636ZM18.4142 14.1716C18.0237 14.5621 18.0237 15.1953 18.4142 15.5858C18.8048 15.9763 19.4379 15.9763 19.8285 15.5858L18.4142 14.1716ZM24.2221 15.0523L24.3635 10.6683L22.3645 10.6038L22.2231 14.9879L24.2221 15.0523ZM23.3318 9.63655L18.9477 9.77797L19.0122 11.7769L23.3962 11.6355L23.3318 9.63655ZM22.6569 9.92892L18.4142 14.1716L19.8285 15.5858L24.0711 11.3431L22.6569 9.92892Z" fill="#273B4A"/>
<path d="M10.636 23.364L10.6682 24.3634L9.6021 24.3978L9.63649 23.3317L10.636 23.364ZM14.1715 18.4142C14.562 18.0237 15.1952 18.0237 15.5857 18.4142C15.9762 18.8047 15.9762 19.4379 15.5857 19.8284L14.1715 18.4142ZM15.0523 24.222L10.6682 24.3634L10.6037 22.3645L14.9878 22.2231L15.0523 24.222ZM9.63649 23.3317L9.77791 18.9477L11.7769 19.0121L11.6354 23.3962L9.63649 23.3317ZM9.92886 22.6569L14.1715 18.4142L15.5857 19.8284L11.3431 24.0711L9.92886 22.6569Z" fill="#273B4A"/>
</svg>
