<svg width="20" height="22" viewBox="0 0 20 22" fill="none" xmlns="http://www.w3.org/2000/svg">
<path d="M19.2759 7.1977C18.9864 6.94951 18.6555 6.68063 18.3245 6.41176C18.3039 6.39108 18.3039 6.39108 18.3039 6.39108C18.3039 6.39108 18.3039 6.3704 18.3039 6.34971C18.3039 5.5431 18.3039 4.75716 18.3039 3.92986C18.3039 2.79232 17.4145 1.92365 16.277 1.92365H12.9264C12.885 1.92365 12.885 1.92365 12.8644 1.90297C12.3266 1.44796 11.7475 0.972258 11.0857 0.434512C10.4031 -0.144598 9.57583 -0.144598 8.89331 0.41383C8.39693 0.806798 7.94191 1.19977 7.50758 1.55137L7.11461 1.88229C7.09393 1.90297 7.09393 1.90297 7.05257 1.90297C6.28731 1.90297 5.50138 1.90297 4.75681 1.90297C4.38452 1.90297 4.03292 1.90297 3.68131 1.90297C3.08152 1.90297 2.56446 2.15116 2.15081 2.64754C1.73716 3.14392 1.69579 3.70235 1.69579 4.07464V6.34971C1.69579 6.3704 1.69579 6.39108 1.69579 6.39108C1.46828 6.57722 1.22009 6.78405 0.909856 7.03224L0.785761 7.13565C0.289381 7.5493 0.0205078 8.10773 0.0205078 8.74889C0.0205078 10.6724 0.0205078 12.5131 0.0205078 14.2711C0.0205078 16.1325 0.0205078 17.9112 0.0205078 19.6486C0.0205078 20.3311 0.330746 20.8068 0.951221 21.055C0.971904 21.0964 1.03395 21.0964 1.07532 21.0964H18.945C18.9864 21.0964 19.0484 21.0964 19.1105 21.0757C19.7103 20.8275 20.0205 20.3311 20.0205 19.6693V8.7282C19.9998 8.12841 19.7516 7.61135 19.2759 7.1977ZM9.43106 1.79956C9.59652 1.67546 9.74129 1.55137 9.88607 1.42727C9.98948 1.34454 10.0102 1.38591 10.0308 1.38591C10.217 1.51 10.3825 1.65478 10.5686 1.79956H9.43106ZM1.48897 14.2918V10.0105C2.23354 10.5689 2.95743 11.1481 3.702 11.7065C4.69476 12.4717 5.7082 13.2577 6.70096 14.0022C5.72889 14.8916 4.75681 15.7809 3.78473 16.6289L2.10944 18.1181C1.94398 18.2628 1.75784 18.4283 1.61306 18.5731V14.4986C1.61306 14.4159 1.55101 14.3332 1.48897 14.2918ZM17.1663 9.18322C16.0701 10.0519 14.9947 10.8999 13.8985 11.7685C12.6782 12.7406 11.4579 13.692 10.217 14.6641C10.0309 14.8089 9.98948 14.8089 9.80334 14.6641L2.8747 9.18322C3.06084 9.05912 3.20562 8.87298 3.2263 8.60411V8.58343V3.99191C3.2263 3.53689 3.41244 3.33007 3.88814 3.33007H16.1322C16.6286 3.33007 16.8147 3.51621 16.8147 4.03327V8.58343C16.8354 8.8523 16.9802 9.05912 17.1663 9.18322ZM2.68855 19.6486L3.95019 18.5317C4.81885 17.7458 5.72888 16.9598 6.61823 16.1532L7.85918 15.0571L7.98328 15.1605C8.14874 15.3052 8.3142 15.4293 8.47966 15.5534L8.87263 15.8637C9.59652 16.4428 10.3825 16.4428 11.1063 15.8844L11.3752 15.6568C11.6027 15.4707 11.8716 15.2639 12.1198 15.0571C12.823 15.6982 13.5469 16.3394 14.2708 16.9599C14.6637 17.2908 15.036 17.6424 15.4083 17.9733L16.277 18.7385C16.5252 18.9454 16.7527 19.1729 17.0009 19.3797C17.1043 19.4831 17.2077 19.5658 17.3111 19.6693H2.66787C2.66787 19.6693 2.68855 19.6693 2.68855 19.6486ZM18.4693 18.6972L15.9461 16.4428C15.0567 15.6569 14.1674 14.8709 13.2987 14.085C14.7258 12.9681 16.1736 11.8306 17.58 10.7344L18.49 10.0312L18.4693 18.6972ZM18.2832 8.29387C18.2832 8.27319 18.2832 8.27319 18.2832 8.25251L18.3039 8.27319C18.3039 8.29387 18.2832 8.29387 18.2832 8.29387Z" fill="#fff"/>
<path d="M13.2991 6.65988H11.4791C11.355 6.26692 11.2309 5.87395 11.1068 5.48098L10.9 4.83982C10.7138 4.28139 10.3829 4.11593 10.114 4.05389C10.0933 4.0332 10.052 4.0332 10.0106 4.0332H9.88651C9.84515 4.0332 9.80378 4.05389 9.7831 4.05389C9.53491 4.11593 9.22467 4.30208 9.05921 4.81914L8.97648 5.10869C8.83171 5.58439 8.66625 6.06009 8.52147 6.53579C8.35601 6.53579 8.08714 6.57715 7.90099 6.65988H6.78414C6.28776 6.55647 5.91547 6.74261 5.77069 7.17695C5.68796 7.38377 5.58455 7.88015 6.18434 8.31449L6.32912 8.4179C6.74277 8.72814 7.1771 9.03837 7.61144 9.34861C7.50802 9.65885 7.40461 9.98977 7.3012 10.3L7.21847 10.5689C7.1771 10.7343 7.11506 10.8791 7.07369 11.0446C7.03233 11.1687 6.9496 11.3755 7.01164 11.6237C7.07369 11.9546 7.3012 12.2028 7.59075 12.3269C7.90099 12.451 8.2526 12.4096 8.56283 12.1821C9.20399 11.7271 9.63832 11.3962 10.052 11.1066C10.5484 11.4789 11.0654 11.8512 11.5204 12.1821C11.7066 12.3269 11.9134 12.3889 12.1409 12.3889C12.4098 12.3889 12.658 12.2648 12.8441 12.058C13.0716 11.7891 13.1337 11.4582 13.0096 11.0653C12.9889 10.9825 12.9682 10.9205 12.9475 10.8378C12.9268 10.7343 12.8855 10.6516 12.8648 10.5482C12.8028 10.3621 12.7407 10.0518 12.6787 9.76226C12.6373 9.5968 12.6166 9.43134 12.5752 9.26588C12.8855 9.03837 13.1957 8.83155 13.4853 8.60404L13.9403 8.27312C14.3333 7.98356 14.478 7.56991 14.3333 7.15626C14.1058 6.74261 13.4439 6.68057 13.2991 6.65988ZM10.9 9.61748C10.962 9.78294 11.0034 9.9484 11.0654 10.1345C11.0447 10.1139 11.0241 10.0932 10.9827 10.0725C10.9413 10.0518 10.9206 10.0105 10.8793 9.98977L10.6311 9.80363C10.4036 9.63817 10.1968 9.55544 9.96924 9.55544C9.76242 9.55544 9.53491 9.63817 9.3074 9.82431C9.18331 9.92772 9.03853 10.0105 8.91444 10.1139L9.0799 9.61748C9.24536 9.10042 9.12126 8.72814 8.68693 8.39721C8.54215 8.2938 8.41806 8.19039 8.27328 8.08698H8.79034C9.34877 8.08698 9.65901 7.83879 9.82447 7.30104C9.86583 7.15626 9.9072 7.03217 9.94856 6.88739C9.94856 6.86671 9.96924 6.82534 9.96924 6.80466C9.96924 6.80466 9.96924 6.80466 9.96924 6.82534C10.0313 6.9908 10.0727 7.15626 10.1347 7.30104C10.3208 7.83879 10.6311 8.06629 11.2102 8.08698H11.7273C11.6859 8.12834 11.6238 8.14902 11.5825 8.19039L11.3136 8.37653C10.8586 8.70745 10.7345 9.07974 10.9 9.61748Z" fill="#fff"/>
</svg>
