<svg width="29" height="26" viewBox="0 0 29 26" fill="none" xmlns="http://www.w3.org/2000/svg">
<g clip-path="url(#clip0_37_13013)">
<path d="M28.3383 8.4565C28.3112 8.37524 28.3112 8.2669 28.2841 8.18564C28.257 7.99604 28.2028 7.80644 28.1757 7.61684C27.7965 5.63959 26.8756 4.04155 25.4672 2.87686C23.7066 1.44133 21.6752 0.926702 19.4271 1.3059C17.6936 1.60384 16.231 2.55184 14.9309 4.14989C14.8767 4.20406 14.8496 4.25823 14.8225 4.28532C14.7955 4.25823 14.7413 4.20406 14.7142 4.14989C13.0078 2.03721 11.0035 1.06213 8.51161 1.17047C6.99481 1.25173 5.64053 1.73927 4.47585 2.63309C2.57986 4.06863 1.52352 6.10005 1.30684 8.6461C1.11724 10.6504 1.63187 12.6548 2.85072 14.5237C3.93414 16.2301 5.34259 17.6114 6.58853 18.749C8.21366 20.2387 9.92006 21.7014 11.5723 23.1098C12.2494 23.7057 12.9266 24.2745 13.6308 24.8704C14.01 25.1954 14.4163 25.3579 14.8225 25.3579C15.2559 25.3579 15.6622 25.1954 16.0414 24.8433C16.4748 24.4641 16.9081 24.112 17.3144 23.7599C18.2895 22.9202 19.2917 22.0535 20.2668 21.2138L20.4293 21.0784C22.0815 19.6428 23.7879 18.1802 25.2505 16.528C26.6048 14.9841 27.4715 13.5757 27.932 12.086C28.0945 11.5984 28.1757 11.1109 28.257 10.6233C28.2841 10.515 28.3112 10.4067 28.3112 10.3254L28.3383 8.4565ZM24.7088 14.2528C23.4358 15.9592 21.8648 17.3677 20.4834 18.5865C19.5084 19.4532 18.4791 20.32 17.5311 21.1596C16.6644 21.891 15.7976 22.6493 14.958 23.3807C14.8496 23.4619 14.8496 23.4619 14.7413 23.3536C14.01 22.7035 13.2787 22.0805 12.5474 21.4576C11.166 20.2658 9.73046 19.047 8.34909 17.801C7.04898 16.6363 5.6947 15.3092 4.61128 13.7111C3.66329 12.3027 3.20283 10.8942 3.22992 9.48575C3.257 6.96679 4.205 5.12497 6.0739 3.9332C6.8323 3.44566 7.67195 3.20189 8.56578 3.14772C8.67412 3.14772 8.78246 3.12063 8.83663 3.12063H8.8908C10.218 3.14772 11.3556 3.554 12.3307 4.36657C12.8995 4.85411 13.387 5.45 13.8475 6.18131C14.1183 6.58759 14.4163 6.80428 14.7955 6.80428C15.2288 6.83136 15.5809 6.64176 15.8518 6.26256C16.1497 5.82919 16.4477 5.39582 16.7998 4.98954C17.9374 3.7436 19.2646 3.09355 20.7543 3.12063C22.867 3.14772 24.4921 4.06863 25.6026 5.91045C26.1172 6.77719 26.4152 7.77936 26.4964 8.97112C26.6048 10.7859 26.0089 12.5193 24.7088 14.2528Z" fill="white"/>
<path d="M14.7951 25.7642C14.2804 25.7642 13.7929 25.5746 13.3324 25.1683C12.9803 24.8703 12.6553 24.5724 12.3032 24.3015C11.9511 24.0036 11.626 23.7327 11.2739 23.4348L11.0843 23.2452C9.51337 21.8909 7.88823 20.4825 6.31727 19.0469C5.07133 17.8822 3.63579 16.4738 2.52528 14.7403C1.25226 12.7902 0.710549 10.7317 0.900148 8.61898C1.11683 5.9375 2.25443 3.82483 4.23168 2.30803C5.45053 1.36004 6.88606 0.845411 8.48411 0.764155C11.0031 0.628727 13.0887 1.57672 14.8221 3.63523C16.1493 2.09135 17.639 1.19752 19.3725 0.899583C21.7561 0.493299 23.8958 1.0621 25.7376 2.5518C27.2273 3.79774 28.2024 5.47705 28.6087 7.53555C28.6358 7.61681 28.6358 7.69807 28.6629 7.77932C28.69 7.88766 28.69 7.99601 28.717 8.10435L28.7441 8.34812C28.7441 8.40229 28.7441 8.45646 28.7441 8.51063V10.2712C28.7441 10.2983 28.7441 10.2983 28.7441 10.3254C28.7441 10.3795 28.717 10.4337 28.717 10.4879C28.717 10.5421 28.69 10.5691 28.69 10.6233C28.6087 11.1109 28.5004 11.6255 28.3379 12.1401C27.8503 13.684 26.9565 15.1466 25.5751 16.7447C24.1667 18.3698 22.5144 19.7782 20.9435 21.1596L20.5643 21.4846C20.0767 21.918 19.5892 22.3243 19.0746 22.7577C18.587 23.191 18.0995 23.5973 17.612 24.0307C17.1786 24.3828 16.7452 24.762 16.3389 25.1141C15.8243 25.5475 15.3368 25.7642 14.7951 25.7642ZM8.91748 1.57672C8.78205 1.57672 8.67371 1.57672 8.53828 1.57672C7.10275 1.63089 5.82973 2.09135 4.71922 2.931C2.93157 4.28528 1.90231 6.23544 1.71272 8.67315C1.52312 10.5962 2.03774 12.4922 3.20242 14.307C4.28585 15.9863 5.66721 17.3405 6.85898 18.451C8.42994 19.8866 10.0551 21.2679 11.626 22.6222L11.8156 22.7847C12.1678 23.0827 12.4928 23.3535 12.8449 23.6515C13.197 23.9494 13.522 24.2474 13.8741 24.5453C14.4971 25.087 15.1472 25.0599 15.7701 24.5453C16.2035 24.1661 16.6369 23.814 17.0702 23.4348C17.5578 23.0285 18.0453 22.5951 18.5329 22.1618C19.0204 21.7284 19.535 21.3221 20.0226 20.8887L20.4018 20.5637C21.9727 19.2094 23.5708 17.801 24.9522 16.23C26.2793 14.7403 27.119 13.359 27.5524 11.9234C27.6878 11.463 27.7961 10.9754 27.8774 10.515C27.8774 10.4608 27.9045 10.4066 27.9045 10.3525C27.9045 10.3254 27.9045 10.2712 27.9316 10.2441V8.40229C27.9316 8.37521 27.9316 8.37521 27.9316 8.34812L27.9045 8.18561C27.8774 8.07726 27.8774 7.96892 27.8503 7.88766C27.8232 7.80641 27.8232 7.72515 27.7961 7.64389C27.4169 5.80207 26.5502 4.28528 25.1959 3.14769C23.5437 1.79341 21.6206 1.30587 19.4809 1.65798C17.8557 1.92884 16.4744 2.82266 15.2284 4.36654L15.2013 4.39362C15.1743 4.42071 15.1743 4.42071 15.1472 4.44779C15.1201 4.47488 15.093 4.50197 15.093 4.52905C14.9305 4.69157 14.6867 4.69157 14.5242 4.52905C14.4971 4.50197 14.4429 4.42071 14.3888 4.33945C12.872 2.49763 11.0843 1.57672 8.91748 1.57672ZM14.8492 23.8411C14.6867 23.8411 14.5784 23.7598 14.47 23.6786C14.0637 23.3265 13.6845 23.0014 13.2783 22.6493C12.9262 22.3514 12.6011 22.0534 12.249 21.7826L11.4094 21.0242C10.3259 20.0762 9.18834 19.1011 8.07783 18.0989C6.83189 16.9884 5.39636 15.6071 4.25876 13.9278C3.28368 12.4651 2.79614 11.0025 2.79614 9.48572C2.82322 6.80424 3.82539 4.88116 5.82973 3.58106C6.64229 3.06643 7.53612 2.76849 8.53828 2.7414C8.61954 2.7414 8.7008 2.7414 8.75497 2.71432C8.78205 2.71432 8.80914 2.71432 8.83623 2.71432H8.8904C10.3259 2.7414 11.5448 3.17477 12.574 4.0686C13.1699 4.58322 13.6845 5.20619 14.1721 5.96459C14.4159 6.34379 14.6596 6.39796 14.7951 6.39796C15.093 6.42504 15.3097 6.28961 15.4993 6.04584L15.5264 5.99167C15.7972 5.5583 16.0952 5.12493 16.4744 4.71865C17.6932 3.36437 19.1288 2.68723 20.7268 2.71432C22.9749 2.7414 24.7355 3.74357 25.9272 5.69373C26.496 6.64173 26.794 7.69807 26.8752 8.944C26.9836 10.8671 26.3606 12.6818 25.0063 14.4965C23.7604 16.2029 22.2165 17.6114 20.7539 18.8844C20.2393 19.3449 19.7246 19.7782 19.21 20.2387C18.7225 20.645 18.262 21.0513 17.8016 21.4575L17.7745 21.4846C16.9348 22.2159 16.0681 22.9473 15.2284 23.6786C15.093 23.7869 14.9576 23.8411 14.8492 23.8411ZM8.8904 3.52688C8.80914 3.55397 8.7008 3.55397 8.59246 3.55397C7.77989 3.58106 6.99441 3.82483 6.31727 4.2582C4.5567 5.39579 3.66288 7.10218 3.66288 9.48572C3.66288 10.84 4.09625 12.1401 4.99007 13.4673C6.0735 15.0653 7.45486 16.3925 8.67371 17.476C9.75714 18.451 10.8947 19.4261 12.0052 20.3741L12.872 21.1325C13.197 21.4305 13.5491 21.7284 13.8741 21.9993C14.2263 22.2972 14.5513 22.5951 14.9034 22.8931C15.6889 22.2159 16.4744 21.5388 17.2869 20.8346C17.7745 20.4012 18.2349 19.9949 18.7225 19.5886C19.2371 19.1553 19.7517 18.6948 20.2663 18.2344C21.6477 17.0155 23.1645 15.6612 24.3834 14.009C25.6022 12.3568 26.171 10.7317 26.0897 8.99817C26.0085 7.88766 25.7376 6.93967 25.2501 6.1271C24.2208 4.42071 22.704 3.55397 20.7539 3.52688C19.3996 3.52688 18.1537 4.09568 17.0973 5.26036C16.7723 5.63956 16.5014 6.04584 16.2306 6.42504L16.1764 6.47921C15.8243 6.99384 15.3368 7.23761 14.768 7.18344C14.2804 7.15635 13.8471 6.8855 13.4949 6.37087C13.0616 5.66665 12.6011 5.09785 12.0594 4.63739C11.1656 3.90608 10.1092 3.52688 8.8904 3.52688Z" fill="white"/>
</g>
<defs>
<clipPath id="clip0_37_13013">
<rect width="27.8982" height="25" fill="white" transform="translate(0.845703 0.76416)"/>
</clipPath>
</defs>
</svg>
