<svg width="13" height="20" viewBox="0 0 13 20" fill="none" xmlns="http://www.w3.org/2000/svg">
<path d="M12.0971 8.77665C11.9223 8.01936 11.3204 7.55334 10.4854 7.55334C9.43689 7.55334 8.38835 7.55334 7.35922 7.55334H6.07767H4.75728C3.72816 7.55334 2.69903 7.55334 1.6699 7.55334C1.1068 7.55334 0.621359 7.76694 0.330097 8.15529C0.0388349 8.54364 -0.0582525 9.02907 0.0970873 9.57276V9.70868C0.718447 12.0776 1.33981 14.5048 2 16.9126C2.46602 18.6407 4.01942 19.9029 5.74757 19.9999C5.84466 19.9999 5.92233 19.9999 6 19.9999C8 19.9999 9.61165 18.7766 10.1359 16.8155C10.6408 14.9708 11.1262 13.0873 11.6116 11.2621L12.0388 9.6116C12.1165 9.37859 12.1748 9.08733 12.0971 8.77665ZM9.90291 9.63101C9.59223 10.7961 9.28155 11.9611 8.97087 13.1262C8.69903 14.1553 8.42718 15.1844 8.15534 16.2135C7.98058 16.8737 7.59223 17.398 7.08738 17.6893C6.60194 17.9611 6.01942 18.0194 5.43689 17.8446C4.67961 17.631 4.19417 17.1067 3.98058 16.33C3.65049 15.0097 3.30097 13.7281 2.95146 12.4271C2.69903 11.4951 2.46602 10.5631 2.21359 9.6116C3.20388 9.6116 4.17476 9.6116 5.16505 9.6116H6.07767H7.02913C8 9.63101 8.95146 9.63101 9.90291 9.63101Z" fill="white"/>
<path d="M6.05825 6.64078C6.95145 6.64078 7.78641 6.29126 8.42718 5.65049C9.06796 5.00971 9.39806 4.17476 9.39806 3.30097C9.37864 1.47573 7.88349 0 6.05825 0C4.23301 0 2.73786 1.49515 2.73786 3.32039C2.73786 5.14563 4.21359 6.64078 6.05825 6.64078ZM7.32039 3.32039C7.32039 3.65049 7.18446 3.98058 6.93204 4.21359C6.69903 4.4466 6.36893 4.58252 6.05825 4.58252C5.37864 4.58252 4.81553 4.01942 4.81553 3.33981C4.81553 3.00971 4.93204 2.69903 5.18446 2.46602C5.41747 2.23301 5.74757 2.09709 6.07767 2.09709C6.40776 2.09709 6.73786 2.23301 6.97087 2.46602C7.18446 2.67961 7.32039 2.99029 7.32039 3.32039Z" fill="white"/>
</svg>
