<svg width="17" height="20" viewBox="0 0 17 20" fill="none" xmlns="http://www.w3.org/2000/svg">
<g clip-path="url(#clip0_37_9817)">
<path d="M3.58841 11.2548C4.62762 13.0587 5.94135 14.8431 7.66684 16.8823C7.88252 17.1372 8.15703 17.2744 8.43154 17.2744C8.70605 17.2744 8.98056 17.1372 9.19625 16.8823C10.1766 15.745 11.0198 14.6666 11.7649 13.5882C12.6668 12.3136 13.6668 10.7842 14.3727 9.05874C14.7061 8.25482 15.0002 7.35286 14.961 6.31364C14.961 6.15678 14.961 5.86266 14.9021 5.56854L14.8825 5.43129C14.6472 3.88227 13.9217 2.58815 12.7453 1.58815C11.2943 0.352859 9.58841 -0.176553 7.68645 0.0391337C5.98056 0.235212 4.5688 0.960702 3.49037 2.2156C2.09821 3.82345 1.60801 5.62737 2.03939 7.60776C2.3335 8.9607 2.96096 10.1568 3.58841 11.2548ZM4.70605 3.62737C5.5688 2.49011 6.98056 1.80384 8.45115 1.80384C10.7453 1.80384 12.7257 3.47051 13.0786 5.68619C13.2159 6.50972 13.0982 7.35286 12.7061 8.33325C12.1374 9.74502 11.3139 11.0391 10.51 12.2156C9.90213 13.098 9.23547 13.9999 8.45115 14.9607C7.25507 13.4901 5.74527 11.5097 4.60801 9.25482C4.3139 8.68619 3.96096 7.92149 3.8237 7.09796C3.60801 5.84305 3.90213 4.68619 4.70605 3.62737Z" fill="#3A506B"/>
<path d="M15.9022 14.5881C15.1375 13.941 14.2159 13.6273 13.412 13.3724C12.9218 13.2352 12.412 13.4704 12.2551 13.941C12.0983 14.4116 12.3532 14.9018 12.8434 15.0783C12.9218 15.0979 13.0002 15.1175 13.0591 15.1567C13.1767 15.1959 13.2747 15.2352 13.3924 15.2744C13.9022 15.4508 14.4316 15.6861 14.8434 16.0783C15.0394 16.2744 15.0591 16.392 14.863 16.6077C14.8042 16.6665 14.7257 16.745 14.6669 16.7842C14.2944 17.0587 13.8434 17.294 13.2159 17.4901C11.8826 17.941 10.3924 18.1371 8.4316 18.1763C7.84337 18.1763 7.25513 18.1371 6.68651 18.0979C5.4316 17.9999 4.35317 17.7646 3.39239 17.4116C2.90219 17.2352 2.39239 17.0195 2.00023 16.6273C1.90219 16.5293 1.84337 16.4312 1.84337 16.3528C1.84337 16.2744 1.90219 16.1763 2.01984 16.0587C2.33357 15.745 2.74533 15.5685 3.03945 15.4312C3.27474 15.3332 3.49043 15.2548 3.74533 15.1763C3.84337 15.1371 3.9218 15.1175 4.01984 15.0783C4.49043 14.9214 4.74533 14.4312 4.60808 13.9606C4.47082 13.5097 3.96102 13.2155 3.52964 13.3528C2.72572 13.5881 1.68651 13.941 0.804154 14.6861C0.29435 15.1175 0.000232371 15.6861 -0.0193755 16.2548C-0.0389833 16.8234 0.196311 17.4116 0.666899 17.8822C1.05906 18.2744 1.52964 18.5881 2.1767 18.8626C3.96102 19.6469 5.84337 19.843 7.27474 19.941C7.60808 19.9606 7.96102 19.9803 8.33357 19.9803C8.84337 19.9803 9.39239 19.9606 9.98063 19.9214C11.2944 19.8234 12.4512 19.6077 13.5296 19.294C14.51 19.0195 15.2159 18.6665 15.8042 18.2352C16.4904 17.7253 16.863 17.0979 16.863 16.4312C16.8826 15.7646 16.5493 15.1175 15.9022 14.5881Z" fill="#3A506B"/>
<path d="M8.41224 9.09788H8.43185C10.0005 9.07827 11.2358 7.88219 11.2358 6.37239C11.2358 4.88219 9.98087 3.6665 8.43185 3.6665C6.88283 3.6665 5.62793 4.88219 5.62793 6.35278C5.62793 7.07827 5.92205 7.76454 6.43185 8.29395C6.98087 8.80376 7.66715 9.09788 8.41224 9.09788ZM8.43185 5.45082C8.45146 5.45082 8.45146 5.45082 8.43185 5.45082C8.68675 5.45082 8.92205 5.54886 9.09852 5.72533C9.27499 5.9018 9.37303 6.13709 9.37303 6.39199C9.37303 6.88219 8.94166 7.29395 8.43185 7.29395C8.17695 7.29395 7.94165 7.19592 7.76518 7.01944C7.58871 6.84297 7.49067 6.60768 7.49067 6.37239C7.51028 5.84297 7.92205 5.45082 8.43185 5.45082Z" fill="#3A506B"/>
</g>
<defs>
<clipPath id="clip0_37_9817">
<rect width="16.8627" height="20" fill="white"/>
</clipPath>
</defs>
</svg>
