<svg width="127" height="100" viewBox="0 0 127 100" fill="none" xmlns="http://www.w3.org/2000/svg">
<g clip-path="url(#clip0_4_1161)">
<path d="M24.2364 73.2784C24.2364 65.9884 24.2148 58.7199 24.258 51.4299C24.258 50.3332 23.9127 50.0751 22.8552 50.0751C16.0136 50.1181 9.15049 50.0966 2.30894 50.0966C0.517625 50.0966 -0.000347101 49.6235 -0.000347101 47.8602C-0.000347101 38.4842 -0.0435114 29.1083 -0.000347101 19.7539C0.0428172 11.3672 6.36639 4.65782 14.7619 3.90517C15.7762 3.79765 16.769 3.75464 17.7618 3.75464C30.042 3.75464 42.3223 3.75464 54.6025 3.75464C58.7679 3.75464 62.5016 4.98039 65.6526 7.77596C69.041 10.7866 71.005 14.5498 71.0482 19.1303C71.1129 28.2912 71.0913 37.452 71.0697 46.6129C71.0697 47.4946 71.3071 48.1397 71.933 48.7634C75.7531 52.6126 79.5515 56.4834 83.35 60.3542C83.8248 60.8273 84.278 61.3219 84.7097 61.838C86.76 64.354 86.2852 67.0636 83.4795 68.7409C81.9903 69.6441 80.3069 70.0527 78.6235 70.2032C70.2928 70.9129 62.48 69.2571 55.2716 64.9777C54.2356 64.354 53.3292 63.5584 52.4659 62.6982C48.6027 58.7844 44.6963 54.9351 40.8979 50.9568C39.9051 49.9246 38.8044 50.1396 37.6821 50.1396C37.4015 50.1396 37.2505 50.3547 37.2289 50.6342C37.2073 50.9568 37.2073 51.2794 37.2073 51.5804C37.2073 66.0529 37.2073 80.5039 37.2073 94.9763C37.2073 96.4816 37.2073 96.4816 38.7396 96.4816C42.4302 96.4816 46.1207 96.4816 49.8113 96.4816C50.3077 96.4816 50.8041 96.4601 51.2789 96.6537C51.9479 96.9332 52.2285 97.4923 52.2069 98.1805C52.1637 98.8256 51.8616 99.3632 51.1926 99.5137C50.7177 99.6213 50.2214 99.6858 49.725 99.6858C37.0994 99.6858 24.4522 99.6858 11.8267 99.6858C10.0138 99.6858 9.23682 99.1697 9.27998 98.0084C9.30157 96.9332 10.0785 96.4601 11.8483 96.4601C15.5388 96.4601 19.2294 96.4171 22.9199 96.4816C23.9774 96.5031 24.3228 96.2021 24.3228 95.1053C24.2148 87.8368 24.2364 80.5684 24.2364 73.2784ZM45.2359 7.04481C44.7611 7.02331 44.4589 6.9803 44.1568 6.9803C34.7254 6.9803 25.2724 6.9803 15.841 6.9803C15.2367 6.9803 14.6324 7.0018 14.0281 7.08782C7.57499 8.12003 3.12907 13.8617 3.2154 19.9044C3.34489 28.4202 3.23698 36.9574 3.23698 45.4732C3.23698 47 3.23698 47 4.74773 47C15.6467 47 26.5457 47 37.4447 47C38.977 47 38.977 47 38.977 45.4947C38.977 36.9789 38.9555 28.4417 38.977 19.9259C38.9986 16.1627 40.1641 12.765 42.4949 9.79738C43.2935 8.82968 44.1999 8.01251 45.2359 7.04481ZM42.2144 32.0759C42.2144 36.5704 42.2144 41.0648 42.2144 45.5377C42.2144 46.9785 42.2144 46.9785 43.5956 46.9785C51.2573 46.9785 58.919 46.957 66.5806 47C67.6813 47 67.9403 46.6559 67.9403 45.6022C67.8971 37.0219 67.9187 28.4202 67.9187 19.8399C67.9187 19.2808 67.9403 18.7002 67.854 18.1411C66.818 11.1306 60.8614 6.42118 53.6313 7.02331C47.1999 7.56092 42.0201 13.3026 42.1928 19.8614C42.3007 23.9473 42.2144 28.0116 42.2144 32.0759ZM44.6532 50.0966C44.9553 50.4622 45.0632 50.6342 45.2143 50.7633C48.6027 54.1825 51.9695 57.6017 55.3579 61.0209C56.0917 61.752 56.9334 62.3326 57.8183 62.8487C61.4009 64.9132 65.3073 66.0529 69.3432 66.698C72.969 67.2786 76.5948 67.5367 80.199 66.612C83.2205 65.8378 83.5226 64.6551 81.3428 62.4617C77.5012 58.5909 73.638 54.7416 69.818 50.8708C69.2568 50.2902 68.6741 50.0536 67.854 50.0536C60.7319 50.0751 53.6098 50.0751 46.4661 50.0751C45.9697 50.0966 45.4301 50.0966 44.6532 50.0966ZM27.3443 73.2784C27.3443 80.5899 27.3658 87.9014 27.3227 95.2129C27.3227 96.2021 27.6248 96.5246 28.596 96.4816C29.9125 96.4171 31.229 96.4601 32.524 96.4601C34.0347 96.4601 34.0347 96.4601 34.0347 94.9333C34.0347 80.4823 34.0347 66.0314 34.0347 51.5804C34.0347 51.3654 34.0131 51.1503 34.0347 50.9353C34.0779 50.2902 33.7757 50.0536 33.1499 50.0751C31.6607 50.0966 30.1715 50.1396 28.6823 50.0536C27.6032 49.9891 27.3011 50.3332 27.3011 51.4299C27.3658 58.7199 27.3443 66.0099 27.3443 73.2784Z" fill="#0B132B"/>
<path d="M22.6829 22.0979C19.8988 22.0764 17.5032 19.7324 17.4816 16.9798C17.46 14.2058 19.9204 11.7758 22.7476 11.7973C25.5102 11.8188 27.9274 14.2273 27.9489 16.9583C27.9489 19.7539 25.5317 22.0979 22.6829 22.0979ZM20.7189 16.9798C20.7189 18.1196 21.6038 19.0012 22.7261 18.9797C23.8483 18.9582 24.7332 18.0765 24.7116 16.9368C24.69 15.8401 23.762 14.8724 22.7045 14.8939C21.6038 14.9154 20.7189 15.8401 20.7189 16.9798Z" fill="#0B132B"/>
<path d="M54.6247 11.5392C54.8406 11.5392 55.0564 11.5392 55.2722 11.5392C56.2002 11.5607 56.7398 12.0123 56.8045 12.937C56.8693 13.8402 56.3729 14.4423 55.4017 14.5928C54.8837 14.6788 54.3442 14.6573 53.8262 14.8079C51.3658 15.539 49.7687 17.5604 49.7472 20.1194C49.7256 23.0225 49.7472 25.9041 49.7472 28.8072C49.7472 29.1298 49.7687 29.4524 49.7256 29.7534C49.6177 30.7211 49.0349 31.2372 48.0853 31.1727C47.1357 31.1297 46.6393 30.5921 46.6393 29.6674C46.6177 26.1622 46.5314 22.6785 46.6825 19.1948C46.8336 15.1304 50.5889 11.6252 54.6247 11.5392Z" fill="#0B132B"/>
</g>
<g clip-path="url(#clip1_4_1161)">
<path d="M126.657 21.0244L126.236 19.3894C124.89 14.1281 123.502 8.67807 122.115 3.33288C121.442 0.775575 119.276 -0.482116 116.669 0.167691C106.639 2.725 96.6088 5.2823 86.5578 7.83961C84.0345 8.48941 82.7098 10.6904 83.3617 13.2058C84.392 17.2513 85.4223 21.2969 86.4737 25.3425L87.8825 30.8554C88.0087 31.3794 88.1769 31.7777 88.4082 32.155C89.2282 33.4965 90.5319 34.2092 92.0459 34.2092C92.4664 34.2092 92.887 34.1463 93.3285 34.0415C98.0386 32.8467 102.749 31.6519 107.459 30.4361L115.933 28.2771C118.414 27.6482 120.916 26.9984 123.397 26.3696C124.68 26.0552 125.605 25.3634 126.257 24.2734C126.825 23.3721 126.972 22.2402 126.657 21.0244ZM115.828 4.61153C114.608 6.45615 113.409 8.30076 112.211 10.1454C111.601 11.0886 110.97 12.0529 110.361 12.9961L108.51 15.8679C107.606 17.2513 106.681 18.6767 105.777 20.1021C105.44 19.9344 105.125 19.7457 104.809 19.5781C104.494 19.3894 104.158 19.2217 103.821 19.054C102.791 18.509 101.76 17.9431 100.751 17.3981C100.141 17.0627 99.5315 16.7273 98.9428 16.4129C95.6625 14.6311 92.3823 12.8704 89.1021 11.1096C88.6605 10.879 88.1979 10.6275 87.7563 10.3969C96.9031 8.07018 106.05 5.74345 115.197 3.39576L116.9 2.95557L115.828 4.61153ZM95.221 17.6077C95.9569 18.0059 96.7139 18.4042 97.3657 18.7396C97.6391 18.8863 97.8704 19.0121 98.1017 19.1379C98.312 19.2636 98.5433 19.3894 98.6905 19.4732C98.6274 19.5571 98.5433 19.6619 98.4802 19.7457C97.555 20.9825 96.6298 22.2402 95.7046 23.4769C95.1789 24.1896 94.6322 24.9023 94.1065 25.615C92.929 27.1871 91.7725 28.7592 90.616 30.3313C90.595 30.2475 90.553 30.1636 90.5319 30.0588L89.1652 24.7346C88.1348 20.71 87.1045 16.6854 86.0742 12.6817C86.3475 12.8284 86.6419 12.9752 86.9153 13.1219C87.3568 13.3525 87.7984 13.5831 88.2189 13.8136C89.3754 14.4425 90.5319 15.0713 91.6884 15.7002C92.887 16.329 94.0435 16.9788 95.221 17.6077ZM93.9804 30.52C94.9687 29.1784 95.9569 27.8788 96.9452 26.5373C97.7442 25.4682 98.5433 24.3992 99.3213 23.3302L100.667 21.5275C100.73 21.4646 100.772 21.3807 100.835 21.3179C100.919 21.2131 101.003 21.1082 101.067 21.0034C101.109 20.9406 101.172 20.8567 101.214 20.7938C101.277 20.8357 101.361 20.8777 101.424 20.8986L101.845 21.1292C103.085 21.8 104.389 22.4917 105.629 23.2044C106.513 23.7075 107.059 23.2673 107.354 22.8061C107.711 22.2192 108.111 21.6323 108.489 21.0663C108.657 20.8148 108.826 20.5632 108.994 20.3117C109.099 20.144 109.225 19.9763 109.33 19.8086C109.604 19.3894 109.877 18.9702 110.15 18.5509C111.075 18.9702 112.001 19.3894 112.905 19.8086C113.346 20.0182 113.788 20.2069 114.23 20.4165C115.344 20.9196 116.437 21.4227 117.552 21.9257L121.063 23.5188C121.358 23.6446 121.631 23.7704 121.925 23.9171C112.484 26.3277 103.022 28.7382 93.5809 31.1279L93.9804 30.52ZM112.821 16.7063C112.652 16.6225 112.484 16.5596 112.337 16.4758C112.127 16.3709 111.895 16.2661 111.664 16.1613C111.664 16.1613 111.664 16.1613 111.664 16.1404C111.664 16.1194 111.685 16.1194 111.685 16.0984C111.706 16.0775 111.706 16.0565 111.727 16.0565L113.241 13.7508C114.482 11.8433 115.722 9.93576 116.984 8.02826C117.531 7.21076 118.056 6.3723 118.582 5.5548C118.877 5.09365 119.171 4.65346 119.465 4.1923C120.433 7.96538 121.4 11.7175 122.367 15.4906L123.944 21.6113C123.965 21.6742 123.965 21.7371 123.986 21.779C122.409 21.0663 120.853 20.3327 119.276 19.62C118.141 19.0959 116.984 18.5719 115.849 18.0688L112.821 16.7063Z" fill="#0B132B"/>
<path d="M84.8334 22.5337C84.7493 22.345 84.6863 22.1564 84.6442 21.9677C84.6232 21.8419 84.518 21.4437 84.1606 21.2341C83.8031 21.0245 83.4036 21.1293 83.2774 21.1712C82.4574 21.4018 81.6163 21.6114 80.7962 21.8C80.4808 21.8839 80.1444 21.9677 79.829 22.0516C79.1561 22.2193 78.7566 22.3241 78.5253 22.7223C78.294 23.1206 78.3991 23.5189 78.5884 24.1687V24.1896C78.7776 24.8394 79.1982 24.9652 79.5346 24.9652C79.6608 24.9652 79.7869 24.9443 79.85 24.9233C80.7752 24.6718 81.7214 24.4412 82.6466 24.2106C83.1092 24.0848 83.5928 23.98 84.0554 23.8543H84.0765C84.1606 23.8333 84.3498 23.7914 84.518 23.6656C84.6863 23.6237 84.8124 23.4979 84.8965 23.3512C84.9806 23.1835 85.0017 23.0158 84.9386 22.8481C84.9176 22.7223 84.8755 22.6175 84.8334 22.5337Z" fill="#0B132B"/>
<path d="M79.6396 19.8296L80.0181 19.7248C80.712 19.5571 81.1115 19.4523 81.3428 19.054C81.5741 18.6557 81.469 18.2575 81.2797 17.5867V17.5657C81.2377 17.44 81.1535 17.1046 80.8171 16.9159C80.6068 16.7902 80.3335 16.7692 80.0391 16.853C79.7027 16.9578 79.3662 17.0417 79.0298 17.1255C78.8826 17.1675 78.7354 17.2094 78.5882 17.2303C77.9364 17.398 77.5369 17.5028 77.3056 17.9011C77.0743 18.2994 77.1794 18.6977 77.3687 19.3475C77.3687 19.3684 77.3687 19.3684 77.3687 19.3894C77.4107 19.4942 77.4738 19.8296 77.8102 20.0392C77.9154 20.1021 78.0205 20.144 78.1467 20.144C78.1677 20.144 78.2097 20.144 78.2308 20.144H78.2939C78.3569 20.144 78.4621 20.123 78.5672 20.1021C78.9457 19.9973 79.2821 19.9134 79.6396 19.8296Z" fill="#0B132B"/>
<path d="M83.761 27.25C83.74 27.1452 83.6558 26.7889 83.3194 26.6002C83.1091 26.4745 82.8358 26.4535 82.5414 26.5164C82.0578 26.6422 81.5952 26.7679 81.1116 26.8937C80.8592 26.9566 80.5859 27.0195 80.3336 27.0824C80.2284 27.1033 80.1443 27.1452 80.0812 27.1662L80.0602 27.1872C79.9551 27.2291 79.8499 27.3129 79.7868 27.3968C79.5345 27.7322 79.6186 28.0675 79.6607 28.1933C79.6817 28.3191 79.7238 28.4239 79.7448 28.5497C79.7868 28.7174 79.8289 28.885 79.871 29.0737C79.9551 29.43 80.1443 29.6187 80.2915 29.7025C80.4177 29.7864 80.5859 29.8283 80.7541 29.8283C80.8592 29.8283 80.9644 29.8074 81.0695 29.7864C81.3008 29.7235 81.5111 29.6816 81.7424 29.6187C82.0157 29.5558 82.2891 29.4929 82.5414 29.4091C82.7517 29.3462 82.8989 29.3252 83.0461 29.2833C83.4035 29.1995 83.7189 29.1366 83.9082 28.8222C84.0974 28.5077 84.0133 28.1724 83.9082 27.7531C83.8451 27.5854 83.803 27.4387 83.761 27.25Z" fill="#0B132B"/>
</g>
<defs>
<clipPath id="clip0_4_1161">
<rect width="85.9402" height="95.9526" fill="white" transform="translate(0 3.75464)"/>
</clipPath>
<clipPath id="clip1_4_1161">
<rect width="49.6451" height="34.2092" fill="white" transform="translate(77.1797)"/>
</clipPath>
</defs>
</svg>
