<svg width="20" height="21" viewBox="0 0 20 21" fill="none" xmlns="http://www.w3.org/2000/svg">
<g clip-path="url(#clip0_37_8136)">
<path d="M19.9805 8.76098C19.7464 7.98049 19.161 7.53171 18.2634 7.45366C18.0488 7.43415 17.8342 7.41463 17.6586 7.39512L17.3659 7.33658C17.3073 7.14146 17.2293 6.94634 17.1122 6.73171C17.2683 6.53659 17.4244 6.34146 17.5805 6.14634C17.6586 6.04878 17.7366 5.93171 17.8147 5.83415C18.4 5.07317 18.3415 4.19512 17.6586 3.5122C17.4049 3.25854 17.1512 2.98537 16.8781 2.73171C16.7415 2.59512 16.6244 2.47805 16.4878 2.34146C15.8244 1.67805 14.9464 1.61951 14.2049 2.18537C13.8927 2.41951 13.6195 2.63415 13.3464 2.84878L13.2878 2.90732C13.0732 2.80976 12.8781 2.73171 12.6829 2.65366C12.6829 2.59512 12.6634 2.53659 12.6634 2.47805C12.6439 2.4 12.6439 2.32195 12.6439 2.2439C12.6439 2.18537 12.6244 2.10732 12.6244 2.04878C12.6049 1.89268 12.5854 1.7561 12.5659 1.6C12.4878 0.8 12.0586 0.253659 11.2976 0.0195122C11.2586 0 11.2 0 11.1415 0H8.83904C8.80002 0 8.78051 0 8.74148 0.0195122H8.72197C7.96099 0.253659 7.51221 0.8 7.45368 1.6C7.43417 1.7561 7.41465 1.9122 7.39514 2.06829C7.39514 2.14634 7.37563 2.22439 7.37563 2.28293C7.37563 2.36098 7.35612 2.43902 7.35612 2.51707C7.35612 2.57561 7.3366 2.61463 7.3366 2.67317C7.14148 2.75122 6.94636 2.82927 6.75124 2.90732C6.41953 2.63415 6.12685 2.41951 5.83417 2.18537C5.07319 1.6 4.17563 1.67805 3.51221 2.38049C3.12197 2.79024 2.79026 3.12195 2.47807 3.41463C1.7366 4.11707 1.63904 5.01463 2.26343 5.83415L2.34148 5.95122C2.43904 6.0878 2.5366 6.22439 2.65368 6.34146C2.75124 6.45854 2.8488 6.59512 2.94636 6.7122C2.86831 6.8878 2.77075 7.08293 2.6927 7.29756C2.47807 7.31707 2.28295 7.33659 2.06831 7.37561C1.8927 7.39512 1.71709 7.43415 1.52197 7.43415C0.663434 7.55122 0.0390434 8.25366 0.0195312 9.1122V10.8878C0.0195312 11.7659 0.643922 12.4683 1.54148 12.5659C1.65856 12.5854 1.77563 12.6049 1.8927 12.6049C1.99026 12.6244 2.10734 12.6244 2.2049 12.6439H2.26343C2.40002 12.6634 2.5366 12.6829 2.67319 12.7024C2.73173 12.878 2.80977 13.0732 2.90734 13.2878C2.77075 13.4634 2.63417 13.639 2.47807 13.8341L2.2049 14.2439C1.58051 15.0634 1.65856 16 2.41953 16.6634L3.41465 17.678C4.09758 18.4 4.99514 18.478 5.77563 17.8927C6.14636 17.6 6.43904 17.3854 6.67319 17.1902C6.8488 17.2683 7.04392 17.3659 7.25856 17.4244L7.39514 18.5951C7.4927 19.4732 8.19514 20.0976 9.05368 20.0976H10.8293C11.7073 20.0976 12.4098 19.4732 12.5073 18.5561C12.5268 18.3415 12.5659 18.1268 12.5854 17.9122L12.6439 17.4244C12.839 17.3659 13.0537 17.2683 13.2488 17.1707C13.4634 17.3463 13.6976 17.5219 13.9122 17.678L14.1464 17.8732C14.8683 18.439 15.7854 18.3805 16.4488 17.7366C16.722 17.4634 17.0147 17.1707 17.2683 16.9171L17.6 16.5659C18.2829 15.8634 18.3415 15.0049 17.7366 14.2244L17.639 14.0878C17.4634 13.8537 17.2488 13.5805 17.0537 13.3268C17.1512 13.1122 17.2293 12.9171 17.2878 12.7415L17.6 12.7024C17.8342 12.6829 18.0293 12.6439 18.2049 12.6439C19.0829 12.5659 19.6878 12.1171 19.9025 11.3366V11.3171C19.922 11.278 19.922 11.2585 19.922 11.2195V8.9561C20 8.89756 20 8.81951 19.9805 8.76098ZM16.6049 11.0049C16.1951 11.1024 15.922 11.3366 15.8049 11.6878C15.6488 12.1756 15.4927 12.5854 15.2781 12.9366C15.0829 13.2878 15.122 13.639 15.3561 13.9707C15.7073 14.4 16.0586 14.8488 16.3512 15.239L16.3708 15.2585L16.3512 15.278C16.1171 15.5317 15.8634 15.7659 15.6098 16.0195C15.4927 16.1366 15.3561 16.2732 15.239 16.3902L15.2195 16.4098L15.1025 16.3122C14.9268 16.1756 14.7708 16.0585 14.5951 15.922C14.3805 15.7463 14.1659 15.5902 13.9317 15.4146C13.6 15.1415 13.2098 15.122 12.839 15.3366C12.4878 15.5317 12.0976 15.6878 11.6878 15.8244C11.2586 15.961 11.0049 16.2537 10.9659 16.7024C10.9268 17.0927 10.8683 17.4829 10.8098 17.8537L10.7512 18.2634H9.17075C9.11221 17.8341 9.05368 17.3659 8.99514 16.878L8.97563 16.6439C8.9366 16.2341 8.70246 15.961 8.31221 15.8244C7.84392 15.6878 7.41465 15.5122 7.02441 15.278C6.79026 15.161 6.41953 15.0634 5.99026 15.3951C5.75612 15.5902 5.50246 15.7659 5.28782 15.9415C5.11221 16.078 4.9366 16.2146 4.76099 16.3512C4.74148 16.3512 4.74148 16.3707 4.72197 16.3707L4.70246 16.3512L3.59026 15.239L3.8049 14.9659C4.05856 14.6341 4.31221 14.3024 4.58538 13.9707C4.85856 13.639 4.87807 13.2293 4.68295 12.8585C4.48782 12.5073 4.33173 12.1366 4.21465 11.7268C4.07807 11.278 3.78538 11.0244 3.3366 10.9854C2.82929 10.9268 2.32197 10.8683 1.8927 10.7902L1.79514 10.7707V9.17073C2.32197 9.09268 2.8488 9.03415 3.39514 8.9561C3.8049 8.91707 4.09758 8.66341 4.21465 8.27317C4.37075 7.76585 4.52685 7.37561 4.72197 7.0439C4.9366 6.67317 4.87807 6.30244 4.6049 5.97073C4.37075 5.69756 4.15612 5.40488 3.94148 5.13171C3.84392 4.99512 3.72685 4.85854 3.62929 4.72195C3.62929 4.72195 3.62929 4.72195 3.62929 4.70244C3.6488 4.68293 3.68782 4.6439 3.76587 4.58537L3.78538 4.56585L4.62441 3.74634L4.64392 3.72683C4.70246 3.64878 4.76099 3.59024 4.78051 3.57073L5.19026 3.88293C5.48295 4.09756 5.75612 4.31219 6.0488 4.54634C6.40002 4.81951 6.79026 4.83902 7.161 4.62439C7.55124 4.40976 7.92197 4.25366 8.27319 4.1561C8.72197 4.03902 8.99514 3.70732 9.03417 3.27805C9.0927 2.79024 9.15124 2.34146 9.20977 1.9122L9.17075 1.7561H10.7903C10.8293 2.0878 10.8878 2.41951 10.9268 2.75122C10.9464 2.96585 10.9854 3.18049 11.0049 3.37561C11.0439 3.76585 11.2781 4.05854 11.6683 4.17561C12.1171 4.31219 12.5464 4.4878 12.9366 4.70244C13.2683 4.89756 13.639 4.85854 13.9903 4.58537C14.3805 4.27317 14.7708 3.98049 15.2195 3.62927C15.239 3.60976 15.2586 3.60976 15.2586 3.59024C15.2781 3.60976 15.2781 3.60976 15.2976 3.62927L16.3903 4.72195C16.3903 4.72195 16.3903 4.72195 16.4098 4.74146C16.4098 4.74146 16.4098 4.74146 16.3903 4.76098L16.1171 5.07317C15.8829 5.38537 15.6293 5.69756 15.3951 5.99024C15.1415 6.30244 15.1025 6.69268 15.2976 7.0439C15.4927 7.41463 15.6683 7.80488 15.8049 8.25366C15.922 8.6439 16.2147 8.89756 16.6244 8.93658C17.2488 9.01463 17.8342 9.09268 18.2244 9.15122V10.7707C17.6976 10.8488 17.1512 10.9268 16.6439 10.9854C16.6244 11.0049 16.6244 11.0049 16.6049 11.0049Z" fill="#0B132B"/>
<path d="M9.98978 5.56104C7.53124 5.56104 5.52148 7.57079 5.52148 10.0293C5.52148 11.2196 5.98978 12.3318 6.8288 13.1903C7.66783 14.0293 8.79953 14.4976 9.98978 14.4976C12.4483 14.4976 14.4581 12.4879 14.4581 10.0293C14.4581 7.57079 12.4483 5.56104 9.98978 5.56104ZM12.6825 10.0098C12.6825 10.7318 12.4093 11.3952 11.8825 11.922C11.3556 12.4488 10.6922 12.722 9.95075 12.722C9.2288 12.722 8.56539 12.4488 8.05807 11.922C7.55075 11.4147 7.25807 10.7318 7.27758 10.0098C7.27758 9.28786 7.57027 8.60494 8.07758 8.09762C8.60441 7.5903 9.28734 7.29762 10.0093 7.29762C11.4922 7.29762 12.6825 8.50738 12.6825 10.0098Z" fill="#0B132B"/>
</g>
<defs>
<clipPath id="clip0_37_8136">
<rect width="20" height="20.0976" fill="white"/>
</clipPath>
</defs>
</svg>
