<svg width="13" height="20" viewBox="0 0 13 20" fill="none" xmlns="http://www.w3.org/2000/svg">
<path d="M12.0777 18.0777C11.4563 15.6893 10.8155 13.301 10.1942 10.9126C10.0971 10.5437 9.96117 10.0777 9.68933 9.65047C8.79612 8.15533 7.12622 7.35921 5.47573 7.63105C3.66991 7.92232 2.46602 9.00969 2 10.7573C1.51457 12.4854 1.04855 14.2524 0.601946 15.9806C0.427189 16.6019 0.252431 17.2815 0.0776742 17.9417C0.0194217 18.1747 -0.0388307 18.466 0.0388392 18.7961C0.233014 19.5534 0.815538 19.9806 1.66991 19.9806C2.9903 19.9806 4.29127 19.9806 5.61165 19.9806C7.00971 19.9806 8.40777 19.9806 9.80583 19.9806H10.4466C10.6796 19.9806 10.8738 19.9612 11.0485 19.9029C11.7282 19.6893 11.9806 19.1456 12.1165 18.7573C12.1359 18.7184 12.1359 18.699 12.1359 18.6602V18.2136C12.1359 18.1747 12.1165 18.1165 12.0777 18.0777ZM2.2136 17.9223L3.94175 11.3592C4.17476 10.5048 4.6602 9.96115 5.41748 9.72814C6 9.55338 6.58253 9.61164 7.08738 9.88348C7.59224 10.1553 7.94175 10.6408 8.11651 11.2233C8.54369 12.7184 8.93204 14.233 9.32039 15.7087C9.51457 16.4466 9.70874 17.1845 9.90292 17.9223H2.2136Z" fill="#3A506B"/>
<path d="M6.05825 6.64081C7.90291 6.64081 9.37864 5.14567 9.37864 3.32042C9.37864 2.42722 9.02912 1.59227 8.38834 0.970909C7.76699 0.330133 6.93203 -0.019382 6.03883 3.54788e-05C5.16504 3.54788e-05 4.33009 0.368968 3.68932 1.00974C3.06796 1.65052 2.71844 2.46605 2.73786 3.33984C2.75728 5.16508 4.25242 6.64081 6.05825 6.64081ZM6.05825 2.07771C6.38834 2.07771 6.69902 2.21363 6.93203 2.44664C7.16504 2.67965 7.30097 3.00974 7.30097 3.32042C7.30097 3.65052 7.16504 3.9612 6.93203 4.19421C6.69902 4.42722 6.38834 4.56314 6.03883 4.56314C5.70873 4.56314 5.37864 4.42722 5.14563 4.17479C4.91262 3.94178 4.77669 3.6311 4.79611 3.30101C4.81553 2.64081 5.37864 2.07771 6.05825 2.07771Z" fill="#3A506B"/>
</svg>
