<svg width="360" height="477" viewBox="0 0 360 477" fill="none" xmlns="http://www.w3.org/2000/svg">
<mask id="mask0_323_1365" style="mask-type:alpha" maskUnits="userSpaceOnUse" x="-30" y="52" width="415" height="425">
<g clip-path="url(#clip0_323_1365)">
<g clip-path="url(#clip1_323_1365)">
<path d="M412 495.513C410.903 472.036 408.101 451.965 403.594 435.786C398.478 417.418 383.007 402.699 363.272 397.225C343.05 391.63 309.794 381.29 282.994 373.018C277.634 371.315 272.518 369.734 267.767 368.274L262.407 366.084L259.605 362.678C259.605 362.678 251.565 353.92 249.372 346.621C247.301 339.688 239.14 330.686 238.53 329.956L239.383 305.506C243.403 300.397 246.692 295.044 248.641 289.57C250.712 283.975 252.54 275.581 254.245 264.633C254.61 265.242 255.585 266.945 257.778 267.431C259.97 267.918 262.65 266.945 265.696 264.633C273.614 258.186 271.787 235.439 271.665 233.858C274.345 224.248 272.64 220.963 271.787 219.382C271.665 219.26 271.665 219.139 271.665 219.017C271.3 218.409 272.03 216.462 272.64 214.881C273.249 213.056 273.98 211.232 273.98 209.772C273.98 206.366 271.3 204.298 267.036 204.298C264.6 204.298 262.529 206.853 261.067 209.286C265.574 190.917 270.203 172.427 274.71 154.059C275.807 153.329 277.269 153.329 278.365 154.059C279.827 155.032 279.827 156.857 279.827 156.979C281.167 155.762 282.994 153.573 284.212 150.41C286.77 143.598 284.212 137.272 283.481 135.813C284.09 133.745 284.7 130.704 284.212 127.054C282.75 117.566 274.589 112.579 273.249 111.727C275.076 104.915 273.249 98.468 268.863 95.6701C267.889 95.0619 266.061 94.0888 263.016 94.2104C261.067 93.1156 258.387 91.291 255.707 88.3715C252.174 84.4789 251.687 81.8027 248.398 79.6132C246.692 78.5184 244.012 77.3019 239.627 77.4236C233.049 74.6258 226.592 71.828 220.014 69.0301C218.065 68.1786 216.116 67.3271 214.045 66.4756C216.725 66.9622 219.405 67.4488 222.085 67.9353C222.207 66.354 221.841 65.1375 221.354 64.286C219.04 59.7852 211.487 57.9606 202.35 59.9069C198.452 58.3255 192.727 56.3792 185.54 54.7978C175.429 52.6082 162.15 49.8104 147.654 54.068C137.787 56.9874 130.843 63.3129 117.078 75.9638C102.703 88.9797 100.876 94.8186 100.267 97.8597C98.3177 107.226 102.216 115.498 104.652 119.756C102.338 120.607 91.3741 125.108 85.6486 137.272C81.0195 147.125 82.8468 156.249 83.4559 159.168C86.0141 158.803 88.5723 158.438 91.1304 158.073C91.3741 172.306 93.3232 188.849 99.1704 206.123V206.244C98.0741 205.15 96.8559 204.298 95.5159 204.298C91.2523 204.298 88.5723 206.366 88.5723 209.772C88.5723 211.232 89.1814 213.056 89.9123 214.881C90.5214 216.584 91.1304 218.409 90.8868 219.017C90.8868 219.139 90.765 219.26 90.765 219.382C89.9123 220.963 88.2068 224.248 90.8868 233.858C90.765 235.561 88.9377 258.186 96.8559 264.633C99.7795 267.066 102.46 268.039 104.774 267.431C106.967 266.945 107.941 265.242 108.307 264.633C110.012 275.581 111.84 283.975 113.91 289.57C114.032 289.935 114.276 290.422 114.398 290.787C114.885 296.261 116.347 313.656 117.321 330.078C115.981 331.538 108.55 339.931 106.601 346.621C104.409 353.92 96.3686 362.678 96.3686 362.678L93.2014 366.571L88.6941 367.909L88.2068 368.031C83.8213 369.369 79.0704 370.829 74.1977 372.41C46.9104 380.925 13.045 391.508 -8.02956 397.225C-27.8859 402.578 -43.3568 417.418 -48.3514 435.786C-52.8587 451.965 -55.6605 472.036 -56.7568 495.513V495.878H412.243L412 495.513Z" fill="#827F7A"/>
</g>
</g>
</mask>
<g mask="url(#mask0_323_1365)">
<rect y="-6" width="360" height="483" rx="20" fill="#00AEEF"/>
</g>
<defs>
<clipPath id="clip0_323_1365">
<rect width="415" height="425" fill="white" transform="translate(-30 52)"/>
</clipPath>
<clipPath id="clip1_323_1365">
<rect width="469" height="444" fill="white" transform="translate(-57 52)"/>
</clipPath>
</defs>
</svg>
