<svg width="21" height="20" viewBox="0 0 21 20" fill="none" xmlns="http://www.w3.org/2000/svg">
<g clip-path="url(#clip0_37_8301)">
<path d="M20.0596 4.5283C20.0596 4.46872 20.0596 4.40914 20.0596 4.36941C19.8411 2.74081 18.431 1.48957 16.8222 1.54916C16.7031 1.54916 16.6038 1.54916 16.4846 1.54916C16.3456 1.54916 16.2264 1.54916 16.0874 1.54916C16.0079 1.54916 15.9881 1.54916 15.9881 1.52929C15.9881 1.52929 15.9682 1.50943 15.9682 1.41013C15.9682 1.33069 15.9682 1.25124 15.9682 1.1718C15.9682 1.11221 15.9682 1.05263 15.9682 0.993049C16.0079 0.536246 15.8093 0.19861 15.3525 0C15.3327 0 15.3327 0 15.3128 0H14.856C14.8361 0 14.8361 0 14.8163 0C14.3793 0.19861 14.1609 0.536246 14.2006 0.993049C14.2006 1.05263 14.2006 1.13208 14.2006 1.19166C14.2006 1.2711 14.2006 1.35055 14.2006 1.42999C14.2006 1.48957 14.2006 1.50943 14.2006 1.50943C14.2006 1.50943 14.1807 1.52929 14.1013 1.52929C13.4657 1.52929 12.8302 1.52929 12.1946 1.52929H11.5591C11.4995 1.52929 11.4598 1.52929 11.4002 1.52929C11.2612 1.52929 11.142 1.52929 11.003 1.52929C10.9235 1.52929 10.9037 1.52929 10.9037 1.50943C10.9037 1.50943 10.8838 1.48957 10.9037 1.41013C10.9037 1.33069 10.9037 1.25124 10.9037 1.1718C10.9037 1.11221 10.9037 1.05263 10.9037 0.993049C10.9235 0.536246 10.7249 0.19861 10.2681 0C10.2483 0 10.2483 0 10.2284 0H9.7716C9.75174 0 9.75174 0 9.73188 0C9.29494 0.19861 9.07647 0.536246 9.11619 0.993049C9.11619 1.05263 9.11619 1.13208 9.11619 1.21152C9.11619 1.29096 9.11619 1.37041 9.11619 1.44985C9.11619 1.50943 9.11619 1.52929 9.11619 1.52929C9.11619 1.52929 9.09633 1.54916 9.01688 1.54916C8.36147 1.54916 7.72592 1.54916 7.07051 1.54916H6.4151C6.37537 1.54916 6.33565 1.54916 6.29593 1.54916C6.19663 1.54916 6.07746 1.54916 5.97816 1.54916C5.89871 1.54916 5.87885 1.54916 5.87885 1.52929C5.87885 1.52929 5.85899 1.50943 5.87885 1.42999C5.87885 1.35055 5.87885 1.2711 5.87885 1.19166C5.87885 1.13208 5.87885 1.07249 5.87885 1.01291C5.91857 0.556107 5.7001 0.218471 5.26316 0.019861C5.2433 0.019861 5.2433 0.019861 5.22344 0.019861H4.82622C4.80636 0.019861 4.80636 0.019861 4.7865 0.019861C4.32969 0.218471 4.11122 0.556107 4.15095 1.03277C4.15095 1.11221 4.15095 1.21152 4.15095 1.29096C4.15095 1.35055 4.15095 1.41013 4.15095 1.48957C4.15095 1.52929 4.15095 1.52929 4.15095 1.52929C4.15095 1.52929 4.13108 1.52929 4.09136 1.52929C3.99206 1.52929 3.87289 1.52929 3.77359 1.52929C3.63456 1.52929 3.49553 1.52929 3.35651 1.52929C1.74777 1.46971 0.317777 2.60179 0.0198626 4.1708C0.0198626 4.19067 0.0198626 4.19067 1.65962e-06 4.21053C1.65962e-06 4.23039 1.65962e-06 4.23039 -0.0198593 4.25025V4.27011V17.2592V17.279C1.65962e-06 17.3386 0.0198626 17.4181 0.0397236 17.4777C0.0595846 17.5372 0.0794456 17.6167 0.0993065 17.6763C0.456804 18.9474 1.76763 19.9801 3.05859 19.9801C4.09136 19.9801 5.14399 19.9801 6.17676 19.9801C6.69315 19.9801 7.2294 19.9801 7.74578 19.9801H9.3148C9.63257 19.9801 9.8709 19.8411 10.0497 19.5829C10.2483 19.3049 10.2681 18.9871 10.1092 18.6892C9.95035 18.3714 9.6723 18.2125 9.29494 18.2125H7.3287C6.01788 18.2125 4.70705 18.2125 3.41609 18.2125C2.95929 18.2125 2.60179 18.1132 2.32374 17.8947C1.94638 17.5968 1.76763 17.1797 1.76763 16.6435C1.76763 16.1271 1.76763 15.6107 1.76763 15.0943V4.90566C1.76763 4.11122 2.14499 3.55511 2.84012 3.37637C3.13804 3.29692 3.45581 3.29692 3.77359 3.31678C3.87289 3.31678 3.95234 3.31678 4.05164 3.31678C4.05164 3.31678 4.05164 3.33664 4.05164 3.37637V3.59484C4.05164 3.73386 4.05164 3.87289 4.05164 4.01192C4.0715 4.48858 4.44886 4.86594 4.94538 4.86594C5.44191 4.86594 5.81927 4.48858 5.81927 4.01192C5.81927 3.81331 5.81927 3.59484 5.81927 3.39623C5.81927 3.3565 5.81927 3.33664 5.81927 3.33664C5.81927 3.33664 5.83913 3.33664 5.87885 3.33664C6.91162 3.33664 7.96425 3.33664 8.99702 3.33664C9.05661 3.33664 9.07647 3.3565 9.07647 3.3565C9.07647 3.3565 9.07647 3.37637 9.07647 3.43595C9.07647 3.63456 9.07647 3.85303 9.07647 4.05164C9.09633 4.5283 9.47369 4.8858 9.95035 4.8858C10.4469 4.8858 10.8242 4.5283 10.8441 4.03178C10.8441 3.81331 10.8441 3.6147 10.8441 3.39623C10.8441 3.3565 10.8441 3.3565 10.8441 3.3565C10.8441 3.3565 10.864 3.3565 10.9037 3.3565C11.9563 3.3565 13.0288 3.3565 14.0814 3.3565C14.1212 3.3565 14.141 3.3565 14.141 3.3565C14.141 3.3565 14.141 3.37637 14.141 3.41609C14.141 3.63456 14.141 3.83317 14.141 4.05164C14.1609 4.50844 14.5382 4.8858 15.0348 4.8858C15.5114 4.8858 15.9086 4.50844 15.9086 4.05164C15.9086 3.85303 15.9086 3.63456 15.9086 3.43595C15.9086 3.37637 15.9086 3.3565 15.9086 3.3565C15.9086 3.3565 15.9285 3.3565 15.9682 3.3565C16.1073 3.3565 16.2264 3.3565 16.3654 3.3565C16.5641 3.3565 16.7627 3.3565 16.9414 3.37637C17.5372 3.45581 17.9345 3.77358 18.1331 4.34955C18.2125 4.54816 18.2125 4.76663 18.2125 4.9851V9.11619V9.15591C18.2125 9.25521 18.2125 9.35452 18.2522 9.45382C18.3913 9.8709 18.7885 10.1291 19.2453 10.0695C19.6624 10.0099 19.9801 9.63257 19.9801 9.21549C19.9801 8.18272 19.9801 7.14995 19.9801 6.11718L20.0596 4.5283Z" fill="#3A506B"/>
<path d="M15.293 10.3672C15.2532 10.3672 15.2334 10.3672 15.1936 10.3672C13.9424 10.3672 12.7706 10.8637 11.8769 11.7575C10.9633 12.6711 10.4469 13.8826 10.4469 15.1537C10.4469 17.7952 12.5919 19.9402 15.2334 19.96C16.5045 19.96 17.716 19.4635 18.6296 18.5499C19.5432 17.6363 20.0397 16.4446 20.0397 15.1735C20.0397 13.9024 19.5233 12.6909 18.6097 11.7773C17.6961 10.8439 16.5243 10.3672 15.293 10.3672ZM18.2522 15.1735C18.2324 16.8419 16.9216 18.1527 15.2731 18.1527C15.2532 18.1527 15.2532 18.1527 15.2334 18.1527C14.3992 18.1328 13.6445 17.8151 13.0884 17.2589C12.5323 16.683 12.2344 15.9084 12.2344 15.1338C12.2542 13.4655 13.5849 12.1547 15.2532 12.1547C16.9613 12.1944 18.2721 13.5251 18.2522 15.1735Z" fill="#3A506B"/>
<path d="M4.94539 9.03667C5.46177 9.03667 5.83913 8.65931 5.83913 8.14293C5.83913 7.6464 5.46177 7.26904 4.96525 7.26904C4.44886 7.26904 4.0715 7.6464 4.0715 8.16279C4.0715 8.65931 4.46872 9.03667 4.94539 9.03667Z" fill="#3A506B"/>
<path d="M8.34161 7.26904C8.10328 7.26904 7.86495 7.34849 7.6862 7.52724C7.52731 7.68612 7.42801 7.90459 7.42801 8.16279C7.42801 8.65931 7.80537 9.05653 8.30189 9.05653C8.30189 9.05653 8.30189 9.05653 8.32175 9.05653C8.56008 9.05653 8.79842 8.97709 8.9573 8.79834C9.11619 8.63945 9.2155 8.42098 9.2155 8.16279C9.2155 7.66626 8.83814 7.26904 8.34161 7.26904Z" fill="#3A506B"/>
<path d="M12.572 8.16279C12.572 7.92446 12.4926 7.68612 12.3138 7.52724C12.1549 7.36835 11.9166 7.26904 11.6783 7.26904C11.1817 7.26904 10.8044 7.6464 10.7845 8.14293C10.7845 8.38126 10.864 8.61959 11.0427 8.77848C11.2016 8.93737 11.4399 9.03667 11.6783 9.03667C12.1748 9.03667 12.572 8.65931 12.572 8.16279Z" fill="#3A506B"/>
<path d="M15.9285 8.16294C15.9285 7.66642 15.5511 7.28906 15.0546 7.28906C14.5382 7.28906 14.1609 7.66642 14.1609 8.18281C14.1609 8.67933 14.5382 9.05669 15.0348 9.05669C15.5511 9.03683 15.9285 8.65947 15.9285 8.16294Z" fill="#3A506B"/>
<path d="M5.6008 10.9037C5.44191 10.7448 5.22344 10.6455 4.98511 10.6455C4.74678 10.6455 4.48858 10.725 4.3297 10.8838C4.17081 11.0427 4.0715 11.2612 4.0715 11.4995C4.0715 12.0159 4.429 12.3933 4.92552 12.4131H4.94539C5.44191 12.4131 5.81927 12.0556 5.83913 11.579C5.85899 11.3009 5.77955 11.0626 5.6008 10.9037Z" fill="#3A506B"/>
<path d="M8.34161 10.6255C7.82523 10.6255 7.44787 11.0028 7.44787 11.5192C7.44787 12.0158 7.82523 12.3931 8.32175 12.3931C8.83814 12.3931 9.2155 12.0158 9.2155 11.4994C9.2155 11.0227 8.81828 10.6255 8.34161 10.6255Z" fill="#3A506B"/>
<path d="M4.0715 14.8558C4.0715 15.3722 4.44886 15.7496 4.94539 15.7496C5.18372 15.7496 5.40219 15.6701 5.56108 15.4914C5.71996 15.3325 5.81927 15.114 5.81927 14.8757C5.81927 14.3593 5.44191 13.9819 4.94539 13.9819C4.46872 14.0018 4.0715 14.3593 4.0715 14.8558Z" fill="#3A506B"/>
<path d="M8.32175 14.002C8.08342 14.002 7.86495 14.0814 7.6862 14.2403C7.52731 14.3992 7.42801 14.6375 7.42801 14.8758C7.42801 15.3724 7.80537 15.7497 8.30189 15.7497C8.54022 15.7497 8.75869 15.6703 8.91758 15.5114C9.07647 15.3525 9.17577 15.1142 9.17577 14.8758C9.19564 14.3793 8.81828 14.002 8.32175 14.002Z" fill="#3A506B"/>
<path d="M14.3595 13.5254C14.3595 13.7042 14.3595 13.8829 14.3595 14.0617V14.3397V14.5383C14.3595 14.7568 14.3595 14.9554 14.3595 15.1739C14.3595 15.6505 14.7368 16.0279 15.2135 16.0279C15.4121 16.0279 15.6107 16.0279 15.8093 16.0279C16.0079 16.0279 16.2066 16.0279 16.4052 16.0279C16.8421 16.0279 17.2195 15.6704 17.2592 15.2533C17.2989 14.7767 17.001 14.3397 16.5641 14.2603C16.4648 14.2404 16.3456 14.2404 16.2264 14.2404C16.147 14.2404 16.1271 14.2404 16.1271 14.2404C16.1271 14.2404 16.1073 14.2205 16.1271 14.161C16.1271 13.9425 16.1271 13.7439 16.1271 13.5254C16.1073 13.0487 15.7299 12.6714 15.2334 12.6714C14.7567 12.6714 14.3595 13.0487 14.3595 13.5254Z" fill="#3A506B"/>
</g>
<defs>
<clipPath id="clip0_37_8301">
<rect width="20.0596" height="20" fill="white"/>
</clipPath>
</defs>
</svg>
