<svg width="13" height="20" viewBox="0 0 13 20" fill="none" xmlns="http://www.w3.org/2000/svg">
<g clip-path="url(#clip0_37_12135)">
<g clip-path="url(#clip1_37_12135)">
<path d="M12.42 18.0777C11.7987 15.6893 11.1579 13.301 10.5365 10.9126C10.4394 10.5437 10.3035 10.0777 10.0317 9.65047C9.13847 8.15533 7.46856 7.35921 5.81808 7.63105C4.01225 7.92232 2.80837 9.00969 2.34235 10.7573C1.85691 12.4854 1.39089 14.2524 0.944292 15.9806C0.769535 16.6019 0.594778 17.2815 0.42002 17.9417C0.361768 18.1747 0.303515 18.466 0.381185 18.7961C0.57536 19.5534 1.15788 19.9806 2.01225 19.9806C3.33264 19.9806 4.63361 19.9806 5.954 19.9806C7.35206 19.9806 8.75012 19.9806 10.1482 19.9806H10.789C11.022 19.9806 11.2161 19.9612 11.3909 19.9029C12.0705 19.6893 12.3229 19.1456 12.4589 18.7573C12.4783 18.7184 12.4783 18.699 12.4783 18.6602V18.2136C12.4783 18.1747 12.4589 18.1165 12.42 18.0777ZM2.55594 17.9223L4.2841 11.3592C4.51711 10.5048 5.00254 9.96115 5.75983 9.72814C6.34235 9.55338 6.92488 9.61164 7.42973 9.88348C7.93458 10.1553 8.2841 10.6408 8.45886 11.2233C8.88604 12.7184 9.27439 14.233 9.66274 15.7087C9.85691 16.4466 10.0511 17.1845 10.2453 17.9223H2.55594Z" fill="#3A506B"/>
<path d="M6.40026 6.64081C8.24492 6.64081 9.72065 5.14567 9.72065 3.32042C9.72065 2.42722 9.37113 1.59227 8.73036 0.970909C8.109 0.330133 7.27404 -0.019382 6.38084 3.54788e-05C5.50705 3.54788e-05 4.6721 0.368968 4.03133 1.00974C3.40997 1.65052 3.06045 2.46605 3.07987 3.33984C3.09929 5.16508 4.59443 6.64081 6.40026 6.64081ZM6.40026 2.07771C6.73036 2.07771 7.04103 2.21363 7.27404 2.44664C7.50705 2.67965 7.64298 3.00974 7.64298 3.32042C7.64298 3.65052 7.50705 3.9612 7.27404 4.19421C7.04103 4.42722 6.73036 4.56314 6.38084 4.56314C6.05074 4.56314 5.72065 4.42722 5.48764 4.17479C5.25463 3.94178 5.1187 3.6311 5.13812 3.30101C5.15754 2.64081 5.72065 2.07771 6.40026 2.07771Z" fill="#3A506B"/>
</g>
</g>
<defs>
<clipPath id="clip0_37_12135">
<rect width="12.1359" height="20" fill="white" transform="translate(0.342773)"/>
</clipPath>
<clipPath id="clip1_37_12135">
<rect width="12.1359" height="20" fill="white" transform="translate(0.342773)"/>
</clipPath>
</defs>
</svg>
