<svg width="13" height="20" viewBox="0 0 13 20" fill="none" xmlns="http://www.w3.org/2000/svg">
<g clip-path="url(#clip0_154_844)">
<path d="M12.4397 8.77677C12.2649 8.01949 11.663 7.55347 10.828 7.55347C9.77951 7.55347 8.73096 7.55347 7.70184 7.55347H6.42028H5.09989C4.07077 7.55347 3.04164 7.55347 2.01252 7.55347C1.44941 7.55347 0.963972 7.76706 0.67271 8.15541C0.381448 8.54376 0.284361 9.02919 0.439701 9.57288V9.70881C1.06106 12.0777 1.68242 14.5049 2.34261 16.9127C2.80863 18.6408 4.36203 19.903 6.09019 20.0001C6.18727 20.0001 6.26494 20.0001 6.34261 20.0001C8.34261 20.0001 9.95426 18.7768 10.4785 16.8156C10.9834 14.9709 11.4688 13.0874 11.9543 11.2622L12.3814 9.61172C12.4591 9.37871 12.5174 9.08745 12.4397 8.77677ZM10.2455 9.63114C9.93485 10.7962 9.62417 11.9612 9.31349 13.1263C9.04164 14.1554 8.7698 15.1845 8.49795 16.2137C8.3232 16.8739 7.93485 17.3981 7.42999 17.6894C6.94455 17.9612 6.36203 18.0195 5.77951 17.8447C5.02222 17.6311 4.53679 17.1069 4.3232 16.3302C3.9931 15.0098 3.64358 13.7282 3.29407 12.4273C3.04164 11.4952 2.80863 10.5632 2.55621 9.61172C3.5465 9.61172 4.51737 9.61172 5.50766 9.61172H6.42028H7.37174C8.34261 9.63114 9.29407 9.63114 10.2455 9.63114Z" fill="#3A506B"/>
<path d="M6.40047 6.64078C7.29367 6.64078 8.12862 6.29126 8.7694 5.65049C9.41018 5.00971 9.74027 4.17476 9.74027 3.30097C9.72086 1.47573 8.22571 0 6.40047 0C4.57522 0 3.08008 1.49515 3.08008 3.32039C3.08008 5.14563 4.55581 6.64078 6.40047 6.64078ZM7.6626 3.32039C7.6626 3.65049 7.52668 3.98058 7.27425 4.21359C7.04124 4.4466 6.71115 4.58252 6.40047 4.58252C5.72085 4.58252 5.15775 4.01942 5.15775 3.33981C5.15775 3.00971 5.27425 2.69903 5.52668 2.46602C5.75969 2.23301 6.08979 2.09709 6.41988 2.09709C6.74998 2.09709 7.08008 2.23301 7.31309 2.46602C7.52668 2.67961 7.6626 2.99029 7.6626 3.32039Z" fill="#3A506B"/>
</g>
<defs>
<clipPath id="clip0_154_844">
<rect width="12.1359" height="20" fill="white" transform="translate(0.342773)"/>
</clipPath>
</defs>
</svg>
