<svg width="29" height="26" viewBox="0 0 29 26" fill="none" xmlns="http://www.w3.org/2000/svg">
<g clip-path="url(#clip0_37_13021)">
<path d="M28.184 8.4565C28.1569 8.37524 28.1569 8.2669 28.1298 8.18564C28.1027 7.99604 28.0485 7.80644 28.0214 7.61684C27.6422 5.63959 26.7213 4.04155 25.3129 2.87686C23.5523 1.44133 21.5209 0.926702 19.2728 1.3059C17.5393 1.60384 16.0767 2.55184 14.7766 4.14989C14.7224 4.20406 14.6953 4.25823 14.6683 4.28532C14.6412 4.25823 14.587 4.20406 14.5599 4.14989C12.8535 2.03721 10.8492 1.06213 8.35731 1.17047C6.84052 1.25173 5.48624 1.73927 4.32156 2.63309C2.42556 4.06863 1.36923 6.10005 1.15254 8.6461C0.962943 10.6504 1.47757 12.6548 2.69642 14.5237C3.77984 16.2301 5.1883 17.6114 6.43423 18.749C8.05937 20.2387 9.76576 21.7014 11.418 23.1098C12.0951 23.7057 12.7723 24.2745 13.4765 24.8704C13.8557 25.1954 14.262 25.3579 14.6683 25.3579C15.1016 25.3579 15.5079 25.1954 15.8871 24.8433C16.3205 24.4641 16.7538 24.112 17.1601 23.7599C18.1352 22.9202 19.1374 22.0535 20.1125 21.2138L20.275 21.0784C21.9272 19.6428 23.6336 18.1802 25.0962 16.528C26.4505 14.9841 27.3172 13.5757 27.7777 12.086C27.9402 11.5984 28.0214 11.1109 28.1027 10.6233C28.1298 10.515 28.1569 10.4067 28.1569 10.3254L28.184 8.4565ZM24.5545 14.2528C23.2815 15.9592 21.7105 17.3677 20.3291 18.5865C19.3541 19.4532 18.3248 20.32 17.3768 21.1596C16.5101 21.891 15.6433 22.6493 14.8037 23.3807C14.6953 23.4619 14.6953 23.4619 14.587 23.3536C13.8557 22.7035 13.1244 22.0805 12.3931 21.4576C11.0117 20.2658 9.57616 19.047 8.1948 17.801C6.89469 16.6363 5.54041 15.3092 4.45698 13.7111C3.50899 12.3027 3.04853 10.8942 3.07562 9.48575C3.1027 6.96679 4.0507 5.12497 5.91961 3.9332C6.678 3.44566 7.51766 3.20189 8.41148 3.14772C8.51982 3.14772 8.62816 3.12063 8.68234 3.12063H8.73651C10.0637 3.14772 11.2013 3.554 12.1764 4.36657C12.7452 4.85411 13.2327 5.45 13.6932 6.18131C13.964 6.58759 14.262 6.80428 14.6412 6.80428C15.0745 6.83136 15.4266 6.64176 15.6975 6.26256C15.9954 5.82919 16.2934 5.39582 16.6455 4.98954C17.7831 3.7436 19.1103 3.09355 20.6 3.12063C22.7127 3.14772 24.3378 4.06863 25.4483 5.91045C25.9629 6.77719 26.2609 7.77936 26.3421 8.97112C26.4505 10.7859 25.8546 12.5193 24.5545 14.2528Z" fill="#00AEEF"/>
<path d="M14.6408 25.7642C14.1261 25.7642 13.6386 25.5746 13.1781 25.1683C12.826 24.8703 12.501 24.5724 12.1489 24.3015C11.7968 24.0036 11.4717 23.7327 11.1196 23.4348L10.93 23.2452C9.35907 21.8909 7.73393 20.4825 6.16297 19.0469C4.91703 17.8822 3.4815 16.4738 2.37099 14.7403C1.09796 12.7902 0.556252 10.7317 0.745851 8.61898C0.962536 5.9375 2.10013 3.82483 4.07738 2.30803C5.29623 1.36004 6.73177 0.845411 8.32982 0.764155C10.8488 0.628727 12.9344 1.57672 14.6678 3.63523C15.995 2.09135 17.4847 1.19752 19.2182 0.899583C21.6018 0.493299 23.7415 1.0621 25.5833 2.5518C27.073 3.79774 28.0481 5.47705 28.4544 7.53555C28.4815 7.61681 28.4815 7.69807 28.5086 7.77932C28.5357 7.88766 28.5357 7.99601 28.5628 8.10435L28.5898 8.34812C28.5898 8.40229 28.5898 8.45646 28.5898 8.51063V10.2712C28.5898 10.2983 28.5898 10.2983 28.5898 10.3254C28.5898 10.3795 28.5628 10.4337 28.5628 10.4879C28.5628 10.5421 28.5357 10.5691 28.5357 10.6233C28.4544 11.1109 28.3461 11.6255 28.1836 12.1401C27.696 13.684 26.8022 15.1466 25.4208 16.7447C24.0124 18.3698 22.3602 19.7782 20.7892 21.1596L20.41 21.4846C19.9224 21.918 19.4349 22.3243 18.9203 22.7577C18.4327 23.191 17.9452 23.5973 17.4577 24.0307C17.0243 24.3828 16.5909 24.762 16.1846 25.1141C15.67 25.5475 15.1825 25.7642 14.6408 25.7642ZM8.76319 1.57672C8.62776 1.57672 8.51942 1.57672 8.38399 1.57672C6.94845 1.63089 5.67543 2.09135 4.56492 2.931C2.77727 4.28528 1.74802 6.23544 1.55842 8.67315C1.36882 10.5962 1.88345 12.4922 3.04813 14.307C4.13155 15.9863 5.51292 17.3405 6.70468 18.451C8.27565 19.8866 9.90078 21.2679 11.4717 22.6222L11.6613 22.7847C12.0135 23.0827 12.3385 23.3535 12.6906 23.6515C13.0427 23.9494 13.3677 24.2474 13.7198 24.5453C14.3428 25.087 14.9929 25.0599 15.6158 24.5453C16.0492 24.1661 16.4826 23.814 16.9159 23.4348C17.4035 23.0285 17.891 22.5951 18.3786 22.1618C18.8661 21.7284 19.3807 21.3221 19.8683 20.8887L20.2475 20.5637C21.8184 19.2094 23.4165 17.801 24.7979 16.23C26.125 14.7403 26.9647 13.359 27.3981 11.9234C27.5335 11.463 27.6418 10.9754 27.7231 10.515C27.7231 10.4608 27.7502 10.4066 27.7502 10.3525C27.7502 10.3254 27.7502 10.2712 27.7773 10.2441V8.40229C27.7773 8.37521 27.7773 8.37521 27.7773 8.34812L27.7502 8.18561C27.7231 8.07726 27.7231 7.96892 27.696 7.88766C27.6689 7.80641 27.6689 7.72515 27.6418 7.64389C27.2626 5.80207 26.3959 4.28528 25.0416 3.14769C23.3894 1.79341 21.4663 1.30587 19.3266 1.65798C17.7014 1.92884 16.3201 2.82266 15.0741 4.36654L15.047 4.39362C15.02 4.42071 15.02 4.42071 14.9929 4.44779C14.9658 4.47488 14.9387 4.50197 14.9387 4.52905C14.7762 4.69157 14.5324 4.69157 14.3699 4.52905C14.3428 4.50197 14.2886 4.42071 14.2345 4.33945C12.7177 2.49763 10.93 1.57672 8.76319 1.57672ZM14.6949 23.8411C14.5324 23.8411 14.4241 23.7598 14.3157 23.6786C13.9094 23.3265 13.5303 23.0014 13.124 22.6493C12.7719 22.3514 12.4468 22.0534 12.0947 21.7826L11.2551 21.0242C10.1716 20.0762 9.03404 19.1011 7.92353 18.0989C6.6776 16.9884 5.24206 15.6071 4.10446 13.9278C3.12938 12.4651 2.64184 11.0025 2.64184 9.48572C2.66893 6.80424 3.67109 4.88116 5.67543 3.58106C6.488 3.06643 7.38182 2.76849 8.38399 2.7414C8.46524 2.7414 8.5465 2.7414 8.60067 2.71432C8.62776 2.71432 8.65484 2.71432 8.68193 2.71432H8.7361C10.1716 2.7414 11.3905 3.17477 12.4197 4.0686C13.0156 4.58322 13.5302 5.20619 14.0178 5.96459C14.2616 6.34379 14.5053 6.39796 14.6408 6.39796C14.9387 6.42504 15.1554 6.28961 15.345 6.04584L15.3721 5.99167C15.6429 5.5583 15.9409 5.12493 16.3201 4.71865C17.5389 3.36437 18.9745 2.68723 20.5725 2.71432C22.8206 2.7414 24.5812 3.74357 25.7729 5.69373C26.3417 6.64173 26.6397 7.69807 26.7209 8.944C26.8293 10.8671 26.2063 12.6818 24.852 14.4965C23.6061 16.2029 22.0622 17.6114 20.5996 18.8844C20.085 19.3449 19.5703 19.7782 19.0557 20.2387C18.5682 20.645 18.1077 21.0513 17.6473 21.4575L17.6202 21.4846C16.7805 22.2159 15.9138 22.9473 15.0741 23.6786C14.9387 23.7869 14.8033 23.8411 14.6949 23.8411ZM8.7361 3.52688C8.65484 3.55397 8.5465 3.55397 8.43816 3.55397C7.62559 3.58106 6.84011 3.82483 6.16297 4.2582C4.40241 5.39579 3.50858 7.10218 3.50858 9.48572C3.50858 10.84 3.94195 12.1401 4.83578 13.4673C5.9192 15.0653 7.30056 16.3925 8.51942 17.476C9.60284 18.451 10.7404 19.4261 11.8509 20.3741L12.7177 21.1325C13.0427 21.4305 13.3948 21.7284 13.7198 21.9993C14.072 22.2972 14.397 22.5951 14.7491 22.8931C15.5346 22.2159 16.3201 21.5388 17.1326 20.8346C17.6202 20.4012 18.0806 19.9949 18.5682 19.5886C19.0828 19.1553 19.5974 18.6948 20.112 18.2344C21.4934 17.0155 23.0102 15.6612 24.2291 14.009C25.4479 12.3568 26.0167 10.7317 25.9354 8.99817C25.8542 7.88766 25.5833 6.93967 25.0958 6.1271C24.0665 4.42071 22.5498 3.55397 20.5996 3.52688C19.2453 3.52688 17.9994 4.09568 16.943 5.26036C16.618 5.63956 16.3472 6.04584 16.0763 6.42504L16.0221 6.47921C15.67 6.99384 15.1825 7.23761 14.6137 7.18344C14.1261 7.15635 13.6928 6.8855 13.3407 6.37087C12.9073 5.66665 12.4468 5.09785 11.9051 4.63739C11.0113 3.90608 9.95495 3.52688 8.7361 3.52688Z" fill="#00AEEF"/>
</g>
<defs>
<clipPath id="clip0_37_13021">
<rect width="27.8982" height="25" fill="white" transform="translate(0.691406 0.76416)"/>
</clipPath>
</defs>
</svg>
