<svg width="34" height="30" viewBox="0 0 34 30" fill="none" xmlns="http://www.w3.org/2000/svg">
<path d="M32.9895 9.23075C32.957 9.13325 32.957 9.00324 32.9245 8.90573C32.892 8.67821 32.827 8.45069 32.7945 8.22317C32.3394 5.85047 31.2344 3.93281 29.5442 2.5352C27.4315 0.812553 24.9938 0.195002 22.2961 0.650039C20.2159 1.00757 18.4608 2.14516 16.9007 4.06282C16.8357 4.12783 16.8032 4.19283 16.7707 4.22534C16.7381 4.19283 16.6731 4.12783 16.6406 4.06282C14.593 1.52761 12.1878 0.357515 9.19752 0.487526C7.37737 0.585034 5.75223 1.17008 4.35462 2.24267C2.07943 3.96532 0.811822 6.40302 0.551801 9.45827C0.324282 11.8635 0.941833 14.2687 2.40446 16.5114C3.70456 18.559 5.3947 20.2167 6.88983 21.5818C8.83999 23.3694 10.8877 25.1246 12.8703 26.8147C13.6829 27.5298 14.4955 28.2123 15.3405 28.9274C15.7956 29.3174 16.2831 29.5124 16.7707 29.5124C17.2907 29.5124 17.7782 29.3174 18.2333 28.8949C18.7533 28.4399 19.2734 28.0173 19.7609 27.5948C20.931 26.5872 22.1336 25.5471 23.3037 24.5395L23.4987 24.377C25.4814 22.6544 27.529 20.8992 29.2842 18.9166C30.9093 17.0639 31.9494 15.3738 32.502 13.5861C32.697 13.0011 32.7945 12.416 32.892 11.831C32.9245 11.701 32.957 11.5709 32.957 11.4734L32.9895 9.23075ZM28.6341 16.1863C27.1065 18.234 25.2214 19.9241 23.5637 21.3868C22.3936 22.4269 21.1585 23.4669 20.0209 24.4745C18.9808 25.3521 17.9407 26.2622 16.9332 27.1397C16.8032 27.2373 16.8032 27.2373 16.6731 27.1072C15.7956 26.3272 14.918 25.5796 14.0404 24.8321C12.3828 23.4019 10.6601 21.9393 9.0025 20.4442C7.44237 19.0466 5.81724 17.4539 4.51713 15.5363C3.37954 13.8461 2.82699 12.156 2.85949 10.4659C2.892 7.44311 4.02959 5.23292 6.27228 3.8028C7.18235 3.21775 8.18994 2.92523 9.26253 2.86022C9.39254 2.86022 9.52255 2.82772 9.58755 2.82772H9.65256C11.2452 2.86022 12.6103 3.34776 13.7804 4.32285C14.463 4.90789 15.048 5.62295 15.6006 6.50053C15.9256 6.98807 16.2831 7.24809 16.7381 7.24809C17.2582 7.28059 17.6807 7.05307 18.0058 6.59803C18.3633 6.07799 18.7208 5.55795 19.1434 5.07041C20.5085 3.57528 22.1011 2.79522 23.8887 2.82772C26.424 2.86022 28.3741 3.96532 29.7067 6.1755C30.3243 7.21559 30.6818 8.41819 30.7793 9.84831C30.9093 12.026 30.1943 14.1062 28.6341 16.1863Z" fill="#00AEEF"/>
<path d="M16.7386 30.0001C16.1211 30.0001 15.536 29.7726 14.9835 29.285C14.561 28.9275 14.1709 28.57 13.7484 28.2449C13.3259 27.8874 12.9358 27.5624 12.5133 27.2049L12.2858 26.9773C10.4006 25.3522 8.45045 23.6621 6.56529 21.9394C5.07016 20.5418 3.34752 18.8517 2.01491 16.7715C0.487283 14.4313 -0.162771 11.9611 0.0647476 9.42588C0.324769 6.20811 1.68988 3.6729 4.06258 1.85275C5.5252 0.715151 7.24785 0.0975991 9.16551 9.09986e-05C12.1883 -0.162423 14.691 0.975172 16.7711 3.44538C18.3638 1.59272 20.1514 0.520134 22.2316 0.162605C25.0918 -0.324936 27.6595 0.357621 29.8697 2.14527C31.6574 3.64039 32.8275 5.65556 33.315 8.12577C33.3475 8.22328 33.3475 8.32078 33.38 8.41829C33.4125 8.5483 33.4125 8.67831 33.445 8.80832L33.4775 9.10085C33.4775 9.16585 33.4775 9.23086 33.4775 9.29587V11.4085C33.4775 11.441 33.4775 11.441 33.4775 11.4735C33.4775 11.5386 33.445 11.6036 33.445 11.6686C33.445 11.7336 33.4125 11.7661 33.4125 11.8311C33.315 12.4161 33.185 13.0337 32.99 13.6512C32.4049 15.5039 31.3324 17.259 29.6747 19.1767C27.9846 21.1269 26.0019 22.817 24.1167 24.4746L23.6617 24.8647C23.0767 25.3847 22.4916 25.8722 21.8741 26.3923C21.289 26.9123 20.704 27.3999 20.1189 27.9199C19.5989 28.3425 19.0788 28.7975 18.5913 29.22C17.9737 29.7401 17.3887 30.0001 16.7386 30.0001ZM9.68555 0.975172C9.52304 0.975172 9.39302 0.975172 9.23051 0.975172C7.50787 1.04018 5.98024 1.59272 4.64763 2.60031C2.50245 4.22544 1.26735 6.56564 1.03983 9.49088C0.81231 11.7986 1.42986 14.0738 2.82748 16.2514C4.12759 18.2666 5.78522 19.8918 7.21534 21.2244C9.1005 22.947 11.0507 24.6046 12.9358 26.2298L13.1633 26.4248C13.5859 26.7823 13.9759 27.1073 14.3984 27.4649C14.821 27.8224 15.211 28.1799 15.6335 28.5375C16.3811 29.1875 17.1612 29.155 17.9087 28.5375C18.4288 28.0824 18.9488 27.6599 19.4689 27.2049C20.0539 26.7173 20.639 26.1973 21.224 25.6772C21.8091 25.1572 22.4266 24.6696 23.0117 24.1496L23.4667 23.7596C25.3519 22.1344 27.2695 20.4443 28.9271 18.5591C30.5198 16.7715 31.5274 15.1139 32.0474 13.3912C32.2099 12.8387 32.3399 12.2536 32.4374 11.7011C32.4374 11.6361 32.4699 11.5711 32.4699 11.5061C32.4699 11.4735 32.4699 11.4085 32.5024 11.376V9.16585C32.5024 9.13335 32.5024 9.13335 32.5024 9.10085L32.4699 8.90583C32.4374 8.77582 32.4374 8.64581 32.4049 8.5483C32.3724 8.45079 32.3724 8.35329 32.3399 8.25578C31.8849 6.04559 30.8448 4.22544 29.2197 2.86033C27.237 1.23519 24.9293 0.650145 22.3616 1.07268C20.4114 1.39771 18.7538 2.4703 17.2587 4.32295L17.2262 4.35545C17.1937 4.38796 17.1937 4.38796 17.1612 4.42046C17.1287 4.45296 17.0962 4.48546 17.0962 4.51797C16.9011 4.71298 16.6086 4.71298 16.4136 4.51797C16.3811 4.48546 16.3161 4.38796 16.2511 4.29045C14.4309 2.08026 12.2858 0.975172 9.68555 0.975172ZM16.8036 27.6924C16.6086 27.6924 16.4786 27.5949 16.3486 27.4974C15.8611 27.0748 15.406 26.6848 14.9185 26.2623C14.4959 25.9048 14.1059 25.5472 13.6834 25.2222L12.6758 24.3121C11.3757 23.1745 10.0106 22.0044 8.67797 20.8018C7.18284 19.4692 5.4602 17.8116 4.09508 15.7964C2.92499 14.0413 2.33994 12.2861 2.33994 10.466C2.37244 7.2482 3.57504 4.9405 5.98024 3.38037C6.95532 2.76282 8.02791 2.40529 9.23051 2.37279C9.32802 2.37279 9.42553 2.37279 9.49053 2.34029C9.52304 2.34029 9.55554 2.34029 9.58804 2.34029H9.65305C11.3757 2.37279 12.8383 2.89283 14.0734 3.96542C14.7885 4.58297 15.406 5.33054 15.9911 6.24061C16.2836 6.69565 16.5761 6.76065 16.7386 6.76065C17.0962 6.79316 17.3562 6.63064 17.5837 6.33812L17.6162 6.27311C17.9412 5.75307 18.2988 5.23303 18.7538 4.74549C20.2164 3.12035 21.9391 2.30778 23.8567 2.34029C26.5545 2.37279 28.6671 3.57539 30.0972 5.91558C30.7798 7.05318 31.1373 8.32078 31.2348 9.81591C31.3649 12.1236 30.6173 14.3013 28.9922 16.479C27.497 18.5266 25.6444 20.2168 23.8892 21.7444C23.2717 22.2969 22.6541 22.817 22.0366 23.3695C21.4515 23.8571 20.899 24.3446 20.3464 24.8322L20.3139 24.8647C19.3063 25.7422 18.2663 26.6198 17.2587 27.4974C17.0962 27.6274 16.9337 27.6924 16.8036 27.6924ZM9.65305 3.31537C9.55554 3.34787 9.42553 3.34787 9.29552 3.34787C8.32043 3.38037 7.37786 3.6729 6.56529 4.19294C4.45261 5.55805 3.38002 7.60573 3.38002 10.466C3.38002 12.0911 3.90007 13.6512 4.97266 15.2439C6.27276 17.1615 7.9304 18.7542 9.39302 20.0543C10.6931 21.2244 12.0582 22.3945 13.3909 23.5321L14.4309 24.4421C14.821 24.7997 15.2435 25.1572 15.6335 25.4822C16.0561 25.8397 16.4461 26.1973 16.8686 26.5548C17.8112 25.7422 18.7538 24.9297 19.7289 24.0846C20.3139 23.5646 20.8665 23.077 21.4515 22.5895C22.0691 22.0694 22.6866 21.5169 23.3042 20.9643C24.9618 19.5017 26.782 17.8766 28.2446 15.8939C29.7072 13.9113 30.3898 11.9611 30.2923 9.88091C30.1948 8.5483 29.8697 7.41071 29.2847 6.43563C28.0496 4.38796 26.2294 3.34787 23.8892 3.31537C22.2641 3.31537 20.769 3.99792 19.5014 5.39554C19.1113 5.85058 18.7863 6.33812 18.4613 6.79316L18.3963 6.85816C17.9737 7.47571 17.3887 7.76824 16.7061 7.70323C16.1211 7.67073 15.601 7.3457 15.1785 6.72815C14.6585 5.88308 14.1059 5.20052 13.4559 4.64798C12.3833 3.77041 11.1157 3.31537 9.65305 3.31537Z" fill="#00AEEF"/>
</svg>
