<svg width="20" height="18" viewBox="0 0 20 18" fill="none" xmlns="http://www.w3.org/2000/svg">
<g clip-path="url(#clip0_154_3598)">
<path d="M19.7083 5.51428C19.6889 5.45603 19.6889 5.37836 19.6695 5.3201C19.6501 5.18418 19.6112 5.04826 19.5918 4.91234C19.32 3.49486 18.6598 2.34923 17.6501 1.51428C16.3879 0.485151 14.9316 0.116219 13.32 0.388064C12.0773 0.601656 11.0287 1.28127 10.0967 2.4269C10.0578 2.46573 10.0384 2.50457 10.019 2.52399C9.99959 2.50457 9.96076 2.46573 9.94134 2.4269C8.71804 0.912336 7.28115 0.213307 5.49474 0.290977C4.40736 0.349229 3.43649 0.698744 2.60154 1.33952C1.24231 2.36865 0.485032 3.82496 0.329692 5.6502C0.19377 7.08709 0.562702 8.52399 1.43649 9.86379C2.21319 11.0871 3.2229 12.0774 4.1161 12.8929C5.28115 13.9609 6.50445 15.0094 7.68891 16.0191C8.17435 16.4463 8.65979 16.8541 9.16464 17.2813C9.43649 17.5143 9.72775 17.6308 10.019 17.6308C10.3297 17.6308 10.621 17.5143 10.8928 17.2619C11.2035 16.99 11.5142 16.7376 11.8054 16.4852C12.5044 15.8832 13.2229 15.2619 13.9219 14.6599L14.0384 14.5628C15.2229 13.5337 16.4462 12.4852 17.4947 11.3007C18.4656 10.1939 19.087 9.18418 19.4171 8.11622C19.5336 7.7667 19.5918 7.41719 19.6501 7.06768C19.6695 6.99001 19.6889 6.91234 19.6889 6.85408L19.7083 5.51428ZM17.1064 9.66962C16.1938 10.8929 15.0676 11.9026 14.0773 12.7764C13.3782 13.3978 12.6404 14.0191 11.9608 14.6211C11.3394 15.1453 10.718 15.689 10.1161 16.2133C10.0384 16.2716 10.0384 16.2716 9.96076 16.1939C9.43649 15.7279 8.91222 15.2813 8.38794 14.8347C7.39765 13.9803 6.36853 13.1065 5.37824 12.2133C4.4462 11.3784 3.47532 10.4269 2.69862 9.28127C2.01901 8.27156 1.68892 7.26185 1.70833 6.25214C1.72775 4.44632 2.40736 3.12593 3.74717 2.27156C4.29086 1.92204 4.8928 1.74729 5.53358 1.70845C5.61125 1.70845 5.68891 1.68903 5.72775 1.68903H5.76658C6.71804 1.70845 7.53358 1.99971 8.2326 2.58224C8.64037 2.93175 8.98989 3.35894 9.31998 3.88321C9.51416 4.17447 9.72775 4.32981 9.99959 4.32981C10.3103 4.34923 10.5627 4.21331 10.7569 3.94146C10.9705 3.63078 11.1841 3.3201 11.4365 3.02884C12.252 2.13564 13.2035 1.66962 14.2714 1.68903C15.786 1.70845 16.9511 2.36865 17.7472 3.68903C18.1161 4.31039 18.3297 5.02884 18.3879 5.88321C18.4656 7.18418 18.0384 8.4269 17.1064 9.66962Z" fill="#0B132B"/>
<path d="M9.9998 17.9222C9.63087 17.9222 9.28135 17.7862 8.95126 17.495C8.69883 17.2814 8.46582 17.0678 8.21339 16.8736C7.96097 16.66 7.72796 16.4658 7.47553 16.2522L7.33961 16.1163C6.21339 15.1455 5.04835 14.1357 3.92213 13.1066C3.02893 12.2717 1.9998 11.262 1.20368 10.0192C0.291064 8.62118 -0.0972859 7.14545 0.0386364 5.63089C0.193976 3.70856 1.00951 2.19399 2.42699 1.10662C3.30077 0.427004 4.3299 0.0580723 5.47553 -0.000180137C7.28135 -0.0972675 8.7765 0.582344 10.0192 2.05807C10.9707 0.951276 12.0386 0.310499 13.2814 0.0969073C14.9901 -0.194355 16.5241 0.213412 17.8445 1.28137C18.9124 2.17458 19.6115 3.37846 19.9027 4.85419C19.9221 4.91244 19.9221 4.97069 19.9415 5.02895C19.961 5.10662 19.961 5.18429 19.9804 5.26196L19.9998 5.43671C19.9998 5.47555 19.9998 5.51438 19.9998 5.55322V6.81535C19.9998 6.83477 19.9998 6.83477 19.9998 6.85419C19.9998 6.89302 19.9804 6.93186 19.9804 6.97069C19.9804 7.00953 19.961 7.02895 19.961 7.06778C19.9027 7.4173 19.825 7.78623 19.7085 8.15516C19.359 9.26196 18.7182 10.3105 17.728 11.4561C16.7182 12.6212 15.5338 13.6309 14.4076 14.6212L14.1357 14.8542C13.7862 15.1649 13.4367 15.4561 13.0678 15.7668C12.7182 16.0775 12.3687 16.3688 12.0192 16.6794C11.7085 16.9319 11.3979 17.2037 11.1066 17.4561C10.7377 17.7668 10.3882 17.9222 9.9998 17.9222ZM5.78621 0.582344C5.68912 0.582344 5.61145 0.582344 5.51436 0.582344C4.48524 0.621179 3.57262 0.951276 2.7765 1.55322C1.49495 2.52409 0.757083 3.92215 0.621161 5.66972C0.485238 7.04836 0.85417 8.40759 1.68912 9.70856C2.46582 10.9124 3.45611 11.8833 4.31048 12.6794C5.43669 13.7086 6.60174 14.6988 7.72796 15.6697L7.86388 15.7862C8.11631 15.9998 8.34932 16.194 8.60174 16.4076C8.85417 16.6212 9.08718 16.8348 9.33961 17.0484C9.78621 17.4367 10.2522 17.4173 10.6988 17.0484C11.0095 16.7765 11.3202 16.5241 11.6309 16.2522C11.9804 15.961 12.3299 15.6503 12.6794 15.3396C13.0289 15.0289 13.3979 14.7377 13.7474 14.427L14.0192 14.194C15.1454 13.2231 16.2911 12.2134 17.2814 11.0872C18.2328 10.0192 18.8348 9.02895 19.1454 7.99982C19.2425 7.66972 19.3202 7.32021 19.3784 6.99011C19.3784 6.95128 19.3979 6.91244 19.3979 6.87361C19.3979 6.85419 19.3979 6.81535 19.4173 6.79594V5.47555C19.4173 5.45613 19.4173 5.45613 19.4173 5.43671L19.3979 5.32021C19.3784 5.24254 19.3784 5.16487 19.359 5.10662C19.3396 5.04836 19.3396 4.99011 19.3202 4.93186C19.0483 3.61147 18.427 2.52409 17.4561 1.70856C16.2716 0.737684 14.893 0.388169 13.359 0.640597C12.194 0.834771 11.2037 1.47555 10.3105 2.58234L10.2911 2.60176C10.2716 2.62118 10.2716 2.62118 10.2522 2.6406C10.2328 2.66001 10.2134 2.67943 10.2134 2.69885C10.0969 2.81535 9.92213 2.81535 9.80563 2.69885C9.78621 2.67943 9.74737 2.62118 9.70854 2.56293C8.62116 1.24254 7.33961 0.582344 5.78621 0.582344ZM10.0386 16.5435C9.92213 16.5435 9.84446 16.4853 9.76679 16.427C9.47553 16.1746 9.20368 15.9416 8.91242 15.6891C8.66 15.4755 8.42699 15.262 8.17456 15.0678L7.57262 14.5241C6.79592 13.8445 5.98038 13.1455 5.18427 12.427C4.29106 11.6309 3.26194 10.6406 2.4464 9.43671C1.74737 8.38817 1.39786 7.33963 1.39786 6.25225C1.41728 4.32992 2.13572 2.95128 3.57262 2.01924C4.15514 1.65031 4.79592 1.43671 5.51436 1.4173C5.57262 1.4173 5.63087 1.4173 5.6697 1.39788C5.68912 1.39788 5.70854 1.39788 5.72796 1.39788H5.76679C6.79592 1.4173 7.6697 1.72798 8.40757 2.36875C8.83475 2.73768 9.20368 3.18429 9.5532 3.72798C9.72796 3.99982 9.90271 4.03865 9.9998 4.03865C10.2134 4.05807 10.3687 3.96098 10.5047 3.78623L10.5241 3.74739C10.7182 3.43671 10.9318 3.12603 11.2037 2.83477C12.0775 1.8639 13.1066 1.37846 14.2522 1.39788C15.8639 1.4173 17.126 2.13574 17.9804 3.5338C18.3881 4.21341 18.6017 4.97069 18.66 5.8639C18.7377 7.24254 18.2911 8.54351 17.3202 9.84448C16.427 11.0678 15.3202 12.0775 14.2716 12.9901C13.9027 13.3202 13.5338 13.6309 13.1649 13.961C12.8153 14.2522 12.4852 14.5435 12.1551 14.8348L12.1357 14.8542C11.5338 15.3785 10.9124 15.9027 10.3105 16.427C10.2134 16.5047 10.1163 16.5435 10.0386 16.5435ZM5.76679 1.9804C5.70854 1.99982 5.63087 1.99982 5.5532 1.99982C4.97067 2.01924 4.40757 2.19399 3.92213 2.50467C2.66 3.32021 2.01922 4.54351 2.01922 6.25225C2.01922 7.22312 2.3299 8.15516 2.97068 9.10662C3.74737 10.2522 4.73767 11.2037 5.61145 11.9804C6.38815 12.6794 7.20368 13.3785 7.9998 14.0581L8.62116 14.6018C8.85417 14.8154 9.1066 15.0289 9.33961 15.2231C9.59203 15.4367 9.82504 15.6503 10.0775 15.8639C10.6406 15.3785 11.2037 14.893 11.7862 14.3882C12.1357 14.0775 12.4658 13.7862 12.8153 13.495C13.1843 13.1843 13.5532 12.8542 13.9221 12.5241C14.9124 11.6503 15.9998 10.6794 16.8736 9.49497C17.7474 8.3105 18.1551 7.14545 18.0969 5.90273C18.0386 5.10662 17.8445 4.427 17.4949 3.84448C16.7571 2.62118 15.6697 1.99982 14.2716 1.9804C13.3008 1.9804 12.4076 2.38817 11.6503 3.22312C11.4173 3.49497 11.2231 3.78623 11.0289 4.05807L10.9901 4.09691C10.7377 4.46584 10.3882 4.6406 9.98038 4.60176C9.63087 4.58234 9.32019 4.38817 9.06776 4.01924C8.75708 3.51438 8.42699 3.10662 8.03864 2.77652C7.39786 2.25225 6.64058 1.9804 5.76679 1.9804Z" fill="#0B132B"/>
</g>
<defs>
<clipPath id="clip0_154_3598">
<rect width="20" height="17.9223" fill="white"/>
</clipPath>
</defs>
</svg>
