<svg width="17" height="20" viewBox="0 0 17 20" fill="none" xmlns="http://www.w3.org/2000/svg">
<g clip-path="url(#clip0_37_8277)">
<path d="M3.58822 11.2548C4.62744 13.0587 5.94116 14.8431 7.66666 16.8823C7.88234 17.1372 8.15685 17.2744 8.43136 17.2744C8.70587 17.2744 8.98038 17.1372 9.19607 16.8823C10.1765 15.745 11.0196 14.6666 11.7647 13.5882C12.6667 12.3136 13.6667 10.7842 14.3725 9.05874C14.7059 8.25482 15 7.35286 14.9608 6.31364C14.9608 6.15678 14.9608 5.86266 14.9019 5.56854L14.8823 5.43129C14.647 3.88227 13.9216 2.58815 12.7451 1.58815C11.2941 0.352859 9.58822 -0.176553 7.68626 0.0391337C5.98038 0.235212 4.56862 0.960702 3.49018 2.2156C2.09803 3.82345 1.60783 5.62737 2.0392 7.60776C2.33332 8.9607 2.96077 10.1568 3.58822 11.2548ZM4.70587 3.62737C5.56862 2.49011 6.98038 1.80384 8.45097 1.80384C10.7451 1.80384 12.7255 3.47051 13.0784 5.68619C13.2157 6.50972 13.098 7.35286 12.7059 8.33325C12.1372 9.74502 11.3137 11.0391 10.5098 12.2156C9.90195 13.098 9.23528 13.9999 8.45097 14.9607C7.25489 13.4901 5.74509 11.5097 4.60783 9.25482C4.31371 8.68619 3.96077 7.92149 3.82352 7.09796C3.60783 5.84305 3.90195 4.68619 4.70587 3.62737Z" fill="#00AEEF"/>
<path d="M15.9019 14.5881C15.1372 13.941 14.2157 13.6273 13.4118 13.3724C12.9216 13.2352 12.4118 13.4704 12.2549 13.941C12.098 14.4116 12.3529 14.9018 12.8431 15.0783C12.9216 15.0979 13 15.1175 13.0588 15.1567C13.1765 15.1959 13.2745 15.2352 13.3921 15.2744C13.9019 15.4508 14.4314 15.6861 14.8431 16.0783C15.0392 16.2744 15.0588 16.392 14.8627 16.6077C14.8039 16.6665 14.7255 16.745 14.6667 16.7842C14.2941 17.0587 13.8431 17.294 13.2157 17.4901C11.8823 17.941 10.3921 18.1371 8.43136 18.1763C7.84313 18.1763 7.25489 18.1371 6.68626 18.0979C5.43136 17.9999 4.35293 17.7646 3.39215 17.4116C2.90195 17.2352 2.39215 17.0195 1.99999 16.6273C1.90195 16.5293 1.84313 16.4312 1.84313 16.3528C1.84313 16.2744 1.90195 16.1763 2.0196 16.0587C2.33332 15.745 2.74509 15.5685 3.0392 15.4312C3.2745 15.3332 3.49018 15.2548 3.74509 15.1763C3.84313 15.1371 3.92156 15.1175 4.0196 15.0783C4.49018 14.9214 4.74509 14.4312 4.60783 13.9606C4.47058 13.5097 3.96077 13.2155 3.5294 13.3528C2.72548 13.5881 1.68626 13.941 0.80391 14.6861C0.294106 15.1175 -1.17701e-05 15.6861 -0.0196196 16.2548C-0.0392275 16.8234 0.196067 17.4116 0.666655 17.8822C1.05881 18.2744 1.5294 18.5881 2.17646 18.8626C3.96077 19.6469 5.84312 19.843 7.2745 19.941C7.60783 19.9606 7.96077 19.9803 8.33332 19.9803C8.84313 19.9803 9.39215 19.9606 9.98038 19.9214C11.2941 19.8234 12.451 19.6077 13.5294 19.294C14.5098 19.0195 15.2157 18.6665 15.8039 18.2352C16.4902 17.7253 16.8627 17.0979 16.8627 16.4312C16.8823 15.7646 16.549 15.1175 15.9019 14.5881Z" fill="#00AEEF"/>
<path d="M8.41176 9.09788H8.43136C9.99999 9.07827 11.2353 7.88219 11.2353 6.37239C11.2353 4.88219 9.98038 3.6665 8.43136 3.6665C6.88234 3.6665 5.62744 4.88219 5.62744 6.35278C5.62744 7.07827 5.92156 7.76454 6.43136 8.29395C6.98038 8.80376 7.66666 9.09788 8.41176 9.09788ZM8.43136 5.45082C8.45097 5.45082 8.45097 5.45082 8.43136 5.45082C8.68626 5.45082 8.92156 5.54886 9.09803 5.72533C9.2745 5.9018 9.37254 6.13709 9.37254 6.39199C9.37254 6.88219 8.94117 7.29395 8.43136 7.29395C8.17646 7.29395 7.94117 7.19592 7.7647 7.01944C7.58823 6.84297 7.49019 6.60768 7.49019 6.37239C7.50979 5.84297 7.92156 5.45082 8.43136 5.45082Z" fill="#00AEEF"/>
</g>
<defs>
<clipPath id="clip0_37_8277">
<rect width="16.8627" height="20" fill="white"/>
</clipPath>
</defs>
</svg>
