<svg width="17" height="20" viewBox="0 0 17 20" fill="none" xmlns="http://www.w3.org/2000/svg">
<g clip-path="url(#clip0_37_8283)">
<path d="M3.58824 11.2548C4.62745 13.0587 5.94118 14.8431 7.66667 16.8823C7.88236 17.1372 8.15687 17.2744 8.43138 17.2744C8.70589 17.2744 8.9804 17.1372 9.19608 16.8823C10.1765 15.745 11.0196 14.6666 11.7647 13.5882C12.6667 12.3136 13.6667 10.7842 14.3726 9.05874C14.7059 8.25482 15 7.35286 14.9608 6.31364C14.9608 6.15678 14.9608 5.86266 14.902 5.56854L14.8824 5.43129C14.6471 3.88227 13.9216 2.58815 12.7451 1.58815C11.2941 0.352859 9.58824 -0.176553 7.68628 0.0391337C5.9804 0.235212 4.56863 0.960702 3.4902 2.2156C2.09804 3.82345 1.60785 5.62737 2.03922 7.60776C2.33334 8.9607 2.96079 10.1568 3.58824 11.2548ZM4.70589 3.62737C5.56863 2.49011 6.9804 1.80384 8.45098 1.80384C10.7451 1.80384 12.7255 3.47051 13.0784 5.68619C13.2157 6.50972 13.098 7.35286 12.7059 8.33325C12.1373 9.74502 11.3137 11.0391 10.5098 12.2156C9.90196 13.098 9.2353 13.9999 8.45098 14.9607C7.25491 13.4901 5.7451 11.5097 4.60785 9.25482C4.31373 8.68619 3.96079 7.92149 3.82353 7.09796C3.60785 5.84305 3.90196 4.68619 4.70589 3.62737Z" fill="#3A506B"/>
<path d="M15.902 14.5881C15.1373 13.941 14.2157 13.6273 13.4118 13.3724C12.9216 13.2352 12.4118 13.4704 12.2549 13.941C12.098 14.4116 12.3529 14.9018 12.8431 15.0783C12.9216 15.0979 13 15.1175 13.0588 15.1567C13.1765 15.1959 13.2745 15.2352 13.3922 15.2744C13.902 15.4508 14.4314 15.6861 14.8431 16.0783C15.0392 16.2744 15.0588 16.392 14.8627 16.6077C14.8039 16.6665 14.7255 16.745 14.6667 16.7842C14.2941 17.0587 13.8431 17.294 13.2157 17.4901C11.8824 17.941 10.3922 18.1371 8.43137 18.1763C7.84314 18.1763 7.2549 18.1371 6.68627 18.0979C5.43137 17.9999 4.35294 17.7646 3.39216 17.4116C2.90196 17.2352 2.39216 17.0195 2 16.6273C1.90196 16.5293 1.84314 16.4312 1.84314 16.3528C1.84314 16.2744 1.90196 16.1763 2.01961 16.0587C2.33333 15.745 2.7451 15.5685 3.03922 15.4312C3.27451 15.3332 3.4902 15.2548 3.7451 15.1763C3.84314 15.1371 3.92157 15.1175 4.01961 15.0783C4.4902 14.9214 4.7451 14.4312 4.60784 13.9606C4.47059 13.5097 3.96078 13.2155 3.52941 13.3528C2.72549 13.5881 1.68627 13.941 0.803921 14.6861C0.294117 15.1175 -3.25963e-07 15.6861 -0.0196082 16.2548C-0.039216 16.8234 0.196078 17.4116 0.666666 17.8822C1.05882 18.2744 1.52941 18.5881 2.17647 18.8626C3.96078 19.6469 5.84314 19.843 7.27451 19.941C7.60784 19.9606 7.96078 19.9803 8.33333 19.9803C8.84314 19.9803 9.39216 19.9606 9.98039 19.9214C11.2941 19.8234 12.451 19.6077 13.5294 19.294C14.5098 19.0195 15.2157 18.6665 15.8039 18.2352C16.4902 17.7253 16.8627 17.0979 16.8627 16.4312C16.8824 15.7646 16.549 15.1175 15.902 14.5881Z" fill="#3A506B"/>
<path d="M8.41176 9.09788H8.43137C10 9.07827 11.2353 7.88219 11.2353 6.37239C11.2353 4.88219 9.98039 3.6665 8.43137 3.6665C6.88235 3.6665 5.62745 4.88219 5.62745 6.35278C5.62745 7.07827 5.92157 7.76454 6.43137 8.29395C6.98039 8.80376 7.66666 9.09788 8.41176 9.09788ZM8.43137 5.45082C8.45098 5.45082 8.45098 5.45082 8.43137 5.45082C8.68627 5.45082 8.92157 5.54886 9.09804 5.72533C9.27451 5.9018 9.37255 6.13709 9.37255 6.39199C9.37255 6.88219 8.94117 7.29395 8.43137 7.29395C8.17647 7.29395 7.94117 7.19592 7.7647 7.01944C7.58823 6.84297 7.49019 6.60768 7.49019 6.37239C7.5098 5.84297 7.92157 5.45082 8.43137 5.45082Z" fill="#3A506B"/>
</g>
<defs>
<clipPath id="clip0_37_8283">
<rect width="16.8627" height="20" fill="white"/>
</clipPath>
</defs>
</svg>
