<svg width="20" height="19" viewBox="0 0 20 19" fill="none" xmlns="http://www.w3.org/2000/svg">
<path d="M20 2.21815V2.19982C20 2.07149 20 1.94317 19.9817 1.79652C19.78 0.71494 18.9184 0 17.8185 0C15.8753 0 13.9505 0 12.0073 0H10.0092H7.64436C5.81118 0 3.95967 0 2.12649 0C0.953254 0 0 0.953254 0 2.10816C0 5.51787 0 9.05591 0 12.6673C0 13.8222 0.953254 14.7571 2.10816 14.7754C2.49313 14.7754 2.87809 14.7754 3.26306 14.7754H3.81302C3.84968 14.7754 3.86801 14.7754 3.90467 14.7754C3.90467 14.7938 3.90467 14.8304 3.90467 14.8671V15.3621C3.90467 16.187 3.90467 17.0119 3.90467 17.8368C3.90467 18.2218 4.08799 18.5151 4.4363 18.6434C4.54629 18.6801 4.65628 18.7168 4.76627 18.7168C4.96792 18.7168 5.1879 18.6251 5.40788 18.4601C6.08616 17.9285 6.7461 17.3786 7.42438 16.8469C8.23098 16.2053 9.03758 15.5637 9.84418 14.9038C9.95417 14.8121 10.0458 14.7754 10.1925 14.7754C12.7406 14.7754 15.2704 14.7754 17.8185 14.7754C19.1017 14.7754 20.0183 13.8405 20.0183 12.5756C20 9.11091 20 5.66453 20 2.21815ZM5.62786 13.9688C5.62786 13.4189 5.27956 13.0706 4.72961 13.0706C4.4363 13.0706 4.12466 13.0706 3.83135 13.0706C3.66636 13.0706 3.48304 13.0706 3.31806 13.0706H2.32814C1.86984 13.0706 1.70486 12.9056 1.70486 12.4473C1.70486 9.05591 1.70486 5.68286 1.70486 2.29148C1.70486 1.85151 1.86984 1.68653 2.30981 1.68653C7.44271 1.68653 12.5756 1.68653 17.7085 1.68653C18.1302 1.68653 18.2951 1.85151 18.2951 2.27314C18.2951 5.66453 18.2951 9.05591 18.2951 12.4473C18.2951 12.8873 18.1302 13.0522 17.6902 13.0522H16.462C14.2438 13.0522 12.0257 13.0522 9.80752 13.0522C9.49588 13.0522 9.23923 13.1439 9.00092 13.3456C8.10266 14.0605 7.2044 14.7938 6.30614 15.5087L5.60953 16.0587V15.1421C5.62786 14.7571 5.62786 14.3538 5.62786 13.9688Z" fill="#0B132B"/>
<path d="M4.82127 6.92947C6.1045 6.92947 7.40606 6.92947 8.68929 6.92947H9.97251H11.3841C11.8607 6.92947 12.319 6.92947 12.7956 6.92947C13.6022 6.92947 14.4088 6.92947 15.2154 6.92947C15.4721 6.92947 15.692 6.83781 15.857 6.67282C16.0037 6.52617 16.0953 6.30619 16.0953 6.06787C16.0953 5.57291 15.7287 5.22461 15.2337 5.22461C11.7507 5.22461 8.26765 5.22461 4.80294 5.22461C4.5463 5.22461 4.32632 5.31627 4.16133 5.48125C3.99634 5.64624 3.92302 5.88455 3.94135 6.1412C3.94135 6.59949 4.32632 6.92947 4.82127 6.92947Z" fill="#0B132B"/>
<path d="M8.32259 9.55105H10.0091C10.1741 9.55105 10.3208 9.51439 10.4491 9.42273C10.7607 9.22108 10.9074 8.83611 10.8157 8.46947C10.7057 8.10284 10.3941 7.84619 10.0091 7.84619C9.38583 7.84619 8.76255 7.84619 8.13927 7.84619H7.38766H6.65439C6.03111 7.84619 5.40783 7.84619 4.78455 7.84619C4.54623 7.84619 4.32625 7.93785 4.1796 8.0845C4.03294 8.24949 3.94128 8.46947 3.94128 8.70779C3.94128 9.18441 4.30792 9.55105 4.78455 9.55105C5.60948 9.55105 6.43441 9.55105 7.24101 9.55105C7.60765 9.55105 7.95595 9.55105 8.32259 9.55105Z" fill="#0B132B"/>
</svg>
