<svg width="30" height="30" viewBox="0 0 30 30" fill="none" xmlns="http://www.w3.org/2000/svg">
<g clip-path="url(#clip0_37_13263)">
<path d="M29.9702 13.7648C29.8525 12.7648 29.7055 11.706 29.3819 10.706C27.4408 4.88245 23.4996 1.35304 17.6466 0.264803C9.61724 -1.26461 1.82312 4.08833 0.293706 12.1766C-0.353352 15.5883 0.117236 18.853 1.70547 21.9413C1.88194 22.2648 1.88194 22.4707 1.79371 22.8236C1.47018 23.7354 1.17606 24.706 0.85253 25.6472C0.617236 26.3824 0.381942 27.0883 0.146648 27.8236C-0.176882 28.7942 0.0290005 29.3824 0.823118 29.8824C0.85253 29.9119 0.911353 29.9119 0.940765 29.9119L1.67606 30.0001H1.70547C1.73488 30.0001 1.76429 30.0001 1.79371 30.0001L6.029 28.6177C6.529 28.5001 7.029 28.3236 7.49959 28.1472C7.64665 28.0883 7.70547 28.1177 7.79371 28.1472C9.32312 29.0001 11.029 29.5589 12.8231 29.8236C12.9702 29.853 13.1172 29.853 13.2643 29.8824C13.4114 29.9119 13.5878 29.9413 13.7643 29.9413H16.1466H16.1761C17.1466 29.8236 18.1466 29.6766 19.1172 29.3824C24.9114 27.5001 28.4702 23.5589 29.7349 17.6177C29.7937 17.2942 29.8525 17.0001 29.8819 16.6766C29.9114 16.5295 29.9114 16.353 29.9408 16.206V16.1766V13.7942C29.9702 13.7942 29.9702 13.7648 29.9702 13.7648ZM4.35253 24.5589C4.55841 23.9413 4.73488 23.353 4.94077 22.7354C5.08782 22.1472 5.029 21.6472 4.73488 21.1766C3.88194 19.7942 3.35253 18.2648 3.11724 16.6472C2.70547 13.5295 3.38194 10.6472 5.11724 8.14716C6.73488 5.82363 8.82312 4.23539 11.3525 3.47069C15.2937 2.23539 18.9114 2.82363 22.1761 5.20598C24.8525 7.14716 26.4996 9.85304 26.9996 13.2648C27.029 13.4413 27.0584 13.6177 27.0584 13.8236C27.0878 14.0001 27.0878 14.206 27.0878 14.3824C27.0878 14.5883 27.1172 14.7648 27.1172 14.9413C27.0584 18.6472 25.5878 21.7648 22.7349 24.2354C20.9114 25.7648 18.8231 26.6766 16.4702 26.9119C13.7349 27.206 11.2055 26.6472 8.91135 25.2942C8.529 25.0883 8.17606 24.9707 7.82312 24.9707C7.58782 24.9707 7.35253 25.0001 7.11724 25.0883C6.529 25.2942 5.94077 25.4707 5.35253 25.6472C4.82312 25.8236 4.29371 25.9707 3.79371 26.1472C3.99959 25.6472 4.17606 25.0883 4.35253 24.5589Z" fill="white"/>
<path d="M9.32319 16.6471C9.3526 16.6471 9.38201 16.6471 9.38201 16.6471C9.82318 16.6471 10.235 16.4706 10.5585 16.1765C10.9114 15.853 11.0879 15.4118 11.0879 14.9118C11.0879 13.9412 10.3526 13.1765 9.38201 13.1177C8.38201 13.1177 7.58789 13.8824 7.58789 14.8236C7.58789 15.853 8.3526 16.6471 9.32319 16.6471Z" fill="white"/>
<path d="M15.0292 16.6765C16.0292 16.6765 16.8234 15.9118 16.8234 14.9412C16.8528 14.4706 16.6763 14.0295 16.3528 13.7059C16.0292 13.353 15.5881 13.1765 15.0881 13.1765C14.0881 13.1765 13.2939 13.9412 13.2939 14.8824C13.3234 15.8824 14.0587 16.6765 15.0292 16.6765Z" fill="white"/>
<path d="M20.794 16.6765C21.7646 16.6765 22.5293 15.9118 22.5293 14.9706C22.5293 13.9706 21.7646 13.1765 20.8234 13.1765C19.8234 13.1765 19.0293 13.9412 19.0293 14.9118C19.0293 15.8824 19.8234 16.6765 20.794 16.6765Z" fill="white"/>
</g>
<defs>
<clipPath id="clip0_37_13263">
<rect width="29.9706" height="30" fill="white"/>
</clipPath>
</defs>
</svg>
