<svg width="189" height="171" viewBox="0 0 189 171" fill="none" xmlns="http://www.w3.org/2000/svg">
<rect x="5" y="5" width="179" height="160.1" fill="#3A506B" fill-opacity="0.1" stroke="white" stroke-width="10"/>
<rect x="0.5" y="0.5" width="188" height="169.1" stroke="#3A506B" stroke-opacity="0.5" stroke-dasharray="2 2"/>
<path d="M94.7289 131.04C81.6512 131.04 68.5734 131.04 55.566 131.04C48.3944 131.04 42.8398 125.363 42.8398 118.034C42.8398 100.715 42.8398 83.4692 42.8398 66.151C42.8398 58.8932 48.3944 53.2164 55.4957 53.2164C59.9956 53.2164 64.5657 53.2164 69.0656 53.2164C69.9093 53.2164 70.4015 52.9289 70.6124 52.0666C71.0343 50.4857 71.5968 48.9048 72.1593 47.3957C73.9873 42.4374 78.6981 39.0601 83.8308 39.0601C91.1431 39.0601 98.4553 39.0601 105.768 39.0601C110.9 39.0601 115.541 42.3656 117.299 47.3239C117.861 48.9048 118.423 50.4857 118.845 52.1385C119.056 52.9289 119.478 53.2164 120.322 53.2164C124.962 53.1445 129.603 53.2164 134.243 53.2164C140.993 53.2164 146.618 59.037 146.618 65.8636C146.618 83.3973 146.618 100.859 146.618 118.393C146.618 125.291 140.923 131.04 134.243 131.04C121.095 131.04 107.877 131.04 94.7289 131.04ZM94.6586 123.854C101.971 123.854 109.283 123.854 116.595 123.854C122.08 123.854 127.564 123.854 132.978 123.854C137.267 123.854 139.517 121.483 139.587 117.099C139.587 116.74 139.587 116.381 139.587 116.021C139.587 99.7812 139.587 83.541 139.587 67.2289C139.587 65.7199 139.446 64.2827 138.532 62.9892C137.267 61.1209 135.368 60.4023 133.189 60.4023C127.775 60.4023 122.361 60.4023 117.017 60.4023C114.908 60.4023 113.783 59.6118 113.08 57.5279C112.306 55.3003 111.603 53.0008 110.83 50.7013C109.846 47.6832 107.947 46.246 104.854 46.246C98.1038 46.246 91.354 46.246 84.5339 46.246C81.4402 46.246 79.5418 47.6832 78.5575 50.7013C77.7841 52.9289 77.081 55.2284 76.3076 57.5279C75.6045 59.6118 74.4795 60.4023 72.3702 60.4023C66.9563 60.4023 61.4721 60.4023 56.0582 60.4023C53.7379 60.4023 51.8396 61.1927 50.574 63.3485C49.8709 64.4983 49.7303 65.7917 49.7303 67.0852C49.7303 76.1395 49.7303 85.2656 49.7303 94.3199C49.7303 102.009 49.7303 109.698 49.7303 117.387C49.7303 119.83 50.574 121.842 52.7536 123.064C53.8786 123.71 55.1442 123.782 56.4097 123.782C69.2765 123.854 82.0027 123.854 94.6586 123.854Z" fill="#3A506B" fill-opacity="0.6"/>
<path d="M68.7861 90.2957C68.6455 75.7083 80.6686 63.7078 94.8009 63.7796C108.933 63.7796 120.886 75.852 120.816 90.655C120.675 105.027 109.004 117.099 94.59 117.027C80.4576 116.812 68.5049 104.883 68.7861 90.2957ZM93.7463 71.1093C84.3247 71.3249 74.6922 80.0917 75.9578 92.5234C76.9421 101.65 85.0981 110.776 97.0509 109.482C105.84 108.548 114.769 100.14 113.433 87.9244C112.379 78.0796 103.66 70.5344 93.7463 71.1093Z" fill="#3A506B" fill-opacity="0.6"/>
<path d="M129.322 67.3015C131.361 67.3015 132.838 68.8106 132.838 70.9663C132.838 73.0503 131.361 74.5593 129.252 74.5593C127.213 74.5593 125.736 73.0503 125.736 70.8945C125.807 68.8106 127.283 67.3015 129.322 67.3015Z" fill="#3A506B" fill-opacity="0.6"/>
</svg>
