<svg width="20" height="20" viewBox="0 0 20 20" fill="none" xmlns="http://www.w3.org/2000/svg">
<g clip-path="url(#clip0_37_8332)">
<path d="M17.0769 2.92308C15.1731 1.03846 12.6731 0 10 0C7.32692 0 4.82692 1.03846 2.92308 2.92308C1.03846 4.82692 0 7.32692 0 10C0 12.6731 1.03846 15.1731 2.92308 17.0769C4.82692 18.9615 7.32692 20 10 20C12.6731 20 15.1731 18.9615 17.0769 17.0769C18.9615 15.1731 20 12.6731 20 10C20 7.32692 18.9615 4.82692 17.0769 2.92308ZM15.8462 15.8462C14.2885 17.4038 12.2115 18.2692 10 18.2692C7.78846 18.2692 5.71154 17.4038 4.15385 15.8462C2.59615 14.2885 1.73077 12.2115 1.73077 10C1.73077 7.78846 2.59615 5.71154 4.15385 4.15385C5.71154 2.59615 7.78846 1.73077 10 1.73077C12.2115 1.73077 14.2885 2.59615 15.8462 4.15385C17.4038 5.71154 18.2692 7.78846 18.2692 10C18.2692 12.2115 17.4038 14.2885 15.8462 15.8462Z" fill="#3A506B" fill-opacity="0.6"/>
<path d="M15.0577 8.88465H11.1154V4.96158C11.1154 4.48081 10.7308 4.09619 10.25 4.09619C9.76923 4.09619 9.38461 4.48081 9.38461 4.96158V8.90388H5.4423C4.96153 8.90388 4.57692 9.2885 4.57692 9.76927C4.57692 10.25 4.96153 10.6347 5.4423 10.6347H9.38461V14.577C9.38461 15.0577 9.76923 15.4423 10.25 15.4423C10.7308 15.4423 11.1154 15.0577 11.1154 14.577V10.6154H15.0577C15.5385 10.6154 15.9231 10.2308 15.9231 9.75004C15.9231 9.26927 15.5192 8.88465 15.0577 8.88465Z" fill="#3A506B" fill-opacity="0.6"/>
</g>
<defs>
<clipPath id="clip0_37_8332">
<rect width="20" height="20" fill="white"/>
</clipPath>
</defs>
</svg>
