<svg width="20" height="20" viewBox="0 0 20 20" fill="none" xmlns="http://www.w3.org/2000/svg">
<g clip-path="url(#clip0_37_6134)">
<path d="M19.6311 18.2136C18.1359 16.7379 16.6214 15.2621 15.1262 13.7864L15.0097 13.6699C15.5146 13.0874 15.9223 12.4272 16.233 11.7282C16.9126 10.233 17.1262 8.67961 16.8738 7.06796C16.5631 5.12621 15.6505 3.47573 14.1553 2.15534C13.2039 1.30097 12.1359 0.679612 10.932 0.330097C10.3495 0.15534 9.76699 0.0582524 9.26214 0C9.24272 0 9.24272 0 9.2233 0H7.74757C7.72816 0 7.72816 0 7.70874 0L7.57282 0.0194175C7.14563 0.0776699 6.67961 0.15534 6.21359 0.271845C4.91262 0.640777 3.74757 1.28155 2.75728 2.17476C1.53398 3.28155 0.699029 4.60194 0.271845 6.13592C0.135922 6.60194 0.0776699 7.08738 0 7.53398V7.57282C0 7.59223 0 7.59223 0 7.61165V9.06796C0 9.08738 0 9.14563 0.0194175 9.16505C0.0194175 9.18447 0.0194175 9.18447 0.0194175 9.20388C0.0776699 9.78641 0.194175 10.3689 0.38835 10.9515C1.06796 12.9515 2.34951 14.5049 4.19418 15.5534C6.21359 16.7184 8.40777 16.9903 10.7184 16.3884C11.7282 16.1165 12.6602 15.6699 13.5146 15.0291C13.6311 15.1456 13.7476 15.2621 13.8641 15.3592C13.9417 15.4369 14.0194 15.4951 14.0971 15.5728L15.6699 17.1262C16.0777 17.534 16.4854 17.9417 16.8932 18.3301C17.301 18.7379 17.7087 19.1456 18.1165 19.534C18.1942 19.6117 18.3107 19.7282 18.4272 19.8058C18.6019 19.9223 18.7767 19.9612 18.9709 19.9612C19.1456 19.9612 19.301 19.9223 19.4757 19.8252C19.8058 19.6311 19.9806 19.3204 19.9806 18.932C19.9806 18.6214 19.8058 18.3689 19.6311 18.2136ZM4.97087 13.6893C3.33981 12.6602 2.36893 11.1845 2.03884 9.30097C1.98058 8.97087 1.96117 8.64078 1.96117 8.3301C2 6.4466 2.71845 4.85437 4.11651 3.59223C4.99029 2.81553 6.01942 2.29126 7.14563 2.07767C7.59223 2 8.03883 1.96117 8.46602 1.96117C9.84466 1.96117 11.1068 2.36893 12.2524 3.20388C13.5922 4.15534 14.4272 5.45631 14.7573 7.02913C15.0874 8.62136 14.835 10.1359 14 11.534C13.1845 12.8932 11.9612 13.8641 10.4078 14.3689C9.6699 14.6019 8.87379 14.699 8.01942 14.6602C6.8932 14.5825 5.86408 14.2524 4.97087 13.6893Z" fill="#0B132B"/>
</g>
<defs>
<clipPath id="clip0_37_6134">
<rect width="20" height="20" fill="white"/>
</clipPath>
</defs>
</svg>
