<svg width="15" height="15" viewBox="0 0 15 15" fill="none" xmlns="http://www.w3.org/2000/svg">
<path d="M14.1326 6.82352L14.1473 6.80881C14.2502 6.64704 14.3679 6.45587 14.4267 6.24999C14.662 5.38234 14.5443 4.97057 13.8679 4.41175C13.6032 4.19116 13.2943 4.08822 13.0149 3.99999C12.6326 3.88234 12.4561 3.66175 12.4414 3.32352V3.30881C12.4414 3.22057 12.4267 3.13234 12.4267 3.05881C12.412 2.73528 12.3532 2.44116 12.2208 2.16175C12.0738 1.86763 11.9267 1.58822 11.6326 1.44116C11.2502 1.24999 10.8385 1.17646 10.3826 1.24999C10.2355 1.2794 10.1032 1.30881 9.97082 1.35293L9.85317 1.33822C9.4267 1.45587 9.11788 1.35293 8.89729 1.01469C8.85317 0.955868 8.80905 0.897045 8.77964 0.852927C8.44141 0.41175 8.01494 0.132339 7.47082 0.0146915C7.32376 -1.43612e-05 7.20611 -1.43612e-05 7.07376 0.0146915C6.52964 0.132339 6.08847 0.41175 5.76494 0.852927C5.66199 0.999986 5.52964 1.13234 5.38258 1.26469C5.30905 1.32352 5.25023 1.35293 5.14729 1.35293C4.91199 1.36763 4.6767 1.30881 4.4267 1.24999C3.80905 1.10293 3.29435 1.16175 2.89729 1.41175C2.51494 1.64704 2.26494 2.05881 2.14729 2.63234C2.10317 2.83822 2.10317 3.0441 2.10317 3.22057C2.10317 3.63234 1.9267 3.88234 1.55905 4.01469C1.51494 4.0294 1.45611 4.05881 1.39729 4.07352C1.35317 4.08822 1.29435 4.11763 1.25023 4.13234C0.764936 4.32352 0.382583 4.63234 0.132583 5.07351C0.0737592 5.16175 0.0296415 5.26469 0.0296415 5.36763C0.000229781 5.69116 0.0296415 5.98528 0.117877 6.26469C0.206112 6.57351 0.382583 6.80881 0.544347 7.05881C0.764936 7.38234 0.764936 7.67646 0.573759 7.97057C0.514936 8.05881 0.456112 8.16175 0.382583 8.26469C0.132583 8.66175 0.0149357 9.0441 0.0149357 9.48528C-0.029182 9.72057 0.0590533 9.97057 0.279642 10.2206C0.4267 10.4118 0.632583 10.5882 0.882583 10.75C1.05905 10.8676 1.23552 10.9265 1.4267 11C1.48552 11.0147 1.54435 11.0441 1.60317 11.0588C1.9267 11.1912 2.10317 11.4118 2.11788 11.7353C2.11788 11.8235 2.13258 11.9265 2.13258 12.0294C2.14729 12.3235 2.19141 12.5882 2.29435 12.7941C2.47082 13.2206 2.72082 13.6618 3.32376 13.7941C3.61788 13.8529 3.88258 13.8823 4.14729 13.8529C4.33847 13.8235 4.50023 13.7794 4.6767 13.7353L4.77964 13.7059C5.1767 13.6029 5.45611 13.7059 5.69141 14.0441C5.80905 14.2059 5.95611 14.397 6.14729 14.5294C6.57376 14.8529 6.94141 15.0147 7.30905 15.0147C7.64729 15.0147 7.98552 14.8823 8.36788 14.6176C8.52964 14.5147 8.69141 14.3529 8.83846 14.147C8.94141 14 9.07376 13.8823 9.20611 13.7647C9.26494 13.7059 9.33846 13.6765 9.44141 13.6765C9.66199 13.6765 9.86788 13.7059 10.1032 13.7794C10.6032 13.9265 11.1179 13.897 11.6032 13.6912C11.6914 13.647 11.8091 13.5882 11.912 13.4706C12.2649 13.0735 12.4414 12.6176 12.4855 12.0147C12.5296 11.3088 12.5591 11.2647 13.1914 11C13.2061 11 13.2208 10.9853 13.2355 10.9853C13.2502 10.9853 13.2502 10.9706 13.2649 10.9706H13.2796C13.6032 10.8529 13.8679 10.6912 14.0738 10.4853L14.0885 10.4706C14.2943 10.2647 14.5296 10.0441 14.5738 9.69116C14.6473 9.19116 14.5149 8.72057 14.2061 8.22057C13.7208 7.57352 13.7502 7.42646 14.1326 6.82352ZM11.0738 11.7794C11.0591 11.9412 11.0296 12.0882 11.0002 12.25L10.9708 12.3823C10.9561 12.4412 10.9414 12.4853 10.9267 12.4853C10.912 12.4853 10.8973 12.4853 10.8826 12.4853C10.8679 12.4853 10.8679 12.4853 10.8532 12.4853C10.6326 12.4706 10.4267 12.4265 10.2208 12.3823C10.1179 12.3529 10.0002 12.3382 9.89729 12.3088C9.11788 12.1765 8.4267 12.4265 7.86788 13.0882C7.70611 13.2794 7.54435 13.4412 7.38258 13.5882C7.30905 13.647 7.26494 13.647 7.19141 13.5882C7.02964 13.4412 6.86788 13.2794 6.69141 13.0882C6.41199 12.7647 6.01494 12.397 5.45611 12.2941C5.35317 12.2794 5.25023 12.2647 5.14729 12.2647C4.91199 12.2647 4.6767 12.3088 4.44141 12.3529L4.39729 12.3676C4.1767 12.4118 3.95611 12.4559 3.73552 12.4853C3.6767 12.4853 3.66199 12.4853 3.63258 12.397C3.55905 12.1323 3.52964 11.8676 3.51494 11.6029C3.4267 10.7353 2.95611 10.1323 2.11788 9.7794C1.91199 9.69116 1.72082 9.60293 1.54435 9.49999C1.38258 9.41175 1.38258 9.41175 1.45611 9.24999C1.52964 9.08822 1.63258 8.92646 1.72082 8.76469L1.76494 8.69116C2.00023 8.2941 2.11788 7.91175 2.13258 7.5294C2.13258 7.10293 2.00023 6.69116 1.72082 6.26469C1.61788 6.10293 1.51494 5.92646 1.4267 5.73528C1.38258 5.63234 1.38258 5.61763 1.38258 5.60293C1.38258 5.60293 1.39729 5.57351 1.50023 5.51469C1.70611 5.39704 1.91199 5.30881 2.08847 5.23528C2.98552 4.88234 3.45611 4.20587 3.48552 3.24999C3.48552 3.0441 3.52964 2.82352 3.58847 2.60293C3.60317 2.55881 3.60317 2.5441 3.6767 2.5441C3.89729 2.5441 4.13258 2.60293 4.32376 2.64704C4.6767 2.73528 5.00023 2.74999 5.32376 2.72057C5.94141 2.64704 6.35317 2.2794 6.66199 1.92646C6.83847 1.73528 6.98552 1.57352 7.14729 1.42646C7.22082 1.36763 7.26494 1.36763 7.33847 1.42646C7.50023 1.57352 7.66199 1.72057 7.80905 1.89704C8.01494 2.14704 8.25023 2.35293 8.52964 2.49999C9.02964 2.7941 9.57376 2.74999 10.0296 2.66175C10.0885 2.64704 10.1326 2.63234 10.1914 2.63234C10.3973 2.58822 10.5885 2.5441 10.7943 2.5441C10.912 2.5441 10.9267 2.57352 10.9414 2.66175C11.0002 2.91175 11.0149 3.16175 11.0443 3.41175C11.1179 4.26469 11.5885 4.88234 12.412 5.22057C12.5885 5.2941 12.7796 5.38234 12.9855 5.48528C13.1767 5.58822 13.1767 5.58822 13.0885 5.7794C13.0296 5.91175 12.9708 6.01469 12.8973 6.11763C12.8826 6.14704 12.8532 6.19116 12.8385 6.22057C12.7943 6.2794 12.7649 6.33822 12.7355 6.39704C12.3091 7.16175 12.3385 7.94116 12.8385 8.72057C12.9561 8.89704 13.0591 9.10293 13.1473 9.2941C13.1767 9.36763 13.1767 9.39704 13.1032 9.44116C12.8973 9.55881 12.7061 9.66175 12.5002 9.73528C11.5885 10.1176 11.1032 10.8088 11.0738 11.7794Z" fill="#00AEEF"/>
<path d="M9.6767 5.26469C9.41199 5.24999 9.25023 5.39704 9.10317 5.5294L6.52964 8.05881C6.51494 8.07352 6.48552 8.10293 6.47082 8.11763C6.45611 8.10293 6.4267 8.07352 6.41199 8.05881C6.32376 7.97057 6.25023 7.89704 6.16199 7.80881C6.00023 7.64704 5.82376 7.47057 5.64729 7.30881C5.35317 7.0294 4.9267 7.0294 4.64729 7.2941C4.51494 7.42646 4.44141 7.60293 4.44141 7.7794C4.44141 7.97057 4.51494 8.14704 4.66199 8.2794C4.94141 8.57352 5.23552 8.85293 5.52964 9.14705C5.6767 9.2941 5.82376 9.44116 5.97082 9.58822C6.11788 9.72057 6.27964 9.7794 6.45611 9.7794C6.47082 9.7794 6.48552 9.7794 6.50023 9.7794C6.73552 9.7794 6.88258 9.66175 7.04435 9.5294C7.54435 9.0294 8.04435 8.5294 8.55905 8.0294C9.05905 7.5294 9.57376 7.0294 10.0738 6.5294C10.0885 6.51469 10.1032 6.49999 10.1179 6.48528C10.1473 6.45587 10.1914 6.41175 10.2208 6.35293C10.3826 6.11763 10.3973 5.88234 10.2649 5.64705C10.162 5.39705 9.95611 5.2794 9.6767 5.26469Z" fill="#00AEEF"/>
</svg>
