<svg width="20" height="20" viewBox="0 0 20 20" fill="none" xmlns="http://www.w3.org/2000/svg">
<g clip-path="url(#clip0_37_8352)">
<path d="M19.2745 6.70588C18.9804 6.5098 18.6078 6.4902 18.3137 6.70588C18.0196 6.92157 17.902 7.27451 18 7.64706C18.3725 8.94118 18.4314 10.2157 18.1961 11.4706C17.7647 13.8039 16.5294 15.6667 14.5294 16.9804C12.902 18.0588 11.0588 18.4902 9.03922 18.2745C7.64706 18.1176 6.37255 17.6667 5.29412 16.8824C2.78431 15.098 1.56863 12.6667 1.64706 9.62745C1.68627 8.45098 1.96078 7.33333 2.4902 6.29412C3.64706 4.05882 5.45098 2.56863 7.90196 1.90196C8.56863 1.72549 9.2549 1.62745 10.0392 1.64706C10.8039 1.64706 11.5882 1.76471 12.3725 2C12.6471 2.07843 12.9412 2.01961 13.1569 1.80392C13.3725 1.60784 13.451 1.29412 13.3922 1C13.2745 0.509804 12.8431 0.392157 12.7059 0.352941C12.1373 0.196078 11.549 0.0980392 10.8627 0H10.8431C10.2941 0 9.72549 0 9.15686 0H9.13725C8.62745 0.0588235 8.03922 0.156863 7.47059 0.294118C3.7451 1.2549 0.803922 4.41176 0.137255 8.17647C0.0980392 8.43137 0.0588235 8.70588 0.0196078 8.94118L0 9.11765V9.13725V10.8235C0 10.8431 0 10.8627 0 10.8627C0 10.8627 0 10.902 0.0196078 10.902V10.9216C0.137255 12.3529 0.568627 13.6863 1.2549 14.8627C3.05882 17.9412 5.76471 19.6471 9.29412 19.9608C9.54902 19.9804 9.82353 20 10.0784 20C10.9608 20 11.8235 19.8824 12.6667 19.6275C15.5882 18.7647 17.7255 16.9412 19.0588 14.1961C19.549 13.1765 19.8431 12.0588 19.9412 10.8627C20.0392 9.56863 19.9216 8.31373 19.5686 7.13726C19.5294 6.96078 19.4314 6.82353 19.2745 6.70588Z" fill="#3A506B"/>
<path d="M12.9608 5.39216C12.9412 5.76471 12.8235 6 12.6078 6.21569C11.8627 6.94118 11.1176 7.68628 10.4118 8.41177C10.1176 8.70588 9.82353 9 9.52941 9.29412C9.45098 9.37255 9.37255 9.45098 9.31372 9.52941C9.13725 9.78431 9.11764 10.098 9.2549 10.3725C9.39215 10.6471 9.64706 10.8039 9.98039 10.8039C10.2941 10.8039 10.5098 10.6275 10.6471 10.4902C11.7451 9.39216 12.8431 8.27451 13.9608 7.17647C14.0392 7.09804 14.0784 7.05882 14.1373 7.05882C14.4118 7.03922 14.6863 7 14.9608 6.98039C15.4902 6.92157 16.0588 6.86275 16.6078 6.82353C17.1373 6.78431 17.5098 6.60784 17.8431 6.2549C18.1569 5.92157 18.4902 5.58824 18.8235 5.2549C18.9608 5.11765 19.1176 4.98039 19.2549 4.82353L19.3725 4.70588C19.4902 4.58824 19.6274 4.47059 19.7451 4.33333C19.9804 4.07843 20.0588 3.76471 19.9216 3.43137C19.8039 3.11765 19.549 2.94118 19.1961 2.90196C18.8823 2.88235 18.5686 2.84314 18.2549 2.82353C17.9412 2.80392 17.6274 2.76471 17.2941 2.7451C17.2353 2.7451 17.2157 2.7451 17.1961 2.72549C17.1961 2.70588 17.1961 2.68627 17.1961 2.64706L17.0784 0.980392C17.0588 0.72549 17.0196 0.215686 16.4902 0.0196078C16.4706 0 16.4314 0 16.4118 0C16.2745 0 16.1373 0 16 0C15.9608 0 15.9216 0.0196078 15.8823 0.0392157C15.8627 0.0588235 15.8235 0.0784314 15.8039 0.0980392C15.7451 0.137255 15.6667 0.196078 15.6078 0.254902C15.0784 0.784314 14.549 1.31373 14 1.84314L13.4902 2.35294C13.3333 2.5098 13.2353 2.70588 13.2157 2.92157C13.1176 3.7451 13.0392 4.56863 12.9608 5.39216ZM14.6274 5.35294L14.8039 3.54902L14.8235 3.39216C14.8235 3.39216 14.8431 3.35294 14.8627 3.35294L15.5294 2.68627C15.5294 2.76471 15.549 2.84314 15.549 2.90196C15.5686 3.11765 15.5882 3.35294 15.6078 3.56863C15.6471 4.01961 15.9608 4.33333 16.4118 4.37255C16.5882 4.39216 16.7647 4.39216 16.9608 4.41176C17.0784 4.41176 17.1961 4.43137 17.3137 4.43137C17.2745 4.47059 17.2549 4.4902 17.2157 4.52941C17.0196 4.72549 16.8235 4.90196 16.6471 5.11765C16.6274 5.15686 16.5882 5.15686 16.4902 5.15686C16.4706 5.15686 16.451 5.15686 16.4118 5.15686C16.0588 5.19608 15.7255 5.23529 15.3529 5.27451C15.1176 5.29412 14.8823 5.33333 14.6274 5.35294Z" fill="#3A506B"/>
<path d="M12.2549 4.58832C12.4314 4.35303 12.4902 4.0393 12.3725 3.76479C12.2157 3.35303 11.8235 3.25499 11.6274 3.21577C10.7255 3.01969 9.88235 2.98048 9.05882 3.07852C7.47058 3.2942 6.13725 3.96087 5.05882 5.07852C3.47058 6.70597 2.80392 8.66675 3.09803 10.902C3.29411 12.4707 3.98039 13.8236 5.11764 14.9217C6.5098 16.255 8.11764 16.9413 9.88235 16.9413C10.3137 16.9413 10.7451 16.902 11.1961 16.8236C13.5294 16.4118 15.2549 15.0785 16.3333 12.8824C16.7059 12.0981 16.9216 11.255 16.9804 10.2746C17.0196 9.58832 16.9412 8.86283 16.7451 8.13734C16.6863 7.88244 16.5098 7.68636 16.2941 7.58832C16.0784 7.49028 15.8235 7.49028 15.6078 7.58832C15.2157 7.76479 15.0392 8.15695 15.1569 8.62754C15.3529 9.41185 15.3725 10.1766 15.2353 10.9413C14.6863 13.7844 12.0196 15.6471 9.15686 15.1962C6.58823 14.7844 4.72548 12.5687 4.72548 9.94126V9.92165C4.70588 9.70597 4.74509 9.45106 4.7647 9.23538C5.0196 7.62753 5.84313 6.35303 7.21568 5.49028C8.23529 4.84322 9.37254 4.58832 10.6078 4.70597C10.7843 4.72557 10.9412 4.76479 11.1176 4.7844C11.2549 4.80401 11.3922 4.84322 11.549 4.86283C11.8039 4.92165 12.0784 4.82361 12.2549 4.58832Z" fill="#3A506B"/>
<path d="M9.19608 7.92181C9.4902 7.80416 9.82353 7.74533 10.2157 7.78455C10.4706 7.80416 10.7059 7.72573 10.8824 7.58847C11.0588 7.45122 11.1569 7.23553 11.1569 7.01984C11.1765 6.78455 11.098 6.56886 10.9412 6.39239C10.7843 6.21592 10.5686 6.11788 10.3137 6.11788C10.0196 6.11788 9.70588 6.09828 9.41176 6.1571C7.33333 6.45122 5.88235 8.31396 6.11765 10.3924C6.35294 12.6081 8.27451 13.9022 10.0196 13.863C10.0392 13.863 10.0784 13.863 10.098 13.863C10.2941 13.863 10.4902 13.8434 10.6471 13.8238C12.4706 13.5689 13.9608 11.7846 13.8824 9.94141C13.8627 9.51004 13.5098 9.17671 13.0784 9.17671C12.6274 9.1571 12.2745 9.47082 12.2353 9.9218L12.2157 10.0591C12.1961 10.1767 12.1961 10.2944 12.1765 10.3924C11.9608 11.5296 10.9412 12.314 9.76471 12.2159C9.19608 12.1767 8.62745 11.863 8.2549 11.3924C7.88235 10.9414 7.70588 10.3532 7.76471 9.78455C7.88235 8.88259 8.35294 8.27475 9.19608 7.92181Z" fill="#3A506B"/>
</g>
<defs>
<clipPath id="clip0_37_8352">
<rect width="20" height="20" fill="white"/>
</clipPath>
</defs>
</svg>
