<svg width="21" height="20" viewBox="0 0 21 20" fill="none" xmlns="http://www.w3.org/2000/svg">
<path d="M19.3372 9.68801C19.3762 9.64902 19.4152 9.59054 19.4542 9.55156C19.6881 9.29815 19.961 8.94727 20.078 8.45994C20.078 8.44045 20.078 8.42095 20.078 8.40146V7.83616C20.078 7.77768 20.0585 7.7192 20.039 7.68021C19.9025 7.01745 19.3957 6.45214 18.6745 6.23772C17.9337 6.0038 17.1735 6.17924 16.6472 6.70555C16.4522 6.90049 16.2378 6.95897 15.9454 6.90049C14.386 6.53012 12.768 6.33518 10.9942 6.2767C8.5965 6.19873 6.41326 6.39366 4.308 6.8615C3.87915 6.95897 3.60625 6.88099 3.29435 6.60809C2.80703 6.15975 2.10527 6.0038 1.4425 6.19873C0.760242 6.39366 0.253419 6.90049 0.0779808 7.56325C-0.116951 8.32349 0.0779808 9.00575 0.62379 9.57105C0.857708 9.80497 0.955174 10.0584 0.896694 10.3508C0.56531 12.1247 0.56531 13.918 0.877201 15.6724C0.935681 16.0428 0.857708 16.3157 0.604297 16.5691C0.233926 16.92 0.0195013 17.3683 8.08295e-06 17.8946C-0.0389783 18.7134 0.389872 19.4346 1.11112 19.7855C1.87135 20.1558 2.74855 20.0194 3.35283 19.4541C3.60625 19.2202 3.85966 19.1422 4.21053 19.2202C5.57506 19.5321 6.99806 19.727 8.55751 19.805C11.1891 19.9414 13.5868 19.727 15.8675 19.2007C16.1209 19.1422 16.3353 19.1812 16.5497 19.3371L16.6082 19.3761C16.7057 19.4346 16.7836 19.5126 16.8811 19.5711C17.2125 19.844 17.6218 19.9804 18.0507 19.9804C18.1287 19.9804 18.1871 19.9804 18.2651 19.9609C18.8109 19.9024 19.3177 19.61 19.6491 19.1812C19.883 18.8693 19.9805 18.5379 20.0585 18.226C20.0585 18.2065 20.0585 18.187 20.0585 18.148V17.7387C20.0585 17.7192 20.0585 17.6997 20.0585 17.6802C19.961 17.1734 19.6881 16.803 19.3957 16.4716C19.1813 16.2377 19.1228 15.9648 19.1813 15.6334C19.4932 13.879 19.4932 12.0857 19.1618 10.3313C19.1228 10.0974 19.1618 9.90244 19.2983 9.727L19.3372 9.68801ZM1.83237 17.7777C2.26122 17.3683 2.51463 16.881 2.61209 16.3157C2.67057 15.9258 2.61209 15.575 2.55361 15.2241V15.2046C2.3002 13.7036 2.3197 12.1831 2.5926 10.6432C2.74855 9.76598 2.49513 9.00575 1.85186 8.36247C1.69591 8.18704 1.71541 8.10906 1.75439 8.0116C1.79338 7.91413 1.87135 7.85565 1.94933 7.83616C2.04679 7.81667 2.12476 7.85565 2.22223 7.93362C2.70956 8.40146 3.29435 8.63538 3.97662 8.63538C4.24952 8.63538 4.50293 8.5769 4.73685 8.51842C4.81482 8.49893 4.8733 8.47943 4.95127 8.45994C6.82262 8.07008 8.83042 7.89464 10.8967 7.97261C12.4951 8.03109 14.1131 8.22602 15.692 8.5769C16.4717 8.75234 17.232 8.53791 17.8558 7.93362C17.9532 7.83616 18.1287 7.75819 18.2846 7.91413C18.3431 7.97261 18.3626 8.03109 18.3626 8.08957C18.3626 8.16754 18.3236 8.24552 18.2456 8.32349C17.5829 8.96676 17.3294 9.74649 17.4854 10.6432C17.5439 10.9941 17.6023 11.3839 17.6413 11.8128C17.7583 12.9824 17.6998 14.1909 17.4854 15.419C17.3294 16.3157 17.5829 17.0954 18.2261 17.7387C18.3626 17.8751 18.3626 17.9531 18.3431 18.0116C18.3041 18.1286 18.2456 18.2065 18.1092 18.2455C18.0507 18.265 17.9922 18.265 17.8558 18.148C17.4269 17.7387 16.9006 17.4853 16.2963 17.4463C16.2378 17.4463 16.1793 17.4463 16.1209 17.4463C15.8675 17.4463 15.653 17.4853 15.4581 17.5243C13.2164 18.0311 10.8967 18.2065 8.38207 18.0506C7.07603 17.9726 5.75049 17.7777 4.48344 17.5048C4.36648 17.4853 4.23003 17.4658 4.15205 17.4463C4.11307 17.4463 4.09358 17.4463 4.07408 17.4463C4.05459 17.4463 4.0351 17.4463 4.0351 17.4463C3.33334 17.4658 2.74855 17.6997 2.26122 18.148C2.08578 18.304 2.00781 18.2845 1.91034 18.2455C1.81287 18.2065 1.75439 18.1286 1.7349 18.0506C1.71541 17.9531 1.75439 17.8557 1.83237 17.7777Z" fill="#3A506B"/>
<path d="M13.6063 1.73489C14.1521 1.73489 14.6979 1.73489 15.2242 1.73489H15.4191C15.1657 1.9883 14.9123 2.24172 14.6784 2.47563C14.1326 3.02144 13.5673 3.58674 13.0215 4.13255C12.6316 4.52242 12.6706 4.89279 12.7875 5.1462C12.885 5.39961 13.1189 5.67251 13.6647 5.67251C14.386 5.67251 15.1267 5.67251 15.848 5.67251H17.4269C17.9727 5.67251 18.3626 5.32164 18.3626 4.81482C18.3626 4.5809 18.2846 4.36647 18.1287 4.21053C17.9532 4.03509 17.7193 3.93762 17.4269 3.93762H16.5302C16.2378 3.93762 15.9454 3.93762 15.653 3.93762L15.7115 3.87914C16.5107 3.07992 17.2905 2.30019 18.0897 1.50097C18.3821 1.20858 18.4601 0.877193 18.3236 0.526316C18.1677 0.194932 17.8558 0 17.4659 0H16.8226C15.7505 0 14.6784 0 13.6063 0C13.3528 0 13.1189 0.0974659 12.963 0.253411C12.807 0.409357 12.7096 0.623782 12.7096 0.8577C12.6901 1.36452 13.0799 1.7154 13.6063 1.73489Z" fill="#3A506B"/>
<path d="M8.79144 3.19677C8.92789 3.19677 9.04485 3.19677 9.18131 3.19677C8.86941 3.50866 8.55752 3.82055 8.26513 4.11295C7.87526 4.48332 7.91425 4.85369 8.01171 5.1071C8.10918 5.36051 8.3431 5.65291 8.9084 5.65291C9.23979 5.65291 9.55168 5.65291 9.88306 5.65291C10.3119 5.65291 10.7603 5.65291 11.1891 5.65291C11.3061 5.65291 11.4035 5.63342 11.4815 5.61392C11.9104 5.51646 12.1638 5.12659 12.1248 4.67825C12.0858 4.2494 11.7349 3.93751 11.3061 3.91802C11.1696 3.91802 11.0332 3.91802 10.8772 3.91802C11.1891 3.60613 11.501 3.29423 11.8129 2.98234C12.2027 2.59248 12.1638 2.22211 12.0468 1.9687C11.9493 1.73478 11.7154 1.44238 11.1891 1.44238C11.1891 1.44238 11.1891 1.44238 11.1696 1.44238C10.6823 1.44238 10.1755 1.44238 9.68813 1.44238C9.39573 1.44238 9.12283 1.44238 8.83043 1.44238C8.73296 1.44238 8.65499 1.44238 8.53803 1.48137C8.12867 1.59833 7.87526 1.9687 7.91425 2.39755C7.99222 2.86538 8.3431 3.19677 8.79144 3.19677Z" fill="#3A506B"/>
</svg>
