<svg width="22" height="20" viewBox="0 0 22 20" fill="none" xmlns="http://www.w3.org/2000/svg">
<path d="M19.4563 17.8641C18.2913 16.9709 16.932 16.5048 15.3786 16.466C14.3883 16.4466 13.3592 16.5631 12.0388 16.8738C11.2427 17.0485 10.4272 17.2815 9.65049 17.4951C9.32039 17.5922 8.99029 17.6699 8.67961 17.767C8.15534 15.8058 7.63107 13.8447 7.1068 11.8835C7.33981 11.9223 7.53398 11.9806 7.72816 12.0971C8.1165 12.2913 8.50485 12.2136 8.7767 11.8446L8.81553 11.7864C8.8932 11.6893 8.95146 11.5922 9.02913 11.5146C9.61165 10.8738 10.4466 10.7573 11.3398 11.1456C11.6699 11.2815 11.9612 11.2621 12.1942 11.0485C12.3689 10.8932 12.5437 10.6408 12.4272 10.2136C11.9417 8.50484 10.9126 7.20387 9.37864 6.3495C8.15534 5.66989 6.85437 5.43688 5.47573 5.61164C5.45631 5.61164 5.43689 5.61164 5.41748 5.61164C5.41748 5.61164 5.41748 5.59222 5.41748 5.57281C5.37864 5.3398 5.30097 5.1262 5.24272 4.91261L5.20388 4.79611C5.08738 4.36892 4.67961 4.11649 4.27184 4.233C3.84466 4.3495 3.63107 4.75727 3.72816 5.20387L3.74757 5.32038C3.80582 5.55339 3.86408 5.7864 3.94175 6.01941C2.05825 6.81552 0.815534 8.21358 0.23301 10.1942C0.15534 10.4466 0.116505 10.699 0.0776699 10.932C0.0582524 11.068 0.038835 11.2039 0 11.3398C0 11.3592 0 11.3592 0 11.3786V12.3301C0 12.3495 0 12.3495 0 12.3689C0.0194175 12.5048 0.0582524 12.6408 0.0776699 12.7961C0.116505 12.9903 0.135922 13.2039 0.194175 13.4175C0.23301 13.5534 0.330097 13.9806 0.815534 14.0777C1.14563 14.1359 1.43689 14.0194 1.65049 13.6893C2.21359 12.8349 3.18447 12.5825 4.1165 13.0097C4.60194 13.2427 4.93204 13.1456 5.2233 12.699C5.33981 12.5437 5.45631 12.3883 5.63107 12.2524C5.80583 12.8932 5.98058 13.5534 6.15534 14.1942L6.54369 15.6699C6.75728 16.4854 6.97087 17.301 7.20388 18.0971C6.3301 18.2913 5.16505 18.4854 3.94175 18.4466C2.95146 18.4078 2.03883 18.2136 1.2233 17.8447C0.660194 17.5922 0.31068 17.7087 0.038835 18.2524C0 18.2913 0 18.3301 0 18.3689V18.6408C0 18.6602 0 18.6796 0.0194175 18.699C0.135922 19.0485 0.427184 19.1845 0.621359 19.2815C1.53398 19.6699 2.50485 19.9029 3.47573 19.9806C3.49515 19.9806 3.53398 19.9806 3.5534 20C3.57282 20 3.59223 20 3.61165 20.0194C3.63107 20.0194 3.63107 20.0194 3.65049 20.0194H4.8932H4.91262L5.18447 20C5.37864 19.9806 5.57282 19.9612 5.78641 19.9417C7.08738 19.7864 8.34951 19.4563 9.53398 19.1456C9.78641 19.068 10.0583 19.0097 10.3107 18.932C11.5534 18.5825 12.835 18.233 14.1553 18.0971C15.9806 17.8835 17.3786 18.233 18.5825 19.1456C18.7573 19.2815 18.9709 19.3398 19.1845 19.301C19.3786 19.2815 19.5728 19.165 19.6893 18.9903C19.9029 18.6019 19.8252 18.1553 19.4563 17.8641ZM3.39806 11.2815C2.73786 11.2427 2.1165 11.398 1.53398 11.7281C1.5534 10.5048 2.19417 8.95145 3.45631 8.01941C3.20388 9.06795 3.18447 10.1747 3.39806 11.2815ZM6.85437 7.08737C8.09709 7.18446 9.90291 8.33009 10.4272 9.35921C10.4272 9.35921 10.4272 9.35921 10.4078 9.35921C10.1748 9.35921 9.96116 9.37863 9.72816 9.41747C9.30097 9.51455 8.91262 9.66989 8.56311 9.88348C8.19417 8.83494 7.63107 7.88349 6.85437 7.08737ZM7.08738 10.3301C6.29126 10.2718 5.5534 10.4854 4.8932 10.9126C4.81553 10.5437 4.7767 10.1553 4.7767 9.74756C4.7767 9.0097 4.91262 8.31067 5.18447 7.63106C6.07767 8.33009 6.69903 9.20387 7.08738 10.3301Z" fill="#3A506B"/>
<path d="M18.7573 4.97095C18.7573 3.70881 17.7282 2.67969 16.466 2.67969C15.8447 2.67969 15.2621 2.9127 14.8349 3.33988C14.4078 3.76707 14.1553 4.34959 14.1553 4.97095C14.1553 6.23309 15.1845 7.26221 16.4466 7.26221C16.4466 7.26221 16.4466 7.26221 16.466 7.26221C17.0874 7.26221 17.6505 7.0292 18.0971 6.60202C18.5243 6.17483 18.7573 5.59231 18.7573 4.97095ZM16.8544 4.97095C16.8544 5.18454 16.6796 5.33988 16.466 5.33988C16.2524 5.33988 16.0971 5.16512 16.0971 4.95153C16.0971 4.85444 16.1359 4.75736 16.2136 4.67969C16.2913 4.60202 16.3883 4.56318 16.4854 4.56318C16.5825 4.56318 16.6796 4.60202 16.7573 4.67969C16.8155 4.77678 16.8544 4.87386 16.8544 4.97095Z" fill="#3A506B"/>
<path d="M18.8738 3.51458C18.8932 3.51458 18.8932 3.51458 18.9126 3.51458C19.1262 3.51458 19.301 3.45633 19.4563 3.32041C19.6699 3.14565 19.9029 2.93206 20.0971 2.67963C20.3884 2.29128 20.3301 1.74759 19.9612 1.41749C19.5922 1.0874 19.068 1.0874 18.699 1.41749C18.5049 1.59225 18.3301 1.76701 18.1748 1.94177C17.9223 2.23303 17.8641 2.60196 18.0388 2.97089C18.1748 3.30099 18.466 3.49516 18.8738 3.51458Z" fill="#3A506B"/>
<path d="M14.4854 6.54393C14.1165 6.36917 13.7476 6.40801 13.4369 6.67985C13.2427 6.83519 13.068 7.02937 12.9126 7.20413C12.6602 7.49539 12.6019 7.86432 12.7767 8.23325C12.932 8.58277 13.2427 8.77694 13.6311 8.79636H13.6505C14 8.79636 14.3301 8.52451 14.5049 8.34976C14.6602 8.19442 15.0291 7.80607 15.0291 7.37888C15.0291 7.37888 15.0291 7.37888 15.0291 7.35947C14.9903 6.99053 14.7961 6.69927 14.4854 6.54393Z" fill="#3A506B"/>
<path d="M14.0971 3.51472C14.466 3.4953 14.7573 3.30113 14.9126 2.95161C15.068 2.58268 15.0291 2.21375 14.7767 1.9419C14.6019 1.72831 14.4272 1.55355 14.233 1.41763C13.9223 1.16521 13.5534 1.10695 13.1845 1.30113C12.8544 1.47588 12.6602 1.76715 12.6602 2.13608C12.6602 2.48559 12.932 2.83511 13.1068 3.00987C13.2621 3.14579 13.6699 3.51472 14.0971 3.51472Z" fill="#3A506B"/>
<path d="M18.835 6.42725C18.5243 6.42725 18.233 6.602 18.0583 6.89327C17.8641 7.22336 17.8641 7.59229 18.0583 7.88356C18.233 8.1554 18.4854 8.38841 18.7767 8.602C18.932 8.71851 19.1068 8.77676 19.2816 8.77676C19.4369 8.77676 19.6117 8.73793 19.767 8.64084C20.0777 8.46608 20.2524 8.1554 20.2524 7.80589C20.2524 7.24278 19.4369 6.44666 18.835 6.42725Z" fill="#3A506B"/>
<path d="M12.4078 5.92244C12.4854 5.92244 12.5825 5.92244 12.6602 5.92244H12.7573C12.7961 5.92244 12.8155 5.92244 12.8544 5.92244C12.8932 5.92244 12.932 5.92244 12.9709 5.92244C13.0291 5.92244 13.068 5.92244 13.1262 5.92244C13.6505 5.88361 14.0194 5.45642 14.0194 4.95157C14 4.44672 13.6117 4.03895 13.1068 4.01953C12.8932 4.01953 12.6602 4.01953 12.4272 4.01953C11.9029 4.03895 11.4951 4.44672 11.4951 4.97099C11.4951 5.47584 11.9029 5.90303 12.4078 5.92244Z" fill="#3A506B"/>
<path d="M17.4175 8.34935C17.3981 7.8445 16.9903 7.45615 16.4854 7.43673C15.9612 7.41732 15.5534 7.80566 15.5146 8.31052C15.4951 8.58236 15.4951 8.83479 15.5146 9.08722C15.5534 9.57265 15.9806 9.961 16.466 9.961C16.4854 9.961 16.5049 9.961 16.5049 9.961C17.0097 9.94159 17.3981 9.53382 17.4175 9.02897C17.4175 8.9513 17.4175 8.87363 17.4175 8.77654V8.67945V8.58236C17.4175 8.50469 17.4175 8.42702 17.4175 8.34935Z" fill="#3A506B"/>
<path d="M16.466 2.52427C16.9709 2.52427 17.3981 2.1165 17.4175 1.61165C17.4175 1.53398 17.4175 1.45631 17.4175 1.35922V1.26214V1.16505C17.4175 1.08738 17.4175 0.990291 17.4175 0.912621C17.3981 0.407767 16.9709 0 16.466 0C15.9612 0 15.534 0.38835 15.5146 0.893204C15.4951 1.12621 15.4951 1.37864 15.5146 1.61165C15.534 2.1165 15.9612 2.52427 16.466 2.52427Z" fill="#3A506B"/>
<path d="M20.5049 4.01953C20.4272 4.01953 20.3495 4.01953 20.2718 4.01953H20.1748H20.0777C20 4.01953 19.9029 4.01953 19.8252 4.01953C19.3204 4.03895 18.932 4.44672 18.9126 4.95157C18.8932 5.45642 19.301 5.88361 19.7864 5.92244C19.9029 5.92244 20.0388 5.94186 20.1553 5.94186C20.2718 5.94186 20.4078 5.94186 20.5243 5.92244C21.0291 5.88361 21.4175 5.47584 21.4175 4.97099C21.4369 4.46613 21.0291 4.03895 20.5049 4.01953Z" fill="#3A506B"/>
</svg>
