<svg width="19" height="20" viewBox="0 0 19 20" fill="none" xmlns="http://www.w3.org/2000/svg">
<g clip-path="url(#clip0_37_8252)">
<path d="M15.3529 0.156786C15.1961 0.11757 15.0588 0.0783548 14.9216 0.0587469C14.8627 0.0391391 14.7843 0.0391391 14.7255 0.0195312C14.7059 0.0195312 14.7059 0.0195312 14.6863 0.0195312H13.9216C13.902 0.0195312 13.8823 0.0195312 13.8627 0.0195312L13.8235 0.0391391C13.8039 0.0391391 13.8039 0.0391391 13.7843 0.0587469C12.0784 0.254825 10.7451 1.47051 10.3725 3.13718C10.3529 3.23522 10.3333 3.25483 10.3333 3.25483C10.3333 3.25483 10.3137 3.27443 10.2157 3.27443C8.37254 3.27443 6.5294 3.27443 4.68626 3.27443C3.39215 3.27443 2.09803 3.27443 0.784304 3.27443C0.627442 3.27443 0.411755 3.31365 0.313716 3.56855C0.235285 3.76463 0.156853 3.92149 0.0784219 4.05875C-0.0980487 4.31365 0.0392062 4.54894 0.156853 4.70581C1.62744 6.56855 3.09803 8.4313 4.54901 10.294L6.74509 13.098C6.80391 13.1568 6.80391 13.2156 6.80391 13.294C6.80391 14.294 6.80391 15.294 6.80391 16.294V17.6862C6.80391 18.196 6.54901 18.4509 6.03921 18.4509H4.99999C4.50979 18.4509 4.03921 18.4509 3.54901 18.4509H3.47058C3.37254 18.4509 3.2745 18.4509 3.19607 18.5293C3.11764 18.6078 3.11764 18.7058 3.11764 18.8235V18.8823C3.11764 19.098 3.11764 19.3137 3.11764 19.5293V19.6078C3.11764 19.7254 3.11764 19.8235 3.19607 19.9019C3.2745 19.9803 3.37254 19.9803 3.47058 19.9803H3.54901C4.98038 19.9803 6.43136 19.9803 7.86274 19.9803H9.84313C10.451 19.9803 11.0392 19.9803 11.6274 19.9803H11.6471C11.7255 19.9803 11.8431 19.9803 11.9412 19.8823C12.0196 19.7842 12.0392 19.6666 12.0196 19.5882C12 19.3333 12 19.0784 12.0196 18.8235C12.0196 18.745 12.0196 18.6274 11.9412 18.5293C11.8627 18.4313 11.7451 18.4313 11.6274 18.4313C10.7059 18.4313 9.78431 18.4313 9.0196 18.4313C8.58823 18.4313 8.31372 18.1568 8.31372 17.745C8.31372 16.9999 8.31372 16.2352 8.31372 15.4901C8.31372 14.745 8.31372 13.9803 8.31372 13.2352C8.31372 13.1764 8.33332 13.1568 8.35293 13.1176C9.7647 11.3137 11.1961 9.50973 12.6078 7.70581L12.6274 7.6862H12.6471C13.3333 7.99992 14.0588 8.07836 14.8235 7.98032C16.6471 7.70581 18.1176 6.15679 18.2353 4.37247C18.4118 2.37247 17.2353 0.686198 15.3529 0.156786ZM13.9608 6.05875C14.3333 5.58816 14.7059 5.09796 15.098 4.62737C15.1765 4.52934 15.2745 4.37247 15.1569 4.13718C15.0588 3.96071 14.9608 3.74502 14.8431 3.50973C14.7647 3.33326 14.647 3.25483 14.451 3.25483C14.1372 3.25483 13.8235 3.25483 13.5098 3.25483H11.9608C12.2941 2.23522 13.2745 1.52934 14.3725 1.54894C15.451 1.56855 16.4118 2.33326 16.6863 3.35286C16.9216 4.27443 16.7059 5.09796 16.0392 5.74502C15.4118 6.37247 14.6078 6.60777 13.7059 6.39208L13.9608 6.05875ZM7.58823 11.6666C6.54901 10.3333 5.50979 8.99992 4.47058 7.6862C4.56862 7.66659 4.66666 7.64698 4.72548 7.64698C5.05881 7.66659 5.31372 7.80385 5.54901 8.07836C5.99999 8.60777 6.49019 8.92149 7.05882 9.03914C8.03921 9.23522 8.88234 8.9411 9.56862 8.15679C9.84313 7.84306 10.0784 7.6862 10.3725 7.66659C10.4902 7.64698 10.6078 7.66659 10.7255 7.70581C10.0784 8.52934 9.43136 9.35287 8.78431 10.1764L7.96078 11.1764C7.84313 11.3333 7.70587 11.5097 7.58823 11.6666ZM11.6863 6.4313C10.6078 5.84306 9.37254 6.03914 8.5294 6.98032L8.47058 7.05875C8.41176 7.11757 8.35293 7.196 8.29411 7.25483C7.86274 7.66659 7.2745 7.64698 6.84313 7.21561C6.80391 7.17639 6.74509 7.11757 6.70587 7.07835C6.64705 7.01953 6.58823 6.96071 6.54901 6.90188C6.03921 6.39208 5.39215 6.11757 4.74509 6.11757C4.33332 6.11757 3.90195 6.23522 3.49019 6.4509C3.11764 5.98032 2.74509 5.49012 2.35293 4.99992L2.21568 4.82345H12.9804L12.3529 5.62737C12.1176 5.88228 11.902 6.15679 11.6863 6.4313Z" fill="#3A506B"/>
</g>
<defs>
<clipPath id="clip0_37_8252">
<rect width="18.2941" height="20" fill="white"/>
</clipPath>
</defs>
</svg>
