<svg width="23" height="20" viewBox="0 0 23 20" fill="none" xmlns="http://www.w3.org/2000/svg">
<path d="M21.8824 2.64706H16.3725C16.3333 2.64706 16.2549 2.60784 16.2549 2.5098C16.2745 2.01961 16.2353 1.31373 15.6863 0.72549C15.2549 0.254902 14.7255 0 14.1569 0C12.3725 0 10.5294 0 8.72549 0C7.62745 0 6.66667 0.941177 6.56863 2.07843V2.62745H6.45098C5.05882 2.60784 3.64706 2.60784 2.27451 2.58824H1.01961C0.568627 2.58824 0.117647 3.05882 0.0588235 3.09804C0.0196078 3.15686 0 3.21569 0 3.2549V18.2353C0 18.2549 0 18.2745 0 18.2941C0.176471 18.8627 0.431373 19.2549 0.784314 19.5294C1.15686 19.8235 1.58824 19.9804 2.03922 19.9804H20.5882C21.6863 19.9804 22.5098 19.3725 22.8039 18.3529C22.8431 18.1765 22.8627 18 22.8627 17.8039V3.58824C22.8627 2.98039 22.5294 2.64706 21.8824 2.64706ZM8.39216 2.43137V2.31373C8.39216 1.84314 8.52941 1.70588 9 1.70588H13.7843C14.2549 1.70588 14.3922 1.86275 14.3922 2.31373V2.43137C14.3922 2.47059 14.3922 2.52941 14.3922 2.56863C14.3529 2.56863 14.3137 2.56863 14.2549 2.56863H11.3529C10.3922 2.56863 9.43137 2.56863 8.4902 2.56863C8.45098 2.56863 8.41177 2.56863 8.37255 2.56863C8.39216 2.5098 8.39216 2.47059 8.39216 2.43137ZM13.2353 11.7451C13.2353 11.7647 13.2353 11.7843 13.2353 11.7843C13.2157 11.7843 13.1961 11.7843 13.1765 11.7843H11.451L9.76471 11.6863C9.7451 11.6863 9.72549 11.6863 9.70588 11.6863C9.70588 11.6863 9.70588 11.6667 9.70588 11.6471C9.70588 11.4706 9.70588 11.2745 9.70588 11.098C9.70588 11.0196 9.70588 10.9216 9.70588 10.8431H13.2353C13.2353 11.1569 13.2353 11.451 13.2353 11.7451ZM20.8039 4.39216C20.4902 5.33333 20.1765 6.2549 19.8627 7.19608C19.549 8.11765 19.2353 9.05882 18.9216 9.98039C18.7843 10.4118 18.6667 10.4706 18.2157 10.4706H15.0392C15 10.4706 14.9804 10.4706 14.9412 10.4706C14.9412 10.451 14.9412 10.4118 14.9412 10.3922V10.0784C14.9216 9.5098 14.5686 9.15686 14 9.15686H8.70588C8.13726 9.15686 7.78431 9.5098 7.78431 10.0588C7.78431 10.2353 7.78431 10.4314 7.76471 10.451C7.72549 10.4706 7.52941 10.4706 7.35294 10.4706H4.72549C4.21569 10.4706 4.13725 10.4118 3.98039 9.94118C3.4902 8.47059 2.98039 7.01961 2.4902 5.54902L2.09804 4.41176V4.39216H2.11765H20.8039C20.7843 4.37255 20.7843 4.37255 20.8039 4.39216C20.8039 4.37255 20.8039 4.37255 20.8039 4.39216ZM4.41176 12.1765C5.2549 12.1961 6.13725 12.1961 6.98039 12.1765H7.82353C7.84314 12.1765 7.88235 12.1765 7.92157 12.1765C7.92157 12.2157 7.92157 12.2353 7.92157 12.2549V12.549C7.92157 13.1373 8.27451 13.5098 8.84314 13.5098H13.9608C14.5098 13.5098 14.8627 13.1569 14.8627 12.6078C14.8627 12.4314 14.8627 12.2353 14.8824 12.1961C14.9216 12.1765 15.098 12.1765 15.2745 12.1765H18.3333C19.4118 12.1765 20.1765 11.6275 20.5294 10.6275C20.7255 10.0784 20.9216 9.5098 21.098 8.94118C21.1176 8.90196 21.1176 8.88235 21.1373 8.84314V17.5686C21.1373 17.6863 21.1373 17.7843 21.1176 17.8824C21.0784 18.0784 20.9608 18.1765 20.7451 18.2353C20.6667 18.2549 20.5686 18.2549 20.4706 18.2549H2.47059C2.37255 18.2549 2.29412 18.2549 2.19608 18.2549C1.90196 18.2353 1.76471 18.098 1.72549 17.8039C1.72549 17.7647 1.72549 17.7059 1.72549 17.6471V8.78431C1.84314 9.13725 1.96078 9.47059 2.05882 9.78431C2.09804 9.90196 2.13725 10 2.17647 10.1176C2.2549 10.3529 2.33333 10.5882 2.43137 10.8235C2.80392 11.7059 3.4902 12.1765 4.41176 12.1765Z" fill="#3A506B"/>
</svg>
