<svg width="240" height="110" viewBox="0 0 240 110" fill="none" xmlns="http://www.w3.org/2000/svg">
<path d="M105.072 34.322C105.924 35.0792 106.397 35.0792 106.776 34.1326C107.154 33.1861 108.006 32.6181 109.047 32.6181C109.331 32.6181 109.426 32.8074 109.426 33.0914C109.331 34.038 108.763 34.7006 108.006 35.1739C107.817 35.2686 107.628 35.3632 107.344 35.5525C107.817 36.0258 108.29 36.2151 108.574 35.5525C108.858 34.9846 109.142 34.5113 109.71 34.2273C110.183 33.9433 110.846 33.47 111.319 34.038C111.698 34.5113 111.225 35.0792 110.941 35.5525C110.562 36.1205 109.899 36.3098 109.331 36.6884C109.899 37.2564 110.373 37.4457 110.751 36.4991C110.846 36.4045 110.846 36.2151 110.941 36.1205C111.414 35.3632 112.171 34.8899 113.118 34.8899C113.402 34.8899 113.591 35.0792 113.496 35.3632C113.402 36.2151 112.834 36.7831 112.266 37.2564C112.077 37.4457 111.603 37.4457 111.603 37.8244C111.603 38.0137 111.887 38.203 112.077 38.203C112.55 38.3923 112.644 37.919 112.834 37.5404C113.118 36.7831 113.686 36.2151 114.538 36.0258C114.822 35.9312 115.2 35.8365 115.484 36.1205C115.768 36.4045 115.579 36.6884 115.484 36.9724C115.2 37.5404 114.822 38.1083 114.254 38.3923C114.064 38.487 113.78 38.5816 113.875 38.8656C113.875 38.9603 114.064 39.1496 114.254 39.2442C114.538 39.3389 114.822 39.3389 114.916 38.9603C115.295 38.1083 115.768 37.4457 116.715 37.1617C117.093 37.0671 117.472 36.8778 117.756 37.2564C117.945 37.5404 117.756 37.8244 117.661 38.203C117.377 39.0549 116.62 39.4336 115.863 39.9069C115.958 40.0015 115.958 40.1908 116.052 40.2855C116.715 40.5695 117.377 41.3267 118.04 40.9481C118.608 40.6641 118.229 39.7175 118.324 39.1496C118.419 36.9724 118.229 34.7006 118.513 32.5234C118.608 31.9555 118.513 31.3875 117.945 30.9142C117.567 31.3875 117.377 31.9555 116.999 32.3341C116.525 32.8074 115.863 33.2807 115.2 32.9021C114.538 32.5234 115.295 31.9555 115.2 31.3875C115.106 31.3875 115.011 31.2929 114.916 31.2929C114.348 31.4822 113.591 32.3341 113.118 31.5768C112.644 30.8196 113.402 30.157 113.97 29.589C114.064 29.4943 114.159 29.3997 114.348 29.3997C114.538 29.2104 114.916 29.2104 114.727 28.8317C114.727 28.7371 114.538 28.6424 114.443 28.6424C114.064 28.5477 113.97 28.7371 113.78 29.021C113.402 29.6837 113.023 30.2516 112.266 30.5356C111.887 30.6303 111.414 30.9142 111.13 30.5356C110.846 30.157 111.035 29.7783 111.319 29.3997C111.698 28.6424 112.455 28.3584 113.212 27.9798C112.55 27.5065 112.077 27.2225 111.793 28.0745C111.793 28.1691 111.698 28.2638 111.698 28.3584C111.225 29.1157 110.562 29.589 109.71 29.6837C109.426 29.6837 109.142 29.589 109.142 29.2104C109.142 28.3584 109.71 27.7905 110.373 27.3172C110.562 27.1279 111.035 27.1279 110.941 26.6546C110.941 26.5599 110.751 26.4653 110.657 26.3706C110.183 26.1813 109.994 26.5599 109.805 26.8439C109.521 27.4118 109.142 27.8851 108.574 28.0745C108.195 28.2638 107.628 28.5478 107.249 28.2638C106.776 27.7905 107.249 27.3172 107.438 26.9385C107.722 26.2759 108.479 26.1813 109.047 25.6133C108.479 24.856 107.817 24.2881 106.965 24.0041C106.113 23.7201 105.734 22.9629 105.45 22.1109C105.356 21.9216 105.45 21.6376 105.734 21.543C106.586 21.543 107.344 21.9216 107.912 22.5842C108.006 22.6789 108.101 22.8682 108.29 23.0575C108.669 22.3002 108.574 21.7323 107.912 21.259C107.628 21.0697 107.438 20.8804 107.249 20.5964C106.776 20.0284 106.492 19.3658 106.681 18.6085C106.776 18.4192 106.965 18.3246 107.154 18.4192C107.912 18.7032 108.669 19.0818 108.858 19.9338C109.047 20.7857 109.047 21.7323 109.142 22.6789C109.142 22.9629 109.047 23.3415 109.331 23.7201C109.71 22.7735 110.183 22.1109 111.035 21.8269C111.414 21.7323 111.793 21.543 112.077 21.8269C112.361 22.1109 112.171 22.4896 111.982 22.8682C111.603 23.8148 110.751 24.1934 109.805 24.4774C110.657 25.2347 111.225 25.424 111.698 24.1934C111.793 23.8148 112.171 23.5308 112.55 23.2468C113.023 22.8682 113.686 22.3002 114.254 22.8682C114.727 23.4361 114.159 24.0988 113.686 24.5721C113.307 25.0454 112.739 25.2347 112.077 25.5187C112.739 26.0866 113.307 26.2759 113.686 25.3293C113.875 24.856 114.159 24.4774 114.632 24.1934C115.106 23.9094 115.768 23.4361 116.242 23.9094C116.715 24.4774 116.147 24.9507 115.863 25.5187C115.484 26.0866 114.822 26.1813 114.254 26.6546C114.916 27.0332 115.39 27.6012 115.768 26.4652C116.147 25.5187 116.904 24.9507 117.945 24.7614C118.229 24.7614 118.513 24.9507 118.419 25.2347C118.324 26.2759 117.661 26.9385 116.715 27.3172C116.62 27.4118 116.431 27.4118 116.336 27.5065C116.336 27.6012 116.336 27.6958 116.431 27.7905C117.188 28.1691 117.945 29.021 118.608 28.6424C119.176 28.2638 118.797 27.2225 118.797 26.4652C118.892 24.856 118.797 23.2468 118.892 21.6376C118.892 21.1643 118.987 20.691 118.608 20.3124C118.229 19.8391 117.851 19.4605 117.472 20.3124C117.188 21.0697 116.715 21.543 115.958 21.8269C115.579 21.9216 115.2 22.1109 114.916 21.8269C114.538 21.4483 114.822 21.0697 115.011 20.691C115.295 20.2177 115.674 19.8391 116.147 19.5551C116.336 19.4605 116.809 19.3658 116.62 18.9872C116.526 18.7978 116.336 18.7032 116.052 18.6085C115.674 18.5139 115.579 18.7978 115.484 18.9872C115.2 19.7444 114.727 20.3124 113.875 20.5964C113.496 20.691 113.118 20.8804 112.834 20.5964C112.55 20.3124 112.739 19.9338 112.834 19.5551C113.023 19.0818 113.496 18.7032 113.97 18.3246C114.159 18.1352 114.632 18.1352 114.443 17.6619C114.348 17.5673 114.159 17.378 113.97 17.378C113.591 17.2833 113.402 17.5673 113.307 17.9459C112.928 18.8925 112.266 19.3658 111.414 19.5551C110.657 19.7444 110.467 19.3658 110.657 18.7032C110.941 17.6619 111.793 17.1886 112.834 16.81C112.55 16.242 112.266 15.8634 111.603 15.8634C111.414 15.8634 111.225 15.7688 111.035 15.7688C110.089 15.3901 109.521 14.7275 109.331 13.7809C109.237 13.4969 109.426 13.213 109.71 13.213C110.657 13.3076 111.319 13.7809 111.887 14.5382C111.982 14.7275 111.982 15.6741 112.55 14.8222C112.739 14.6328 112.834 14.6328 112.928 14.9168C113.875 17.4726 116.62 17.2833 118.419 18.6085C118.608 18.7978 118.892 18.6085 118.892 18.3246C118.892 17.8513 119.081 17.2833 118.419 16.9993C117.756 16.7153 116.999 16.4314 116.62 15.7688C116.336 15.3901 115.958 14.8222 116.431 14.4435C116.809 14.0649 117.283 14.3489 117.661 14.5382C118.04 14.7275 118.324 15.0115 118.703 15.2008C119.081 14.5382 118.797 14.2542 118.229 14.0649C117.661 13.8756 117.093 13.5916 116.715 12.929C116.431 12.5503 116.052 12.077 116.336 11.6037C116.715 11.1305 117.283 11.5091 117.756 11.6984C118.135 11.8877 118.419 12.1717 118.797 12.4557C119.081 11.6984 118.703 11.4144 118.135 11.2251C117.377 10.9411 116.809 10.3732 116.431 9.71056C116.242 9.42659 116.052 9.04795 116.431 8.66931C116.715 8.38534 117.093 8.57465 117.377 8.66931C117.851 8.95329 118.324 9.14261 118.797 9.42659C119.176 8.66932 118.608 8.47999 118.135 8.29068C117.377 8.0067 116.809 7.43874 116.431 6.77613C116.336 6.49215 116.147 6.20817 116.336 5.82954C116.62 5.54556 116.904 5.64022 117.188 5.73488C117.756 6.01886 118.229 6.30284 118.703 6.58681C118.987 5.82954 118.513 5.64022 118.04 5.4509C117.283 5.16692 116.809 4.69362 116.431 4.03101C116.242 3.74703 116.052 3.3684 116.336 2.98976C116.62 2.61112 117.093 2.8951 117.377 2.98976C117.851 3.17908 118.324 3.46306 118.892 3.74704C119.271 2.98976 118.797 2.70578 118.229 2.61112C117.377 2.32714 116.809 1.85385 116.431 1.00192C116.336 0.71794 116.147 0.433961 116.431 0.149984C116.715 -0.133994 116.999 0.0553244 117.283 0.149984C117.567 0.244643 117.851 0.339304 118.04 0.528622C118.703 1.19124 119.176 1.19124 119.271 0.0553259C119.933 0.623281 119.744 1.2859 119.744 1.85385C119.839 6.96545 119.839 12.1717 119.839 17.2833C119.839 18.7032 119.933 18.7978 121.164 18.1352C122.11 17.6619 123.057 17.1886 124.288 16.526C123.436 15.9581 122.678 15.3901 122.394 14.5382C122.11 13.7809 122.489 13.4969 123.246 13.6863C124.382 13.9702 124.856 14.9168 125.518 15.9581C125.802 14.4435 126.749 13.6863 127.601 12.929C127.979 12.5503 128.642 12.1717 129.115 12.645C129.683 13.213 129.021 13.6863 128.737 14.2542C128.642 14.4435 128.547 14.5382 128.358 14.6328C125.991 15.9581 124.098 18.1352 121.542 19.1765C120.312 19.6498 119.839 20.5017 119.933 21.9216C120.028 23.9094 120.028 25.8973 120.028 27.8851C120.028 28.7371 120.217 29.021 121.069 28.5477C123.625 27.2225 126.275 25.8026 128.926 24.4774C129.588 24.1934 129.778 23.6255 129.872 22.9629C129.967 22.0163 129.21 22.4896 128.831 22.3002C128.642 22.2056 128.547 22.1109 128.358 22.0163C127.601 21.543 127.127 20.7857 127.127 19.8391C127.127 19.5551 127.222 19.3658 127.506 19.3658C128.453 19.4605 128.926 20.0284 129.399 20.7857C130.062 21.7323 130.535 22.6789 130.63 23.9094C131.008 22.9629 131.671 22.3002 132.618 22.1109C133.375 21.9216 133.659 22.2056 133.375 22.9629C133.091 23.8148 132.428 24.2881 131.671 24.6667C127.885 26.1813 124.666 28.5477 121.164 30.5356C120.501 30.9142 120.312 31.4822 120.312 32.1448C120.312 34.8899 120.407 37.635 120.312 40.3801C120.312 41.1374 120.596 41.2321 121.164 40.8534C121.542 40.6641 122.016 40.3802 122.394 40.1908C123.341 39.7175 124.193 39.4336 123.625 38.0137C123.246 37.2564 123.909 36.4045 124.477 35.8365C124.666 35.6472 124.856 35.5525 125.045 35.7418C125.613 36.4045 125.613 37.2564 125.329 38.1083C125.234 38.2976 125.234 38.3923 125.045 38.7709C126.275 38.1083 127.79 38.0137 127.127 36.1205C126.843 35.3632 127.317 34.5113 127.979 33.9433C128.169 33.754 128.453 33.754 128.547 34.038C129.021 34.7006 129.021 35.4579 128.737 36.3098C128.642 36.4991 128.547 36.6884 128.831 36.8778C130.156 36.1205 131.671 35.4579 132.996 34.7006C133.564 34.4166 133.848 33.8487 133.848 33.1861C133.848 32.4288 133.186 32.6181 132.807 32.4288C132.523 32.2395 132.144 32.1448 131.86 31.8608C131.387 31.3875 130.63 30.6302 131.103 30.0623C131.576 29.4943 132.334 30.157 132.902 30.4409C134.037 31.0089 134.605 31.7662 134.605 33.0914C135.079 32.1448 135.647 31.4822 136.593 31.1982C136.877 31.1036 137.256 30.9142 137.54 31.1982C137.918 31.4822 137.635 31.8608 137.54 32.2395C137.256 32.9967 136.593 33.47 135.836 33.754C135.268 33.9433 134.795 34.1326 134.795 34.7953C134.795 35.4579 134.227 35.6472 133.753 35.9312C130.914 37.635 128.169 39.2442 125.139 41.0428C126.181 41.4214 126.938 41.7054 127.411 42.4627C127.601 42.8413 127.885 43.2199 127.601 43.5986C127.222 44.0719 126.749 43.7879 126.37 43.5986C125.707 43.3146 125.329 42.8413 125.045 42.2733C124.761 41.5161 124.288 41.4214 123.625 41.8947C123.53 41.9894 123.436 42.084 123.246 42.084C120.691 43.0306 120.028 44.9238 120.312 47.3849C120.501 49.0888 120.501 50.8873 120.501 52.5912C120.501 53.6324 120.88 53.7271 121.732 53.2538C126.843 50.6033 132.05 47.9529 137.161 45.3024C138.108 44.8291 138.96 44.1665 138.865 42.936C138.865 41.9894 138.865 41.2321 137.635 41.0428C136.877 40.9481 136.309 40.1908 136.025 39.4336C135.931 39.1496 135.741 38.8656 136.025 38.5816C136.309 38.2976 136.593 38.487 136.972 38.5816C137.54 38.7709 137.918 39.0549 138.297 39.5282C138.96 40.3801 139.528 40.4748 140.19 39.5282C140.664 38.8656 141.326 38.487 142.178 38.487C142.462 38.487 142.557 38.7709 142.557 38.9603C142.462 39.8122 141.989 40.3801 141.326 40.8534C139.433 41.9894 139.433 41.9894 140.19 44.2612C140.758 43.6932 141.137 43.1253 141.894 42.8413C142.273 42.7466 142.651 42.5573 142.935 42.8413C143.219 43.1253 143.03 43.5039 142.841 43.7879C142.557 44.4505 142.178 44.9238 141.516 45.1131C138.108 46.249 135.268 48.5208 132.144 50.2247C129.021 51.9286 125.991 53.9164 122.868 55.7149C121.258 56.6615 120.407 57.8921 120.501 59.8799C120.596 61.6785 120.691 63.477 120.691 65.2755C120.691 66.5061 121.069 66.4114 122.016 66.0328C127.695 63.0984 133.47 60.1639 139.149 57.2295C143.409 55.0523 143.125 56.0936 143.125 50.698C143.125 49.1835 143.125 47.4796 144.545 46.4383C144.829 46.249 145.113 45.8704 145.491 46.1544C145.87 46.3437 145.775 46.817 145.681 47.1956C145.586 47.8582 145.302 48.6155 144.639 48.8995C143.693 49.3728 143.693 50.1301 143.882 50.982C144.071 52.2126 144.071 53.4431 144.355 54.6737C144.639 56.0936 144.261 56.8509 143.03 57.6081C136.688 61.2998 130.346 64.9916 124.004 68.7779C120.88 70.5764 119.933 73.1322 120.974 76.6346C121.069 77.0133 121.258 77.3919 121.637 77.6759C121.921 77.8652 122.394 77.9599 122.205 78.4332C122.016 78.7171 121.637 78.7171 121.353 78.7171C119.933 78.7171 118.513 78.7171 117.093 78.7171C116.809 78.7171 116.431 78.7171 116.242 78.4332C116.052 78.0545 116.526 77.9599 116.715 77.6759C116.904 77.4866 117.093 77.3919 117.188 77.2026C118.04 75.4041 117.661 73.5109 117.567 71.6177C117.567 70.4818 116.526 69.9138 115.674 69.4405C110.373 66.3168 104.977 63.0984 99.6762 59.9746C98.1616 59.028 96.5524 58.1761 95.0379 57.3242C94.2806 56.8509 93.9966 56.2829 94.1859 55.431C94.5646 53.5378 94.5646 51.6446 95.2272 49.8461C95.7005 50.7927 95.6058 51.7393 95.5112 52.6859C95.3219 54.579 96.0791 55.7149 97.8777 56.5669C104.125 59.6906 110.278 62.909 116.525 66.1275C118.04 66.8847 118.04 66.8847 118.04 65.1809C118.04 63.477 117.945 61.7731 118.135 60.0693C118.324 58.1761 117.472 56.9455 115.863 55.9989C110.751 53.0645 105.734 50.0354 100.623 47.101C98.4456 45.8704 98.4456 45.8704 98.8242 43.3146C99.0136 42.2733 98.8242 41.0428 99.5815 39.9069C100.055 40.9481 99.6762 41.8 99.6762 42.5573C99.6762 43.8825 100.149 44.8291 101.38 45.3971C106.586 48.0475 111.698 50.698 116.809 53.3485C117.756 53.8218 118.135 53.7271 118.135 52.5912C118.135 50.3194 118.229 48.0475 118.324 45.8704C118.324 45.3971 118.324 44.9238 118.229 44.5452C118.135 44.2612 118.04 43.8825 117.661 43.8825C117.283 43.8825 117.283 44.2612 117.188 44.4505C116.904 45.1131 116.431 45.5864 115.768 45.8704C115.39 45.965 115.011 46.1544 114.727 45.8704C114.443 45.5864 114.632 45.2078 114.727 44.8291C115.011 43.8825 115.958 43.5986 116.809 43.1253C116.147 42.652 115.768 41.8947 115.2 43.1253C114.822 44.0719 114.064 44.6398 112.928 44.6398C112.644 44.6398 112.55 44.4505 112.55 44.1665C112.644 43.1253 113.307 42.5573 114.159 42.084C114.254 41.9894 114.348 41.8947 114.632 41.8C114.064 41.4214 113.591 41.1374 113.118 40.8534C112.171 40.0962 111.414 39.8122 110.751 41.2321C110.467 41.8947 109.71 42.2733 108.858 42.1787C108.574 42.1787 108.385 41.9894 108.385 41.7054C108.479 40.9481 108.858 40.3801 109.521 39.9069C109.805 39.7175 110.089 39.5282 110.467 39.3389C109.899 38.6763 109.426 38.6763 109.047 39.4336C108.763 40.0015 108.385 40.5695 107.722 40.7588C107.344 40.8535 106.87 41.1374 106.586 40.7588C106.208 40.3802 106.492 39.9069 106.681 39.5282C107.06 38.7709 107.817 38.487 108.574 38.1083C107.912 37.5404 107.438 37.2564 107.06 38.2977C106.776 38.9603 106.208 39.4336 105.45 39.7175C105.166 39.8122 104.788 39.9069 104.598 39.6229C104.314 39.3389 104.504 39.0549 104.598 38.6763C104.882 38.1083 105.261 37.7297 105.829 37.3511C106.018 37.2564 106.397 37.1617 106.302 36.7831C106.208 36.6884 106.018 36.4991 105.924 36.4991C105.545 36.4045 105.45 36.6884 105.356 36.8778C105.072 37.7297 104.504 38.2976 103.652 38.487C103.368 38.5816 102.989 38.6763 102.705 38.3923C102.421 38.1083 102.611 37.8244 102.705 37.4457C103.084 36.5938 103.747 36.1205 104.598 35.8365C104.125 35.0792 103.368 34.9846 102.705 34.7953C101.759 34.5113 101.096 33.9433 100.812 32.9967C100.623 32.3341 100.907 32.1448 101.569 32.2395C102.421 32.4288 103.084 32.9967 103.652 33.8487C104.22 32.9967 103.936 32.5234 103.179 32.3341C102.327 32.0501 101.664 31.4822 101.285 30.6303C101.001 29.873 101.285 29.589 102.043 29.6837C102.989 29.873 103.557 30.6303 104.03 31.4822C104.598 30.4409 105.261 29.589 106.208 29.021C106.586 28.8317 106.965 28.6424 107.344 28.9264C107.722 29.305 107.438 29.6837 107.249 30.0623C106.87 30.8196 106.208 31.1982 105.45 31.4822C104.788 31.6715 104.409 32.0501 104.788 33.0914C105.261 32.1448 105.924 31.6715 106.776 31.4822C107.533 31.2929 107.722 31.5768 107.533 32.2395C106.965 33.3754 106.208 33.9433 105.072 34.322Z" fill="#0B132B"/>
<path d="M106.208 109.482C103.652 109.292 101.001 108.914 98.4456 108.156C97.6883 107.967 97.4043 107.494 97.215 106.831C97.0257 105.6 96.7417 104.275 96.5524 103.045C96.4577 102.666 96.1737 102.098 96.8364 101.909C97.4043 101.719 97.5936 102.287 97.783 102.666C98.9189 105.506 101.191 107.21 104.125 107.872C106.586 108.346 108.953 108.156 111.225 107.115C112.266 106.642 113.023 105.79 113.118 104.559C113.212 103.329 112.455 102.571 111.414 102.098C109.237 100.962 106.776 100.678 104.409 99.9209C102.989 99.5423 101.569 99.1636 100.244 98.501C98.4456 97.5544 97.215 96.1346 97.3097 93.9574C97.4043 91.7802 98.6349 90.3603 100.528 89.6031C103.746 88.2778 106.965 88.3725 110.278 89.3191C110.562 89.4138 110.846 89.5084 111.035 89.6031C115.674 91.1176 114.348 90.6443 115.011 94.9986C115.106 95.3773 115.106 95.8506 114.538 95.9452C114.064 96.0399 113.875 95.6613 113.686 95.2826C111.414 90.5497 107.06 88.8458 102.043 90.6443C101.001 91.023 100.055 91.4963 99.9601 92.8215C99.8654 94.1467 100.907 94.62 101.853 95.0933C104.125 96.0399 106.492 96.5132 108.858 97.1758C110.183 97.5544 111.603 98.0277 112.834 98.6903C114.538 99.7316 115.674 101.057 115.674 103.234C115.579 105.411 114.632 107.115 112.739 108.156C110.751 109.103 108.479 109.292 106.208 109.482Z" fill="#0B132B"/>
<path d="M71.8461 92.5374C73.6447 92.5374 75.5378 92.5374 77.3364 92.5374C78.5669 92.5374 79.7975 92.916 80.8388 93.4839C82.2587 94.2412 82.9213 95.4718 82.9213 97.081C82.9213 98.6902 82.3533 100.015 80.8388 100.678C79.6082 101.246 79.5135 101.814 80.0815 102.855C80.5548 103.707 80.9334 104.654 81.3121 105.6C81.7854 106.831 82.5426 107.777 83.9625 107.872C84.3411 107.872 84.6251 108.156 84.6251 108.535C84.6251 109.008 84.2465 109.197 83.8678 109.197C82.6373 109.197 81.5014 109.197 80.2708 109.197C79.6082 109.197 79.4189 108.629 79.1349 108.156C78.1883 106.358 77.2417 104.464 76.2951 102.666C75.9165 101.909 75.4432 101.625 74.6859 101.719C73.3607 101.719 72.0354 101.719 70.7102 101.719C69.8583 101.719 69.5743 102.003 69.5743 102.855C69.5743 103.991 69.5743 105.127 69.5743 106.263C69.5743 106.926 69.5743 107.588 70.5209 107.588C70.8996 107.588 71.0889 107.872 71.0889 108.251C71.0889 108.629 70.7102 108.819 70.4263 108.819C68.7224 108.819 67.0185 108.819 65.3147 108.819C64.936 108.819 64.652 108.629 64.652 108.251C64.652 107.872 64.936 107.683 65.22 107.683C66.4506 107.777 66.3559 106.926 66.3559 106.168C66.3559 102.477 66.3559 98.7849 66.3559 95.1878C66.3559 94.4305 66.3559 93.7679 65.3147 93.7679C64.936 93.7679 64.5574 93.6733 64.5574 93.2C64.5574 92.632 65.0307 92.632 65.4093 92.632C67.6811 92.5374 69.7636 92.5374 71.8461 92.5374ZM73.3607 93.8626C72.5088 93.8626 71.6568 93.8626 70.7102 93.7679C70.0476 93.7679 69.669 93.9572 69.669 94.7145C69.669 96.3237 69.669 98.0276 69.669 99.6368C69.669 100.205 69.953 100.489 70.5209 100.489C72.6034 100.394 74.6859 100.773 76.6738 100.299C78.6616 99.8261 79.3242 98.9742 79.2295 96.7024C79.1349 94.9985 78.1883 93.9572 76.3898 93.7679C75.3485 93.7679 74.3073 93.8626 73.3607 93.8626Z" fill="#0B132B"/>
<path d="M9.93922 88.9404C12.5897 88.9404 15.1455 88.9404 17.7959 88.9404C18.9318 88.9404 19.4998 89.3191 19.5944 90.455C19.6891 91.7802 19.8784 93.1054 19.9731 94.4307C19.9731 94.8093 19.9731 95.1879 19.5944 95.3773C19.1211 95.4719 18.8372 95.1879 18.6478 94.7146C18.6478 94.7146 18.6478 94.62 18.5532 94.62C17.7959 90.9283 15.3348 90.0763 11.927 90.455C10.3178 90.5496 8.70865 90.5496 7.09944 90.455C6.15285 90.455 5.77419 90.8336 5.77419 91.7802C5.77419 93.5787 5.77419 95.3773 5.77419 97.1758C5.77419 98.1224 6.05818 98.5957 7.00478 98.501C8.70864 98.501 10.4125 98.501 12.1164 98.501C13.3469 98.501 14.1042 98.0277 14.2935 96.7025C14.3882 96.2292 14.3882 95.5666 15.1455 95.6612C15.7134 95.7559 15.7134 96.3239 15.7134 96.7971C15.7134 98.501 15.7134 100.205 15.7134 101.909C15.7134 102.382 15.7134 102.855 15.0508 102.95C14.4829 102.95 14.3882 102.477 14.2935 102.098C14.1042 100.962 13.2523 100.489 12.211 100.3C10.4125 99.9209 8.51931 100.016 6.72078 100.016C6.05817 100.016 5.67955 100.3 5.67955 101.057C5.67955 102.855 5.67955 104.749 5.67955 106.547C5.67955 107.21 5.96353 107.588 6.62614 107.683C7.00478 107.778 7.28874 107.967 7.28874 108.44C7.28874 109.008 6.91011 109.103 6.43681 109.103C4.54363 109.103 2.65045 109.103 0.757262 109.103C0.378625 109.103 0 109.008 0 108.535C0 108.062 0.283966 107.778 0.757262 107.778C1.98783 107.778 1.98782 107.115 1.98782 106.168C1.98782 101.625 1.98782 96.9865 1.98782 92.4428C1.98782 91.4962 1.98783 90.6443 0.757262 90.6443C0.378625 90.6443 0.0946419 90.2657 0.189301 89.887C0.28396 89.3191 0.757256 89.3191 1.13589 89.3191C3.69169 89.3191 6.2475 89.3191 8.89796 89.3191C9.37126 88.9404 9.65524 88.9404 9.93922 88.9404Z" fill="#0B132B"/>
<path d="M31.5215 109.292C28.2084 109.197 25.1793 108.44 22.8129 105.979C19.7838 102.855 19.7838 98.5009 22.9075 95.3771C26.8832 91.4961 35.1186 91.0228 39.4729 94.5252C44.5845 98.5956 43.6379 105.506 37.485 108.156C35.5918 108.913 33.604 109.387 31.5215 109.292ZM31.7108 107.967C36.4438 107.967 39.1889 105.411 39.1889 100.773C39.1889 96.0398 36.5385 93.3893 31.7108 93.3893C26.9779 93.3893 24.2327 96.0398 24.2327 100.583C24.2327 105.411 26.8832 107.967 31.7108 107.967Z" fill="#0B132B"/>
<path d="M189.602 109.292C186.573 109.292 183.639 108.535 181.367 106.452C177.675 103.044 177.77 98.2168 181.556 94.9037C185.532 91.4013 193.2 91.1174 197.365 94.2411C202.76 98.3115 201.908 105.316 195.661 108.061C193.673 108.913 191.969 109.292 189.602 109.292ZM197.175 100.867C197.175 96.0396 194.619 93.4838 189.792 93.4838C184.964 93.4838 182.408 95.945 182.314 100.678C182.314 105.506 184.775 107.967 189.602 108.061C194.619 108.061 197.175 105.6 197.175 100.867Z" fill="#0B132B"/>
<path d="M126.843 108.913C124.477 108.913 122.11 108.913 119.839 108.913C119.365 108.913 118.703 109.103 118.513 108.44C118.324 107.683 118.987 107.683 119.46 107.588C120.028 107.494 120.028 106.926 120.028 106.547C120.028 102.666 120.028 98.7849 120.028 94.8092C120.028 94.2413 119.933 93.768 119.271 93.768C118.892 93.6733 118.419 93.5786 118.513 93.0107C118.608 92.3481 119.176 92.5374 119.649 92.5374C122.773 92.5374 125.897 92.5374 129.021 92.5374C130.535 92.5374 131.955 92.632 133.375 92.3481C134.227 92.1588 134.7 92.5374 134.795 93.3893C134.889 94.3359 134.984 95.1878 135.079 96.1344C135.079 96.4184 135.079 96.7971 134.7 96.8917C134.321 96.9864 134.038 96.7024 133.943 96.4184C133.091 93.768 131.103 93.5786 128.737 93.6733C127.317 93.768 125.991 93.6733 124.572 93.6733C123.72 93.6733 123.436 94.0519 123.436 94.8092C123.436 96.0398 123.436 97.2703 123.436 98.5009C123.436 99.2582 123.72 99.6368 124.477 99.5422C125.707 99.5422 126.938 99.5422 128.169 99.5422C129.399 99.4475 130.535 99.2582 130.535 97.649C130.535 97.2704 130.819 96.8917 131.198 96.9864C131.671 96.9864 131.766 97.365 131.766 97.7436C131.766 99.3528 131.766 100.962 131.766 102.571C131.766 102.95 131.576 103.329 131.198 103.329C130.724 103.329 130.535 103.045 130.535 102.666C130.346 101.53 129.589 101.246 128.642 101.057C127.222 100.773 125.802 100.867 124.382 100.867C123.72 100.867 123.341 101.151 123.341 101.909C123.341 103.423 123.341 105.032 123.341 106.547C123.341 107.21 123.625 107.588 124.288 107.588C126.559 107.494 128.831 107.683 131.198 107.494C132.618 107.399 133.564 106.642 134.227 105.411C134.416 104.938 134.605 104.275 135.363 104.559C136.025 104.843 135.647 105.411 135.552 105.884C135.079 108.913 135.079 108.913 132.144 108.913C131.576 108.913 131.008 108.913 130.535 108.913C129.305 108.913 128.074 108.913 126.843 108.913Z" fill="#0B132B"/>
<path d="M219.231 103.897C219.231 100.773 219.231 97.7437 219.231 94.7146C219.231 94.1466 219.041 93.8626 218.473 93.768C218 93.6733 217.621 93.5787 217.716 93.0107C217.811 92.4428 218.284 92.5374 218.757 92.5374C219.515 92.5374 220.272 92.5374 221.124 92.5374C221.502 92.5374 221.881 92.5374 221.976 93.0107C222.07 93.484 221.786 93.6733 221.313 93.768C220.367 93.8626 220.556 94.6199 220.556 95.2825C220.556 99.5422 220.556 103.707 220.556 107.967C220.556 108.44 220.745 109.008 220.272 109.197C219.704 109.481 219.42 108.819 219.041 108.535C214.687 104.464 210.333 100.394 205.978 96.3238C205.789 96.1345 205.6 95.9452 205.41 95.7558C204.937 96.0398 205.126 96.4184 205.126 96.7971C205.126 99.9208 205.126 103.045 205.126 106.168C205.126 107.02 205.126 107.778 206.262 107.778C206.546 107.778 206.736 107.967 206.736 108.345C206.736 108.724 206.546 109.008 206.168 109.008C205.032 109.008 203.896 109.008 202.76 109.008C202.381 109.008 202.097 108.819 202.097 108.44C202.097 108.062 202.287 107.778 202.665 107.778C203.801 107.778 203.896 107.115 203.896 106.263C203.896 102.761 203.896 99.2582 203.896 95.7558C203.896 94.8092 203.801 93.8626 202.571 93.768C202.192 93.768 202.003 93.484 202.097 93.1054C202.192 92.7267 202.476 92.6321 202.855 92.6321C205.126 92.5374 207.209 92.5374 209.007 94.4306C211.942 97.5543 215.255 100.394 218.379 103.329C218.473 103.518 218.663 103.802 219.231 103.897Z" fill="#0B132B"/>
<path d="M168.494 92.2534C170.86 92.3481 172.942 92.916 175.025 93.8626C175.877 94.2413 176.54 97.4597 175.972 98.1223C175.782 98.4063 175.498 98.4063 175.214 98.1223C175.12 98.0276 175.025 97.8383 174.93 97.649C172.753 93.768 170.103 92.6321 165.938 93.8626C164.991 94.1466 163.855 94.5252 163.855 95.6612C163.855 96.8917 164.897 97.2704 165.843 97.649C167.547 98.217 169.345 98.6902 171.144 99.1635C172.091 99.4475 172.943 99.7315 173.889 100.205C175.593 101.057 176.824 102.287 176.729 104.37C176.634 106.452 175.498 107.872 173.51 108.629C171.049 109.576 168.494 109.576 165.938 109.103C165.748 109.103 165.464 109.008 165.275 109.008C160.731 108.156 161.867 108.44 160.921 104.18C160.826 103.802 160.826 103.423 161.299 103.329C161.678 103.234 161.867 103.613 161.962 103.897C164.045 108.535 167.831 108.44 171.712 107.967C172.28 107.872 172.848 107.588 173.321 107.21C174.741 106.263 174.741 104.559 173.321 103.613C172.091 102.855 170.576 102.571 169.156 102.193C167.547 101.814 165.938 101.435 164.423 100.773C162.814 100.015 161.583 98.9742 161.583 97.081C161.489 95.3772 162.625 93.9573 164.518 93.1054C165.748 92.4427 167.168 92.4427 168.494 92.2534Z" fill="#0B132B"/>
<path d="M231.253 109.481C229.454 109.387 227.466 109.008 225.573 108.535C224.721 108.345 224.153 107.777 224.058 106.831C223.964 105.884 223.774 105.032 223.585 104.086C223.491 103.802 223.396 103.423 223.774 103.234C224.248 103.044 224.437 103.423 224.532 103.802C225.005 104.938 225.762 105.884 226.709 106.641C228.791 108.251 233.335 108.629 235.607 107.399C236.459 106.925 236.932 106.357 237.027 105.316C237.027 104.37 236.553 103.802 235.702 103.423C233.714 102.476 231.537 102.192 229.549 101.53C228.602 101.246 227.655 100.962 226.804 100.583C225.289 99.826 224.153 98.7848 224.248 96.8916C224.342 94.9984 225.384 93.7678 226.993 93.1052C229.643 92.064 232.294 92.064 234.944 92.9159C235.323 93.0106 235.607 93.1052 235.986 93.2945C238.447 94.1465 238.92 94.9037 238.731 97.5542C238.731 97.8382 238.731 98.2168 238.352 98.3115C237.879 98.4061 237.784 98.0275 237.595 97.6489C235.607 93.7678 232.01 92.4426 227.939 94.0518C227.182 94.3358 226.614 94.7144 226.614 95.5663C226.614 96.4183 227.088 96.8916 227.845 97.2702C229.738 98.2168 231.82 98.5008 233.714 99.0687C234.944 99.4474 236.08 99.826 237.121 100.394C240.056 102.098 240.056 106.358 237.027 108.061C235.607 108.913 233.43 109.481 231.253 109.481Z" fill="#0B132B"/>
<path d="M146.911 103.707C146.248 103.707 145.491 103.707 144.829 103.707C141.799 103.707 141.421 103.897 140.285 106.736C140.096 107.21 140.001 107.588 140.664 107.683C141.042 107.778 141.232 107.967 141.137 108.346C141.042 108.724 140.758 108.819 140.474 108.914C139.528 108.914 138.581 108.914 137.54 108.914C137.161 108.914 136.877 108.724 136.877 108.346C136.877 107.967 137.067 107.778 137.445 107.683C138.202 107.683 138.581 107.115 138.865 106.547C140.948 102.761 143.125 98.9743 145.207 95.0933C145.491 94.5253 145.964 94.052 145.018 93.4841C144.45 93.1054 144.734 92.5375 145.397 92.4428C146.532 92.3482 147.668 92.3482 148.804 92.4428C149.562 92.4428 149.751 93.1054 150.035 93.6734C152.307 97.7437 154.578 101.814 156.756 105.884C157.229 106.736 157.513 107.683 158.743 107.683C159.027 107.683 159.217 107.967 159.217 108.251C159.217 108.535 159.027 108.819 158.743 108.819C156.85 108.819 154.957 108.819 153.064 108.819C152.78 108.819 152.591 108.63 152.496 108.251C152.496 107.872 152.685 107.683 153.064 107.588C153.916 107.494 153.727 107.115 153.443 106.547L153.348 106.452C152.496 104.275 151.076 103.045 148.52 103.518C148.236 103.802 147.574 103.707 146.911 103.707ZM147.006 102.287C148.047 102.287 148.994 102.287 150.035 102.287C150.981 102.287 151.076 101.909 150.603 101.246C149.562 99.4476 148.52 97.5544 147.574 95.7559C147.195 94.9986 146.816 94.9986 146.438 95.7559C145.397 97.6491 144.355 99.5423 143.314 101.435C142.841 102.193 143.314 102.382 143.977 102.382C145.018 102.287 146.059 102.287 147.006 102.287Z" fill="#0B132B"/>
<path d="M62.1911 98.0276C62.1911 99.8261 62.2858 101.719 61.8125 103.518C61.0552 106.642 58.7834 108.724 55.6596 109.197C53.6718 109.481 51.6839 109.387 49.7907 108.629C47.0456 107.494 45.6258 105.316 45.3418 102.382C45.1525 100.11 45.1524 97.8383 45.1524 95.4718C45.1524 94.7145 45.2471 93.8626 44.1112 93.7679C43.7326 93.7679 43.5432 93.3893 43.6379 93.0106C43.7326 92.7267 44.0165 92.632 44.3005 92.632C46.099 92.632 47.8976 92.632 49.6961 92.632C50.0747 92.632 50.3587 92.7267 50.3587 93.2C50.3587 93.5786 50.0747 93.7679 49.7907 93.7679C48.6548 93.7679 48.5602 94.4305 48.5602 95.2825C48.6548 97.7436 48.4655 100.205 48.7495 102.666C49.2228 106.074 51.116 107.967 54.1451 107.967C57.6475 107.967 60.2979 105.884 60.7712 102.571C61.1499 99.9208 60.9605 97.365 60.9605 94.7145C60.9605 94.0519 60.5819 93.7679 60.014 93.6733C59.6353 93.6733 59.446 93.3893 59.446 93.0106C59.446 92.632 59.8246 92.5374 60.1086 92.5374C61.0552 92.5374 61.9071 92.5374 62.8537 92.5374C63.1377 92.5374 63.4217 92.632 63.4217 93.0106C63.4217 93.2946 63.4217 93.5786 63.1377 93.5786C61.8125 93.8626 62.0964 94.9038 62.0964 95.7558C62.1911 96.513 62.1911 97.2703 62.1911 98.0276Z" fill="#0B132B"/>
</svg>
