<svg width="209" height="159" viewBox="0 0 209 159" fill="none" xmlns="http://www.w3.org/2000/svg">
<path d="M113.82 28.7677C114.707 29.9208 115.772 30.9851 116.393 32.3155C119.586 38.3468 117.102 45.265 110.627 47.9259C107.612 49.1676 104.507 49.4337 101.314 49.1676C100.871 49.1676 100.25 49.2563 100.339 48.5467C100.427 48.0146 101.048 48.2807 101.403 48.2807C105.128 48.3694 109.12 46.9502 111.071 44.7329C111.071 44.6442 110.982 44.4668 110.982 44.4668C108.41 44.0233 108.41 44.0233 108.41 41.3624C108.41 37.8146 108.321 34.2668 108.41 30.719C108.41 29.3886 107.967 28.7677 106.814 28.3243C103.177 26.8165 103.177 26.8165 103.177 30.719C103.177 34.6216 103.177 38.5242 103.177 42.4268C103.177 43.7572 102.822 44.3781 101.314 44.3781C98.0327 44.2894 94.751 44.2894 91.4693 44.3781C90.3162 44.3781 89.7841 43.9346 89.8728 42.7816C89.8728 38.6129 89.8728 34.4442 89.8728 30.3643C89.8728 29.2112 90.4049 28.5904 91.3806 28.0582C94.4849 26.373 97.7666 25.6634 101.492 25.486C94.2188 23.5347 85.9702 26.373 82.245 31.9608C78.165 38.0807 79.5841 46.6841 85.2606 51.385C89.9615 55.2876 95.4606 56.9728 101.403 57.2389C107.789 57.5049 114.087 56.9728 120.206 54.9328C128.189 52.2719 135.019 47.9259 139.453 40.4755C143.888 32.9364 142.824 22.2043 136.97 15.8183C131.914 10.2305 125.351 7.92441 118.344 6.59399C109.829 4.99748 101.226 4.82008 92.711 6.68268C84.7285 8.45658 77.1894 11.3835 71.0694 17.1487C65.4816 22.3817 62.2886 28.7677 63.8851 36.6616C64.6834 40.919 66.8121 44.6442 69.8277 47.7485C70.3599 48.2807 70.892 48.7241 71.3355 49.2563C71.6016 49.5224 72.2225 49.6998 71.6903 50.2319C71.3355 50.5867 71.0694 50.2319 70.8033 49.9659C65.0382 44.8216 61.0469 38.7016 61.0469 30.5416C61.1356 23.3573 64.2399 17.4148 69.2068 12.3592C76.8346 4.73139 86.2363 1.00619 96.7023 0.207939C111.78 -1.03379 125.173 3.31227 136.97 12.5366C142.646 16.9713 146.726 22.5591 147.791 30.0095C148.678 36.2181 146.815 41.7172 142.912 46.4181C137.945 52.3606 131.382 55.6423 124.109 57.6823C113.82 60.5206 103.443 61.1414 92.9771 58.1258C86.8571 56.3519 81.1807 53.6911 76.9233 48.6354C74.4398 45.6198 72.932 42.2494 73.4642 38.3468C74.085 33.2025 77.4555 30.0982 81.6241 27.6147C83.7528 26.373 86.1476 25.5747 88.4536 24.9539C89.518 24.6878 89.9615 24.0669 89.8728 23.0026C89.7841 20.253 89.8728 17.5035 89.8728 14.6652C89.8728 13.5122 90.3162 12.98 91.4693 13.0687C94.8397 13.1574 98.1214 13.1574 101.492 13.0687C102.822 13.0687 103.177 13.6009 103.177 14.8426C103.088 17.5922 103.177 20.253 103.177 23.0026C103.177 24.0669 103.532 24.6878 104.596 24.7765C104.862 24.7765 105.217 24.8652 105.483 24.9539C108.321 25.7521 108.321 25.7521 108.321 22.6478C108.321 20.0756 108.321 17.4148 108.321 14.8426C108.321 13.6009 108.676 13.0687 110.007 13.0687C113.377 13.1574 116.659 13.1574 120.029 13.0687C121.36 13.0687 121.714 13.6009 121.714 14.8426C121.714 24.1556 121.714 33.4686 121.714 42.8703C121.714 43.4911 121.892 44.3781 121.005 44.4668C119.94 44.6442 118.787 44.8216 117.812 44.2894C117.28 44.0233 117.812 43.4024 118.078 42.959C119.94 39.1451 119.586 35.4199 117.28 31.8721C116.393 30.5416 115.328 29.4773 113.82 28.7677Z" fill="#0B132B"/>
<path d="M24.5932 103.006C21.5775 103.006 18.5619 103.094 15.5463 103.006C14.2158 103.006 13.7724 103.36 13.7724 104.779C13.8611 110.279 13.8611 115.778 13.7724 121.188C13.7724 122.518 14.2158 123.228 15.635 123.228C17.0541 123.228 17.3202 124.115 17.2315 125.268C17.1428 126.066 16.788 126.332 16.0784 126.332C11.1115 126.332 6.1446 126.332 1.17767 126.332C0.290723 126.332 0.0246375 125.889 0.0246375 125.091C0.0246375 124.292 -0.0640576 123.583 1.00028 123.317C3.39505 122.696 3.39505 122.607 3.39505 120.124C3.39505 107.085 3.39505 93.9586 3.39505 80.9205C3.39505 79.4126 3.04027 78.437 1.35506 78.437C0.0246375 78.437 -0.0640575 77.55 0.0246375 76.4857C0.0246375 75.4214 0.734198 75.244 1.62115 75.244C6.32199 75.244 11.0228 75.244 15.8124 75.244C16.788 75.244 17.4089 75.5101 17.4089 76.5744C17.4089 77.55 17.2315 78.3483 16.0784 78.3483C14.3045 78.3483 14.0385 79.2353 14.0385 80.8318C14.1272 85.71 14.1272 90.6769 14.0385 95.5551C14.0385 96.8856 14.3932 97.4177 15.8124 97.329C21.8436 97.2403 27.8749 97.2403 33.9948 97.329C35.414 97.329 35.8574 96.8856 35.8574 95.4664C35.7687 90.5882 35.7687 85.6213 35.8574 80.7431C35.8574 79.0579 35.2366 78.3483 33.6401 78.3483C32.487 78.3483 31.7775 77.9048 31.8662 76.5744C31.9549 75.6874 32.2209 75.1553 33.2853 75.1553C38.2522 75.1553 43.2191 75.1553 48.1861 75.1553C49.073 75.1553 49.5165 75.5101 49.5165 76.4857C49.5165 77.284 49.6052 78.1709 48.4521 78.2596C45.7026 78.5257 46.1461 78.9692 46.1461 81.0978C46.1461 94.3134 46.1461 107.529 46.1461 120.745C46.1461 122.341 46.5008 123.228 48.2747 123.139C49.4278 123.139 49.6052 123.849 49.6052 124.913C49.6052 126.066 49.073 126.332 48.0974 126.332C43.3078 126.332 38.4296 126.332 33.6401 126.332C32.5757 126.332 32.0435 125.978 32.0435 124.825C32.0435 123.76 32.487 123.228 33.5514 123.139C35.9461 122.873 35.9461 122.873 35.9461 120.478C35.9461 115.245 35.9461 110.012 35.9461 104.779C35.9461 103.36 35.5914 102.828 34.0835 102.917C30.6244 103.006 27.6088 103.006 24.5932 103.006Z" fill="#0B132B"/>
<path d="M181.761 110.456C181.761 114.181 181.761 117.906 181.761 121.631C181.761 122.696 182.116 123.228 183.18 123.317C184.067 123.405 184.954 123.494 185.042 124.647C185.131 125.623 184.865 126.244 183.712 126.244C179.189 126.244 174.576 126.244 170.053 126.244C169.255 126.244 168.811 125.889 168.811 125.002C168.811 124.204 168.9 123.583 169.787 123.405C169.964 123.405 170.23 123.317 170.408 123.317C171.916 123.405 172.093 122.518 172.093 121.277C172.004 117.374 172.093 113.471 172.093 109.569C172.093 104.779 172.004 99.9011 172.093 95.1116C172.093 93.6925 171.827 92.9829 170.319 92.8942C169.166 92.8942 168.723 92.2733 168.811 91.1203C168.9 90.3221 169.255 89.8786 170.053 89.9673C173.512 89.9673 177.06 89.9673 180.519 89.9673C181.406 89.9673 181.849 90.4108 181.761 91.2977C181.761 92.0073 181.761 92.6281 181.761 93.3377C181.761 93.6925 181.583 94.136 182.027 94.3133C182.382 94.4907 182.648 94.136 182.914 93.8699C185.486 92.0073 188.147 90.2334 191.34 89.6125C199.943 88.1047 204.821 91.7412 204.999 100.433C205.176 107.263 205.088 114.181 204.999 121.011C204.999 122.43 205.176 123.405 206.861 123.494C207.926 123.494 208.192 124.204 208.103 125.179C208.103 126.155 207.394 126.332 206.684 126.332C202.249 126.332 197.903 126.332 193.469 126.332C192.67 126.332 192.049 126.066 192.049 125.179C192.049 124.292 192.315 123.583 193.291 123.583C194.888 123.494 195.242 122.607 195.242 121.188C195.154 114.979 195.242 108.771 195.242 102.562C195.242 101.498 195.242 100.345 194.976 99.369C193.912 95.1116 190.364 94.1359 185.663 95.7325C184.688 96.0872 183.801 96.7081 182.914 97.0629C182.027 97.5064 181.583 98.1272 181.761 99.1029C181.761 99.1916 181.761 99.1916 181.761 99.2803C181.761 102.917 181.761 106.642 181.761 110.456Z" fill="#0B132B"/>
<path d="M144.42 127.308C140.429 127.308 136.526 126.776 133.067 124.736C130.229 123.051 128.278 120.567 127.213 117.463C125.617 112.762 125.262 107.884 126.504 102.917C127.834 97.3291 131.027 93.0717 136.26 90.8544C143.267 87.8387 150.274 88.0161 156.926 92.0074C160.474 94.1361 162.514 97.5065 163.578 101.409C165.086 106.908 165.086 112.319 162.514 117.463C159.41 123.849 153.822 126.598 147.081 127.219C146.194 127.397 145.307 127.308 144.42 127.308ZM153.733 108.505C153.644 104.07 153.556 99.8126 151.427 95.9987C149.21 91.9187 144.243 90.7657 140.695 93.5152C138.832 95.023 137.945 97.1517 137.413 99.4578C136.526 103.183 136.26 106.997 136.526 110.722C136.792 114.092 137.058 117.463 138.832 120.479C140.34 123.139 142.646 124.292 145.751 124.115C148.589 123.938 150.451 122.43 151.693 119.946C153.644 116.221 153.556 112.23 153.733 108.505Z" fill="#0B132B"/>
<path d="M91.2917 98.4822C91.2917 106.11 91.2917 113.649 91.2917 121.277C91.2917 122.696 91.6465 123.405 93.0656 123.494C94.2186 123.494 94.4847 124.204 94.396 125.268C94.3073 126.421 93.5091 126.421 92.7995 126.421C88.4534 126.421 84.1961 126.421 79.85 126.421C79.0518 126.421 78.3422 126.332 78.2535 125.268C78.2535 124.292 78.4309 123.583 79.4952 123.583C81.0031 123.494 81.3578 122.696 81.3578 121.277C81.2691 107.174 81.3578 93.0718 81.3578 78.9693C81.3578 77.6388 81.0917 76.8406 79.5839 76.7519C78.4309 76.6632 78.1648 75.9536 78.2535 74.978C78.3422 73.825 79.0518 73.825 79.85 73.825C83.043 73.825 86.2361 73.9136 89.4291 73.825C90.8482 73.825 91.2917 74.3571 91.2917 75.6876C91.2917 83.2266 91.2917 90.8544 91.2917 98.4822Z" fill="#0B132B"/>
<path d="M113.732 106.376C113.732 109.835 113.643 113.205 113.732 116.664C113.82 120.567 115.328 121.986 119.231 121.986C120.472 121.986 121.803 121.986 123.045 121.897C123.665 121.897 124.552 121.365 124.73 122.518C124.907 123.494 124.819 124.381 123.577 124.824C120.472 125.889 117.368 126.598 114.086 126.687C112.579 126.687 111.159 126.776 109.652 126.51C105.926 125.711 103.975 123.317 103.887 119.059C103.798 114.624 103.798 110.19 103.798 105.666C103.798 102.207 103.798 98.8367 103.798 95.3776C103.798 94.1359 103.443 93.6037 102.113 93.6924C100.96 93.7811 99.7178 93.6924 98.5648 93.6924C97.057 93.6924 97.3231 92.5394 97.2344 91.5637C97.2344 90.5881 97.4118 89.8785 98.6535 89.8785C99.8952 89.9672 101.226 89.8785 102.467 89.8785C103.62 89.8785 104.064 89.435 104.064 88.3707C103.975 86.8629 104.064 85.2664 104.064 83.7586C104.064 82.7829 104.419 82.2507 105.394 81.9847C107.7 81.2751 110.006 80.6542 112.313 79.856C113.377 79.5012 113.732 79.9447 113.732 80.9203C113.732 83.3151 113.732 85.7099 113.732 88.1046C113.732 89.3463 114.175 89.8785 115.417 89.7898C117.191 89.7011 118.965 89.7898 120.827 89.7898C122.246 89.7898 122.335 90.5881 122.424 91.6524C122.424 92.8055 122.246 93.6037 120.827 93.515C119.231 93.4263 117.546 93.515 115.949 93.515C113.909 93.515 113.82 93.6037 113.82 95.7324C113.732 99.3689 113.732 102.828 113.732 106.376Z" fill="#0B132B"/>
<path d="M68.5858 106.642C68.5858 111.52 68.5858 116.487 68.5858 121.365C68.5858 122.607 68.8519 123.317 70.1823 123.405C71.3353 123.405 72.0449 123.938 71.8675 125.268C71.6901 126.598 70.7145 126.332 69.9162 126.332C65.7475 126.332 61.5789 126.332 57.4989 126.332C56.612 126.332 55.725 126.332 55.6363 125.091C55.5476 123.938 56.1685 123.494 57.2328 123.494C58.5632 123.405 59.0067 122.785 59.0067 121.454C58.918 112.673 58.918 103.804 59.0067 95.023C59.0067 93.6926 58.7406 92.8056 57.2328 92.8943C56.1685 92.8943 55.6363 92.3621 55.725 91.2091C55.8137 89.9674 56.612 90.0561 57.4102 90.0561C60.6032 90.0561 63.7963 90.1448 66.9006 90.0561C68.231 90.0561 68.6745 90.5882 68.6745 91.83C68.4971 96.7082 68.5858 101.675 68.5858 106.642Z" fill="#0B132B"/>
<path d="M58.3859 78.703C58.5633 75.2439 61.2241 72.8492 64.5945 73.0266C67.6102 73.204 69.9163 75.8648 69.7389 78.9691C69.5615 82.4282 67.078 84.823 63.9737 84.7343C60.692 84.7343 58.2085 81.9848 58.3859 78.703Z" fill="#0B132B"/>
<path d="M26.6332 151.344C26.6332 147.353 29.4714 144.337 33.1079 144.426C36.8331 144.515 39.5827 147.53 39.5827 151.433C39.5827 155.424 36.7444 158.351 33.0192 158.351C29.294 158.351 26.5445 155.335 26.6332 151.344ZM36.7444 151.433C36.8331 150.723 36.6557 150.014 36.3896 149.304C35.6801 147.619 34.4384 146.732 32.9305 146.821C31.5114 146.909 30.2697 147.885 29.6488 149.482C29.028 151.167 29.1166 152.852 30.0923 154.36C31.6001 156.843 34.7931 156.755 36.1236 154.182C36.567 153.295 36.7444 152.409 36.7444 151.433Z" fill="#0B132B"/>
<path d="M147.791 151.433C147.791 147.264 150.451 144.337 154.265 144.426C157.99 144.426 160.563 147.264 160.563 151.256C160.563 155.247 157.902 158.262 154.265 158.262C150.451 158.351 147.791 155.513 147.791 151.433ZM157.724 151.344C157.724 150.546 157.636 149.836 157.281 149.127C156.749 147.796 155.33 146.732 153.999 146.821C152.403 146.909 151.25 147.708 150.717 149.216C150.097 150.989 150.185 152.763 151.072 154.449C151.959 156.134 154.088 156.666 155.684 155.69C157.37 154.626 157.636 153.029 157.724 151.344Z" fill="#0B132B"/>
<path d="M162.957 151.256C162.957 149.482 162.957 147.797 162.957 146.023C162.957 145.047 163.401 144.604 164.377 144.692C166.15 144.781 167.836 144.515 169.521 145.047C170.94 145.49 172.004 146.377 172.182 147.885C172.359 149.482 172.27 151.078 170.763 151.965C169.787 152.586 169.964 153.03 170.585 153.739C171.206 154.449 171.738 155.158 172.182 155.957C172.448 156.4 173.423 156.932 172.536 157.553C171.827 158.085 170.763 158.351 170.053 157.376C169.166 156.311 168.368 155.158 167.57 154.094C167.215 153.65 166.949 152.852 166.15 153.118C165.441 153.384 165.707 154.183 165.707 154.715C165.707 155.158 165.707 155.513 165.707 155.957C165.707 156.932 165.796 157.908 164.288 157.908C162.869 157.908 162.957 156.932 162.957 156.045C162.957 154.537 162.957 152.941 162.957 151.256ZM165.707 148.861C165.707 149.925 165.53 150.99 167.215 150.901C168.723 150.812 169.61 150.191 169.61 148.95C169.61 147.797 168.456 146.998 166.949 146.998C165.53 146.998 165.796 147.974 165.707 148.861Z" fill="#0B132B"/>
<path d="M97.5004 144.515C98.2986 144.603 99.1856 144.781 100.073 145.136C100.959 145.49 100.959 146.2 100.693 146.909C100.427 147.796 99.8064 147.353 99.2743 147.175C98.2986 146.909 97.2343 146.289 96.436 147.264C95.7265 148.24 96.7021 149.038 97.2343 149.836C97.5891 150.457 98.2099 150.901 98.6534 151.433C100.073 152.852 100.073 152.852 100.782 151.078C101.048 150.369 101.492 150.369 102.113 150.457C102.733 150.635 103.177 150.901 102.999 151.61C102.911 151.788 102.999 152.054 102.822 152.231C101.846 154.005 102.024 155.424 103.798 156.666C104.685 157.287 104.153 157.819 103.354 157.996C102.822 158.085 102.113 158.262 101.758 157.819C100.871 156.755 99.9838 157.021 99.0082 157.73C97.8552 158.44 96.5247 158.617 95.1056 158.351C93.6865 158.085 92.5335 157.464 92.0013 155.956C91.5578 154.271 91.9126 152.852 93.1543 151.788C94.0413 151.078 94.3074 150.546 93.7752 149.393C92.7108 146.821 94.4847 144.515 97.5004 144.515ZM96.5247 156.311C97.2343 156.222 98.1212 156.222 98.476 155.424C98.9195 154.626 97.9438 154.36 97.5891 153.828C97.323 153.473 96.9682 153.295 96.7021 152.941C95.9926 152.054 95.283 152.32 94.7508 153.118C94.3074 153.739 94.2187 154.448 94.5734 155.158C95.0169 155.956 95.7265 156.222 96.5247 156.311Z" fill="#0B132B"/>
<path d="M13.3289 151.344C13.3289 149.57 13.3289 147.885 13.3289 146.111C13.3289 145.136 13.5949 144.692 14.6593 144.692C15.7236 144.692 15.901 145.224 15.9897 146.2C16.1671 150.014 16.1671 149.925 19.8923 150.014C21.3114 150.014 21.8436 149.57 21.7549 148.151C21.6662 147.53 21.7549 146.91 21.7549 146.289C21.7549 145.313 22.021 144.692 23.0853 144.692C24.1497 144.692 24.5044 145.136 24.5044 146.2C24.5044 149.659 24.5044 153.207 24.5044 156.666C24.5044 157.73 24.061 158.085 22.9966 158.085C21.9323 158.085 21.6662 157.553 21.6662 156.666C21.6662 156.311 21.6662 155.956 21.6662 155.602C21.4888 154.626 22.1984 153.207 21.2227 152.763C19.8036 152.143 18.1184 152.409 16.5219 152.675C15.9897 152.763 15.9897 153.384 15.9897 153.828C15.9897 154.892 15.9897 155.868 15.9897 156.932C15.9897 157.819 15.5462 158.174 14.6593 158.174C13.6836 158.174 13.3289 157.73 13.4176 156.843C13.4176 154.981 13.3289 153.207 13.3289 151.344Z" fill="#0B132B"/>
<path d="M112.756 151.344C112.756 149.659 112.756 147.974 112.756 146.289C112.756 145.224 113.111 144.692 114.264 144.692C115.771 144.781 117.368 144.603 118.876 144.958C120.561 145.313 121.625 146.289 121.98 147.974C122.335 149.57 121.891 151.078 120.472 152.054C119.585 152.675 119.585 153.118 120.206 153.828C120.827 154.537 121.359 155.247 121.891 156.045C122.246 156.577 123.222 157.109 122.335 157.819C121.537 158.351 120.472 158.617 119.763 157.553C119.142 156.666 118.432 155.69 117.811 154.803C117.545 154.449 117.279 154.182 117.102 153.828C116.836 153.473 116.392 153.207 115.949 153.384C115.417 153.562 115.505 154.005 115.505 154.449C115.505 155.336 115.505 156.222 115.505 157.021C115.505 157.819 115.151 158.262 114.264 158.262C113.377 158.262 112.845 157.996 112.845 157.109C112.756 154.981 112.756 153.207 112.756 151.344ZM115.417 148.861C115.328 149.925 115.239 150.989 116.925 150.901C118.61 150.812 119.319 150.369 119.319 149.038C119.319 147.708 118.521 147.087 116.836 146.998C115.239 146.91 115.328 147.796 115.417 148.861Z" fill="#0B132B"/>
<path d="M129.697 158.085C128.81 158.085 127.834 157.997 126.947 158.085C125.706 158.174 125.351 157.642 125.351 156.489C125.351 153.118 125.351 149.748 125.351 146.377C125.351 145.136 125.794 144.692 126.947 144.781C128.81 144.87 130.673 144.781 132.446 144.781C133.245 144.781 133.866 144.958 133.866 145.934C133.866 146.91 133.245 147.087 132.446 147.087C131.471 147.087 130.495 147.087 129.519 147.087C128.455 146.998 128.012 147.442 128.012 148.506C128.012 149.482 128.278 150.103 129.431 150.014C130.052 150.014 130.761 150.014 131.382 150.014C132.446 150.014 132.713 150.635 132.713 151.433C132.713 152.409 132.003 152.231 131.382 152.32C130.939 152.32 130.495 152.32 129.963 152.32C128.012 152.32 127.391 153.296 127.923 155.158C128.1 155.779 128.633 155.868 129.076 155.868C130.229 155.868 131.293 155.868 132.446 155.868C133.245 155.868 133.688 156.134 133.688 157.021C133.688 157.908 133.245 158.174 132.446 158.174C131.737 158.085 130.761 158.085 129.697 158.085Z" fill="#0B132B"/>
<path d="M53.6851 151.344C53.6851 149.57 53.6851 147.885 53.6851 146.111C53.6851 145.136 54.0399 144.692 55.0156 144.692C56.9668 144.692 58.9181 144.692 60.8694 144.692C61.6677 144.692 62.1112 145.047 62.0225 145.934C62.0225 146.732 61.579 146.998 60.8694 146.998C59.7164 146.998 58.6521 146.998 57.499 146.998C56.4347 146.998 56.2573 147.619 56.2573 148.506C56.2573 149.393 56.4347 150.014 57.499 149.925C58.2973 149.925 59.0955 149.925 59.9825 149.925C60.8694 149.925 61.0468 150.546 61.1355 151.256C61.1355 152.054 60.6033 152.143 59.9825 152.143C59.1842 152.143 58.4747 152.231 57.6764 152.143C56.2573 152.054 56.2573 152.941 56.2573 153.916C56.2573 154.892 56.2573 155.779 57.6764 155.69C58.8294 155.602 59.8938 155.69 61.0468 155.69C61.8451 155.69 62.1112 156.045 62.1112 156.843C62.1112 157.642 61.7564 157.996 60.9581 157.996C58.9181 157.996 56.8782 157.996 54.8382 157.996C53.8625 157.996 53.5964 157.464 53.5964 156.666C53.6851 154.892 53.6851 153.118 53.6851 151.344Z" fill="#0B132B"/>
<path d="M140.872 158.263C139.719 158.174 138.566 157.996 137.413 157.642C136.349 157.287 136.26 156.489 136.526 155.69C136.881 154.626 137.591 155.247 138.123 155.424C139.453 155.779 140.784 156.4 142.114 155.868C142.735 155.602 143.356 155.247 143.356 154.449C143.356 153.739 142.912 153.296 142.292 153.03C141.582 152.675 140.872 152.497 140.163 152.231C137.413 151.256 136.26 149.836 136.792 147.708C137.236 145.757 139.453 144.426 141.848 144.603C142.558 144.692 143.267 144.87 143.977 144.958C145.13 145.136 145.307 145.845 145.041 146.91C144.686 148.151 143.977 147.53 143.356 147.264C142.558 146.91 141.671 146.91 140.784 146.998C140.074 146.998 139.453 147.264 139.276 148.063C139.098 148.861 139.719 149.216 140.34 149.57C141.316 150.014 142.292 150.28 143.178 150.723C145.218 151.61 146.017 152.852 145.751 154.803C145.485 156.666 144.243 157.908 142.114 158.174C141.848 158.174 141.316 158.174 140.872 158.263Z" fill="#0B132B"/>
<path d="M190.63 158.263C189.3 158.085 188.147 157.997 186.994 157.553C186.107 157.198 185.93 156.577 186.196 155.69C186.55 154.626 187.171 155.07 187.792 155.336C188.768 155.69 189.743 156.045 190.808 156.045C191.783 156.045 192.759 155.779 193.025 154.715C193.291 153.562 192.404 153.118 191.517 152.764C190.985 152.497 190.364 152.32 189.743 152.143C187.349 151.344 186.107 149.659 186.373 147.974C186.728 146.023 188.768 144.515 191.074 144.604C191.961 144.604 192.848 144.87 193.823 145.047C194.976 145.313 194.976 146.023 194.71 146.91C194.356 147.974 193.735 147.531 193.114 147.264C192.138 146.821 191.074 146.821 190.098 146.998C189.477 147.087 189.034 147.442 188.945 148.063C188.856 148.684 189.211 149.038 189.743 149.216C190.896 149.748 192.05 150.191 193.114 150.635C194.799 151.433 195.686 152.852 195.509 154.537C195.331 156.311 194.178 157.553 192.404 157.908C191.783 158.085 191.163 158.174 190.63 158.263Z" fill="#0B132B"/>
<path d="M78.9633 158.262C77.7215 158.085 76.5685 157.996 75.5042 157.642C74.5285 157.287 74.1737 156.755 74.5285 155.779C74.8833 154.626 75.5928 155.158 76.2137 155.335C77.3667 155.69 78.4311 156.134 79.6728 155.868C80.4711 155.69 81.2693 155.335 81.358 154.36C81.4467 153.473 80.7372 153.029 80.0276 152.763C78.9633 152.32 77.8989 151.965 76.9233 151.522C75.5928 150.901 74.7946 149.748 74.8833 148.151C74.972 146.555 75.8589 145.579 77.3667 144.958C79.052 144.249 80.7372 144.515 82.4224 145.047C83.4867 145.402 83.2206 146.2 83.0432 146.909C82.7771 147.885 82.1563 147.442 81.6241 147.264C80.5598 146.821 79.4954 146.732 78.4311 146.998C77.8102 147.087 77.3667 147.53 77.3667 148.151C77.2781 148.772 77.7215 149.127 78.165 149.304C79.2293 149.748 80.3824 150.191 81.4467 150.635C83.398 151.433 84.1963 152.675 84.0189 154.537C83.8415 156.222 82.5998 157.553 80.7372 157.908C80.0276 158.085 79.4067 158.174 78.9633 158.262Z" fill="#0B132B"/>
<path d="M178.036 152.497C178.036 151.078 178.036 149.748 178.036 148.329C178.036 147.353 177.592 146.91 176.616 146.998C176.084 146.998 175.552 146.998 175.109 146.998C174.31 146.998 173.956 146.643 173.956 145.845C173.956 145.047 174.31 144.692 175.02 144.692C176.794 144.692 178.568 144.692 180.43 144.692C181.495 144.692 182.559 144.692 183.623 144.692C184.599 144.692 184.865 145.224 184.954 146.023C185.042 146.91 184.333 146.91 183.712 146.91C180.785 147.087 180.785 147.087 180.785 149.925C180.785 152.143 180.785 154.36 180.785 156.489C180.785 157.553 180.342 157.908 179.277 157.908C178.213 157.908 177.947 157.376 177.947 156.489C178.036 155.247 178.036 153.916 178.036 152.497Z" fill="#0B132B"/>
<path d="M44.3723 152.409C44.3723 151.078 44.2836 149.748 44.3723 148.417C44.461 147.353 43.9288 146.909 42.9532 146.998C42.421 146.998 41.8001 146.998 41.268 146.998C40.4697 146.998 40.2036 146.555 40.2036 145.845C40.2036 145.136 40.5584 144.781 41.1793 144.781C44.1949 144.781 47.1218 144.781 50.1375 144.781C51.0244 144.781 51.2018 145.49 51.2018 146.2C51.2018 146.998 50.5809 146.998 50.0488 147.087C47.0331 147.264 47.0331 147.353 47.0331 150.28C47.0331 152.409 47.0331 154.449 47.0331 156.577C47.0331 157.553 46.767 158.085 45.614 158.085C44.5497 158.085 44.3723 157.464 44.3723 156.577C44.461 155.158 44.3723 153.828 44.3723 152.409Z" fill="#0B132B"/>
<path d="M65.0381 151.256C65.0381 149.57 65.0381 147.885 65.0381 146.2C65.0381 145.313 65.3042 144.692 66.2798 144.692C67.3442 144.692 67.6102 145.224 67.6102 146.111C67.6102 148.683 67.6989 151.344 67.6102 153.916C67.5215 155.424 68.1424 155.868 69.4728 155.69C70.1824 155.602 70.892 155.69 71.6015 155.69C72.5772 155.69 72.8433 156.311 72.8433 157.109C72.9319 158.085 72.1337 157.996 71.6015 157.996C70.005 157.996 68.3198 157.996 66.7233 157.996C65.5703 157.996 65.0381 157.642 65.0381 156.4C65.1268 154.715 65.0381 153.029 65.0381 151.256Z" fill="#0B132B"/>
<path d="M150.008 57.1502C150.718 56.618 150.718 55.7311 151.161 55.1102C151.338 54.8441 151.516 54.4006 151.959 54.4893C152.491 54.578 152.491 55.0215 152.491 55.465C152.491 56.2632 152.491 57.0615 152.491 57.9484C152.491 58.3032 152.491 58.9241 152.048 59.0128C151.338 59.0128 151.604 58.3919 151.516 57.9484C151.516 57.7711 151.516 57.6824 151.427 57.3276C150.718 57.7711 151.072 59.0128 150.185 59.0128C149.21 59.0128 149.476 57.7711 148.766 57.2389C148.323 57.6824 148.766 58.4806 148.323 58.8354C147.879 58.2145 147.524 55.1989 147.968 54.7554C148.5 54.0459 148.855 54.578 149.121 55.0215C149.387 55.7311 149.476 56.5293 150.008 57.1502Z" fill="#0B132B"/>
</svg>
