<svg width="209" height="155" viewBox="0 0 209 155" fill="none" xmlns="http://www.w3.org/2000/svg">
<g clip-path="url(#clip0_2_748)">
<path d="M37.0665 155C36.7241 154.611 36.773 154.367 37.2622 154.221C38.5339 153.832 38.7785 152.907 38.7785 151.69C38.7296 147.357 38.7785 143.025 38.7785 138.643C38.7785 136.647 38.7296 136.599 36.773 135.917C36.6263 135.869 36.5284 135.771 36.186 135.576C36.6263 135.43 36.9197 135.236 37.1643 135.236C39.4633 135.187 41.8112 135.187 44.1101 135.187C44.746 135.187 45.333 135.236 45.9689 135.382C47.9255 135.771 49.3929 136.745 49.8331 138.741C50.2733 140.931 49.5885 142.733 47.7787 144.096C47.3874 144.388 46.9472 144.631 46.458 144.923C48.3168 147.601 50.1755 150.278 52.0342 152.907C52.3277 153.296 52.719 153.588 53.1593 153.832C53.5506 154.075 54.0397 154.221 54.6756 154.465C54.0397 154.659 53.5506 154.805 53.0614 155C52.8169 155 52.5723 155 52.3277 155C50.7136 154.611 49.6374 153.54 48.8059 152.225C47.8276 150.716 46.7026 149.207 45.92 147.601C45.0395 145.848 43.7677 145.313 41.9579 145.556C41.322 145.653 41.0285 145.799 41.0285 146.481C41.0775 147.893 41.0285 149.304 41.0285 150.716C41.0285 153.296 41.0285 153.296 43.4253 154.221C43.9634 154.416 43.9145 154.659 43.5721 154.951C41.4199 155 39.2187 155 37.0665 155ZM41.1264 140.445C41.1264 141.516 41.1753 142.587 41.1264 143.657C41.0775 144.339 41.3709 144.582 41.9579 144.582C42.8384 144.582 43.7677 144.631 44.6482 144.534C46.1156 144.388 47.2896 143.706 47.8276 142.197C48.8059 139.422 47.3874 136.842 44.4525 136.258C43.7188 136.112 42.9362 136.112 42.1536 136.063C41.4688 136.015 41.1264 136.404 41.1264 137.086C41.1264 138.254 41.1264 139.374 41.1264 140.445Z" fill="#0B132B"/>
<path d="M-8.08129 155C-8.37478 154.562 -8.22803 154.27 -7.73889 154.124C-6.36929 153.783 -6.12472 152.907 -6.12472 151.641C-6.17364 147.017 -6.17364 142.392 -6.12472 137.767C-6.12472 136.94 -6.36929 136.599 -7.24975 136.647C-8.52152 136.745 -9.8422 136.696 -11.1629 136.647C-12.1412 136.647 -12.7771 137.037 -13.1195 138.011C-13.2662 138.4 -13.5108 138.789 -13.7064 139.179C-13.8043 139.13 -13.951 139.13 -14.0488 139.082C-13.9999 138.351 -13.951 137.67 -13.9021 136.94C-13.6086 134.7 -13.9999 135.09 -11.8966 135.09C-7.15192 135.09 -2.35833 135.09 2.38635 135.041C3.26681 135.041 3.65812 135.333 3.60921 136.161C3.5603 136.988 4.00052 137.865 3.26681 138.741C3.12007 138.4 2.97333 138.205 2.97333 137.962C2.92441 136.94 2.28853 136.55 1.35916 136.55C-0.2061 136.501 -1.72244 136.55 -3.2877 136.501C-4.07032 136.501 -4.02141 136.988 -4.02141 137.475C-4.02141 141.564 -4.02141 145.653 -4.02141 149.743C-4.02141 150.473 -4.02141 151.203 -4.02141 151.982C-3.9725 153.248 -3.77684 153.54 -2.55398 153.881C-2.01593 154.027 -1.72244 154.221 -1.9181 154.805C-2.21158 154.805 -2.55398 154.805 -2.84747 154.805C-4.41272 154.805 -5.92906 154.805 -7.49432 154.805C-7.59215 155 -7.83672 155 -8.08129 155Z" fill="#0B132B"/>
<path d="M103.59 155C103.003 154.854 102.367 154.708 101.78 154.562C97.8182 153.394 95.3724 150.132 95.1279 145.751C94.8833 140.493 98.2095 136.063 103.248 135.138C106.134 134.651 108.922 134.992 111.514 136.453C112.052 136.793 112.737 136.891 113.617 137.183C113.715 138.351 113.813 139.812 113.862 141.272C113.764 141.321 113.666 141.321 113.52 141.369C113.128 140.785 112.737 140.201 112.395 139.666C110.291 136.258 107.21 134.944 102.758 136.112C100.508 136.696 98.9432 138.157 98.1606 140.298C96.9377 143.657 97.0844 146.968 98.8454 150.132C101.78 155.438 109.851 155.584 113.079 150.424C113.226 150.229 113.373 150.035 113.617 149.743C113.96 151.252 113.226 153.15 112.003 153.637C110.732 154.124 109.362 154.416 108.041 154.805C107.797 154.903 107.503 154.951 107.259 155C106.085 155 104.862 155 103.59 155Z" fill="#0B132B"/>
<path d="M181.315 155C181.413 154.805 181.413 154.416 181.559 154.367C182.538 154.075 182.88 153.345 182.929 152.469C182.978 149.45 183.027 146.432 182.929 143.414C182.88 142.197 182.342 141.126 180.924 140.883C180.777 140.834 180.679 140.736 180.532 140.639C181.462 140.104 182.733 140.25 183.467 141.029C186.5 144.388 189.484 147.747 192.516 151.057C192.761 151.3 192.956 151.544 193.397 151.982C193.397 151.398 193.397 151.008 193.397 150.667C193.397 148.233 193.397 145.799 193.397 143.365C193.397 141.71 193.152 141.369 191.587 140.785C191.44 140.736 191.293 140.639 191.196 140.347C192.565 140.347 193.984 140.347 195.5 140.347C195.353 140.493 195.304 140.639 195.206 140.688C194.375 140.98 194.228 141.661 194.228 142.392C194.228 146.091 194.228 149.791 194.228 153.491C194.228 153.929 194.179 154.318 194.179 154.757C194.081 154.805 193.984 154.854 193.886 154.903C190.657 151.252 187.38 147.649 184.005 143.852C183.956 144.242 183.858 144.436 183.858 144.68C183.858 147.308 183.858 149.986 183.858 152.615C183.858 153.54 184.103 154.172 185.13 154.318C185.57 154.367 185.766 154.562 185.424 155C184.005 155 182.684 155 181.315 155Z" fill="#0B132B"/>
<path d="M171.434 155C171.336 154.951 171.238 154.903 171.091 154.854C167.863 154.124 166.004 152.079 165.515 148.72C165.075 145.507 166.493 142.538 169.233 141.077C172.706 139.179 177.255 140.201 179.358 143.317C181.461 146.432 180.776 151.154 177.793 153.296C176.717 154.075 175.298 154.416 174.026 154.951C173.195 155 172.314 155 171.434 155ZM179.015 148.039C178.869 145.653 178.037 143.414 175.787 141.856C172.461 139.568 168.205 141.077 167.227 144.923C166.542 147.6 167.08 150.132 168.89 152.274C170.26 153.929 172.119 154.659 174.271 154.318C177.157 153.929 179.015 151.495 179.015 148.039Z" fill="#0B132B"/>
<path d="M209 142.246C207.924 144.388 206.31 145.653 203.815 145.605C200.831 145.556 198.679 143.171 198.728 140.152C198.826 137.28 201.271 134.992 204.157 135.138C206.065 135.236 207.484 136.112 208.511 137.718C208.657 137.962 208.804 138.156 208.951 138.4C209 139.666 209 140.931 209 142.246ZM199.51 140.396C199.51 142.927 201.516 144.972 203.962 144.972C206.456 144.972 208.462 142.927 208.462 140.347C208.462 137.864 206.407 135.82 203.962 135.82C201.516 135.82 199.51 137.864 199.51 140.396Z" fill="#0B132B"/>
<path d="M128.781 34.028C129.074 35.5371 129.319 36.9976 129.71 38.4093C130.591 41.817 130.15 45.0786 128.585 48.1942C128.292 48.7297 128.047 49.3138 127.803 49.8493C126.873 51.6505 125.993 53.3544 126.188 55.545C126.384 57.833 125.308 59.9263 124.183 61.8735C123.351 63.3339 122.471 64.7457 121.688 66.2061C120.221 68.9809 120.172 71.8531 121.395 74.6766C122.373 76.9646 124.036 78.5711 126.726 78.6684C128.194 78.7171 129.417 78.0843 130.248 76.7699C130.444 76.4291 130.884 76.1857 131.275 76.0883C131.422 76.0397 131.813 76.5265 131.911 76.8186C132.841 79.0092 133.232 81.2485 132.743 83.5852C132.303 85.9706 130.933 87.7231 128.732 88.7941C124.036 91.1307 119.243 90.9847 114.547 88.8914C111.808 87.6744 109.117 86.9929 106.134 86.7495C100.362 86.2626 95.3235 84.0233 91.2147 79.8368C91.1168 79.7394 90.9701 79.642 91.0679 79.6907C88.769 81.1998 86.6167 82.8063 84.3178 84.072C80.8448 86.0192 77.0295 86.8468 73.0186 86.9929C72.5294 86.9929 71.9914 87.1876 71.5022 87.3823C67.3445 89.3782 63.0401 90.5952 58.3443 90.4005C53.355 90.1571 48.4147 86.214 47.4853 81.638C47.094 79.642 47.3386 77.6948 48.4147 75.9423C49.0995 74.8226 49.8332 74.774 50.6648 75.7962C50.8604 76.0397 51.0561 76.2831 51.2028 76.5265C53.8931 81.3946 61.8661 79.6907 63.7249 75.7476C64.801 73.4596 65.3879 71.0255 65.5836 68.5428C65.7793 66.1574 65.8282 63.7234 65.8771 61.338C65.926 58.8553 66.6108 56.616 67.8826 54.5227C68.8609 52.8189 69.8881 51.115 70.9153 49.4599C71.2577 48.8757 71.2087 48.4863 70.7196 48.0968C69.1543 47.0258 68.5185 45.468 68.0293 43.7155C67.3445 41.3788 64.4586 39.4316 62.0129 39.6263C61.4748 39.675 60.8878 40.0158 60.4476 40.3079C59.1269 41.1841 58.2465 40.8434 58.0997 39.2856C57.7573 36.0239 60.1052 34.1741 63.6759 34.953C64.6542 35.1477 65.5836 35.5371 66.5619 35.7319C66.9532 35.8292 67.4423 35.6345 67.8337 35.5858C67.6869 35.1477 67.638 34.5148 67.2956 34.2714C66.2684 33.3952 65.1434 32.6163 63.9694 31.8861C62.9422 31.2532 62.4042 30.3283 62.3064 29.1599C62.1107 27.018 61.4259 25.1194 59.8117 23.659C59.1758 23.0748 59.078 22.2959 59.4204 21.6144C59.7628 20.8842 60.252 20.1053 60.8389 19.6185C63.3825 17.5739 66.1217 15.8214 69.1054 14.507C69.8881 14.1662 70.6707 13.7768 71.4533 13.3873C72.774 12.7545 73.7034 11.7809 74.1436 10.3691C74.5838 8.95737 75.4643 8.12979 76.9806 7.93507C80.0133 7.49694 83.0949 6.96145 86.1276 6.52332C86.9591 6.42596 87.6439 6.23124 88.2798 5.59838C89.0624 4.77081 89.9918 4.08927 90.8234 3.31038C91.8995 2.38544 93.1223 2.09336 94.5408 2.38544C95.3235 2.53149 96.155 2.58017 96.9376 2.67753C99.9214 2.96961 102.661 2.19072 105.106 0.58425C106.867 -0.584092 108.237 -0.0972831 109.313 1.11974C110.242 2.14204 111.221 3.16434 112.101 4.23532C113.226 5.69574 114.547 6.47464 116.454 6.47464C117.286 6.47464 118.166 6.71804 118.998 6.96145C121.15 7.69166 122.715 9.05473 123.253 11.3427C123.792 13.5334 124.134 15.8214 124.525 18.0607C124.868 19.8132 125.259 21.517 126.726 22.6854C127.02 22.9288 127.167 23.2696 127.362 23.6103C127.656 24.0971 127.656 24.4866 127.069 24.73C126.237 25.1194 126.335 25.5576 126.824 26.1417C127.656 27.0667 128.536 27.9429 129.172 29.0139C129.759 29.9388 130.248 30.9611 130.444 32.0321C130.64 33.5412 130.395 33.6873 128.781 34.028ZM113.275 36.7542C113.471 36.4621 113.568 36.316 113.617 36.17C115.183 31.8861 115.28 27.6995 112.59 23.805C111.269 21.8578 109.704 20.1053 108.237 18.3041C108.041 18.0607 107.797 17.866 107.65 17.5739C107.552 17.3305 107.454 16.941 107.552 16.7463C107.65 16.5516 108.09 16.4542 108.335 16.5516C109.313 16.8924 110.34 17.1844 111.27 17.6712C114.791 19.6672 117.041 22.7827 119.096 26.093C120.857 28.8679 120.955 31.74 119.781 34.5635C119.047 36.3647 117.824 38.0685 116.601 39.6263C114.449 42.3525 112.15 44.9326 109.949 47.5613C109.704 47.8534 109.557 48.1942 109.215 48.6323C109.655 48.4863 109.851 48.4863 110.047 48.3889C114.107 46.2469 117.922 43.7642 121.052 40.3079C122.031 39.2369 122.52 37.9712 122.373 36.5594C122.226 34.3201 122.08 32.0808 121.59 29.8902C120.71 25.6549 118.949 21.8091 115.329 19.1317C114.058 18.1581 112.737 17.2331 111.465 16.2108C108.922 14.1662 108.775 13.5821 109.9 10.5152C110.193 9.73626 110.438 8.76264 110.242 8.03243C109.704 6.03651 108.579 4.33268 106.916 3.01829C106.28 2.4828 105.498 2.43412 104.764 2.82357C103.541 3.5051 102.318 4.13796 101.095 4.81949C99.8236 5.50102 98.8453 6.52332 98.6985 8.03243C98.6007 8.86 98.7475 9.68758 99.6279 10.1744C99.4323 7.10749 100.655 5.16025 103.199 4.38136C104.275 4.04059 104.519 4.284 104.373 5.35498C104.275 6.23124 104.128 7.10749 104.177 8.03243C104.226 8.86 104.813 9.34681 105.595 9.49286C106.378 9.6389 106.769 9.15209 107.063 8.51924C107.356 7.93507 107.552 7.30221 107.846 6.76672C107.992 6.52332 108.286 6.27992 108.53 6.27992C108.726 6.23123 109.068 6.47464 109.166 6.66936C109.851 7.88639 109.313 10.4665 108.139 11.294C106.28 12.5598 104.324 13.1439 102.074 12.219C102.025 12.4137 101.976 12.5598 101.927 12.7058C101.584 14.0202 100.704 14.3609 99.6279 13.5334C99.2366 13.1926 98.8453 12.8518 98.454 12.4624C96.3507 10.4665 93.9049 9.15209 91.019 8.86C89.307 8.66528 87.595 8.51924 85.9319 8.56792C83.2906 8.71396 80.6492 9.00605 78.0078 9.34681C77.2252 9.44417 76.3447 9.83362 76.0023 11.002C76.736 10.7586 77.2741 10.6125 77.8122 10.4178C79.1328 9.8823 80.3557 10.2231 81.5296 10.9046C81.8231 11.0993 82.0677 11.4401 82.3123 11.7322C82.2634 11.8295 82.2144 11.9269 82.1166 11.9756C81.2362 11.9269 80.3557 11.8782 79.4753 11.8295C79.4753 12.4624 79.4753 12.9979 79.4753 13.5821C80.0622 13.7281 80.5514 13.8255 81.1872 13.9715C80.8938 14.507 80.6492 14.9451 80.3557 15.4806C80.9427 15.4806 81.334 15.4319 81.7253 15.4806C81.9699 15.5293 82.2144 15.6266 82.459 15.724C82.3612 15.9674 82.3123 16.4055 82.1166 16.5029C80.8938 17.1844 79.6709 17.8173 78.448 18.3528C78.3013 18.4015 77.91 18.1094 77.7143 17.9147C77.2252 17.5252 76.8339 16.941 76.2958 16.7463C75.2686 16.4055 74.5838 15.9187 74.5349 14.7991C74.5349 14.6044 74.3393 14.3609 74.1925 14.0689C70.6218 15.8214 67.0999 17.5252 63.5781 19.2777C62.9912 19.5698 62.5509 20.0566 62.0618 20.4461C61.8172 20.6895 61.5237 20.9816 61.4748 21.2736C61.4259 21.6144 61.4259 22.1499 61.6705 22.3446C61.8661 22.5393 62.4042 22.5393 62.7466 22.442C63.1379 22.2959 63.4803 21.9552 63.8227 21.7604C64.0673 21.6631 64.4586 21.517 64.5564 21.6144C64.7521 21.8578 64.8988 22.2473 64.8499 22.4907C64.7521 22.8801 64.5075 23.2696 64.2629 23.6103C63.3335 25.0707 63.4314 27.9429 64.4586 29.2573C64.801 29.6954 65.2412 29.9388 65.5836 29.4033C66.513 28.089 67.8826 27.6995 69.35 27.4074C71.2087 27.0667 73.0186 26.6772 74.6817 25.6549C76.1002 24.8273 76.4915 24.8273 77.6165 25.9957C79.622 28.1376 81.7742 30.1336 84.171 31.8374C84.4645 32.0321 84.7091 32.5189 84.7091 32.9084C84.758 34.1741 84.4156 34.5148 82.9971 34.6122C80.4535 34.8069 78.3013 35.5858 76.3937 37.4844C74.8773 38.9448 72.9207 40.0158 71.062 41.1354C69.7902 41.9143 69.7413 41.817 69.8881 43.3261C69.9859 44.4457 70.3772 45.5167 71.5511 45.7114C74.8773 46.2956 76.2958 46.2956 78.0567 43.0827C78.2524 42.7419 78.3013 42.4011 78.497 42.0604C80.4046 38.7988 82.8503 36.3647 86.9102 36.316C88.9157 36.2674 90.9212 36.2187 92.9267 36.1213C93.856 36.0726 94.8343 35.9266 95.7637 35.7319C96.6441 35.5371 96.7909 34.7582 96.742 34.028C96.6931 33.2491 96.0572 33.2005 95.4213 33.1518C94.6387 33.1518 93.856 33.2005 93.1223 33.1031C92.144 33.0057 91.8995 32.665 92.3397 31.74C92.6332 31.0585 93.0734 30.4743 93.4158 29.7928C93.9539 28.6731 94.8832 28.089 96.0572 27.7969C97.867 27.3587 99.6768 26.8233 101.536 26.3851C101.878 26.2878 102.465 26.3851 102.563 26.5799C102.758 26.8719 102.71 27.4074 102.612 27.7482C102.269 28.9165 101.829 29.9875 101.487 31.1559C101.242 32.0321 101.095 32.9084 100.851 33.7359C100.264 35.7805 98.992 37.0949 96.8887 37.7278C91.2147 39.4316 85.7852 41.6709 80.6492 44.6405C77.5676 46.393 74.6327 48.3402 72.5783 51.3098C69.8391 55.3016 68.4695 59.7316 68.225 64.4536C68.0293 67.9099 68.1271 71.415 67.9804 74.8713C67.7847 79.4473 65.1923 82.5629 60.79 83.6826C58.1976 84.3641 55.654 83.926 53.1105 83.1957C52.7192 83.0984 52.3278 83.001 51.9365 82.9037C53.3061 84.9969 54.8714 86.5061 57.4638 86.8955C60.3498 87.3336 63.089 87.1876 65.6325 85.7758C65.8771 85.6298 66.2195 85.143 66.1706 84.9969C65.7303 84.1694 66.1706 83.7312 66.7575 83.2931C69.1543 81.3946 70.3772 78.9118 70.5729 75.8936C70.6707 74.2871 70.7685 72.6807 70.8174 71.0742C70.9153 66.985 70.9153 62.9445 70.9642 58.8553C71.0131 53.5004 73.312 49.5086 78.1546 46.9772C81.7253 45.1273 85.3939 43.6182 89.1603 42.4011C92.0462 41.4762 95.03 40.7947 97.6713 39.2856C100.9 37.387 103.786 35.0503 105.547 31.6427C106.965 28.8679 106.525 26.1904 104.226 24.0484C103.296 23.1722 102.171 22.4907 101.046 21.8578C100.117 21.3223 99.2855 20.8842 98.8942 19.7158C98.5518 18.7909 97.5246 18.0607 96.8887 17.2331C96.5952 16.8924 96.4974 16.4055 96.3017 15.9674C96.742 15.8214 97.1333 15.5293 97.5735 15.5293C100.215 15.4806 102.807 15.9674 105.106 17.1358C108.873 19.0343 111.269 22.0525 111.612 26.3851C111.856 29.5007 110.389 31.9348 108.335 34.028C105.008 37.387 100.949 39.7237 96.6931 41.6223C93.5625 43.034 90.3342 44.2023 87.2526 45.7601C84.5623 47.0745 81.9699 48.6323 79.4753 50.2388C77.6654 51.4071 76.3936 53.1109 75.8556 55.3016C74.9262 58.9527 74.486 62.7011 74.7306 66.4495C74.7795 67.4718 75.0241 68.4941 75.1708 69.5164C75.2686 69.5164 75.3175 69.5164 75.4154 69.5164C75.4643 69.273 75.5621 69.0783 75.611 68.8349C76.3447 65.768 77.0785 62.7498 77.8611 59.6829C78.3502 57.7843 79.4263 56.2265 80.8448 54.8635C83.1438 52.6728 85.7852 50.969 88.5244 49.3625C89.6005 48.7297 90.7255 48.1455 92.0462 47.4153C91.9484 48.1455 91.9484 48.6323 91.8016 49.0218C91.3614 50.2875 90.7744 51.5532 90.3831 52.8189C89.6983 55.1069 88.72 57.3949 88.4755 59.7315C88.0842 63.6747 88.8668 67.5205 90.481 71.1716C92.8288 76.6238 97.6224 79.3986 103.443 78.8145C103.835 78.7658 104.226 78.4737 104.617 78.279C104.373 77.9382 104.177 77.5001 103.835 77.354C98.8942 74.6766 95.1278 71.0742 93.9539 65.3299C93.8071 64.5996 93.4647 63.8694 93.2201 63.1392C93.0734 62.7011 92.8777 62.263 92.5843 61.6301C92.4864 62.0682 92.4864 62.3603 92.3886 62.555C92.193 62.8958 91.9973 63.2366 91.7527 63.5774C91.4592 63.2853 90.9212 62.9932 90.8723 62.6524C90.6277 61.1433 90.3342 59.5855 90.432 58.0764C90.7255 52.9162 92.6821 48.4376 96.5463 44.9326C98.2094 43.4234 99.8725 41.9143 101.633 40.4539C101.927 40.2105 102.465 40.3079 102.905 40.2592C102.856 40.6 102.954 41.0381 102.807 41.3302C102.025 42.7419 101.095 44.0563 100.362 45.468C99.4812 47.1719 98.6985 48.9731 98.1116 50.7743C97.7203 52.04 97.7692 53.403 97.5735 54.7174C97.7203 54.7661 97.867 54.8148 98.0137 54.8635C98.4051 54.2793 98.8942 53.6951 99.1388 53.0623C100.508 49.6059 102.563 46.5877 104.813 43.6669C105.742 42.4498 106.623 41.1841 107.503 39.9184C108.775 38.0199 109.949 36.0726 111.221 34.1741C111.416 33.8333 111.856 33.5899 112.248 33.4925C112.395 33.4439 112.786 34.028 112.884 34.3688C112.981 35.2451 113.079 35.9266 113.275 36.7542ZM108.628 58.904C108.726 58.9527 108.775 59.0013 108.873 59.0987C108.824 59.5855 108.775 60.0723 108.677 60.5104C107.846 63.7721 107.454 67.0337 108.09 70.3927C109.215 76.2831 112.395 80.7617 117.628 83.6826C119.829 84.8996 122.177 85.0456 124.574 84.218C125.699 83.8286 126.139 83.3418 125.944 82.5142C125.699 82.5142 125.455 82.5629 125.21 82.5629C122.862 82.8063 120.612 82.2708 119.047 80.6643C116.503 78.0843 114.596 75.0174 114.009 71.2689C113.96 70.8308 113.764 70.4414 113.617 69.9545C112.346 71.0742 111.71 71.0255 111.123 69.7598C110.389 68.1534 109.949 66.4495 110.242 64.6483C110.78 61.0946 112.639 58.2711 115.378 55.9344C117.433 54.1819 119.34 52.2347 121.248 50.2875C121.835 49.7033 122.177 48.827 122.618 48.0968C122.275 47.9995 122.177 48.0481 122.08 48.0968C116.992 50.969 111.905 53.8412 106.769 56.6647C103.199 58.6119 101.633 63.8207 103.737 67.3745C103.883 67.6179 104.226 67.8126 104.47 68.0073C104.666 67.7639 104.911 67.5205 104.96 67.2284C105.351 65.6706 105.644 64.0155 106.182 62.5064C106.525 61.4354 107.21 60.5104 107.797 59.5368C107.894 59.1961 108.335 59.0987 108.628 58.904ZM83.4862 78.1329C83.4373 78.0843 83.3884 77.9869 83.3395 77.9382C83.1438 77.9869 82.9482 78.0843 82.7525 78.0843C82.4101 78.0843 82.0677 78.0356 81.7253 78.0356C81.7742 77.7435 81.7742 77.4027 81.921 77.1106C82.4101 76.137 82.9482 75.1634 83.4862 74.1898C85.296 70.8308 85.6384 67.3258 84.6602 63.626C84.5134 62.9932 84.4645 62.3603 84.4156 61.7275C84.3178 60.5591 84.2199 59.3908 84.1221 57.979C82.2634 59.5855 80.9916 61.2893 80.8448 63.4313C80.6492 66.4008 80.6492 69.4191 80.6492 72.3886C80.6492 75.0174 80.3068 77.5001 78.6437 79.6421C78.497 79.8368 78.497 80.2262 78.448 80.4696C78.7415 80.5183 79.0839 80.713 79.3285 80.6157C80.5514 80.1289 81.7742 79.5934 82.9482 79.0092C83.1438 78.8632 83.2906 78.425 83.4862 78.1329ZM121.346 19.8619C121.052 18.1094 120.759 16.4542 119.585 15.1885C118.949 14.507 118.069 14.0202 117.188 13.5334C116.895 13.3873 116.259 13.4847 116.014 13.6794C115.819 13.8255 115.867 14.4583 116.014 14.7991C116.944 16.9897 118.362 18.8396 120.221 20.3487C120.416 20.5434 120.857 20.6895 121.003 20.5921C121.15 20.4947 121.199 20.1053 121.346 19.8619ZM60.1541 37.4844C60.8878 37.6791 61.3281 37.8738 61.8172 37.9712C63.1379 38.312 64.4097 38.7014 65.7303 38.9448C66.5619 39.0908 67.4423 39.0422 68.3228 39.0422C68.4695 39.0422 68.8119 38.7501 68.8119 38.6527C68.763 38.458 68.5674 38.1659 68.3717 38.1172C67.3445 37.7278 66.2684 37.4844 65.2901 36.9976C63.9205 36.316 62.5998 36.5594 61.2302 36.8515C60.8878 36.8515 60.6433 37.1436 60.1541 37.4844ZM74.6817 33.6386C73.8012 33.6386 72.6762 34.4175 72.774 35.0017C72.774 35.2451 73.1164 35.4398 73.361 35.6832C73.9479 35.1477 74.5349 34.6122 75.073 34.0767C75.0241 34.0767 74.7306 33.7359 74.6817 33.6386ZM68.9098 31.594C68.5185 31.0585 68.225 30.2309 67.8337 30.1822C67.0999 30.0849 67.2467 30.9125 67.1978 31.4479C67.1978 32.0808 67.4423 32.6163 68.1271 32.5676C68.3717 32.5189 68.5674 32.0321 68.9098 31.594ZM70.8663 37.2896C70.9642 37.7765 70.9153 38.2633 71.1598 38.604C71.4044 38.8961 71.8935 38.9935 72.2849 39.1882C72.3338 38.8474 72.5294 38.458 72.4805 38.1659C72.2359 37.4357 71.7957 37.0462 70.8663 37.2896ZM94.5408 4.91685C94.1495 5.35498 93.856 5.64706 93.5625 5.98783C93.7582 6.18255 94.1006 6.52332 94.1984 6.47464C94.5897 6.23124 94.9321 5.89047 95.3235 5.59838C95.0789 5.40366 94.8832 5.25762 94.5408 4.91685Z" fill="#0B132B"/>
<path d="M132.449 87.2362C132.009 88.648 131.666 90.0597 131.128 91.4228C129.025 96.875 126.824 102.279 124.672 107.731C124.574 108.023 124.476 108.364 124.525 108.705C124.867 110.262 124.623 111.771 123.987 113.232C122.422 116.932 121.541 120.777 122.079 124.818C122.226 125.694 121.346 126.522 120.318 126.522C116.552 126.57 112.835 126.668 109.068 126.668C93.4645 126.668 77.9097 126.619 62.3061 126.619C61.6702 126.619 61.0833 126.57 60.4474 126.57C58.7843 126.522 57.9527 125.645 58.0995 123.942C58.1484 123.26 58.2951 122.627 58.393 121.946C58.7843 119.56 58.0017 117.321 57.3658 115.082C57.3169 114.838 57.219 114.595 57.0723 114.4C55.7027 112.161 55.6538 109.727 56.2407 107.244C56.3386 106.903 56.1918 106.465 56.0451 106.124C53.4037 100.185 50.7134 94.2463 48.0721 88.3072C47.9253 87.9178 47.8764 87.4796 47.9742 86.9441C48.3166 87.1875 48.7569 87.3823 49.0503 87.6744C50.8602 89.3782 52.9146 90.5952 55.2625 91.4228C56.8277 92.007 56.9745 92.5911 55.9962 93.9055C55.8494 94.1489 55.6538 94.3436 55.507 94.587C55.1157 95.1225 54.969 95.6093 55.4581 96.1935C55.9962 96.729 56.6321 96.9724 57.2679 96.5343C57.8549 96.1448 58.3441 95.6093 58.7843 95.0739C59.5669 94.1489 59.7136 94.1002 60.7898 94.6844C61.5235 95.0739 62.1594 95.6093 62.8442 96.0961C63.3333 96.4369 63.4311 96.875 63.1866 97.3619C62.7463 98.2381 62.3061 99.1144 61.8659 99.9906C61.5724 100.575 61.0833 100.721 60.4474 100.575C60.1539 100.526 59.9093 100.429 59.6158 100.429C58.8821 100.331 58.0995 100.331 57.6103 101.11C57.1212 101.938 57.0234 102.814 57.5614 103.642C58.6375 105.297 60.2517 105.978 62.1594 105.93C62.942 105.93 63.7246 105.784 64.4583 105.54C66.953 104.81 68.0291 103.009 67.2464 100.477C66.8551 99.2117 66.1214 98.0434 65.6323 96.7777C65.4366 96.2422 65.3388 95.512 65.5345 95.0252C65.9258 94.1002 66.5616 93.224 67.1486 92.3477C67.5399 91.7635 68.2247 91.6662 68.8117 92.0556C69.7411 92.6885 70.6704 93.37 71.502 94.1489C71.7955 94.441 71.7955 95.1712 71.7466 95.658C71.5998 96.9237 71.2085 98.1408 71.0618 99.3578C70.915 100.526 71.4042 101.451 72.3335 102.279C75.513 105.005 82.0675 105.297 85.3936 102.765C86.91 101.646 87.2035 99.3578 86.1273 97.7026C85.2469 96.3396 83.1436 96.0475 81.5294 97.0698C80.8935 97.4592 80.3555 97.946 79.7685 98.4328C79.2304 98.9196 78.5945 98.9683 78.1054 98.4328C77.176 97.4592 76.2956 96.3882 75.513 95.3173C75.3173 95.0739 75.3173 94.4897 75.513 94.1976C76.3445 93.0779 77.2249 92.0556 78.1543 90.9847C78.5456 90.5465 78.9369 90.6439 79.3772 90.9847C80.2087 91.6175 81.0892 92.2504 81.9696 92.7859C82.899 93.37 83.9262 93.4187 84.9045 93.0779C86.5676 92.5424 86.91 90.6926 85.5893 89.6216C84.8556 89.0374 84.1219 88.5019 83.3392 87.9664C82.7033 87.4796 82.6544 87.0415 83.3392 86.506C85.4425 84.8022 87.4969 83.0983 89.5513 81.3945C90.0894 80.9564 90.4807 80.9564 90.9699 81.3945C93.0243 83.1957 95.0786 84.9482 97.133 86.7007C97.9157 87.3823 97.9157 87.5283 97.0841 88.1612C96.3993 88.6967 95.6656 89.1835 95.0297 89.719C94.3449 90.3031 94.0025 91.0333 94.296 91.9583C94.5895 92.8832 95.3721 93.1266 96.2037 93.3213C97.2798 93.5161 98.2581 93.37 99.1385 92.7372C100.019 92.1043 100.899 91.5201 101.78 90.8386C102.269 90.4492 102.758 90.3518 103.149 90.8873C104.03 92.007 104.91 93.1266 105.693 94.2463C105.84 94.441 105.791 94.9278 105.644 95.1712C104.861 96.1935 104.03 97.1671 103.198 98.1408C102.807 98.6276 102.318 98.5789 101.78 98.2868C100.948 97.8487 100.117 97.4105 99.2853 97.0211C97.9157 96.3396 96.7906 96.875 95.7145 97.8C94.6873 98.6762 94.4917 99.7959 94.8341 101.062C95.2743 102.522 96.2526 103.447 97.6222 103.934C100.361 104.907 103.149 104.956 105.889 103.885C106.818 103.496 107.699 102.814 108.383 102.084C109.264 101.159 109.508 100.039 109.117 98.7249C108.775 97.6539 108.53 96.583 108.383 95.512C108.334 95.1225 108.432 94.4897 108.677 94.2463C109.753 93.2727 110.927 92.3477 112.101 91.4228C112.492 91.082 112.932 91.1794 113.177 91.6662C113.862 92.9806 114.547 94.3436 115.133 95.7067C115.28 95.9988 115.133 96.4856 114.938 96.8264C114.449 97.8 113.862 98.7249 113.324 99.6499C112.883 100.429 112.835 101.256 113.079 102.133C114.008 105.199 116.503 106.855 119.438 106.368C121.492 106.027 123.938 103.301 122.666 100.867C122.03 99.6499 121.395 99.3578 120.123 99.8446C118.655 100.429 118.411 100.331 117.726 98.871C116.748 96.7777 116.845 96.2422 118.704 94.7818C118.851 94.6357 119.047 94.4897 119.242 94.3923C120.416 93.5647 120.514 93.5647 121.443 94.6357C121.835 95.0738 122.226 95.512 122.617 95.9501C123.106 96.4369 123.645 96.6316 124.28 96.1935C124.916 95.7067 125.503 95.1712 125.161 94.2463C125.014 93.8081 124.721 93.4187 124.525 93.0293C124.134 92.2017 124.28 91.8609 125.063 91.4228C126.726 90.4005 128.389 89.3295 130.052 88.2585C130.688 87.8204 131.275 87.3336 131.862 86.8955C132.351 87.1389 132.4 87.1875 132.449 87.2362ZM118.753 112.745C117.628 112.307 62.4039 112.404 61.5724 112.842C63.0398 113.67 63.0398 114.984 62.9909 116.396C62.9909 116.786 62.9909 117.175 62.9909 117.613C62.9909 118.976 63.2355 120.388 61.6213 121.167C62.7463 121.654 117.677 121.654 118.655 121.167C117.139 120.339 117.139 118.927 117.237 117.516C117.237 117.224 117.237 116.883 117.237 116.591C117.139 115.13 116.992 113.621 118.753 112.745ZM59.8604 109.678C59.8604 109.824 59.8604 110.019 59.8604 110.165C60.3495 110.262 60.8387 110.457 61.3278 110.457C80.4533 110.457 99.5298 110.457 118.655 110.457C118.802 110.457 118.998 110.506 119.096 110.457C119.438 110.311 119.78 110.165 120.123 110.019C120.123 109.873 120.074 109.727 120.074 109.581C119.585 109.483 119.144 109.289 118.655 109.289C102.416 109.289 86.1273 109.289 69.8878 109.289C66.953 109.289 64.0181 109.289 61.0833 109.289C60.6919 109.337 60.2517 109.532 59.8604 109.678ZM118.998 123.844C118.998 123.698 118.998 123.552 118.998 123.357C118.557 123.211 118.117 122.968 117.628 122.968C109.508 122.968 101.389 122.968 93.2688 122.968C82.9968 122.968 72.7738 122.968 62.5018 122.968C61.9148 122.968 61.3767 122.919 61.0833 123.844C61.5724 123.942 62.0615 124.136 62.5507 124.136C75.6108 124.136 88.622 124.136 101.682 124.136C106.965 124.136 112.248 124.136 117.579 124.136C118.117 124.185 118.557 123.942 118.998 123.844Z" fill="#0B132B"/>
<path d="M17.5498 154.708C15.9845 154.708 14.3704 154.708 12.7073 154.708C13.2453 154.172 13.8323 153.88 14.028 153.345C14.2725 152.809 14.1258 152.128 14.1258 151.544C14.1258 150.521 14.1258 149.499 14.1258 148.477C14.1258 147.844 13.9301 147.552 13.1964 147.552C11.142 147.6 9.03871 147.6 6.98431 147.552C6.34843 147.552 6.10385 147.795 6.10385 148.428C6.10385 149.791 6.15277 151.154 6.10385 152.469C6.05494 153.442 6.39734 154.075 7.42454 154.221C7.6202 154.27 7.81585 154.367 7.9626 154.659C6.29951 154.659 4.58751 154.659 2.87552 154.659C2.92443 154.464 2.92443 154.367 2.97334 154.367C4.34294 154.026 4.48969 153.004 4.48969 151.787C4.44077 148.964 4.48969 146.189 4.48969 143.365C4.48969 142.1 4.73426 140.688 2.58203 140.639C2.67986 140.542 2.72877 140.444 2.8266 140.347C4.34294 140.347 5.9082 140.347 7.42454 140.347C5.81037 140.834 6.15277 142.148 6.15277 143.317C6.15277 144.193 6.15277 145.02 6.15277 145.897C6.15277 146.432 6.34843 146.773 6.9354 146.724C9.08762 146.724 11.2888 146.676 13.441 146.724C13.979 146.724 14.1258 146.481 14.1258 146.091C14.1258 144.631 14.2236 143.171 14.0769 141.759C14.028 141.272 13.2942 140.834 12.8051 140.298C14.1747 140.298 15.6421 140.298 17.0606 140.298C17.0606 140.347 17.1096 140.396 17.1096 140.493C16.9628 140.59 16.7672 140.639 16.6204 140.785C16.3269 141.126 15.8378 141.515 15.8378 141.856C15.7889 145.507 15.7889 149.207 15.8378 152.858C15.8378 153.247 16.278 153.637 16.6204 153.929C16.865 154.172 17.2563 154.221 17.5987 154.367C17.5987 154.611 17.5987 154.659 17.5498 154.708Z" fill="#0B132B"/>
<path d="M136.656 147.503C137.977 149.402 139.2 151.252 140.52 153.053C141.01 153.686 141.743 154.124 142.33 154.562C141.401 155.049 140.227 154.951 139.346 154.026C138.711 153.345 138.221 152.566 137.683 151.836C137.096 151.008 136.509 150.181 136.069 149.256C135.433 147.941 134.406 147.844 133.232 147.99C132.988 148.039 132.694 148.379 132.645 148.623C132.596 150.035 132.596 151.446 132.645 152.858C132.645 153.588 133.037 153.978 133.721 154.172C134.064 154.27 134.357 154.367 134.7 154.465C134.7 154.562 134.651 154.611 134.651 154.708C132.988 154.708 131.325 154.708 129.661 154.708C129.661 154.562 129.661 154.513 129.661 154.513C131.178 153.88 131.031 152.566 131.031 151.252C130.982 148.672 131.031 146.091 131.031 143.511C131.031 141.515 131.031 141.515 129.221 140.59C129.515 140.493 129.71 140.347 129.906 140.347C131.814 140.347 133.721 140.298 135.678 140.347C137.83 140.444 139.151 141.661 139.298 143.56C139.395 145.069 138.662 146.189 137.39 147.016C137.096 147.211 136.901 147.357 136.656 147.503ZM132.645 144.193C132.645 144.485 132.645 144.826 132.645 145.118C132.694 147.406 132.205 147.308 134.846 147.26C137.096 147.211 138.27 145.653 137.732 143.463C137.292 141.71 134.748 140.396 133.134 141.077C132.89 141.175 132.694 141.613 132.694 141.856C132.596 142.635 132.645 143.414 132.645 144.193Z" fill="#0B132B"/>
<path d="M18.5279 154.562C20.3377 154.124 19.9953 152.712 19.9953 151.495C19.9953 148.964 19.9953 146.384 19.9953 143.852C19.9953 142.489 20.2888 141.029 18.2344 140.639C18.2833 140.591 18.3322 140.493 18.3811 140.445C18.6746 140.396 18.9192 140.347 19.2127 140.347C21.854 140.347 24.4954 140.396 27.0879 140.347C27.7237 140.347 28.0172 140.542 27.9683 141.175C27.9194 141.808 27.8705 142.489 27.8216 143.122C27.7237 143.122 27.6259 143.122 27.5281 143.171C27.4303 142.976 27.2835 142.781 27.2835 142.586C27.3324 141.613 26.6965 141.272 25.865 141.223C24.74 141.175 23.566 141.126 22.441 141.175C22.1475 141.175 21.6584 141.662 21.6584 141.954C21.5605 143.463 21.5605 145.021 21.5605 146.578C21.5605 146.724 21.9029 147.016 22.0497 147.016C23.028 147.065 23.9573 147.065 24.9356 147.016C25.865 146.968 26.2074 146.286 26.6476 145.556C26.6476 146.919 26.6476 148.282 26.6476 149.889C26.4031 149.499 26.2563 149.353 26.2563 149.207C26.1096 148.282 25.5715 147.893 24.6421 147.941C23.8595 147.99 23.0769 147.99 22.3432 147.941C21.6584 147.893 21.5116 148.185 21.5116 148.818C21.5605 150.132 21.5116 151.446 21.5116 152.809C21.5116 153.88 21.7562 154.075 22.8323 154.124C25.0335 154.173 27.1368 153.832 28.7509 152.031C29.0444 153.102 27.9683 154.854 26.8433 154.854C24.153 154.951 21.4627 154.854 18.7724 154.854C18.8213 154.805 18.7235 154.708 18.5279 154.562Z" fill="#0B132B"/>
<path d="M121.786 139.86C122.079 140.493 122.324 140.931 122.52 141.369C124.036 145.069 125.503 148.769 126.971 152.517C127.411 153.637 127.998 154.465 129.416 154.465C129.368 154.562 129.319 154.659 129.27 154.757C127.704 154.757 126.139 154.757 124.28 154.757C124.672 154.513 124.819 154.367 124.965 154.319C125.699 154.124 125.797 153.637 125.552 153.004C125.161 151.933 124.77 150.862 124.28 149.84C124.134 149.548 123.645 149.256 123.302 149.207C121.835 149.158 120.318 149.158 118.851 149.207C118.509 149.207 118.068 149.548 117.873 149.84C117.481 150.424 117.286 151.106 116.992 151.739C116.259 153.394 116.356 153.686 117.873 154.416C117.432 154.805 115.134 154.951 113.911 154.562C115.72 153.832 115.965 152.128 116.601 150.765C118.166 147.552 119.683 144.242 121.199 140.98C121.346 140.737 121.541 140.445 121.786 139.86ZM121.492 142.879C121.395 142.879 121.248 142.879 121.15 142.879C120.416 144.485 119.634 146.092 118.9 147.698C118.851 147.795 119.096 148.233 119.193 148.233C120.612 148.282 122.079 148.282 123.693 148.282C122.911 146.335 122.177 144.631 121.492 142.879Z" fill="#0B132B"/>
<path d="M77.9587 153.929C80.6 153.637 83.486 154.854 85.8828 152.517C85.8828 153.978 85.1001 154.805 83.8773 154.805C81.4316 154.805 78.9859 154.805 76.5402 154.805C75.4151 154.805 75.3173 154.611 75.9043 153.637C78.1543 149.84 80.4533 146.092 82.7523 142.294C82.899 142.002 83.0947 141.71 83.2903 141.321C81.4316 141.321 79.7196 141.272 78.0076 141.321C77.2739 141.37 76.6869 141.856 76.4423 142.587C76.3445 142.879 76.1978 143.122 76.051 143.463C75.7575 142.976 75.8553 140.785 76.1488 140.591C76.2956 140.493 76.4912 140.445 76.6869 140.445C79.4261 140.445 82.1164 140.445 84.8556 140.445C85.0023 140.445 85.1491 140.542 85.4425 140.591C85.198 141.077 85.0512 141.516 84.8067 141.905C82.7033 145.361 80.5511 148.866 78.4478 152.323C78.2032 152.712 78.0076 153.102 77.8119 153.54C77.8608 153.734 77.9097 153.832 77.9587 153.929Z" fill="#0B132B"/>
<path d="M66.9534 141.516C65.5838 141.516 64.3609 141.467 63.138 141.564C62.7467 141.613 62.3554 142.051 62.0619 142.392C61.8174 142.635 61.7195 142.976 61.5728 143.317C61.475 143.268 61.3771 143.268 61.2793 143.219C61.426 142.392 61.5239 141.564 61.7684 140.785C61.8174 140.591 62.2087 140.396 62.4532 140.396C66.2196 140.347 69.9371 140.396 73.7035 140.347C74.1927 140.347 74.4861 140.542 74.4861 141.029C74.4861 141.662 74.4861 142.294 74.4861 142.927C74.3883 142.927 74.2905 142.927 74.1927 142.927C74.0948 142.733 74.0948 142.538 73.9481 142.392C73.6546 142.051 73.3122 141.564 72.9209 141.516C71.7469 141.418 70.5241 141.418 69.3012 141.467C69.1056 141.467 68.7632 141.856 68.7632 142.051C68.7143 145.702 68.7632 149.304 68.7632 152.956C68.7632 153.588 69.1056 153.978 69.6926 154.173C69.9371 154.27 70.1328 154.367 70.3773 154.465C70.3773 154.562 70.3284 154.611 70.3284 154.708C68.7632 154.708 67.149 154.708 65.437 154.708C65.5837 154.465 65.6327 154.319 65.7305 154.319C67.0512 154.027 67.149 153.053 67.149 151.885C67.1001 148.964 67.149 146.043 67.149 143.122C67.0512 142.635 67.0023 142.148 66.9534 141.516Z" fill="#0B132B"/>
<path d="M157.542 141.515C156.173 141.515 154.95 141.467 153.727 141.564C153.336 141.613 152.944 142.051 152.651 142.343C152.406 142.586 152.308 142.976 152.162 143.317C152.064 143.317 151.966 143.268 151.868 143.268C152.015 142.44 152.113 141.564 152.357 140.737C152.406 140.542 152.846 140.396 153.091 140.396C156.809 140.396 160.526 140.396 164.243 140.396C164.782 140.396 165.075 140.59 165.026 141.126C165.026 141.759 165.026 142.392 164.83 143.122C164.684 141.369 163.461 141.564 162.385 141.564C161.602 141.564 160.771 141.564 159.988 141.564C159.499 141.564 159.303 141.759 159.303 142.197C159.303 145.799 159.303 149.402 159.303 153.004C159.303 153.637 159.597 154.124 160.281 154.318C160.526 154.367 160.722 154.513 160.868 154.805C159.303 154.805 157.689 154.805 155.977 154.805C156.173 154.562 156.222 154.416 156.319 154.416C157.64 154.124 157.738 153.15 157.738 152.03C157.689 149.158 157.738 146.286 157.738 143.414C157.64 142.781 157.591 142.197 157.542 141.515Z" fill="#0B132B"/>
<path d="M143.406 140.493C144.923 140.493 146.439 140.493 148.004 140.493C148.102 140.591 148.151 140.639 148.249 140.737C146.439 140.98 146.684 142.294 146.684 143.414C146.684 145.945 146.684 148.477 146.684 151.008C146.684 151.641 146.586 152.225 146.537 152.858C146.439 153.686 146.83 154.124 147.613 154.124C149.765 154.172 151.917 153.978 153.532 152.274C153.58 152.225 153.678 152.177 153.776 152.128C153.776 152.128 153.825 152.128 153.874 152.128C154.021 153.248 152.945 154.854 151.868 154.854C149.178 154.903 146.488 154.854 143.798 154.854C143.749 154.854 143.7 154.757 143.602 154.659C145.412 154.124 145.02 152.663 145.02 151.349C145.02 148.526 144.972 145.702 145.069 142.83C145.069 141.808 144.825 141.175 143.798 140.931C143.651 140.883 143.553 140.785 143.455 140.688C143.406 140.591 143.406 140.542 143.406 140.493Z" fill="#0B132B"/>
<path d="M54.9692 140.445C56.6323 140.445 58.1487 140.445 59.7628 140.445C59.2737 140.883 58.6867 141.175 58.4911 141.613C58.2954 142.1 58.3932 142.781 58.3932 143.365C58.3932 146.335 58.3932 149.353 58.3932 152.323C58.3932 153.783 58.3932 153.783 59.8117 154.367C59.9096 154.416 60.0074 154.513 60.3009 154.708C58.4421 154.708 56.8769 154.708 55.2138 154.708C55.2627 154.513 55.2627 154.416 55.2627 154.416C56.5345 154.075 56.7791 153.102 56.7302 151.933C56.6812 149.207 56.7302 146.53 56.7302 143.804C56.7791 141.613 56.7791 141.613 54.9692 140.445Z" fill="#0B132B"/>
<path d="M86.9101 150.473C86.3721 149.256 86.5188 148.915 87.546 148.574C89.2091 147.99 90.8722 147.406 92.4863 146.822C93.1222 147.893 92.9755 148.331 91.8994 148.72C90.2852 149.305 88.6221 149.889 86.9101 150.473Z" fill="#0B132B"/>
<path d="M202.886 143.268C202.445 143.268 202.201 143.219 201.858 143.219C201.858 141.272 201.858 139.422 201.858 137.475C202.837 137.475 203.815 137.426 204.744 137.475C205.527 137.524 206.163 137.864 206.31 138.789C206.407 139.666 206.065 140.201 205.087 140.445C206.212 141.077 206.31 142.002 206.212 143.365C205.82 143.025 205.478 142.879 205.429 142.635C205.136 140.931 204.842 140.737 202.935 140.98C202.935 141.321 202.935 141.71 202.935 142.051C202.886 142.44 202.886 142.781 202.886 143.268ZM202.935 140.25C203.57 140.201 204.108 140.298 204.598 140.152C204.94 140.006 205.331 139.568 205.38 139.228C205.429 138.935 204.989 138.449 204.695 138.351C204.157 138.157 203.57 138.205 202.935 138.157C202.935 138.887 202.935 139.52 202.935 140.25Z" fill="#0B132B"/>
<path d="M86.3723 31.7887C85.0516 31.8374 84.2201 31.4479 83.5353 30.6203C82.4592 29.3059 81.3341 28.0402 80.1602 26.8719C79.7689 26.4338 79.133 26.239 78.6438 25.8983C78.3993 25.7522 78.1058 25.5575 78.0569 25.3141C77.5188 23.5616 76.4427 22.1499 75.0731 20.9328C74.7307 20.6407 74.2905 19.9592 74.4372 19.7158C74.7307 19.0343 75.5133 19.1803 76.0514 19.4237C78.1547 20.2513 79.6221 21.7604 80.8939 23.5616C81.1874 23.951 81.4809 24.3405 81.8722 24.6326C84.0244 26.4825 85.394 28.9165 86.3723 31.7887Z" fill="#0B132B"/>
<path d="M68.7139 19.667C68.078 20.4459 67.5399 21.2735 66.8551 21.9551C66.7084 22.1011 65.9258 21.9551 65.779 21.7603C65.5344 21.3709 65.3388 20.5433 65.5344 20.3486C66.1703 19.7157 66.953 19.2776 67.7845 18.8882C68.2736 18.6447 68.616 18.9368 68.5182 19.5697C68.5671 19.5697 68.616 19.6184 68.7139 19.667Z" fill="#0B132B"/>
<path d="M90.2365 113.378C91.4594 113.378 92.6333 113.378 93.8562 113.378C95.2258 113.378 96.1551 114.206 96.2529 115.569C96.3508 116.64 96.3508 117.711 96.2529 118.782C96.1551 120.047 95.3236 120.923 94.0029 120.923C91.4594 120.972 88.9158 120.972 86.3723 120.923C85.0027 120.923 84.1222 119.999 84.0733 118.635C84.0244 117.662 84.0244 116.64 84.0733 115.666C84.1222 114.254 85.0516 113.378 86.4701 113.378C87.7419 113.378 88.9647 113.378 90.2365 113.378ZM90.1387 119.171C91.2637 119.171 92.242 118.295 92.242 117.175C92.2909 116.104 91.3126 115.13 90.1876 115.082C89.0626 115.082 88.1332 115.958 88.0843 117.078C88.0843 118.197 89.0136 119.122 90.1387 119.171Z" fill="#0B132B"/>
<path d="M73.0673 113.378C74.2902 113.378 75.4641 113.378 76.687 113.378C78.1544 113.378 79.0838 114.254 79.1327 115.715C79.1816 116.688 79.1816 117.711 79.1327 118.684C79.0838 119.999 78.2522 120.923 76.9315 120.923C74.3391 120.972 71.7955 120.972 69.2031 120.923C67.8824 120.875 67.0509 119.95 67.002 118.635C67.002 117.662 67.002 116.688 67.002 115.666C67.0509 114.254 67.9313 113.378 69.3498 113.378C70.5727 113.378 71.7955 113.378 73.0673 113.378ZM73.0184 115.082C71.9423 115.082 70.964 116.104 70.964 117.175C70.964 118.246 71.9423 119.22 73.0673 119.22C74.1923 119.22 75.1217 118.246 75.1217 117.126C75.0728 116.055 74.0945 115.082 73.0184 115.082Z" fill="#0B132B"/>
<path d="M106.867 113.524C108.09 113.524 109.264 113.524 110.487 113.524C112.052 113.573 112.884 114.4 112.884 115.958C112.884 116.883 112.884 117.808 112.884 118.733C112.835 120.096 112.003 121.021 110.634 121.021C108.09 121.069 105.547 121.069 103.003 121.021C101.585 121.021 100.802 120.144 100.753 118.733C100.704 117.759 100.704 116.737 100.753 115.763C100.802 114.351 101.633 113.524 103.052 113.524C104.324 113.475 105.596 113.524 106.867 113.524ZM106.916 119.171C108.041 119.171 108.971 118.295 109.019 117.126C109.019 116.007 108.09 115.082 106.965 115.082C105.84 115.082 104.911 116.007 104.911 117.126C104.862 118.246 105.742 119.122 106.916 119.171Z" fill="#0B132B"/>
<path d="M116.552 117.078C116.552 117.857 115.916 118.538 115.085 118.538C114.253 118.538 113.617 117.905 113.617 117.078C113.617 116.25 114.253 115.569 115.036 115.569C115.818 115.617 116.552 116.299 116.552 117.078Z" fill="#0B132B"/>
<path d="M100.019 117.029C100.019 117.808 99.3834 118.538 98.5519 118.538C97.7204 118.538 97.0845 117.905 97.0845 117.078C97.0845 116.25 97.6714 115.617 98.503 115.569C99.3345 115.569 100.019 116.201 100.019 117.029Z" fill="#0B132B"/>
<path d="M65.0456 115.617C65.8282 115.617 66.513 116.25 66.5619 117.078C66.5619 117.905 65.926 118.538 65.1434 118.587C64.3118 118.587 63.676 118.003 63.676 117.175C63.5781 116.299 64.214 115.666 65.0456 115.617Z" fill="#0B132B"/>
<path d="M82.9971 117.126C82.9971 117.954 82.3123 118.587 81.4807 118.538C80.6492 118.538 80.0133 117.857 80.0622 117.029C80.0622 116.25 80.7959 115.569 81.5786 115.617C82.4101 115.666 83.046 116.347 82.9971 117.126Z" fill="#0B132B"/>
</g>
<defs>
<clipPath id="clip0_2_748">
<rect width="223" height="155" fill="white" transform="translate(-14)"/>
</clipPath>
</defs>
</svg>
