<svg width="202" height="159" viewBox="0 0 202 159" fill="none" xmlns="http://www.w3.org/2000/svg">
<path d="M60.9522 69.896C59.7251 72.7965 58.7211 75.4738 57.6055 78.0396C53.9241 86.2947 50.9122 94.8845 46.673 102.917C43.2148 109.61 39.3103 116.192 33.9556 121.435C28.3778 126.901 21.6845 130.248 13.764 130.471C9.19022 130.582 4.83953 129.467 0.711956 127.236C-0.403604 126.566 0.0426336 125.897 0.377302 125.228C2.60842 120.542 4.72794 115.746 6.95906 111.06C8.40929 107.937 9.97107 104.813 11.4213 101.578C11.8675 100.574 12.4253 100.128 13.5409 100.239C15.772 100.351 18.0031 100.351 20.2342 100.016C27.8201 99.1237 33.2863 94.5499 38.1947 89.3067C45.8921 80.94 51.3584 71.2347 55.9322 60.86C56.4899 59.5213 56.4899 58.4057 55.9322 57.1786C49.5735 42.4532 43.3263 27.6163 36.9676 12.8909C36.4099 11.6638 36.633 11.106 37.8601 10.5482C45.3343 7.20156 52.8086 3.74332 60.2829 0.285087C61.6215 -0.272692 62.1793 -0.0495804 62.737 1.28909C72.554 24.939 82.4825 48.5888 92.411 72.2387C92.6341 72.6849 92.5225 73.4658 93.1919 73.3542C93.7497 73.3542 93.7496 72.6849 93.8612 72.2387C95.9807 67.2187 98.1003 62.0871 100.331 57.0671C100.889 55.84 100.889 54.7244 100.331 53.4973C94.9767 40.7799 89.6221 28.1741 84.2674 15.4567C83.7096 14.118 84.0442 13.5602 85.2714 13.0025C92.6341 9.43268 99.9968 5.97444 107.248 2.29309C108.587 1.62376 109.144 1.95843 109.702 3.18554C121.75 31.8554 133.798 60.6369 145.846 89.3067C149.974 99.1237 154.101 108.941 158.229 118.758C159.01 120.654 158.898 120.877 156.779 120.877C148.189 120.877 139.599 120.877 131.009 120.877C129.448 120.877 128.667 120.431 127.997 118.869C120.746 101.578 113.383 84.1752 106.021 66.884C105.909 66.5493 105.798 66.3262 105.686 66.1031C105.128 66.1031 105.128 66.5493 105.017 66.884C102.786 72.1271 100.555 77.3703 98.3234 82.6134C97.7656 83.8405 97.7656 84.9561 98.3234 86.1832C103.009 97.1157 107.583 107.937 112.268 118.869C113.049 120.766 113.049 120.766 111.041 120.766C102.339 120.766 93.5265 120.766 84.8252 120.766C83.3749 120.766 82.7056 120.319 82.1478 118.981C75.3429 102.917 68.538 86.9641 61.7331 70.9C61.3984 70.7885 61.2868 70.5653 60.9522 69.896Z" fill="#0B132B"/>
<path d="M52.5857 146.2C51.4702 147.985 50.3546 149.77 49.239 151.555C48.1235 153.34 47.0079 153.34 45.8924 151.555C44.7768 149.882 43.6612 148.097 42.3226 145.977C42.211 148.431 41.9879 150.328 41.9879 152.336C41.8764 153.674 41.9879 155.013 41.8764 156.352C41.7648 158.025 40.4261 158.695 38.9759 158.025C38.3065 157.691 38.4181 157.244 38.4181 156.686C38.5297 152.67 38.7528 148.543 38.8644 144.527C38.8644 143.3 38.9759 142.184 39.0875 140.957C39.0875 140.176 38.8644 139.284 39.9799 139.172C41.0955 139.061 42.3226 138.726 43.1035 139.953C44.4421 142.184 45.7808 144.304 47.0079 146.535C47.6773 147.65 48.012 147.427 48.5697 146.535C49.7969 144.415 51.1355 142.407 52.2511 140.176C53.032 138.726 54.3706 138.949 55.4862 139.172C56.7133 139.395 56.2671 140.399 56.3787 141.18C56.6018 146.2 56.8249 151.22 57.048 156.24C57.1595 157.467 56.8248 158.137 55.4862 158.137C54.259 158.137 53.4782 157.914 53.4782 156.352C53.4782 153.451 53.2551 150.551 53.1435 147.65C53.0319 147.204 53.0319 146.758 52.5857 146.2Z" fill="#0B132B"/>
<path d="M161.241 148.543C161.241 154.232 157.114 158.471 151.87 158.471C146.627 158.471 142.388 153.898 142.5 148.431C142.611 142.854 146.739 138.503 151.982 138.503C157.225 138.614 161.241 142.854 161.241 148.543ZM157.337 148.431C157.337 145.196 155.552 142.631 152.986 142.296C149.862 141.85 147.297 143.523 146.516 146.535C145.623 149.993 147.185 153.563 150.086 154.567C153.99 155.794 157.337 153.005 157.337 148.431Z" fill="#0B132B"/>
<path d="M87.2793 148.543C87.2793 145.865 87.2793 143.188 87.2793 140.622C87.2793 139.507 87.7255 139.061 88.8411 139.061C90.9607 139.172 93.0802 138.949 95.1998 139.172C97.5425 139.395 99.2158 140.511 99.8852 142.63C100.666 144.973 100.555 147.204 98.7696 148.989C97.6541 149.993 97.7656 150.774 98.4349 151.889C99.3273 153.451 100.108 155.125 101.001 156.686C101.447 157.579 101.224 157.914 100.331 158.025C97.8771 158.248 97.5425 158.137 96.4269 155.905C95.7576 154.567 95.0882 153.228 94.4189 151.889C93.8611 150.662 92.7455 150.774 91.7415 150.885C90.626 150.997 90.8491 152.001 90.8491 152.67C90.8491 154.009 90.8491 155.236 90.8491 156.575C90.8491 157.914 90.0682 158.137 89.0642 158.025C88.0602 158.025 87.2793 157.914 87.2793 156.575C87.3909 153.897 87.2793 151.22 87.2793 148.543ZM90.9607 144.861C90.9607 147.427 90.9607 147.427 93.0802 147.427C95.7576 147.427 96.7616 146.758 96.7616 144.973C96.7616 143.188 95.7576 142.519 93.1918 142.519C90.9607 142.519 90.9607 142.519 90.9607 144.861Z" fill="#0B132B"/>
<path d="M108.809 148.543C108.809 145.977 108.809 143.3 108.809 140.734C108.809 139.507 109.144 138.949 110.371 139.061C112.491 139.172 114.61 138.949 116.73 139.284C119.072 139.507 120.746 140.734 121.527 142.965C122.308 145.308 122.084 147.539 120.188 149.324C119.184 150.216 119.296 150.886 119.853 151.89C120.746 153.452 121.527 155.125 122.419 156.687C123.088 157.914 122.754 158.137 121.415 158.248C119.63 158.36 118.515 157.914 117.845 156.017C117.399 154.679 116.507 153.452 115.949 152.113C115.391 150.774 114.276 150.886 113.16 150.997C112.044 151.109 112.379 152.113 112.268 152.894C112.268 154.232 112.268 155.571 112.268 156.91C112.268 158.248 111.375 158.137 110.483 158.137C109.59 158.137 108.698 158.137 108.698 156.798C108.921 154.009 108.809 151.22 108.809 148.543ZM114.61 147.316C116.172 147.428 117.399 147.428 117.957 145.754C118.403 144.527 118.068 143.523 117.064 142.742C116.284 142.184 113.16 142.296 112.714 142.742L112.602 142.854C112.379 144.192 112.156 145.531 112.602 146.87C112.937 147.762 114.052 147.204 114.61 147.316Z" fill="#0B132B"/>
<path d="M78.2438 158.137C76.9052 158.471 76.3474 157.69 75.9012 156.352C74.8972 153.451 74.8971 153.451 71.8851 153.451C71.662 153.451 71.3273 153.451 71.1042 153.451C68.65 153.451 68.65 153.451 67.8692 155.794C67.4229 157.356 66.8651 158.36 64.8571 158.137C63.5185 158.025 63.2953 157.579 63.7416 156.463C65.638 151.22 67.646 146.089 69.4309 140.845C69.8771 139.507 70.5465 139.061 71.8851 139.061C73.2238 139.061 73.8932 139.507 74.3394 140.845C76.1243 145.977 78.0208 150.997 79.8057 156.129C80.6981 158.025 80.5865 158.137 78.2438 158.137ZM72.1083 144.192C71.9967 144.192 71.8852 144.192 71.7736 144.192C71.4389 145.308 70.9927 146.423 70.658 147.539C69.7656 150.328 69.8772 150.551 72.8892 150.216C73.6701 150.105 73.8932 149.881 73.6701 149.101C73.2239 147.427 72.666 145.865 72.1083 144.192Z" fill="#0B132B"/>
<path d="M192.253 150.216C192.253 148.208 192.142 146.312 192.253 144.304C192.365 142.853 191.807 142.407 190.468 142.519C189.799 142.63 189.018 142.519 188.237 142.519C186.341 142.519 185.671 141.515 186.229 139.73C186.452 139.061 187.01 139.061 187.456 139.061C191.807 139.061 196.158 139.061 200.508 139.061C201.847 139.061 201.847 139.953 201.959 140.957C201.959 142.073 201.624 142.63 200.397 142.519C199.393 142.519 198.389 142.519 197.385 142.519C196.269 142.407 195.823 142.965 195.823 144.081C195.823 147.985 195.823 152.001 195.823 155.905C195.823 158.025 195.6 158.137 193.48 158.137C192.365 158.137 192.03 157.579 192.03 156.575C192.253 154.455 192.253 152.336 192.253 150.216Z" fill="#0B132B"/>
<path d="M171.281 150.216C171.281 148.097 171.281 145.977 171.281 143.857C171.281 142.965 170.946 142.519 170.054 142.519C168.827 142.519 167.711 142.519 166.484 142.519C165.257 142.519 165.257 141.626 165.257 140.845C165.257 139.953 165.257 139.061 166.484 139.061C170.946 139.061 175.408 139.061 179.871 139.061C181.209 139.061 180.986 140.176 180.986 140.957C180.986 141.849 180.875 142.519 179.759 142.519C178.644 142.519 177.528 142.519 176.524 142.519C175.408 142.407 175.074 142.853 175.074 143.969C175.074 147.985 175.074 152.113 175.074 156.129C175.074 157.913 173.512 158.806 171.95 157.914C171.392 157.579 171.392 157.021 171.392 156.575C171.281 154.455 171.281 152.336 171.281 150.216Z" fill="#0B132B"/>
<path d="M134.691 148.543C134.691 151.22 134.579 153.786 134.691 156.464C134.691 157.914 134.021 158.025 132.794 158.025C131.679 158.025 131.009 157.802 131.009 156.352C131.121 151.109 131.121 145.754 131.009 140.511C131.009 139.061 131.79 138.949 132.906 138.949C134.021 138.949 134.802 139.172 134.691 140.623C134.579 143.3 134.691 145.977 134.691 148.543Z" fill="#0B132B"/>
</svg>
