<svg width="244" height="74" viewBox="0 0 244 74" fill="none" xmlns="http://www.w3.org/2000/svg">
<path d="M243.815 29.9193C243.815 36.4897 243.815 43.0601 243.815 49.5339C243.815 51.2731 243.428 51.7562 241.689 51.7562C228.548 51.7562 215.408 51.7562 202.267 51.7562C200.624 51.7562 200.141 51.2731 200.141 49.6305C200.141 36.3931 200.141 23.2523 200.141 10.0149C200.141 8.37226 200.624 7.88916 202.267 7.88916C215.408 7.88916 228.645 7.88916 241.786 7.88916C243.525 7.88916 243.912 8.37226 243.912 10.0149C243.815 16.6819 243.815 23.3489 243.815 29.9193ZM203.716 31.272C203.716 32.6248 203.716 33.9775 203.716 35.3302C203.716 35.91 203.909 36.2965 204.489 36.2965C207.098 36.2965 209.803 36.2965 212.412 36.2965C213.379 36.2965 214.441 36.0066 214.828 34.9437C215.214 33.7843 215.408 32.5281 214.538 31.5619C214.152 31.1754 214.248 30.8855 214.345 30.4024C215.118 28.1801 214.538 26.4409 212.122 26.5375C209.707 26.5375 207.291 26.5375 204.876 26.5375C204.006 26.5375 203.716 26.924 203.716 27.697C203.813 28.7598 203.716 30.0159 203.716 31.272ZM234.249 36.1998C235.312 36.1998 236.375 36.2964 237.534 36.1998C239.274 36.1032 240.047 35.3302 240.047 33.591C240.047 31.5619 240.047 29.4362 240.047 27.4071C240.047 26.7307 239.95 26.2476 239.177 26.3442C238.404 26.3442 238.404 26.924 238.404 27.4071C238.404 29.3396 238.404 31.1754 238.404 33.1079C238.404 34.4606 238.114 34.7505 236.761 34.8471C235.119 34.9437 233.573 34.9437 231.93 34.8471C230.578 34.8471 230.191 34.364 230.191 33.0113C230.191 31.0788 230.191 29.1463 230.191 27.2139C230.191 26.6341 229.998 26.2476 229.321 26.2476C228.645 26.2476 228.452 26.5375 228.452 27.1172C228.452 29.2429 228.452 31.4653 228.452 33.591C228.452 35.0403 229.321 35.9099 230.867 36.0066C232.027 36.2964 233.186 36.1998 234.249 36.1998ZM217.63 31.272C217.63 32.5281 217.63 33.7842 217.63 35.0403C217.63 35.8133 217.92 36.1998 218.693 36.1998C221.012 36.1998 223.234 36.1998 225.553 36.1998C226.036 36.1998 226.616 36.1998 226.616 35.5235C226.616 34.8471 226.133 34.7505 225.65 34.7505C224.007 34.7505 222.268 34.7505 220.625 34.7505C219.659 34.7505 219.176 34.4606 219.273 33.3978C219.369 31.3687 219.273 29.3395 219.273 27.3105C219.273 26.8273 219.176 26.3442 218.5 26.3442C217.823 26.3442 217.727 26.7307 217.727 27.3105C217.63 28.6632 217.63 30.0159 217.63 31.272Z" fill="#0B132B"/>
<path d="M140.234 52.046C137.915 52.046 135.693 52.046 133.374 52.046C132.794 52.046 132.408 52.1426 132.118 52.7223C131.828 53.4953 131.055 53.592 130.379 53.7852C128.35 54.2683 126.224 54.0751 124.098 53.9784C121.103 53.7852 118.011 53.8818 115.016 53.9784C109.412 54.0751 103.807 54.3649 98.2032 54.7514C91.6328 55.2346 85.159 55.8143 78.6852 56.5873C69.9891 57.5535 61.293 58.8096 52.5969 60.0657C50.0847 60.4522 47.6691 60.8387 45.1569 61.2252C44.4805 61.3218 44.3839 61.6117 44.7704 62.1914C45.3502 63.061 45.9299 63.9307 46.5096 64.8003C46.7029 65.0901 46.9928 65.5732 46.7029 65.9597C46.413 66.3462 45.9299 66.3462 45.4468 66.2496C43.9008 65.8631 42.3548 65.0901 41.1953 64.0273C39.3595 62.4813 37.5237 62.3847 35.3013 62.8678C33.1756 63.3509 30.9532 63.834 28.6343 63.9307C28.1512 63.9307 27.5714 64.1239 27.3782 63.5441C27.1849 63.061 27.668 62.6745 28.0545 62.2881C28.441 61.9016 29.0208 61.7083 29.5039 61.5151C31.1465 61.032 32.7891 60.4522 34.4317 59.9691C35.3013 59.6792 35.4945 59.486 34.7215 58.8096C30.5667 54.848 27.1849 50.3067 24.2862 45.3789C22.8369 42.8667 21.4841 40.2579 20.4213 37.5524C19.8415 36.1997 20.1314 35.62 21.5808 35.1369C21.9673 35.0402 22.2571 35.0402 22.0639 34.3639C21.8706 33.7841 22.547 33.6875 22.9335 33.6875C24.3829 33.4943 25.8322 33.4943 27.2816 33.301C29.4073 33.1078 31.6296 32.7213 33.4655 31.4652C36.1709 29.8226 36.4608 27.2138 34.4317 24.7982C32.4992 22.4792 29.7938 21.4163 27.1849 20.2568C21.5808 17.8413 15.6867 16.5852 9.59945 16.7784C7.28048 16.875 4.96154 17.1649 2.7392 17.7446C1.77297 17.9379 0.613473 18.2278 0.130356 17.2615C-0.352761 16.2953 0.613485 15.6189 1.28985 15.0392C4.28518 12.4304 7.37713 10.208 11.4353 9.53164C13.561 9.24177 15.6867 9.82151 17.8124 10.1114C23.6098 10.8844 29.0208 12.7202 33.852 16.1987C36.9439 18.3244 39.4561 20.9332 40.7122 24.6049C42.2582 29.0496 40.6156 33.0111 36.2676 35.0402C34.3351 35.9098 32.306 36.2964 30.1803 36.2964C29.3106 36.2964 29.3106 36.4896 29.6005 37.2626C32.6925 44.4127 37.3304 50.6932 41.3886 57.2636C41.9683 58.1332 42.548 57.94 43.2244 57.7467C50.1813 55.9109 57.2348 54.3649 64.385 53.0122C75.4967 50.8865 86.705 49.2439 98.0099 48.0844C108.445 47.0215 118.881 46.3452 129.413 46.0553C135.5 45.8621 141.587 45.8621 147.771 45.9587C151.829 45.9587 155.887 46.2486 160.042 46.3452C160.622 46.3452 161.202 46.5384 161.685 46.635C162.168 46.7317 162.651 46.9249 162.651 47.6013C162.651 48.181 162.361 48.5675 161.975 48.8574C161.105 49.4371 160.139 49.5337 159.173 49.5337C158.4 49.6304 157.53 49.5338 156.66 49.6304C155.887 49.727 155.211 49.5338 154.825 50.5966C154.631 51.1763 153.665 51.1764 152.989 51.3696C150.766 51.7561 148.544 51.9493 146.322 52.046C144.293 52.046 142.263 52.046 140.234 52.046Z" fill="#0B132B"/>
<path d="M85.9323 26.7307C86.1256 24.9914 86.3189 23.3488 86.5121 21.6096C86.9952 15.6189 87.2851 9.62828 87.1884 3.63762C87.1884 2.86464 87.0918 2.18828 87.0918 1.41529C87.0918 0.932178 87.1885 0.352443 87.7682 0.0625722C88.2513 -0.130675 88.7344 0.15919 89.1209 0.44906C91.0534 2.18828 92.5027 4.21736 93.6622 6.53633C94.9183 9.04854 95.015 11.6574 94.5319 14.5561C92.8893 24.7016 89.4108 34.1707 85.9323 43.6398C85.6425 44.4128 85.256 45.1857 84.8695 45.8621C84.6763 46.2486 84.3864 46.7317 83.8066 46.6351C83.3235 46.5384 83.1303 46.0553 82.937 45.6688C82.5505 44.5094 82.7438 43.2533 83.0336 42.0938C83.1303 41.7073 83.2269 41.4174 83.4202 40.7411C81.7776 42.287 80.0383 43.2533 78.2025 44.0263C76.9464 44.5094 75.6902 44.9925 74.3375 44.9925C72.2118 44.9925 70.5692 43.833 70.0861 41.7073C69.0233 37.6491 69.9895 33.7842 71.6321 30.0158C72.6949 27.6003 74.2409 25.5712 76.3666 23.9286C78.8789 22.0927 80.9079 22.0927 83.4202 24.0252C84.1931 24.8948 84.9661 25.7644 85.9323 26.7307ZM83.9999 33.3977C82.6471 33.5909 81.6809 33.0112 80.9079 32.0449C80.2315 31.1753 79.5552 30.3057 80.5214 29.1462C80.8113 28.8564 80.5215 28.18 80.2316 27.8901C79.7485 27.5036 79.4586 27.9868 79.1687 28.18C76.6565 30.7888 75.4004 33.8808 75.497 37.5525C75.497 39.6782 77.043 40.6444 79.1687 40.0647C79.8451 39.8714 80.4248 39.5816 81.0046 39.1951C82.3573 38.2288 83.4202 37.0694 84.3864 35.8133C84.6763 35.4268 84.7729 34.9437 84.8695 34.4605C84.9661 33.5909 84.8695 33.1078 83.9999 33.3977Z" fill="#0B132B"/>
<path d="M1.38672 63.0611C1.57997 60.3556 2.54622 57.4569 3.60908 54.5582C6.21791 47.3115 9.69636 40.5478 13.3681 33.8808C15.2039 30.499 17.1364 27.1172 19.0688 23.7354C19.4553 23.059 19.9384 22.286 20.4216 21.7063C20.808 21.2231 21.1945 20.4502 21.8709 20.74C22.6439 20.9333 22.5473 21.8029 22.5473 22.4792C22.5473 23.3488 22.354 24.2185 21.9675 25.0881C18.1992 33.3011 15.687 41.9006 13.1748 50.5C11.6288 55.8143 10.2761 61.1286 8.82674 66.4429C8.44024 67.9889 8.44024 69.6315 8.34362 71.2741C8.34362 72.0471 8.53687 73.0133 7.47402 73.2066C6.50778 73.3032 6.12129 72.4336 6.02466 71.6606C5.73479 70.2113 4.38206 69.7281 3.51245 68.7619C1.96647 66.9261 1.38672 65.6699 1.38672 63.0611Z" fill="#0B132B"/>
<path d="M54.7225 45.2823C53.9495 46.0553 53.2732 46.7317 52.5002 47.3114C50.6644 48.8574 48.5386 49.5338 46.2197 49.727C44.1906 49.9203 42.4513 48.3743 41.9682 46.152C41.3885 43.7364 41.9682 41.4174 42.8379 39.0984C44.4805 35.0403 46.9926 31.6584 49.988 28.5665C52.1137 26.3442 54.9158 26.7306 57.0415 29.3395C57.428 28.4699 57.7179 27.6969 58.1044 26.9239C58.8773 25.4745 59.8436 25.3779 60.8098 26.7307C61.1963 27.2138 61.5828 27.3104 62.0659 27.5036C63.5152 28.0834 63.7085 28.7597 63.1288 30.3057C61.9693 33.7842 60.8098 37.2626 60.2301 40.8377C60.1335 41.3208 59.9402 41.9005 60.4233 42.1904C60.9065 42.5769 61.2929 41.9972 61.6794 41.7073C62.8389 41.0309 63.9984 40.2579 65.2545 39.8714C65.5444 39.7748 65.9309 39.5816 66.2208 39.8714C66.5106 40.1613 66.414 40.5478 66.2208 40.9343C65.641 41.9005 64.7714 42.6735 63.9018 43.3499C63.2254 43.833 62.8389 44.4127 62.7423 45.2823C62.7423 45.5722 62.6457 45.8621 62.4524 46.152C61.5828 47.4081 58.1044 48.6642 56.655 48.181C55.3023 47.8912 55.0124 46.6351 54.7225 45.2823ZM48.3454 42.7701C48.2488 44.606 48.6353 45.0891 49.6015 45.1857C51.7272 45.379 54.5293 43.1566 54.7225 41.1275C54.9158 38.9052 55.3023 36.7795 55.882 34.6538C56.1719 33.3977 55.9786 32.3348 55.4955 31.1753C55.2056 30.4989 54.8192 30.4023 54.2394 30.9821C53.4664 31.7551 52.7901 32.6247 52.2103 33.4943C50.2779 36.4896 48.5387 39.4849 48.3454 42.7701Z" fill="#0B132B"/>
<path d="M95.4976 33.4943C95.5942 31.6585 95.7874 29.2429 96.3671 26.8273C96.4638 26.2475 96.657 25.7644 96.8503 25.1847C97.9131 22.3826 100.812 21.8029 102.938 24.0252C103.421 24.5083 103.711 25.0881 103.614 25.7645C103.421 27.3104 103.324 28.953 101.971 30.0159C101.488 30.4024 101.392 30.9821 101.198 31.4652C100.522 33.4943 100.619 35.5234 100.619 37.5525C100.619 38.4221 101.102 38.5187 101.681 38.1322C103.034 37.2626 104.29 36.2964 105.353 35.2335C108.252 32.1416 111.054 28.8564 113.47 25.3779C114.339 24.2185 114.919 22.9624 115.595 21.7063C116.175 20.5468 117.141 20.4501 117.914 21.513C119.557 23.9286 121.586 26.0543 123.035 28.5665C123.518 29.4361 124.001 30.4024 124.388 31.3686C125.741 34.6538 125.064 36.7795 122.166 39.0019C119.364 41.2242 115.982 41.6107 112.6 41.4174C112.117 41.4174 111.537 41.2242 111.44 40.5478C111.344 39.9681 111.73 39.6782 112.117 39.3883C112.407 39.1951 112.697 39.0019 113.083 38.8086C116.175 37.166 117.334 34.7504 116.465 31.3686C116.272 30.6922 116.078 30.0159 115.788 29.3395C115.305 28.18 115.209 28.18 114.339 29.1463C112.213 31.6585 109.991 34.0741 107.672 36.393C105.933 38.1323 104 39.7749 101.875 41.1276C98.5895 43.1567 96.9469 42.4803 95.9807 38.712C95.6908 37.166 95.4976 35.62 95.4976 33.4943Z" fill="#0B132B"/>
<path d="M181.976 29.4362C180.72 30.9822 179.753 32.4315 178.98 34.1707C178.207 35.91 177.338 37.6492 176.178 39.0986C175.502 39.8715 174.826 40.5479 173.956 41.1276C172.12 42.1905 170.767 41.7074 170.188 39.6783C169.608 37.5526 169.608 35.3302 169.994 33.1079C170.381 30.5957 170.864 28.0835 171.734 25.6679C171.83 25.378 171.927 24.9915 172.12 24.7017C173.183 22.6726 174.246 22.1895 175.985 22.8658C178.401 23.8321 179.077 25.0881 178.401 27.3105C178.111 28.3733 177.628 29.3396 176.565 30.0159C175.405 30.7889 175.599 32.1417 175.695 33.4944C176.275 33.2045 176.468 32.6248 176.661 32.2383C177.918 30.1126 178.98 27.8902 180.913 26.2476C182.652 24.7983 183.618 24.9915 184.681 26.924C185.841 29.0497 186.904 31.1754 188.063 33.2045C189.126 35.137 190.285 36.8762 192.025 38.3256C192.894 39.0986 193.764 39.9682 194.247 41.1276C194.923 42.577 194.44 43.6398 192.894 44.2196C191.542 44.6061 190.189 44.7027 188.933 44.5095C187.58 44.3162 186.807 43.35 186.324 42.1905C184.681 38.1323 182.845 34.2674 182.169 29.9193C182.169 29.8227 182.169 29.7261 181.976 29.4362Z" fill="#0B132B"/>
<path d="M151.733 40.6443C148.931 40.6443 147.481 39.0017 147.868 36.5861C148.158 34.7502 148.931 33.1076 149.8 31.465C151.443 28.1798 153.375 24.9913 155.404 21.8993C155.694 21.5128 155.887 21.1263 156.274 20.8364C157.337 19.677 159.559 19.3871 160.815 20.0634C161.202 20.2567 161.395 20.6432 161.202 21.1263C161.009 21.6094 160.719 22.0925 160.429 22.479C158.11 26.0541 156.467 29.919 155.308 34.0738C155.211 34.2671 155.211 34.4603 155.211 34.6536C155.018 35.9097 155.501 36.2962 156.757 35.9097C158.013 35.4266 158.786 34.3637 159.849 33.6874C160.139 33.4941 160.042 33.1076 159.946 32.7211C159.752 31.465 159.366 30.3056 158.979 29.1461C158.786 28.3731 158.593 27.6001 158.786 26.8271C159.269 25.4744 160.332 25.2811 161.298 26.344C161.878 27.0203 162.265 27.89 162.554 28.8562C163.038 30.3055 163.521 31.8515 163.714 33.3975C163.907 34.9435 163.328 35.7164 161.878 36.0063C160.719 36.1996 159.946 36.9726 159.173 37.7456C156.95 39.4848 154.342 40.3544 151.733 40.6443Z" fill="#0B132B"/>
<path d="M132.891 40.6443C132.408 40.6443 131.925 40.6443 131.442 40.5477C130.958 40.451 130.379 40.2578 130.282 39.6781C130.185 39.0983 130.572 38.7118 131.055 38.4219C131.248 38.3253 131.538 38.2287 131.731 38.1321C134.823 36.7794 136.176 33.9773 135.403 30.6921C134.533 27.117 134.437 27.117 131.635 29.2427C130.862 29.8224 130.185 30.4022 129.412 30.9819C128.736 31.4651 128.156 31.2718 128.06 30.4022C127.866 29.2427 128.06 28.0832 129.123 27.3102C131.538 25.571 133.471 23.5419 134.533 20.6432C135.017 19.4837 135.886 18.6141 137.142 18.131C137.819 17.8411 138.495 17.7445 138.978 18.4209C139.461 19.0973 139.171 19.677 138.688 20.1601C137.819 20.9331 137.142 21.8027 137.336 23.0588C137.625 24.5082 138.302 25.7643 139.461 26.6339C140.427 27.4069 141.394 28.2765 142.263 29.2427C144.872 32.238 144.486 35.5232 141.49 37.9388C138.978 39.8713 135.983 40.451 132.891 40.6443Z" fill="#0B132B"/>
<path d="M173.763 52.046C172.893 52.046 172.023 52.046 171.154 51.7562C170.574 51.5629 169.994 51.3697 169.801 50.7899C169.415 49.6305 168.448 49.5338 167.579 49.5338C166.806 49.4372 166.033 49.5338 165.26 49.3406C164.487 49.0507 164.39 48.5676 164.777 47.9879C165.356 47.0216 166.323 46.8284 167.289 46.8284C170.091 46.925 172.796 47.1182 175.599 47.3115C176.855 47.4081 178.111 47.4081 179.367 47.7946C180.043 47.9879 180.72 48.1811 180.816 49.0507C180.913 49.9203 180.43 50.4034 179.753 50.7899C177.918 51.7562 175.888 52.046 173.763 52.046Z" fill="#0B132B"/>
<path d="M108.928 11.9472C108.928 12.7202 108.735 13.5898 108.155 14.0729C106.996 15.329 105.45 16.1986 103.807 16.7784C103.034 17.0682 102.648 16.5851 102.745 15.8121C102.938 14.2662 103.131 12.6236 103.518 11.0776C103.807 9.53162 105.257 8.56539 106.513 8.75863C107.866 9.0485 108.928 10.4012 108.928 11.9472Z" fill="#0B132B"/>
<path d="M209.223 34.7504C208.257 34.7504 207.194 34.7504 206.228 34.7504C205.359 34.7504 205.262 34.1707 205.359 33.4943C205.455 32.818 204.972 31.7551 206.132 31.7551C208.161 31.6585 210.19 31.6585 212.315 31.7551C213.378 31.8517 213.572 32.6247 213.475 33.4943C213.378 34.4606 212.799 34.6538 212.026 34.6538C211.059 34.7504 210.093 34.7504 209.223 34.7504Z" fill="#0B132B"/>
<path d="M209.03 27.697C209.9 27.697 210.866 27.697 211.736 27.697C212.509 27.697 213.088 27.9869 213.088 28.8565C213.185 29.7261 212.799 30.4025 211.832 30.4025C209.9 30.4991 207.967 30.4991 206.035 30.4025C204.972 30.4025 205.262 29.4362 205.262 28.8565C205.262 28.2767 205.359 27.697 206.132 27.697C207.098 27.697 208.064 27.697 209.03 27.697Z" fill="#0B132B"/>
</svg>
