<svg width="227" height="73" viewBox="0 0 227 73" fill="none" xmlns="http://www.w3.org/2000/svg">
<g clip-path="url(#clip0_2_721)">
<path d="M0 0.451904C1.49282 0.451904 2.98565 0.508406 4.47847 0.451904C4.9378 0.451904 5.05263 0.564907 5.05263 1.01692C5.05263 7.17559 5.05263 13.2778 5.05263 19.4364C5.05263 19.6059 5.05263 19.7754 5.05263 20.1144C5.2823 19.9449 5.39713 19.8319 5.45455 19.7189C11.4833 13.6168 17.512 7.4016 23.4833 1.24293C24 0.734412 24.5167 0.451904 25.2632 0.508406C27.0431 0.564907 28.7656 0.508406 30.5455 0.508406C30.7177 0.508406 30.89 0.508406 31.177 0.508406C31.0048 0.734412 30.8899 0.847415 30.7751 0.960418C25.7225 6.21506 20.6124 11.4697 15.5024 16.7244C15.2153 17.0634 15.2153 17.2329 15.445 17.5719C19.2344 22.657 22.9665 27.7422 26.756 32.8273C27.1005 33.2793 27.445 33.7313 27.7895 34.1833C28.1914 34.5788 28.6507 34.8048 29.2249 34.8048C29.799 34.7483 30.3732 34.8048 30.89 34.8048C31.2344 34.8048 31.3493 34.9179 31.2919 35.2569C31.2919 36.6129 31.2919 37.9689 31.2919 39.3815C31.2919 39.4945 31.1196 39.777 31.0048 39.777C30.0287 39.777 29.11 39.8335 28.134 39.7205C25.9522 39.438 24.4019 38.1949 23.1388 36.4999C19.3493 31.4713 15.6172 26.3861 11.8852 21.301C11.7703 21.1315 11.6555 21.0185 11.4833 20.849C11.311 21.0185 11.1962 21.1315 11.0813 21.2445C9.12919 23.2785 7.17703 25.2561 5.22488 27.2901C5.16746 27.4031 5.05263 27.6857 5.05263 27.9682C5.05263 31.6973 5.05263 35.3699 5.05263 39.099C5.05263 39.551 4.9378 39.664 4.47847 39.664C2.98565 39.664 1.49282 39.664 0 39.664C0 26.6121 0 13.5038 0 0.451904Z" fill="#0B132B"/>
<path d="M131.885 73.0001C131.541 72.9436 131.139 72.8871 130.794 72.7741C129.876 72.6046 129.072 72.2091 128.325 71.5876C128.038 71.3616 127.981 71.0791 128.211 70.7966C128.268 70.7401 128.325 70.6271 128.383 70.5706C128.785 69.949 128.842 69.949 129.416 70.3446C130.278 70.9661 131.196 71.4181 132.287 71.3616C133.091 71.3051 133.837 70.8531 134.067 70.1751C134.297 69.497 134.124 68.706 133.435 68.1975C132.804 67.7455 132.115 67.463 131.483 67.0675C130.852 66.7285 130.163 66.3894 129.531 65.9939C128.383 65.2029 127.981 64.0729 128.211 62.7168C128.498 61.3043 129.474 60.5133 130.794 60.1743C132.345 59.8353 133.837 60.1178 135.215 60.9653C135.675 61.2478 135.675 61.3608 135.388 61.8128C135.33 61.9258 135.215 62.0388 135.158 62.1518C134.928 62.5473 134.699 62.5473 134.297 62.3778C133.723 62.0953 133.091 61.8128 132.459 61.6433C131.311 61.3608 130.22 61.9258 129.933 62.8864C129.761 63.5644 129.99 64.1294 130.507 64.5249C130.909 64.8639 131.426 65.1464 131.943 65.3724C132.804 65.8244 133.723 66.1634 134.584 66.672C135.962 67.5195 136.479 68.8755 136.077 70.2881C135.732 71.5876 134.412 72.6046 132.919 72.7741C132.746 72.7741 132.574 72.8306 132.402 72.8871C132.23 73.0001 132.057 73.0001 131.885 73.0001Z" fill="#0B132B"/>
<path d="M68.8422 72.9999C68.4402 72.9434 68.0957 72.8869 67.6938 72.7739C66.7752 72.6044 65.9713 72.2089 65.2823 71.6439C64.9953 71.4179 64.8804 71.1354 65.1675 70.7964C65.2249 70.7399 65.2823 70.6269 65.3398 70.5139C65.6843 69.9489 65.7991 69.9489 66.3158 70.3444C67.1771 70.9659 68.0957 71.4179 69.1867 71.4179C70.0479 71.3614 70.7369 70.9659 71.024 70.2879C71.3111 69.6099 71.0814 68.8753 70.3924 68.3103C69.9331 67.9148 69.3589 67.6888 68.8422 67.3498C68.0383 66.9543 67.2345 66.6153 66.4881 66.1068C65.2823 65.3157 64.823 64.1292 65.1101 62.7167C65.3972 61.3606 66.3158 60.5696 67.6364 60.2306C69.2441 59.8351 70.7369 60.1741 72.1149 61.0216C72.4594 61.2476 72.4594 61.4736 72.2871 61.8126C72.2297 61.9256 72.1723 61.9821 72.1149 62.0951C71.713 62.6602 71.6555 62.6602 71.024 62.3212C70.1053 61.8126 69.1866 61.4171 68.1532 61.6996C67.5216 61.8691 67.0048 62.2082 66.8326 62.8862C66.6603 63.5642 66.8326 64.2422 67.4067 64.6377C67.9235 65.0332 68.5551 65.3157 69.1292 65.5982C69.8756 65.9938 70.6795 66.2763 71.3685 66.7283C72.6316 67.5193 73.2058 68.7058 72.9187 70.1184C72.6316 71.5309 71.5981 72.3219 70.2201 72.7174C69.8756 72.8304 69.4737 72.8869 69.1292 72.9434C69.0718 73 68.957 72.9999 68.8422 72.9999Z" fill="#0B132B"/>
<path d="M55.9234 9.43579C55.9234 9.6618 55.9234 9.8313 55.9234 10.0573C55.9234 19.7191 55.9234 29.3243 55.9234 38.9861C55.9234 39.6641 55.9234 39.6641 55.2344 39.6641C54.0287 39.6641 52.8229 39.6641 51.5598 39.6641C51.1004 39.6641 50.9856 39.5511 50.9856 39.0991C50.9856 28.4768 50.9856 17.798 50.9856 7.17573C50.9856 5.14167 50.9856 3.05111 50.9856 1.01706C50.9856 0.621548 51.1004 0.508545 51.5023 0.508545C52.8803 0.508545 54.2583 0.508545 55.6937 0.508545C56.0382 0.508545 56.2679 0.621548 56.4976 0.904056C61.4928 7.51474 66.488 14.1254 71.4832 20.7926C71.598 20.9621 71.7129 21.0751 71.8851 21.2446C72.1722 20.8491 72.4593 20.5666 72.6889 20.2276C77.5119 13.8429 82.3349 7.45824 87.1004 1.07356C87.3875 0.67805 87.732 0.508545 88.1913 0.508545C89.5119 0.565046 90.8899 0.508545 92.2105 0.508545C92.6124 0.508545 92.7272 0.621548 92.7272 1.01706C92.7272 13.7299 92.7272 26.4993 92.7272 39.2121C92.7272 39.6076 92.6124 39.7206 92.2105 39.7206C90.9473 39.7206 89.6267 39.7206 88.3636 39.7206C87.732 39.7206 87.732 39.7206 87.732 39.0991C87.732 34.0705 87.732 28.9853 87.732 23.9567C87.732 19.3236 87.732 14.6904 87.732 10.0573C87.732 9.8878 87.732 9.6618 87.732 9.49229C87.6746 9.43579 87.5598 9.37929 87.5023 9.32279C87.4449 9.49229 87.3875 9.60529 87.2727 9.7748C82.6794 15.7075 78.1435 21.5836 73.5502 27.5163C73.2631 27.8553 72.976 28.0813 72.5167 28.0248C72.3444 28.0248 72.1722 28.0248 72.0574 28.0248C70.909 28.2508 70.1626 27.7423 69.4736 26.7818C65.11 21.0751 60.7464 15.425 56.3253 9.7748C56.2105 9.6618 56.1531 9.54879 56.0382 9.43579C56.0382 9.43579 55.9808 9.43579 55.9234 9.43579Z" fill="#0B132B"/>
<path d="M213.244 9.49229C213.244 9.6618 213.244 9.8878 213.244 10.0573C213.244 19.7191 213.244 29.3808 213.244 39.0426C213.244 39.6641 213.244 39.6641 212.555 39.6641C211.292 39.6641 210.029 39.6641 208.823 39.6641C208.364 39.6641 208.249 39.4946 208.249 39.0991C208.249 31.4149 208.249 23.7307 208.249 15.99C208.249 11.0178 208.249 6.1022 208.249 1.13006C208.249 0.508545 208.249 0.508545 208.88 0.508545C210.144 0.508545 211.464 0.508545 212.727 0.508545C213.072 0.508545 213.301 0.621548 213.474 0.904056C218.354 7.62774 223.177 14.2949 228.057 21.0186C230.182 23.9567 232.364 26.9513 234.488 29.8894C234.603 30.0024 234.718 30.1719 234.89 30.2284C234.89 30.0024 234.947 29.8328 234.947 29.6068C234.947 20.1711 234.947 10.6788 234.947 1.24307C234.947 0.508545 234.947 0.508545 235.694 0.508545C236.899 0.508545 238.163 0.508545 239.368 0.508545C239.77 0.508545 239.943 0.621548 239.943 1.07356C239.943 6.44121 239.943 11.7524 239.943 17.12C239.943 24.4087 239.943 31.7539 239.943 39.0426C239.943 39.6641 239.943 39.6641 239.311 39.6641C238.22 39.6641 237.129 39.6641 236.038 39.6641C235.694 39.6641 235.464 39.5511 235.234 39.2686C232.421 35.37 229.55 31.5279 226.737 27.6293C222.373 21.6966 218.067 15.764 213.703 9.8313C213.588 9.6618 213.474 9.54879 213.359 9.37929C213.359 9.43579 213.301 9.43579 213.244 9.49229Z" fill="#0B132B"/>
<path d="M162.201 20.0016C162.66 11.6958 166.45 5.36766 174.316 1.63855C177.129 0.339018 180.172 -0.225997 183.273 0.0565106C191.541 0.791031 197.225 5.14165 200.498 12.5434C201.359 14.5209 201.761 16.555 201.933 18.702C202.679 27.6858 196.938 36.387 188.096 39.2121C180.632 41.5851 172.306 39.2686 167.196 33.3359C164.67 30.3978 163.12 27.0642 162.488 23.3351C162.373 22.3181 162.316 21.1881 162.201 20.0016ZM182.641 5.14165C179.368 5.14165 176.727 5.87617 174.373 7.40171C168.172 11.4133 165.761 19.2105 168.574 25.9342C171.502 32.8839 179.024 36.613 186.201 34.5225C194.297 32.2059 198.775 23.6742 196.306 15.6509C194.354 9.32277 188.44 5.02865 182.641 5.14165Z" fill="#0B132B"/>
<path d="M100.536 20.1144C100.536 13.7863 100.536 7.5146 100.536 1.18642C100.536 0.564907 100.536 0.564907 101.225 0.564907C105.531 0.564907 109.837 0.508405 114.086 0.564907C116.957 0.621408 119.656 1.29943 122.124 2.82497C125.34 4.85902 127.292 7.7406 127.809 11.4697C128.785 18.2499 124.593 24.1261 117.703 25.7081C116.383 25.9906 115.062 26.1036 113.742 26.1601C111.158 26.2166 108.574 26.2166 105.99 26.1601C105.531 26.1601 105.416 26.3296 105.416 26.7816C105.416 30.9062 105.416 35.0308 105.416 39.1555C105.416 39.6075 105.301 39.7205 104.842 39.7205C103.636 39.664 102.373 39.7205 101.167 39.7205C100.536 39.7205 100.536 39.7205 100.536 39.099C100.536 32.7708 100.536 26.4426 100.536 20.1144ZM105.416 13.3343C105.416 15.7638 105.416 18.1934 105.416 20.6795C105.416 21.301 105.416 21.301 106.048 21.301C108.574 21.301 111.1 21.301 113.569 21.301C114.373 21.301 115.177 21.2445 115.923 21.1315C119.828 20.4535 123.1 17.6849 122.871 13.1083C122.756 10.9612 121.952 9.15314 120.344 7.7406C118.565 6.21506 116.383 5.59354 114.086 5.53704C111.388 5.48054 108.689 5.53704 105.99 5.53704C105.531 5.53704 105.359 5.65005 105.359 6.15856C105.474 8.41862 105.416 10.9047 105.416 13.3343Z" fill="#0B132B"/>
<path d="M148.823 22.6005C148.823 28.0812 148.823 33.6183 148.823 39.099C148.823 39.551 148.708 39.7205 148.249 39.7205C146.986 39.664 145.665 39.7205 144.402 39.7205C143.77 39.7205 143.77 39.7205 143.77 39.0425C143.77 28.1377 143.77 17.1764 143.77 6.2716C143.77 5.53708 143.77 5.53708 143.024 5.53708C139.292 5.53708 135.56 5.53708 131.828 5.53708C131.196 5.53708 131.196 5.53708 131.196 4.91556C131.196 3.61602 131.196 2.31649 131.196 1.01695C131.196 0.677944 131.311 0.564941 131.656 0.564941C141.416 0.564941 151.177 0.564941 160.881 0.564941C161.282 0.564941 161.397 0.677944 161.397 1.07346C161.397 2.37299 161.397 3.72903 161.397 5.02856C161.397 5.48058 161.282 5.59358 160.823 5.59358C157.091 5.59358 153.302 5.59358 149.569 5.59358C148.823 5.59358 148.823 5.59358 148.823 6.3281C148.823 11.6957 148.823 17.1764 148.823 22.6005Z" fill="#0B132B"/>
<path d="M43.0623 20.171C43.0623 26.4992 43.0623 32.7708 43.0623 39.099C43.0623 39.7205 43.0623 39.7205 42.4307 39.7205C41.1675 39.7205 39.8469 39.7205 38.5838 39.7205C38.1819 39.7205 38.067 39.6075 38.1245 39.2685C38.1245 37.7995 38.1245 36.3304 38.1245 34.9179C38.1245 23.7306 38.1245 12.5998 38.1245 1.41246C38.1245 1.24296 38.1245 1.12996 38.1245 0.960452C38.1245 0.677945 38.2393 0.564941 38.5264 0.564941C39.9044 0.564941 41.2824 0.564941 42.7178 0.564941C43.1197 0.564941 43.1197 0.790948 43.1197 1.01695C43.1197 2.8815 43.1197 4.74606 43.1197 6.61061C43.0623 11.1307 43.0623 15.6509 43.0623 20.171Z" fill="#0B132B"/>
<path d="M27.7896 66.5023C27.7896 70.0619 24.9187 72.887 21.3015 72.887C17.6269 72.887 14.8135 69.8924 14.8135 66.5588C14.8709 62.9427 17.7417 60.0046 21.3589 60.0611C25.2058 60.1176 27.9044 63.1687 27.7896 66.5023ZM26.1245 66.5588C26.2393 64.2987 24.2872 61.7562 21.3589 61.7562C18.7178 61.7562 16.4785 63.8467 16.536 66.4458C16.536 69.4404 19.1197 71.1919 21.3015 71.2484C23.9427 71.2484 26.1819 69.0449 26.1245 66.5588Z" fill="#0B132B"/>
<path d="M178.909 60.2871C179.77 60.2871 180.632 60.2871 181.493 60.2871C182.354 60.2871 183.215 60.2871 184.134 60.2871C185.914 60.3436 187.407 61.4171 187.866 63.1122C188.325 64.7507 187.636 66.3893 186.029 67.2933C185.799 67.4063 185.569 67.5193 185.34 67.6888C185.397 67.8583 185.512 68.0278 185.569 68.1973C186.258 69.4969 187.005 70.7964 187.694 72.1524C187.924 72.6044 187.809 72.8305 187.292 72.8305C185.684 72.8305 186.086 73.0565 185.397 71.7569C184.823 70.6269 184.249 69.4969 183.675 68.3668C183.56 68.0843 183.388 67.9713 183.043 67.9713C182.412 67.9713 181.723 67.9713 181.091 67.9713C180.746 67.9713 180.574 68.0843 180.632 68.4233C180.632 69.7229 180.632 70.9659 180.632 72.2654C180.632 72.8305 180.574 72.887 180 72.887C178.852 72.887 178.909 73 178.909 71.8134C178.909 67.9148 178.909 64.1857 178.909 60.2871ZM180.632 66.2763C180.804 66.2763 180.976 66.2763 181.091 66.2763C182.01 66.2763 182.986 66.2763 183.904 66.2763C185.11 66.2763 186.086 65.3723 186.201 64.0727C186.316 63.0557 185.397 61.9822 184.249 61.8692C183.158 61.7562 182.067 61.8127 180.919 61.8127C180.632 61.8127 180.574 61.9822 180.574 62.2647C180.574 63.4512 180.574 64.5812 180.574 65.7678C180.632 65.9373 180.632 66.1068 180.632 66.2763Z" fill="#0B132B"/>
<path d="M90.3157 71.1354C89.3971 71.983 88.4784 72.548 87.3875 72.7175C86.6411 72.887 85.8947 72.887 85.1483 72.661C82.7942 72.0395 81.8181 69.4969 83.311 67.6323C83.7703 67.0108 84.4593 66.5023 85.1483 65.8808C85.0335 65.7113 84.8038 65.4853 84.6315 65.2593C84.0574 64.6378 83.598 63.9032 83.5406 62.9992C83.4832 61.6432 84.2296 60.5696 85.5502 60.1741C86.5263 59.8916 87.5023 59.8916 88.421 60.3436C89.9138 61.0782 90.4306 62.7732 89.5693 64.1292C89.1674 64.7508 88.5933 65.2028 88.0765 65.7113C87.9617 65.8243 87.732 65.9373 87.4449 66.2198C88.3636 67.0673 89.2248 67.8583 90.1435 68.7059C90.6028 67.9713 90.7751 67.2368 90.8325 66.4458C90.8899 65.6548 91.3492 65.3723 92.0382 65.8243C92.1531 65.8808 92.2679 66.1068 92.2679 66.2763C92.2105 67.3498 91.866 68.3104 91.4067 69.2709C91.2344 69.6099 91.2918 69.8359 91.5789 70.1184C92.0382 70.5139 92.4401 70.9659 92.8995 71.3614C93.1866 71.6439 93.1866 71.8699 92.8995 72.096C92.7846 72.209 92.6698 72.322 92.555 72.435C92.1531 72.774 91.9808 72.8305 91.6363 72.435C91.2344 72.096 90.7751 71.6439 90.3157 71.1354ZM86.5837 71.4744C87.4449 71.4744 88.2488 71.1354 88.9378 70.5139C89.2248 70.2879 89.2823 70.0619 88.9952 69.7794C88.3062 69.1014 87.6746 68.4234 87.043 67.7453C86.0669 66.7848 85.9521 66.7848 85.0335 67.8018C84.976 67.8583 84.9186 67.9148 84.8612 67.9713C84.287 68.7059 84.1148 69.4969 84.5167 70.3444C84.8612 71.1354 85.6076 71.4744 86.5837 71.4744ZM86.6985 61.3607C86.0669 61.3042 85.5502 61.5302 85.2057 62.1517C84.8612 62.7732 84.9186 63.3947 85.3205 63.9597C85.6076 64.3552 85.9521 64.6943 86.2966 65.0333C86.354 65.0898 86.5837 65.1463 86.6985 65.0898C87.1579 64.7508 87.6746 64.4117 88.0765 64.0162C88.5358 63.5077 88.6507 62.8862 88.3062 62.2082C88.0191 61.5867 87.4449 61.3607 86.6985 61.3607Z" fill="#0B132B"/>
<path d="M102.89 60.2871C103.407 60.2871 103.866 60.2871 104.325 60.2871C105.589 60.2871 106.852 60.2871 108.115 60.2871C109.895 60.3436 111.388 61.4736 111.847 63.1122C112.249 64.7507 111.502 66.3893 109.952 67.2933C109.722 67.4063 109.55 67.5193 109.263 67.6323C109.321 67.8018 109.378 67.9713 109.493 68.1408C110.182 69.4404 110.928 70.7399 111.617 72.0959C111.904 72.5479 111.732 72.774 111.215 72.774C109.665 72.774 110.067 73 109.378 71.7004C108.804 70.5704 108.23 69.4404 107.655 68.3103C107.541 68.0278 107.368 67.9148 107.024 67.9148C106.22 67.9148 105.416 67.9148 104.612 67.9148C104.612 68.1408 104.612 68.3103 104.612 68.5363C104.612 69.7794 104.612 71.0789 104.612 72.3219C104.612 72.661 104.498 72.8305 104.096 72.8305C102.718 72.8305 102.89 72.9435 102.89 71.7004C102.89 68.5363 102.89 65.3723 102.89 62.1517C102.89 61.5301 102.89 60.9651 102.89 60.2871ZM104.612 64.0727C104.612 64.6942 104.612 65.3157 104.612 65.9373C104.612 66.2763 104.727 66.3328 105.014 66.3328C105.99 66.3328 106.967 66.3328 107.943 66.3328C109.091 66.3328 110.067 65.3722 110.182 64.1857C110.239 63.1122 109.435 62.0387 108.287 61.9257C107.196 61.8127 106.048 61.8692 104.9 61.8692C104.612 61.8692 104.555 62.0387 104.555 62.2647C104.612 62.8297 104.612 63.4512 104.612 64.0727Z" fill="#0B132B"/>
<path d="M208.019 63.6771C208.019 63.8466 208.019 64.0161 208.019 64.1856C208.019 66.7847 208.019 69.3838 208.019 71.9829C208.019 72.6609 208.019 72.6609 207.33 72.6609C206.354 72.6609 206.354 72.6609 206.354 71.7569C206.354 68.0278 206.354 64.2987 206.354 60.6261C206.354 60.4565 206.469 60.2305 206.526 60.061C206.756 60.1175 207.043 60.174 207.158 60.3435C209.569 63.0556 211.981 65.7677 214.392 68.5363C214.565 68.7058 214.737 68.8753 214.909 69.1013C214.966 69.1013 214.966 69.0448 215.024 69.0448C215.024 68.8753 215.024 68.7058 215.024 68.5363C215.024 65.9937 215.024 63.5076 215.024 60.9651C215.024 60.4 215.024 60.3435 215.598 60.3435C216.746 60.3435 216.632 60.2305 216.632 61.3606C216.632 64.9767 216.632 68.5928 216.632 72.2089C216.632 72.4349 216.574 72.7739 216.402 72.8869C216.115 73.0564 215.885 72.8304 215.655 72.5479C213.244 69.6663 210.775 66.8412 208.364 63.9596C208.249 63.8466 208.191 63.7336 208.134 63.6206C208.134 63.6206 208.076 63.6771 208.019 63.6771Z" fill="#0B132B"/>
<path d="M10.3923 66.5022C10.3923 68.3668 10.3923 70.2313 10.3923 72.0959C10.3923 72.6609 10.3349 72.7174 9.76069 72.7174C8.55495 72.7174 8.66978 72.8304 8.66978 71.6439C8.66978 70.2879 8.66978 68.9883 8.66978 67.6323C8.66978 67.2933 8.55495 67.1803 8.21045 67.1803C6.2583 67.1803 4.30614 67.1803 2.35399 67.1803C2.00949 67.1803 1.83724 67.2933 1.83724 67.6323C1.83724 69.1013 1.83724 70.5704 1.83724 72.0394C1.83724 72.6609 1.77983 72.6609 1.20567 72.6609C-7.64206e-05 72.6609 0.114756 72.7739 0.114756 71.5874C0.114756 68.0278 0.114756 64.4682 0.114756 60.9651C0.114756 60.2871 0.114756 60.2871 0.803751 60.2871C2.00949 60.2871 1.83724 60.1741 1.83724 61.3041C1.83724 62.6036 1.83724 63.8467 1.83724 65.1462C1.83724 65.4852 1.95208 65.6547 2.29657 65.6547C4.24873 65.6547 6.20088 65.6547 8.15303 65.6547C8.49753 65.6547 8.66978 65.5417 8.61236 65.1462C8.61236 63.7337 8.61236 62.2646 8.61236 60.8521C8.61236 60.4566 8.7272 60.2871 9.18653 60.2871C10.5645 60.3436 10.3349 60.1741 10.3349 61.4171C10.3923 63.1687 10.3923 64.8072 10.3923 66.5022Z" fill="#0B132B"/>
<path d="M165.531 64.5247C165.531 65.7677 165.531 66.9542 165.531 68.1973C165.531 69.6098 166.45 70.7398 167.713 71.0789C169.895 71.6439 171.732 70.2313 171.789 67.9713C171.789 65.5982 171.789 63.2816 171.789 60.9086C171.789 60.2871 171.789 60.2871 172.421 60.2871C173.684 60.2871 173.627 60.1176 173.627 61.4736C173.627 63.5641 173.627 65.5982 173.627 67.6888C173.627 68.8753 173.397 70.0053 172.593 71.0223C171.445 72.5479 169.378 73.2259 167.426 72.7174C165.474 72.2089 164.153 70.7963 163.866 68.8188C163.809 68.4798 163.809 68.0843 163.809 67.7453C163.809 65.4852 163.809 63.2816 163.809 61.0216C163.809 60.3436 163.866 60.2871 164.498 60.2871C165.761 60.2871 165.589 60.1741 165.589 61.3606C165.531 62.4341 165.531 63.5076 165.531 64.5247Z" fill="#0B132B"/>
<path d="M191.77 72.7174C190.679 72.7174 190.679 72.7174 191.081 71.8134C192.804 68.0843 194.526 64.4117 196.249 60.6826C196.306 60.626 196.306 60.513 196.364 60.4565C196.536 60.287 196.708 60.061 196.88 60.061C196.995 60.061 197.225 60.287 197.282 60.4565C197.799 61.5866 198.373 62.7166 198.89 63.9031C200.153 66.6152 201.359 69.3273 202.622 72.0394C202.852 72.6044 202.794 72.6609 202.22 72.7174C201.416 72.8304 200.957 72.5479 200.67 71.7569C200.498 71.2483 200.268 70.7398 199.981 70.2878C199.866 70.1183 199.636 69.9488 199.464 69.9488C197.684 69.9488 195.904 69.9488 194.124 69.9488C193.837 69.9488 193.722 70.0618 193.608 70.2878C193.378 70.8528 193.091 71.3613 192.919 71.8699C192.689 72.4914 192.402 72.8869 191.77 72.7174ZM199.177 68.5363C198.373 66.7847 197.627 65.1462 196.88 63.5076C196.823 63.5076 196.765 63.5076 196.708 63.5076C195.962 65.1462 195.215 66.8412 194.411 68.5363C196.076 68.5363 197.569 68.5363 199.177 68.5363Z" fill="#0B132B"/>
<path d="M159.617 72.7175C159.101 72.887 158.756 72.548 158.526 71.983C158.297 71.418 158.01 70.7965 157.723 70.288C157.665 70.1185 157.378 70.0054 157.263 69.9489C155.483 69.9489 153.646 69.9489 151.866 69.9489C151.579 69.9489 151.464 70.0619 151.349 70.288C151.062 70.9095 150.775 71.531 150.546 72.1525C150.373 72.548 150.144 72.7175 149.684 72.7175C148.536 72.7175 148.364 72.8305 148.938 71.644C150.603 68.0279 152.268 64.4683 153.933 60.8522C153.991 60.7392 153.991 60.6262 154.105 60.5132C154.22 60.3437 154.392 60.1177 154.565 60.1177C154.737 60.1177 154.967 60.3437 155.024 60.5132C155.483 61.4172 155.885 62.3777 156.345 63.3383C157.665 66.1633 158.928 68.9884 160.249 71.87C160.306 71.9265 160.306 71.983 160.364 72.096C160.593 72.661 160.536 72.774 159.904 72.774C159.904 72.7175 159.79 72.7175 159.617 72.7175ZM156.976 68.4799C156.172 66.7284 155.426 65.0898 154.679 63.4513C154.622 63.4513 154.565 63.4513 154.507 63.4513C153.761 65.0898 153.014 66.7284 152.268 68.4799C153.876 68.4799 155.368 68.4799 156.976 68.4799Z" fill="#0B132B"/>
<path d="M42.7178 66.4458C42.7178 64.5812 42.7178 62.7167 42.7178 60.8521C42.7178 60.4001 42.8326 60.2306 43.2919 60.2871C45.5312 60.2871 47.7704 60.2871 50.0671 60.2871C50.469 60.2871 50.6986 60.4566 50.6412 60.8521C50.6412 60.9651 50.6412 61.0781 50.6412 61.2476C50.6986 61.6996 50.469 61.8691 50.0671 61.8126C48.402 61.8126 46.7369 61.8126 45.0718 61.8126C44.6125 61.8126 44.4403 61.9256 44.4977 62.3777C44.4977 63.2817 44.4977 64.2422 44.4977 65.1462C44.4977 65.5417 44.6125 65.6547 45.0144 65.6547C46.3924 65.6547 47.7704 65.6547 49.1484 65.6547C49.6077 65.6547 49.7226 65.8242 49.7226 66.2198C49.7226 67.1803 49.7226 67.1803 48.8039 67.1803C47.5407 67.1803 46.2776 67.1803 45.0718 67.1803C44.6699 67.1803 44.4977 67.2933 44.4977 67.6888C44.4977 68.6493 44.4977 69.6664 44.4977 70.6269C44.4977 71.0224 44.6699 71.1354 45.0718 71.1354C46.7369 71.1354 48.3446 71.1354 50.0096 71.1354C50.2393 71.1354 50.6412 71.2484 50.6412 71.3614C50.6986 71.7004 50.6412 72.0959 50.5838 72.4914C50.5838 72.5479 50.3541 72.6044 50.2393 72.6044C47.8852 72.6044 45.5886 72.6044 43.2345 72.6044C42.8326 72.6044 42.7752 72.3784 42.7752 72.0959C42.7178 70.2314 42.7178 68.3668 42.7178 66.4458Z" fill="#0B132B"/>
<path d="M116.555 66.4459C116.555 64.5814 116.555 62.7168 116.555 60.8523C116.555 60.4567 116.67 60.3438 117.072 60.3438C119.311 60.3438 121.55 60.3438 123.789 60.3438C124.191 60.3438 124.306 60.4567 124.306 60.8523C124.306 61.8128 124.306 61.8128 123.33 61.8128C121.78 61.8128 120.287 61.8128 118.737 61.8128C118.335 61.8128 118.163 61.8693 118.22 62.3213C118.277 63.2818 118.277 64.1859 118.22 65.1464C118.22 65.5419 118.392 65.6549 118.737 65.6549C120.115 65.6549 121.435 65.6549 122.813 65.6549C123.445 65.6549 123.445 65.6549 123.445 66.2764C123.445 66.3894 123.445 66.5024 123.445 66.6154C123.502 67.0674 123.33 67.2369 122.871 67.1804C121.493 67.1804 120.115 67.1804 118.737 67.1804C118.335 67.1804 118.22 67.2934 118.22 67.689C118.22 68.706 118.22 69.6665 118.22 70.6835C118.22 71.079 118.392 71.192 118.737 71.192C120.402 71.192 122.067 71.192 123.675 71.192C123.904 71.192 124.249 71.305 124.306 71.4181C124.364 71.7571 124.306 72.1526 124.249 72.5481C124.249 72.6046 124.019 72.6611 123.904 72.6611C121.608 72.6611 119.254 72.6611 116.957 72.6611C116.555 72.6611 116.498 72.4916 116.498 72.1526C116.555 70.2315 116.555 68.367 116.555 66.4459Z" fill="#0B132B"/>
<path d="M225.646 67.2368C225.646 68.8753 225.646 70.5139 225.646 72.0959C225.646 72.4914 225.531 72.661 225.072 72.661C223.809 72.661 223.923 72.774 223.923 71.5309C223.923 68.4798 223.923 65.4288 223.923 62.4342C223.923 61.8127 223.923 61.8127 223.292 61.8127C222.545 61.8127 221.799 61.8127 221.11 61.8127C220.766 61.8127 220.593 61.6431 220.593 61.3041V61.2476C220.536 60.2871 220.593 60.2871 221.512 60.2871C223.751 60.2871 225.99 60.2871 228.23 60.2871C228.976 60.2871 228.976 60.2871 228.976 61.0781C228.976 61.1911 228.976 61.2476 228.976 61.3606C228.976 61.6996 228.861 61.8127 228.517 61.8127C227.713 61.8127 226.967 61.8127 226.163 61.8127C225.703 61.8127 225.589 61.9822 225.589 62.3777C225.646 64.0162 225.646 65.5983 225.646 67.2368Z" fill="#0B132B"/>
<path d="M142.163 67.1803C142.163 65.5418 142.163 63.9032 142.163 62.3212C142.163 61.9257 142.048 61.8127 141.646 61.8127C140.9 61.8127 140.096 61.8127 139.349 61.8127C139.005 61.8127 138.833 61.6996 138.833 61.3606C138.833 60.1741 138.718 60.3436 139.866 60.2871C142.105 60.2871 144.287 60.2871 146.526 60.2871C147.215 60.2871 147.215 60.2871 147.215 60.9651C147.215 61.0216 147.215 61.0216 147.215 61.0781C147.215 61.8127 147.215 61.8127 146.469 61.8127C145.78 61.8127 145.033 61.8127 144.344 61.8127C143.885 61.8127 143.828 61.9822 143.828 62.3777C143.828 64.1292 143.828 65.8808 143.828 67.6323C143.828 69.1014 143.828 70.6269 143.828 72.0959C143.828 72.6609 143.77 72.7175 143.196 72.7175C142.048 72.7175 142.048 72.7175 142.048 71.6439C142.163 70.1184 142.163 68.6493 142.163 67.1803Z" fill="#0B132B"/>
<path d="M33.8182 67.1804C33.8182 65.5418 33.8182 63.9598 33.8182 62.3212C33.8182 61.8692 33.7034 61.7562 33.2441 61.8127C32.5551 61.8692 31.8087 61.8127 31.0623 61.8127C30.6603 61.8127 30.4881 61.6997 30.4881 61.2477C30.4881 60.2307 30.3733 60.2872 31.4642 60.2872C33.7034 60.2872 35.9426 60.2872 38.2393 60.2872C38.8709 60.2872 38.8709 60.2872 38.8709 60.9087C38.8709 61.0217 38.8709 61.1347 38.8709 61.2477C38.9283 61.6997 38.756 61.8692 38.2967 61.8127C37.5503 61.8127 36.8039 61.8127 36.0575 61.8127C35.5981 61.8127 35.5407 61.9822 35.5407 62.3777C35.5407 64.2988 35.5407 66.1633 35.5407 68.0844C35.5407 69.4404 35.5407 70.7965 35.5407 72.1525C35.5407 72.548 35.4259 72.7175 34.9666 72.7175C33.646 72.7175 33.8182 72.774 33.8182 71.5875C33.8182 70.1185 33.8182 68.6494 33.8182 67.1804Z" fill="#0B132B"/>
<path d="M55.177 66.4459C55.177 64.5813 55.177 62.7168 55.177 60.7957C55.177 60.4002 55.2918 60.2307 55.6937 60.2307C57.0717 60.2307 56.8421 60.1177 56.8995 61.3607C56.8995 64.4118 56.8995 67.4629 56.8995 70.514C56.8995 70.966 57.0143 71.1355 57.5311 71.1355C58.9091 71.079 60.2296 71.1355 61.6076 71.1355C62.067 71.1355 62.2392 71.2485 62.2392 71.7005C62.2392 72.661 62.2392 72.661 61.3205 72.661C59.4832 72.661 57.7033 72.661 55.866 72.661C55.2918 72.661 55.2344 72.6045 55.2344 72.0395C55.177 70.2315 55.177 68.3104 55.177 66.4459Z" fill="#0B132B"/>
</g>
<defs>
<clipPath id="clip0_2_721">
<rect width="240" height="73" fill="white"/>
</clipPath>
</defs>
</svg>
