<svg width="23" height="20" viewBox="0 0 23 20" fill="none" xmlns="http://www.w3.org/2000/svg">
<g clip-path="url(#clip0_37_8358)">
<path d="M22.3185 6.08867L22.2969 5.89365C22.2752 5.80698 22.2752 5.72031 22.2535 5.63363C22.2319 5.56863 22.2319 5.50362 22.2102 5.43862C21.8852 3.79181 21.1051 2.44837 19.9133 1.45162C18.4399 0.238182 16.7281 -0.216856 14.8212 0.108171C13.4345 0.346524 12.2427 1.06158 11.1809 2.29669C9.79416 0.671551 8.12569 -0.0868455 6.11052 -0.000171635C4.83208 0.0648338 3.68365 0.476535 2.6869 1.23493C1.1051 2.44837 0.216697 4.13851 0.0216807 6.28369C-0.129999 7.97383 0.303371 9.62063 1.32179 11.1808C2.2102 12.5675 3.35863 13.6943 4.35538 14.626C5.63381 15.7745 6.93392 16.9012 8.19069 17.9847L8.34237 18.1147C8.62406 18.353 8.88408 18.5914 9.16578 18.8081C9.44746 19.0464 9.70749 19.2848 9.98918 19.5015C10.3575 19.8048 10.7476 19.9782 11.1593 19.9782C11.571 19.9782 11.9827 19.8048 12.351 19.5015C12.6977 19.1981 13.0444 18.9164 13.3695 18.6347C13.7595 18.288 14.1495 17.963 14.5396 17.6163C14.9296 17.2696 15.3413 16.9229 15.7313 16.5979L16.0347 16.3379C17.3131 15.2328 18.6132 14.106 19.74 12.8059C20.8667 11.5275 21.5601 10.379 21.9502 9.12225C22.0802 8.71055 22.1669 8.29885 22.2319 7.90882C22.2319 7.86548 22.2535 7.84382 22.2535 7.80048C22.2535 7.75714 22.2752 7.7138 22.2752 7.67047C22.2752 7.6488 22.2752 7.6488 22.2752 7.62713V6.21868C22.3185 6.17534 22.3185 6.13201 22.3185 6.08867ZM6.43555 2.21001C7.4323 2.21001 8.2557 2.51337 8.97076 3.14176C9.40413 3.51012 9.77249 3.96516 10.1192 4.52854C10.4009 4.94024 10.7476 5.15692 11.1376 5.17859C11.5926 5.20026 11.9827 5.00525 12.2644 4.61521L12.3077 4.57188C12.5244 4.24685 12.7411 3.92182 13.0011 3.64013C13.8245 2.70839 14.7996 2.25335 15.883 2.25335C15.9047 2.25335 15.9047 2.25335 15.9263 2.25335C17.4865 2.25335 18.6999 2.96841 19.5233 4.33352C19.9133 5.00525 20.13 5.76364 20.195 6.63038C20.26 8.01716 19.8267 9.31727 18.8299 10.639C17.8548 11.9175 16.6414 13.0009 15.493 13.9977C15.0813 14.366 14.6696 14.7127 14.2579 15.0811C13.8678 15.4061 13.4995 15.7311 13.1094 16.0778C12.4811 16.6195 11.831 17.1829 11.2026 17.7246C10.9209 17.4863 10.6609 17.2479 10.3792 17.0096C10.0975 16.7712 9.8375 16.5329 9.57748 16.3162L8.88409 15.7095C8.01735 14.9511 7.10727 14.171 6.21886 13.3909C5.24378 12.5242 4.13869 11.4625 3.27195 10.184C2.55689 9.12226 2.2102 8.08217 2.2102 6.99874C2.23186 5.09192 2.92526 3.72681 4.33371 2.81673C4.87542 2.47003 5.5038 2.27502 6.15386 2.25335C6.2622 2.23168 6.37054 2.21001 6.43555 2.21001Z" fill="#3A506B"/>
</g>
<defs>
<clipPath id="clip0_37_8358">
<rect width="22.3185" height="20" fill="white"/>
</clipPath>
</defs>
</svg>
