<svg width="20" height="20" viewBox="0 0 20 20" fill="none" xmlns="http://www.w3.org/2000/svg">
<path d="M19.9417 3.99051C19.7864 3.7575 19.6117 3.641 19.4175 3.62158C19.2233 3.60216 19.0291 3.69925 18.8155 3.89342L17.4563 5.25265C16.4466 6.26236 15.4563 7.27206 14.4466 8.26236C13.9417 8.76721 13.3592 8.88372 12.6602 8.61187C12.3107 8.47595 12.0777 8.5342 11.8252 8.80605L3.76699 17.8934C3.59223 18.0876 3.41747 18.1847 3.18446 18.1847C2.83495 18.2041 2.50485 18.0099 2.36893 17.6798C2.23301 17.3497 2.3301 16.9808 2.60194 16.7284C3.3398 16.0876 4.05825 15.4274 4.79612 14.7866L6.67961 13.1167C6.8932 12.9226 6.95145 12.7284 6.95145 12.6119C6.95145 12.4565 6.8932 12.2818 6.7767 12.1653C6.52427 11.8934 6.13592 11.8934 5.82524 12.1653L4.79612 13.0779C3.76699 13.9905 2.75728 14.8837 1.72815 15.7963C1.28155 16.1847 1.02912 16.7284 1.02912 17.3109C1.00971 17.8934 1.24272 18.4371 1.65048 18.8449C2.05825 19.2526 2.60194 19.4662 3.20388 19.4468C3.78641 19.4274 4.3301 19.175 4.71844 18.7284C5.49514 17.8546 6.27184 16.9808 7.04854 16.107L8.42718 14.5536C8.79612 14.1264 9.18446 13.6992 9.5534 13.2915C9.59223 13.3303 9.63107 13.3886 9.6699 13.4274C9.70874 13.4662 9.72815 13.4857 9.76699 13.5245L11.1068 15.0196C12.1748 16.3012 13.2621 17.5439 14.3689 18.7672C14.7573 19.2138 15.301 19.4662 15.8835 19.4857C15.9029 19.4857 15.9223 19.4857 15.9417 19.4857C16.5049 19.4857 17.0291 19.2721 17.4175 18.8643C17.8252 18.4565 18.0388 17.9128 18.0388 17.3497C18.0194 16.7672 17.7864 16.2235 17.3398 15.8158C17.2233 15.6992 17.0874 15.5827 16.9515 15.4662L15.9223 14.5536C14.5243 13.3109 13.1262 12.0682 11.7282 10.8449C12.0194 10.5342 12.2913 10.2041 12.5437 9.91284C13.6116 10.1847 14.5825 9.91284 15.3786 9.11672L19.5534 4.94197C19.6311 4.8643 19.7087 4.78663 19.7864 4.68954L19.8835 4.57304C19.9417 4.51478 19.9612 4.45653 19.9612 4.37886V4.14585C20 4.0876 19.9806 4.04876 19.9417 3.99051ZM16.2524 18.1459C15.9223 18.2818 15.5728 18.2041 15.3398 17.9517C14.9709 17.5439 14.6019 17.1167 14.233 16.709L12.9709 15.2721C12.1165 14.3012 11.2621 13.3303 10.3883 12.3594C10.5631 12.1653 10.7379 11.9905 10.8932 11.7963C11.9806 12.7672 13.068 13.7381 14.1748 14.709L15.3592 15.7575C15.7282 16.0876 16.1165 16.4177 16.4854 16.7478C16.6602 16.9031 16.7573 17.0973 16.7767 17.2915C16.7573 17.6992 16.5825 18.0099 16.2524 18.1459Z" fill="#3A506B"/>
<path d="M6.58252 9.99051C6.97087 10.4177 7.3398 10.8643 7.70874 11.2721C7.86408 11.4468 8.03883 11.5245 8.21359 11.5245C8.36893 11.5245 8.52427 11.4662 8.67961 11.3303C9.39806 10.6895 10.1359 10.0488 10.8544 9.40798L11.7282 8.63128C11.9612 8.41769 12.0194 8.14585 11.9029 7.85458C11.6116 7.13614 11.7476 6.5342 12.3107 5.97109C13.3592 4.92254 14.4078 3.874 15.4563 2.82546L16.5631 1.69924L16.6214 1.67983C16.6796 1.64099 16.7379 1.56332 16.7767 1.48565C16.932 1.23322 16.9126 0.941963 16.7184 0.72837C16.5243 0.495361 16.1748 0.437108 15.9223 0.611866C15.8447 0.670118 15.767 0.72837 15.7282 0.767205L14.7184 1.7575C13.6116 2.88371 12.4854 4.00992 11.3592 5.13614C10.5825 5.91284 10.3107 6.86429 10.5825 7.95167C10.2718 8.22352 9.90291 8.55361 9.53398 8.88371C9.18446 8.57303 8.87378 8.28177 8.5631 8.00992C9.14563 6.61187 8.97087 5.31089 8.05825 4.14585C7.47573 3.40798 6.71844 2.80604 5.6699 2.22352C4.79611 1.73808 3.90291 1.46623 3.18446 1.44682H3.16505C1.5534 1.44682 0.4466 2.22352 0.116503 3.5439C-0.038837 4.18468 -0.0194196 4.88371 0.194173 5.64099C0.52427 6.88371 1.24272 8.02934 2.33009 9.15555C3.45631 10.3012 5.08738 10.6313 6.58252 9.99051ZM3.08738 2.70895C3.6699 2.74779 4.25242 2.92254 4.83495 3.21381C5.72815 3.66041 6.46602 4.24293 7.04854 4.92255C7.39806 5.34973 7.59223 5.874 7.59223 6.49536C7.59223 6.92254 7.49514 7.33031 7.26213 7.73808C7.02912 8.14585 7.06796 8.41769 7.41747 8.72837L8.5631 9.73808C8.54369 9.7575 8.50485 9.77691 8.48544 9.81575C8.40777 9.874 8.34951 9.93225 8.27184 10.0099C7.96116 9.66041 7.65048 9.29148 7.32039 8.94196L7.28155 8.86429C7.10679 8.67012 6.93204 8.57303 6.75728 8.57303C6.62136 8.57303 6.48543 8.61187 6.33009 8.70895C5.30097 9.27206 4.15534 9.13614 3.3398 8.35944C2.3301 7.40798 1.70874 6.37886 1.39806 5.23322C1.28155 4.78662 1.24272 4.37886 1.32039 4.00992C1.47573 3.11672 2.13592 2.6507 3.08738 2.70895Z" fill="#3A506B"/>
<path d="M16.0194 4.49523C15.4369 5.07775 14.835 5.67969 14.2524 6.26222C14.0971 6.41756 14.0194 6.59232 14.0194 6.76707C14.0194 6.92241 14.0971 7.09717 14.2136 7.21368C14.3301 7.33018 14.4854 7.38843 14.6408 7.38843C14.8155 7.38843 14.9903 7.31076 15.1456 7.17484C15.8641 6.45639 16.5631 5.75736 17.2816 5.03892L18.699 3.62144C18.835 3.48552 18.9126 3.31076 18.9126 3.13601V3.11659C18.8932 2.84474 18.7573 2.65057 18.5243 2.55348C18.3495 2.47581 18.0583 2.43698 17.7864 2.72824C17.2039 3.31076 16.6019 3.89329 16.0194 4.49523Z" fill="#3A506B"/>
<path d="M16.7379 1.81562C15.8447 2.70882 14.9515 3.60203 14.0388 4.51465L13.8058 4.74766C13.6116 4.94183 13.4369 5.11659 13.2427 5.31077C12.9709 5.60203 12.9515 5.97096 13.2233 6.24281C13.3398 6.35931 13.4951 6.43698 13.6699 6.43698C13.8447 6.43698 14 6.35931 14.1553 6.22339L14.9903 5.38844C15.9029 4.47582 16.7961 3.58261 17.7087 2.66999C17.8058 2.5729 17.9417 2.41756 17.9417 2.16514C17.9417 2.14572 17.9417 2.14572 17.9417 2.1263C17.9223 1.89329 17.8058 1.71853 17.6311 1.60203C17.4175 1.46611 17.165 1.48552 16.9709 1.62145C16.8738 1.6797 16.8155 1.73795 16.7379 1.81562Z" fill="#3A506B"/>
</svg>
