<svg width="18" height="20" viewBox="0 0 18 20" fill="none" xmlns="http://www.w3.org/2000/svg">
<g clip-path="url(#clip0_37_8344)">
<path d="M13.9412 16.0783L13.7255 15.8626C12.7059 14.7645 11.6863 13.6665 10.7059 12.6273C11.0784 11.6665 10.6863 10.5881 9.76471 10.1371C9.70588 10.0979 9.70588 10.0979 9.70588 10.0391C9.70588 7.88219 9.70588 5.88219 9.70588 3.92141C9.70588 3.82337 9.70588 3.82337 9.80392 3.78415C10.6863 3.33317 11.098 2.25474 10.7451 1.33317C10.3922 0.391997 9.37255 -0.157023 8.41177 0.0782711C7.60784 0.27435 6.98039 0.980232 6.88235 1.76455C6.78432 2.6469 7.19608 3.43121 7.98039 3.80376C8 3.80376 8 3.82337 8 3.82337V3.84298C8 5.72533 8 7.76455 8 10.0979C7.19608 10.49 6.76471 11.2743 6.88235 12.1763C6.09804 12.6861 5.17647 13.294 4.2549 13.9214C4.19608 13.9606 4.19608 13.9606 4.11765 13.9214C3.39216 13.5293 2.66667 13.5881 2 14.0587C1.33333 14.5489 1.05883 15.2351 1.21569 16.0391C1.41177 17.1175 2.41177 17.8234 3.4902 17.6469C4.56863 17.4704 5.29412 16.5096 5.15686 15.392C5.15686 15.392 5.15686 15.392 5.15686 15.3724C5.58824 15.0783 6.03922 14.7842 6.4902 14.49L7.82353 13.5881C7.82353 13.5881 7.82353 13.5881 7.84314 13.5881C8.33333 13.8822 8.88235 13.941 9.45098 13.7842C10.451 14.843 11.5098 16.0194 12.6863 17.2547C12.4118 17.9606 12.5294 18.6665 13 19.2547C13.3333 19.6665 13.7647 19.843 14.1176 19.9606C14.1373 19.9606 14.1569 19.9606 14.1765 19.9606H14.902C14.9216 19.9606 14.9608 19.9606 14.9804 19.941L15.0196 19.9214C15.0392 19.9214 15.0588 19.9018 15.0784 19.9018C15.0784 19.9018 15.098 19.9018 15.1176 19.8822C16.1961 19.5489 16.7843 18.4312 16.4706 17.3724C16.1373 16.3528 15.0392 15.7645 13.9412 16.0783ZM14.8235 17.941C14.8235 18.0783 14.6863 18.2155 14.5294 18.2155C14.3922 18.2155 14.2549 18.0783 14.2549 17.941C14.2549 17.8822 14.2941 17.8038 14.3529 17.7449C14.4118 17.6861 14.4706 17.6665 14.549 17.6665C14.6275 17.6665 14.6863 17.7057 14.7451 17.7645C14.7843 17.8234 14.8235 17.8822 14.8235 17.941ZM8.86275 2.21553C8.80392 2.21553 8.72549 2.17631 8.66667 2.11749C8.60784 2.05866 8.56863 1.99984 8.56863 1.92141C8.56863 1.78415 8.70588 1.6469 8.84314 1.6469C8.98039 1.6469 9.11765 1.78415 9.11765 1.92141C9.13726 2.07827 9 2.21553 8.86275 2.21553ZM8.68628 11.6469C8.76471 11.5881 8.82353 11.5685 8.86275 11.5685C9 11.5685 9.13726 11.7253 9.13726 11.843C9.13726 11.9802 9 12.1175 8.86275 12.1175C8.72549 12.1175 8.58824 11.9802 8.58824 11.8626C8.58824 11.7842 8.62745 11.7057 8.68628 11.6469ZM3.45098 15.6077C3.45098 15.7449 3.31373 15.8822 3.17647 15.8822C3.03922 15.8822 2.90196 15.7449 2.90196 15.6077C2.90196 15.4704 3.03922 15.3332 3.17647 15.3332C3.2353 15.3332 3.29412 15.3724 3.35294 15.4312C3.41177 15.49 3.45098 15.5685 3.45098 15.6077Z" fill="#3A506B"/>
<path d="M1.13725 6.21546C1.15686 6.68604 1.5098 7.03899 1.98039 7.03899C2.45098 7.03899 2.82353 6.68604 2.84314 6.21546C2.84314 6.11742 2.84314 6.01938 2.84314 5.90173C2.94118 5.90173 3.03922 5.90173 3.13725 5.90173C3.60784 5.88212 3.98039 5.50957 3.98039 5.03899C3.98039 4.5684 3.62745 4.21546 3.15686 4.19585C3.03922 4.19585 2.94118 4.19585 2.86275 4.19585C2.86275 4.09781 2.86275 3.99977 2.86275 3.88212C2.84314 3.41153 2.47059 3.05859 2 3.05859C1.52941 3.05859 1.15686 3.41153 1.13725 3.88212C1.13725 3.98016 1.13725 4.09781 1.13725 4.19585C1.07843 4.19585 1.01961 4.19585 0.980392 4.19585C0.941176 4.19585 0.901961 4.19585 0.862745 4.19585C0.372549 4.21546 0 4.58801 0 5.05859C0 5.54879 0.352941 5.90173 0.862745 5.92134C0.901961 5.92134 0.960784 5.92134 1 5.92134C1.03922 5.92134 1.09804 5.92134 1.13725 5.92134V6.21546Z" fill="#3A506B"/>
<path d="M16.8235 6.82344C16.7255 6.82344 16.6079 6.82344 16.5098 6.82344C16.5098 6.7254 16.5098 6.62737 16.5098 6.54893V6.49011C16.4902 6.01952 16.1177 5.66658 15.6275 5.64697C15.1569 5.64697 14.7647 6.01952 14.7451 6.49011C14.7451 6.60776 14.7451 6.7058 14.7451 6.80384H14.5098C14.0392 6.82344 13.6863 7.17638 13.6863 7.64697C13.6667 8.11756 14.0392 8.49011 14.5098 8.50972H14.5294C14.6275 8.50972 14.7059 8.50972 14.8039 8.50972C14.8039 8.60776 14.8039 8.7058 14.8039 8.78423V8.82344C14.8235 9.27442 15.1961 9.62736 15.6667 9.62736C16.1373 9.62736 16.4902 9.27442 16.5098 8.82344C16.5098 8.7254 16.5098 8.62737 16.5098 8.50972C16.5686 8.50972 16.6275 8.50972 16.6863 8.50972C16.7255 8.50972 16.7647 8.50972 16.8235 8.50972C17.2745 8.49011 17.6275 8.11756 17.6275 7.66658C17.6471 7.2156 17.2941 6.84305 16.8235 6.82344Z" fill="#3A506B"/>
<path d="M7.88234 16.8823C7.64704 16.8823 7.43136 16.9804 7.27449 17.1372C7.11763 17.2941 7.01959 17.5294 7.01959 17.7451C7.01959 18.1961 7.43136 18.6078 7.88234 18.6078C8.35293 18.6078 8.76469 18.1961 8.76469 17.7451C8.76469 17.5294 8.66665 17.2941 8.50979 17.1372C8.33332 16.9804 8.11763 16.8823 7.88234 16.8823Z" fill="#3A506B"/>
<path d="M5.05882 9.31335C5.07843 9.31335 5.07843 9.31335 5.05882 9.31335C5.54902 9.31335 5.90196 8.9408 5.90196 8.4506C5.90196 8.21531 5.80392 7.99962 5.64706 7.84276C5.49019 7.6859 5.2549 7.58786 5.03921 7.60747C4.56862 7.60747 4.19608 7.98002 4.19608 8.47021C4.19608 8.70551 4.29411 8.92119 4.45098 9.07805C4.60784 9.21531 4.84313 9.31335 5.05882 9.31335Z" fill="#3A506B"/>
<path d="M16.549 13.392C16.549 13.1567 16.4706 12.9411 16.3137 12.7842C16.1568 12.6273 15.9412 12.5293 15.7059 12.5293C15.2353 12.5293 14.8627 12.9018 14.8627 13.3724C14.8627 13.6077 14.9412 13.8234 15.098 13.9803C15.2549 14.1567 15.4706 14.2352 15.7059 14.2352C16.1568 14.2352 16.549 13.8626 16.549 13.392Z" fill="#3A506B"/>
</g>
<defs>
<clipPath id="clip0_37_8344">
<rect width="17.6275" height="20" fill="white"/>
</clipPath>
</defs>
</svg>
